%FSLAX24Y24*%
%MOIN*%
G70*
G01*
G75*
G04 Layer_Color=8388736*
%ADD10O,0.0110X0.0866*%
%ADD11R,0.0110X0.0866*%
%ADD12R,0.0866X0.0110*%
%ADD13R,0.0787X0.0394*%
%ADD14R,0.0472X0.0709*%
%ADD15R,0.0591X0.0472*%
%ADD16R,0.0512X0.0433*%
%ADD17R,0.0591X0.0433*%
%ADD18R,0.0472X0.0906*%
%ADD19R,0.1575X0.0866*%
%ADD20R,0.2165X0.1772*%
%ADD21R,0.0236X0.0591*%
%ADD22O,0.0236X0.0591*%
%ADD23R,0.0433X0.0591*%
%ADD24O,0.0236X0.0787*%
%ADD25R,0.0236X0.0787*%
%ADD26R,0.0591X0.0787*%
%ADD27R,0.0787X0.0591*%
%ADD28R,0.0709X0.0472*%
%ADD29O,0.0591X0.0236*%
%ADD30R,0.0591X0.0236*%
%ADD31R,0.1772X0.2165*%
%ADD32R,0.0394X0.0787*%
%ADD33R,0.0787X0.1575*%
%ADD34R,0.0472X0.0591*%
%ADD35R,0.0433X0.0512*%
%ADD36R,0.0787X0.0236*%
%ADD37O,0.0787X0.0236*%
%ADD38R,0.0315X0.0335*%
%ADD39C,0.0157*%
%ADD40C,0.0098*%
%ADD41C,0.0394*%
%ADD42C,0.0079*%
%ADD43C,0.0197*%
%ADD44C,0.0236*%
%ADD45C,0.0118*%
%ADD46C,0.0138*%
%ADD47C,0.0100*%
%ADD48R,0.1339X0.1063*%
%ADD49R,0.3071X0.1772*%
%ADD50R,0.1299X0.1535*%
%ADD51R,0.1575X0.1417*%
%ADD52R,0.0193X0.0151*%
%ADD53R,0.1116X0.0604*%
%ADD54R,0.1063X0.0906*%
%ADD55R,0.0512X0.0157*%
%ADD56C,0.1181*%
%ADD57C,0.0600*%
%ADD58C,0.0709*%
%ADD59C,0.0787*%
%ADD60R,0.0787X0.0787*%
%ADD61R,0.1181X0.0669*%
%ADD62O,0.1181X0.0669*%
%ADD63C,0.0591*%
%ADD64R,0.0591X0.0591*%
%ADD65R,0.0984X0.0984*%
%ADD66C,0.0984*%
%ADD67R,0.0472X0.0984*%
%ADD68O,0.0472X0.0984*%
%ADD69C,0.0669*%
%ADD70R,0.0669X0.0669*%
%ADD71R,0.0591X0.0591*%
%ADD72R,0.0787X0.0787*%
%ADD73C,0.0500*%
%ADD74C,0.0787*%
%ADD75R,0.4213X0.3504*%
%ADD76R,0.7165X0.3189*%
%ADD77R,0.1732X0.1811*%
%ADD78R,0.2795X0.6811*%
%ADD79C,0.0039*%
%ADD80C,0.0102*%
%ADD81C,0.0080*%
%ADD82R,5.3228X0.0551*%
%ADD83C,0.1181*%
%ADD84C,0.1969*%
%ADD85R,0.1339X0.1732*%
%ADD86R,0.0236X0.0433*%
%ADD87R,0.0827X0.1496*%
%ADD88R,0.3307X0.0394*%
%ADD89R,0.1299X0.2598*%
%ADD90R,0.4882X0.2677*%
%ADD91R,0.2874X0.3031*%
%ADD92R,0.1575X0.4409*%
%ADD93R,0.1969X1.7874*%
%ADD94R,0.1732X0.1417*%
%ADD95R,0.4173X0.3465*%
%ADD96R,4.3543X0.1496*%
%ADD97R,0.3425X0.1575*%
%ADD98R,0.4882X0.2480*%
%ADD99R,0.2362X0.7953*%
%ADD100R,0.2598X0.7520*%
%ADD101R,0.4134X0.3819*%
%ADD102R,0.2795X0.0394*%
%ADD103R,0.8622X0.5197*%
%ADD104R,1.0433X0.5197*%
%ADD105R,0.3504X0.6024*%
%ADD106O,0.0190X0.0946*%
%ADD107R,0.0190X0.0946*%
%ADD108R,0.0946X0.0190*%
%ADD109R,0.0867X0.0474*%
%ADD110R,0.0552X0.0789*%
%ADD111R,0.0671X0.0552*%
%ADD112R,0.0592X0.0513*%
%ADD113R,0.0671X0.0513*%
%ADD114R,0.0552X0.0986*%
%ADD115R,0.1655X0.0946*%
%ADD116R,0.2245X0.1852*%
%ADD117R,0.0316X0.0671*%
%ADD118O,0.0316X0.0671*%
%ADD119R,0.0513X0.0671*%
%ADD120O,0.0316X0.0867*%
%ADD121R,0.0316X0.0867*%
%ADD122R,0.0671X0.0867*%
%ADD123R,0.0867X0.0671*%
%ADD124R,0.0789X0.0552*%
%ADD125O,0.0671X0.0316*%
%ADD126R,0.0671X0.0316*%
%ADD127R,0.1852X0.2245*%
%ADD128R,0.0474X0.0867*%
%ADD129R,0.0867X0.1655*%
%ADD130R,0.0552X0.0671*%
%ADD131R,0.0513X0.0592*%
%ADD132R,0.0867X0.0316*%
%ADD133O,0.0867X0.0316*%
%ADD134R,0.0395X0.0415*%
%ADD135C,0.1261*%
%ADD136C,0.0680*%
%ADD137C,0.0789*%
%ADD138C,0.0867*%
%ADD139R,0.0867X0.0867*%
%ADD140R,0.1261X0.0749*%
%ADD141O,0.1261X0.0749*%
%ADD142C,0.0671*%
%ADD143R,0.0671X0.0671*%
%ADD144R,0.1064X0.1064*%
%ADD145C,0.1064*%
%ADD146R,0.0552X0.1064*%
%ADD147O,0.0552X0.1064*%
%ADD148C,0.0749*%
%ADD149R,0.0749X0.0749*%
%ADD150R,0.0671X0.0671*%
%ADD151R,0.0867X0.0867*%
%ADD152C,0.0580*%
G36*
X31024Y39488D02*
Y39291D01*
X29646D01*
X29252Y39685D01*
Y40079D01*
X30433D01*
X31024Y39488D01*
D02*
G37*
G36*
X27244Y39685D02*
X27165Y39606D01*
X24843D01*
X24803Y39646D01*
Y40787D01*
X25000Y40984D01*
X26772D01*
X26929Y41142D01*
X27244D01*
Y39685D01*
D02*
G37*
D54*
X33012Y28209D02*
D03*
D83*
X48465Y42087D02*
X48661Y41890D01*
X51299D01*
X52047Y41142D01*
Y36142D02*
Y41142D01*
X51339Y35433D02*
X52047Y36142D01*
X49606Y35433D02*
X51339D01*
X48346Y36693D02*
X49606Y35433D01*
X48346Y36693D02*
Y43386D01*
X47480Y44252D02*
X48346Y43386D01*
X44685Y44252D02*
X47480D01*
X44646Y44291D02*
X44685Y44252D01*
X12795Y44291D02*
X44646D01*
X12480Y43976D02*
X12795Y44291D01*
X11575Y43976D02*
X12480D01*
D84*
X8189Y43780D02*
X11181D01*
X6850Y42441D02*
X8189Y43780D01*
X6850Y38346D02*
Y42441D01*
X6102Y37598D02*
X6850Y38346D01*
X5394Y37598D02*
X6102D01*
X1457Y5906D02*
Y40669D01*
D85*
X30354Y38425D02*
D03*
D86*
X27835Y40217D02*
D03*
D87*
X27343Y40394D02*
D03*
D88*
X28701Y39882D02*
D03*
D89*
X6516Y43701D02*
D03*
D90*
X50197Y35591D02*
D03*
D91*
X1909Y5177D02*
D03*
D92*
X3071Y24961D02*
D03*
D93*
X2362Y14134D02*
D03*
D94*
X49646Y42992D02*
D03*
D95*
X45787Y41811D02*
D03*
D96*
X28740Y44252D02*
D03*
D97*
X12854Y38268D02*
D03*
D98*
X5906Y37618D02*
D03*
D99*
X1693Y38150D02*
D03*
D100*
X3504Y30768D02*
D03*
D101*
X9902Y41870D02*
D03*
D102*
X11988Y44567D02*
D03*
D103*
X18720Y40394D02*
D03*
D104*
X36909Y40354D02*
D03*
D105*
X50138Y38878D02*
D03*
D106*
X31555Y18169D02*
D03*
D107*
X31752D02*
D03*
X31949D02*
D03*
X32146D02*
D03*
X32343D02*
D03*
X32539D02*
D03*
X32736D02*
D03*
X32933D02*
D03*
X33130D02*
D03*
X33327D02*
D03*
X33524D02*
D03*
X33720D02*
D03*
X33917D02*
D03*
X34114D02*
D03*
X34311D02*
D03*
X34508D02*
D03*
Y23091D02*
D03*
X34311D02*
D03*
X34114D02*
D03*
X33917D02*
D03*
X33720D02*
D03*
X33524D02*
D03*
X33327D02*
D03*
X33130D02*
D03*
X32933D02*
D03*
X32736D02*
D03*
X32539D02*
D03*
X32343D02*
D03*
X32146D02*
D03*
X31949D02*
D03*
X31752D02*
D03*
X31555D02*
D03*
D108*
X35492Y19154D02*
D03*
Y19350D02*
D03*
Y19547D02*
D03*
Y19744D02*
D03*
Y19941D02*
D03*
Y20138D02*
D03*
Y20335D02*
D03*
Y20531D02*
D03*
Y20728D02*
D03*
Y20925D02*
D03*
Y21122D02*
D03*
Y21319D02*
D03*
Y21516D02*
D03*
Y21713D02*
D03*
Y21909D02*
D03*
Y22106D02*
D03*
X30571D02*
D03*
Y21909D02*
D03*
Y21713D02*
D03*
Y21516D02*
D03*
Y21319D02*
D03*
Y21122D02*
D03*
Y20925D02*
D03*
Y20728D02*
D03*
Y20531D02*
D03*
Y20335D02*
D03*
Y20138D02*
D03*
Y19941D02*
D03*
Y19744D02*
D03*
Y19547D02*
D03*
Y19350D02*
D03*
Y19154D02*
D03*
D109*
X21575Y21101D02*
D03*
Y22589D02*
D03*
X20394Y21101D02*
D03*
Y22589D02*
D03*
X18268Y11733D02*
D03*
Y10245D02*
D03*
X30157Y10867D02*
D03*
Y9379D02*
D03*
D110*
X15591Y15787D02*
D03*
X20590Y11732D02*
D03*
X19252D02*
D03*
X16929Y14567D02*
D03*
X15591D02*
D03*
X8977Y37362D02*
D03*
X10315D02*
D03*
X8977Y36260D02*
D03*
X10315D02*
D03*
X16772Y35157D02*
D03*
X18110D02*
D03*
X20079Y35236D02*
D03*
X21417D02*
D03*
X18110Y34016D02*
D03*
X16772D02*
D03*
X20079Y34055D02*
D03*
X21417D02*
D03*
X34803Y33858D02*
D03*
X33465D02*
D03*
X36418Y35039D02*
D03*
X37756D02*
D03*
X33465D02*
D03*
X34803D02*
D03*
X37756Y33858D02*
D03*
X36418D02*
D03*
X44843Y37402D02*
D03*
X46181D02*
D03*
Y36220D02*
D03*
X44843D02*
D03*
X12638Y35433D02*
D03*
X13976D02*
D03*
X42008Y35512D02*
D03*
X43346D02*
D03*
X29212Y31890D02*
D03*
X27874D02*
D03*
X29212Y30551D02*
D03*
X27874D02*
D03*
X26220Y30591D02*
D03*
X24882D02*
D03*
X23897D02*
D03*
X22559D02*
D03*
X50078Y27598D02*
D03*
X48740D02*
D03*
X50315Y30118D02*
D03*
X48977D02*
D03*
X15670Y11654D02*
D03*
X17008D02*
D03*
X15670Y10472D02*
D03*
X17008D02*
D03*
X16929Y15787D02*
D03*
X15591Y17008D02*
D03*
X16929D02*
D03*
X17834Y19488D02*
D03*
X16496D02*
D03*
X17834Y18268D02*
D03*
X16496D02*
D03*
X20315Y20157D02*
D03*
X21653D02*
D03*
D111*
X18096Y12999D02*
D03*
X16206Y13117D02*
D03*
D112*
X17178Y12532D02*
D03*
X17168Y13506D02*
D03*
X15289Y12650D02*
D03*
X15279Y13624D02*
D03*
D113*
X14921Y25237D02*
D03*
Y24291D02*
D03*
X13661Y18149D02*
D03*
Y19095D02*
D03*
X12126Y7125D02*
D03*
Y8072D02*
D03*
X35197Y7284D02*
D03*
Y6338D02*
D03*
X28071Y19606D02*
D03*
Y20552D02*
D03*
D114*
X9488Y18644D02*
D03*
X10394D02*
D03*
X11299D02*
D03*
D115*
X10390Y21120D02*
D03*
D116*
X34075Y38764D02*
D03*
X17487Y38725D02*
D03*
X20715D02*
D03*
X37067Y38764D02*
D03*
X9626Y40890D02*
D03*
X45571Y40929D02*
D03*
X16319Y7456D02*
D03*
D117*
X34805Y36984D02*
D03*
X18217Y36945D02*
D03*
X21445D02*
D03*
X37797Y36984D02*
D03*
X10356Y39110D02*
D03*
X46301Y39149D02*
D03*
X15589Y9236D02*
D03*
D118*
X34305Y36984D02*
D03*
X33805D02*
D03*
X33305D02*
D03*
X17717Y36945D02*
D03*
X17217D02*
D03*
X16717D02*
D03*
X20945D02*
D03*
X20445D02*
D03*
X19945D02*
D03*
X37297Y36984D02*
D03*
X36797D02*
D03*
X36297D02*
D03*
X9856Y39110D02*
D03*
X9356D02*
D03*
X8856D02*
D03*
X45801Y39149D02*
D03*
X45301D02*
D03*
X44801D02*
D03*
X17089Y9236D02*
D03*
X16589D02*
D03*
X16089D02*
D03*
D119*
X37204Y8740D02*
D03*
X38150D02*
D03*
X28859Y36732D02*
D03*
X27913D02*
D03*
X32873Y12520D02*
D03*
X33820D02*
D03*
X21300Y18937D02*
D03*
X20354D02*
D03*
X40196Y20866D02*
D03*
X41142D02*
D03*
X40196Y19803D02*
D03*
X41142D02*
D03*
X33503Y16024D02*
D03*
X34449D02*
D03*
X33582Y28228D02*
D03*
X34528D02*
D03*
X32481D02*
D03*
X31535D02*
D03*
D120*
X39526Y9210D02*
D03*
X40026D02*
D03*
X40526D02*
D03*
X41026D02*
D03*
X39526Y11263D02*
D03*
X40026D02*
D03*
X40526D02*
D03*
X13215Y32044D02*
D03*
X13715D02*
D03*
X14215D02*
D03*
X12715Y34097D02*
D03*
X13215D02*
D03*
X13715D02*
D03*
X14215D02*
D03*
X42545Y32044D02*
D03*
X43045D02*
D03*
X43545D02*
D03*
X42045Y34097D02*
D03*
X42545D02*
D03*
X43045D02*
D03*
X43545D02*
D03*
X28872Y35357D02*
D03*
X28372D02*
D03*
X27872D02*
D03*
X29372Y33304D02*
D03*
X28872D02*
D03*
X28372D02*
D03*
X27872D02*
D03*
X33636Y11263D02*
D03*
X33136D02*
D03*
X32636D02*
D03*
X34136Y9210D02*
D03*
X33636D02*
D03*
X33136D02*
D03*
X32636D02*
D03*
X16797Y20824D02*
D03*
X17297D02*
D03*
X17797D02*
D03*
X16297Y22877D02*
D03*
X16797D02*
D03*
X17297D02*
D03*
X17797D02*
D03*
D121*
X41026Y11263D02*
D03*
X12715Y32044D02*
D03*
X42045D02*
D03*
X29372Y35357D02*
D03*
X34136Y11263D02*
D03*
X16297Y20824D02*
D03*
D122*
X5812Y6969D02*
D03*
X3716D02*
D03*
D123*
X7008Y6708D02*
D03*
Y8804D02*
D03*
X8425D02*
D03*
Y6708D02*
D03*
X11457Y34158D02*
D03*
Y32062D02*
D03*
X40748Y34079D02*
D03*
Y31983D02*
D03*
D124*
X9803Y7087D02*
D03*
Y8425D02*
D03*
X10984D02*
D03*
Y7087D02*
D03*
X26732Y35552D02*
D03*
Y36889D02*
D03*
X9646Y29882D02*
D03*
Y28544D02*
D03*
X10827Y29882D02*
D03*
Y28544D02*
D03*
X40394Y29921D02*
D03*
Y28583D02*
D03*
X39134Y29921D02*
D03*
Y28583D02*
D03*
X7205Y29921D02*
D03*
Y28583D02*
D03*
X8425D02*
D03*
Y29921D02*
D03*
X26693Y32638D02*
D03*
Y33976D02*
D03*
X30354Y30394D02*
D03*
Y31732D02*
D03*
X51378Y24843D02*
D03*
Y26181D02*
D03*
X10748Y11574D02*
D03*
Y10237D02*
D03*
X12008Y11574D02*
D03*
Y10237D02*
D03*
X13228D02*
D03*
Y11574D02*
D03*
X47835Y32166D02*
D03*
Y33504D02*
D03*
X28780Y7637D02*
D03*
Y6300D02*
D03*
X30000Y7637D02*
D03*
Y6300D02*
D03*
X19055Y7756D02*
D03*
Y6418D02*
D03*
X20315D02*
D03*
Y7756D02*
D03*
X21535Y6418D02*
D03*
Y7756D02*
D03*
X22756Y6418D02*
D03*
Y7756D02*
D03*
X21496Y8859D02*
D03*
Y10197D02*
D03*
X22717D02*
D03*
Y8859D02*
D03*
X27362Y10826D02*
D03*
Y9488D02*
D03*
X28583Y10826D02*
D03*
Y9488D02*
D03*
X34016Y6339D02*
D03*
Y7677D02*
D03*
X32795D02*
D03*
Y6339D02*
D03*
X37047Y6300D02*
D03*
Y7637D02*
D03*
X38425Y6300D02*
D03*
Y7637D02*
D03*
X39724D02*
D03*
Y6300D02*
D03*
X41102Y7637D02*
D03*
Y6300D02*
D03*
X42047Y9725D02*
D03*
Y11063D02*
D03*
X16260Y24292D02*
D03*
Y25630D02*
D03*
X17756Y24292D02*
D03*
Y25630D02*
D03*
X19055Y22559D02*
D03*
Y21221D02*
D03*
X19055Y24292D02*
D03*
Y25630D02*
D03*
X14961Y22637D02*
D03*
Y21300D02*
D03*
X14961Y19488D02*
D03*
Y18150D02*
D03*
X8268Y23504D02*
D03*
Y24842D02*
D03*
X47165Y15394D02*
D03*
Y16732D02*
D03*
X42047Y25708D02*
D03*
Y24370D02*
D03*
X43346D02*
D03*
Y25708D02*
D03*
X40787Y24370D02*
D03*
Y25708D02*
D03*
D125*
X5575Y28620D02*
D03*
Y29120D02*
D03*
Y29620D02*
D03*
Y31652D02*
D03*
Y32152D02*
D03*
Y32652D02*
D03*
D126*
Y30120D02*
D03*
Y33152D02*
D03*
D127*
X3795Y29390D02*
D03*
Y32422D02*
D03*
D128*
X10434Y35079D02*
D03*
X8946D02*
D03*
X16731Y32756D02*
D03*
X18219D02*
D03*
X19999D02*
D03*
X21487D02*
D03*
X33424Y32677D02*
D03*
X34912D02*
D03*
X36298D02*
D03*
X37786D02*
D03*
X44763Y35118D02*
D03*
X46251D02*
D03*
X27283Y11890D02*
D03*
X28770D02*
D03*
D129*
X26260Y38622D02*
D03*
X28462D02*
D03*
D130*
X25584Y32584D02*
D03*
D131*
X26051Y31667D02*
D03*
X25077Y31657D02*
D03*
D132*
X24643Y8270D02*
D03*
D133*
Y7770D02*
D03*
Y7270D02*
D03*
Y6770D02*
D03*
X26696Y8270D02*
D03*
Y7770D02*
D03*
Y7270D02*
D03*
Y6770D02*
D03*
D134*
X47087Y7935D02*
D03*
Y8601D02*
D03*
X50118Y7935D02*
D03*
Y8601D02*
D03*
X51102Y7935D02*
D03*
Y8601D02*
D03*
X46142Y7935D02*
D03*
Y8601D02*
D03*
X52087Y7935D02*
D03*
Y8601D02*
D03*
X48110Y7974D02*
D03*
Y8640D02*
D03*
D135*
X52008Y44055D02*
D03*
X51181Y11811D02*
D03*
X1220Y44055D02*
D03*
X1181Y1181D02*
D03*
X52008Y1181D02*
D03*
D136*
X16850Y9409D02*
D03*
X17362D02*
D03*
X17835D02*
D03*
Y8937D02*
D03*
X17362D02*
D03*
X16850D02*
D03*
X28583Y39055D02*
D03*
X28071D02*
D03*
Y38189D02*
D03*
X28583D02*
D03*
Y38622D02*
D03*
X28071D02*
D03*
X28583Y37756D02*
D03*
X28071D02*
D03*
X44961Y41457D02*
D03*
Y40906D02*
D03*
Y40394D02*
D03*
X45827D02*
D03*
Y40906D02*
D03*
Y41457D02*
D03*
X45394D02*
D03*
Y40906D02*
D03*
Y40394D02*
D03*
X46260Y41457D02*
D03*
Y40906D02*
D03*
Y40394D02*
D03*
X36378Y39331D02*
D03*
Y38780D02*
D03*
Y38268D02*
D03*
X37244D02*
D03*
Y38780D02*
D03*
Y39331D02*
D03*
X36811D02*
D03*
Y38780D02*
D03*
Y38268D02*
D03*
X37677Y39331D02*
D03*
Y38780D02*
D03*
Y38268D02*
D03*
X33465Y39291D02*
D03*
Y38740D02*
D03*
Y38228D02*
D03*
X34331D02*
D03*
Y38740D02*
D03*
Y39291D02*
D03*
X33898D02*
D03*
Y38740D02*
D03*
Y38228D02*
D03*
X34764Y39291D02*
D03*
Y38740D02*
D03*
Y38228D02*
D03*
X20079Y39252D02*
D03*
Y38701D02*
D03*
Y38189D02*
D03*
X20945D02*
D03*
Y38701D02*
D03*
Y39252D02*
D03*
X20512D02*
D03*
Y38701D02*
D03*
Y38189D02*
D03*
X21378Y39252D02*
D03*
Y38701D02*
D03*
Y38189D02*
D03*
X16850Y39252D02*
D03*
Y38701D02*
D03*
Y38189D02*
D03*
X17717D02*
D03*
Y38701D02*
D03*
Y39252D02*
D03*
X17283D02*
D03*
Y38701D02*
D03*
Y38189D02*
D03*
X18150Y39252D02*
D03*
Y38701D02*
D03*
Y38189D02*
D03*
X9016Y41496D02*
D03*
Y40945D02*
D03*
Y40433D02*
D03*
X9882D02*
D03*
Y40945D02*
D03*
Y41496D02*
D03*
X9449D02*
D03*
Y40945D02*
D03*
Y40433D02*
D03*
X10315Y41496D02*
D03*
Y40945D02*
D03*
Y40433D02*
D03*
X4331Y30079D02*
D03*
X3780D02*
D03*
X3268D02*
D03*
Y29213D02*
D03*
X3780D02*
D03*
X4331D02*
D03*
Y29646D02*
D03*
X3780D02*
D03*
X3268D02*
D03*
X4331Y28780D02*
D03*
X3780D02*
D03*
X3268D02*
D03*
X4213Y33071D02*
D03*
X3661D02*
D03*
X3150D02*
D03*
Y32205D02*
D03*
X3661D02*
D03*
X4213D02*
D03*
Y32638D02*
D03*
X3661D02*
D03*
X3150D02*
D03*
X4213Y31772D02*
D03*
X3661D02*
D03*
X3150D02*
D03*
D137*
X22126Y14764D02*
D03*
X21299Y17874D02*
D03*
X39016Y31417D02*
D03*
X2899Y16708D02*
D03*
X12441Y22480D02*
D03*
X9134Y31181D02*
D03*
X11929Y29843D02*
D03*
X25669Y11102D02*
D03*
X22677Y11575D02*
D03*
X51654Y30236D02*
D03*
X38386Y11299D02*
D03*
X43740Y11299D02*
D03*
X41024Y12677D02*
D03*
X30984Y11929D02*
D03*
X35157Y12638D02*
D03*
X19291Y18071D02*
D03*
X47126Y17992D02*
D03*
X22559Y29449D02*
D03*
X28976Y29134D02*
D03*
X25157Y34331D02*
D03*
X13504Y7992D02*
D03*
X51220Y22992D02*
D03*
X24882Y15945D02*
D03*
X45315Y30748D02*
D03*
X9055Y34016D02*
D03*
X47480Y35118D02*
D03*
X23543Y34055D02*
D03*
X34882Y31339D02*
D03*
X12638Y36614D02*
D03*
X6220Y27087D02*
D03*
X42047Y36929D02*
D03*
D138*
X4961Y39488D02*
D03*
X4528Y23819D02*
D03*
X49921Y37874D02*
D03*
X4744Y19646D02*
D03*
X6909D02*
D03*
X34150Y26457D02*
D03*
X32150D02*
D03*
D139*
X4961Y41457D02*
D03*
X49921Y39843D02*
D03*
D140*
X4903Y9245D02*
D03*
Y14678D02*
D03*
D141*
X4893Y10255D02*
D03*
X4903Y11275D02*
D03*
X4893Y15688D02*
D03*
X4903Y16708D02*
D03*
D142*
X3543Y36319D02*
D03*
X9736Y24094D02*
D03*
X10736D02*
D03*
X45815Y15866D02*
D03*
X44815D02*
D03*
X45394Y21516D02*
D03*
Y24469D02*
D03*
Y23484D02*
D03*
Y22500D02*
D03*
Y20531D02*
D03*
X7560Y15039D02*
D03*
X49984Y20181D02*
D03*
X50984D02*
D03*
X49984Y19181D02*
D03*
X50984D02*
D03*
X49984Y18181D02*
D03*
X50984D02*
D03*
X49984Y17181D02*
D03*
X50984D02*
D03*
X49984Y16181D02*
D03*
X46094Y6890D02*
D03*
X47094D02*
D03*
X48094D02*
D03*
X49094D02*
D03*
X50094D02*
D03*
X51094D02*
D03*
X52094D02*
D03*
X45094D02*
D03*
X14094Y29055D02*
D03*
X43464Y29252D02*
D03*
X49449Y25020D02*
D03*
X49636Y32646D02*
D03*
Y33630D02*
D03*
D143*
X3543Y35335D02*
D03*
X45394Y25453D02*
D03*
X44094Y6890D02*
D03*
X49449Y26004D02*
D03*
X49636Y31661D02*
D03*
D144*
X3937Y2244D02*
D03*
X8399D02*
D03*
X24213Y42283D02*
D03*
X28740D02*
D03*
X17323Y2244D02*
D03*
X21785D02*
D03*
X26247D02*
D03*
X12861D02*
D03*
X30709D02*
D03*
X35394Y2205D02*
D03*
D145*
X5906Y2244D02*
D03*
X10367D02*
D03*
X26181Y42283D02*
D03*
X30709D02*
D03*
X19291Y2244D02*
D03*
X23753D02*
D03*
X28215D02*
D03*
X14829D02*
D03*
X32677D02*
D03*
X39331Y2205D02*
D03*
X37362D02*
D03*
D146*
X44965Y3783D02*
D03*
X49335D02*
D03*
D147*
X43965D02*
D03*
X42965D02*
D03*
X41965D02*
D03*
X44965Y783D02*
D03*
X43965D02*
D03*
X42965D02*
D03*
X41965D02*
D03*
X46335D02*
D03*
X47335D02*
D03*
X48335D02*
D03*
X49335D02*
D03*
X46335Y3783D02*
D03*
X47335D02*
D03*
X48335D02*
D03*
D148*
X7559Y11063D02*
D03*
X11575Y14921D02*
D03*
X18937Y15394D02*
D03*
D149*
X8740Y11063D02*
D03*
X12756Y14921D02*
D03*
X20118Y15394D02*
D03*
D150*
X8740Y15039D02*
D03*
X50984Y16181D02*
D03*
X12914Y29055D02*
D03*
X42284Y29252D02*
D03*
D151*
X2559Y23819D02*
D03*
D152*
X28150Y29646D02*
D03*
X33031Y28228D02*
D03*
X16417Y9764D02*
D03*
X44646Y11063D02*
D03*
X44843Y19528D02*
D03*
X43150D02*
D03*
X41142Y18858D02*
D03*
X48228Y22205D02*
D03*
X46496D02*
D03*
X26732Y11890D02*
D03*
X23937D02*
D03*
X16299Y30276D02*
D03*
X14882Y30197D02*
D03*
X14685Y28346D02*
D03*
X19646Y27756D02*
D03*
X23701Y27362D02*
D03*
X25945Y18583D02*
D03*
X12520Y17323D02*
D03*
X10000Y16102D02*
D03*
X12323Y13504D02*
D03*
X21142Y5512D02*
D03*
X16535Y29016D02*
D03*
X32047Y30079D02*
D03*
X14370Y12559D02*
D03*
X16220Y12520D02*
D03*
X11732Y27717D02*
D03*
X12953Y26260D02*
D03*
X35079Y25787D02*
D03*
X30197Y24055D02*
D03*
X38346Y26417D02*
D03*
X37441Y26575D02*
D03*
X36614Y27795D02*
D03*
X35551Y27087D02*
D03*
X30669Y27047D02*
D03*
X49370Y14409D02*
D03*
X17598Y15827D02*
D03*
X31772Y14173D02*
D03*
X41614Y20551D02*
D03*
X37205Y21614D02*
D03*
X48780Y16378D02*
D03*
X27480Y26772D02*
D03*
X31811Y36339D02*
D03*
X15551Y28346D02*
D03*
X36102Y24803D02*
D03*
X36654Y26102D02*
D03*
X35512Y26339D02*
D03*
X35492Y22776D02*
D03*
X43071Y22992D02*
D03*
X43307Y16693D02*
D03*
X43032Y16063D02*
D03*
X42126Y15748D02*
D03*
X36535Y13032D02*
D03*
X39094Y14094D02*
D03*
X35866Y14016D02*
D03*
X25236Y21417D02*
D03*
X26890Y27323D02*
D03*
X43937Y23622D02*
D03*
X24291Y27874D02*
D03*
X24094Y17244D02*
D03*
X25866Y19370D02*
D03*
X25984Y20236D02*
D03*
X14961Y17008D02*
D03*
X25906Y21024D02*
D03*
X26654Y26496D02*
D03*
X26142Y27008D02*
D03*
X29291Y20276D02*
D03*
X23110Y17126D02*
D03*
X43740Y18110D02*
D03*
X30709Y14409D02*
D03*
X28307Y17559D02*
D03*
X38228Y20394D02*
D03*
X30118Y14882D02*
D03*
X37165Y17677D02*
D03*
X29449Y14409D02*
D03*
X29488Y15354D02*
D03*
X36496Y16811D02*
D03*
X42717Y13780D02*
D03*
X43268Y14370D02*
D03*
X44291D02*
D03*
X43858Y9094D02*
D03*
X37323Y11220D02*
D03*
X45630Y16890D02*
D03*
X42953Y20984D02*
D03*
X39134Y21024D02*
D03*
X36614Y22362D02*
D03*
X33858Y24764D02*
D03*
X34528Y25315D02*
D03*
X32677D02*
D03*
X31811Y25394D02*
D03*
X40591Y18032D02*
D03*
X37638Y18898D02*
D03*
X38268Y19370D02*
D03*
X34961Y16024D02*
D03*
X34213Y19409D02*
D03*
X27874Y21496D02*
D03*
X27323Y22244D02*
D03*
X26693Y23780D02*
D03*
X32244Y21220D02*
D03*
X34449Y21811D02*
D03*
X31969Y22008D02*
D03*
X34094Y20276D02*
D03*
X32717Y20118D02*
D03*
X34882Y9921D02*
D03*
X23583Y4331D02*
D03*
Y5827D02*
D03*
X30354Y8386D02*
D03*
X31693Y9803D02*
D03*
X32165Y10512D02*
D03*
X34882Y10630D02*
D03*
X21772Y11142D02*
D03*
X21457Y12953D02*
D03*
X14803Y11693D02*
D03*
X31102Y10906D02*
D03*
X20236Y10669D02*
D03*
X35197Y5787D02*
D03*
X31142Y8031D02*
D03*
X26260Y10039D02*
D03*
X19488Y9055D02*
D03*
X24567Y6142D02*
D03*
X41417Y23976D02*
D03*
X37992Y29449D02*
D03*
X40906Y27795D02*
D03*
X29213Y38543D02*
D03*
X30315Y33031D02*
D03*
X17638Y11102D02*
D03*
X10748Y9528D02*
D03*
X7559Y24843D02*
D03*
X11339Y17441D02*
D03*
X9409D02*
D03*
X19488Y21220D02*
D03*
X15748Y22126D02*
D03*
X18858Y26220D02*
D03*
X17520Y26181D02*
D03*
X15118Y23346D02*
D03*
X17835Y17598D02*
D03*
X15827Y20472D02*
D03*
X20394Y23110D02*
D03*
X39921Y32165D02*
D03*
X43032Y30591D02*
D03*
X35315Y36890D02*
D03*
X26772Y30512D02*
D03*
X10512Y32047D02*
D03*
X24567Y31654D02*
D03*
X22087Y32756D02*
D03*
X18819D02*
D03*
X21969Y36969D02*
D03*
X18740Y36929D02*
D03*
X12087Y8504D02*
D03*
X7362Y28110D02*
D03*
X7205Y30591D02*
D03*
X11260Y36850D02*
D03*
Y39488D02*
D03*
X5551Y30591D02*
D03*
Y33740D02*
D03*
X29331Y8937D02*
D03*
X41417Y8346D02*
D03*
X39016Y9488D02*
D03*
X42992Y8268D02*
D03*
M02*
