%FSLAX24Y24*%
%MOIN*%
G70*
G01*
G75*
G04 Layer_Physical_Order=1*
G04 Layer_Color=255*
%ADD10O,0.0110X0.0866*%
%ADD11R,0.0110X0.0866*%
%ADD12R,0.0866X0.0110*%
%ADD13R,0.0787X0.0394*%
%ADD14R,0.0472X0.0709*%
%ADD15R,0.0591X0.0472*%
%ADD16R,0.0512X0.0433*%
%ADD17R,0.0591X0.0433*%
%ADD18R,0.0472X0.0906*%
%ADD19R,0.1575X0.0866*%
%ADD20R,0.2165X0.1772*%
%ADD21R,0.0236X0.0591*%
%ADD22O,0.0236X0.0591*%
%ADD23R,0.0433X0.0591*%
%ADD24O,0.0236X0.0787*%
%ADD25R,0.0236X0.0787*%
%ADD26R,0.0591X0.0787*%
%ADD27R,0.0787X0.0591*%
%ADD28R,0.0709X0.0472*%
%ADD29O,0.0591X0.0236*%
%ADD30R,0.0591X0.0236*%
%ADD31R,0.1772X0.2165*%
%ADD32R,0.0394X0.0787*%
%ADD33R,0.0787X0.1575*%
%ADD34R,0.0472X0.0591*%
%ADD35R,0.0433X0.0512*%
%ADD36R,0.0787X0.0236*%
%ADD37O,0.0787X0.0236*%
%ADD38R,0.0315X0.0335*%
%ADD39C,0.0157*%
%ADD40C,0.0098*%
%ADD41C,0.0394*%
%ADD42C,0.0079*%
%ADD43C,0.0197*%
%ADD44C,0.0236*%
%ADD45C,0.0118*%
%ADD46C,0.0138*%
%ADD47C,0.0100*%
%ADD48R,0.1339X0.1063*%
%ADD49R,0.3071X0.1772*%
%ADD50R,0.1299X0.1535*%
%ADD51R,0.1575X0.1417*%
%ADD52R,0.0193X0.0151*%
%ADD53R,0.1116X0.0604*%
%ADD54R,0.1063X0.0906*%
%ADD55R,0.0512X0.0157*%
%ADD56C,0.1181*%
%ADD57C,0.0600*%
%ADD58C,0.0709*%
%ADD59C,0.0787*%
%ADD60R,0.0787X0.0787*%
%ADD61R,0.1181X0.0669*%
%ADD62O,0.1181X0.0669*%
%ADD63C,0.0591*%
%ADD64R,0.0591X0.0591*%
%ADD65R,0.0984X0.0984*%
%ADD66C,0.0984*%
%ADD67R,0.0472X0.0984*%
%ADD68O,0.0472X0.0984*%
%ADD69C,0.0669*%
%ADD70R,0.0669X0.0669*%
%ADD71R,0.0591X0.0591*%
%ADD72R,0.0787X0.0787*%
%ADD73C,0.0500*%
G36*
X8228Y35394D02*
X8307Y35315D01*
Y31142D01*
Y30354D01*
X7874D01*
Y30199D01*
X7756D01*
Y30354D01*
X7635D01*
X7608Y30396D01*
X7640Y30474D01*
X7655Y30591D01*
X7640Y30707D01*
X7595Y30816D01*
X7523Y30909D01*
X7430Y30981D01*
X7321Y31026D01*
X7205Y31041D01*
X7088Y31026D01*
X6979Y30981D01*
X6886Y30909D01*
X6814Y30816D01*
X6769Y30707D01*
X6754Y30591D01*
X6769Y30474D01*
X6802Y30396D01*
X6774Y30354D01*
X6654D01*
Y29804D01*
X6626Y29762D01*
X6610Y29685D01*
Y28780D01*
X6626Y28703D01*
X6654Y28661D01*
Y28150D01*
X6879D01*
X6912Y28112D01*
X6912Y28110D01*
X6927Y27994D01*
X6958Y27919D01*
X6930Y27878D01*
X6890D01*
X6813Y27863D01*
X6748Y27819D01*
X6669Y27740D01*
X6669Y27740D01*
X6590Y27662D01*
X6547Y27596D01*
X6545Y27585D01*
X6498Y27568D01*
X6364Y27624D01*
X6270Y27636D01*
Y27087D01*
X6221D01*
Y27037D01*
X5671D01*
X5665Y27087D01*
Y27087D01*
X5236D01*
X5201Y27051D01*
X5193D01*
X5000Y27244D01*
Y27441D01*
Y33819D01*
X4964Y33854D01*
Y35057D01*
X4949Y35133D01*
X4906Y35199D01*
X4841Y35242D01*
X4764Y35257D01*
X4035D01*
Y35285D01*
X3543D01*
Y35385D01*
X4035D01*
Y35512D01*
X8110D01*
X8228Y35394D01*
D02*
G37*
G36*
X27717Y43071D02*
Y40984D01*
X27756Y40906D01*
Y40433D01*
X27953Y40079D01*
X30394D01*
X31024Y39488D01*
Y37559D01*
X31533D01*
Y36689D01*
X31492Y36657D01*
X31421Y36564D01*
X31376Y36455D01*
X31360Y36339D01*
X31376Y36222D01*
X31421Y36113D01*
X31492Y36020D01*
X31586Y35948D01*
X31694Y35903D01*
X31811Y35888D01*
X31928Y35903D01*
X32036Y35948D01*
X32130Y36020D01*
X32201Y36113D01*
X32246Y36222D01*
X32262Y36339D01*
X32246Y36455D01*
X32201Y36564D01*
X32130Y36657D01*
X32089Y36689D01*
Y37559D01*
X41220D01*
X41339Y37441D01*
X41496Y37283D01*
Y36965D01*
X41491Y36929D01*
X41496Y36893D01*
Y35512D01*
Y34685D01*
X41417Y34606D01*
X41370Y34559D01*
X41339Y34572D01*
Y34572D01*
X41339Y34572D01*
X40157D01*
Y34488D01*
X38622D01*
X38504Y34606D01*
X38189Y34922D01*
Y35591D01*
X38075D01*
Y36492D01*
X38112D01*
Y37476D01*
X37482D01*
Y37470D01*
X37441Y37443D01*
X37379Y37468D01*
X37347Y37472D01*
Y36984D01*
Y36496D01*
X37379Y36500D01*
X37441Y36525D01*
X37482Y36498D01*
Y36492D01*
X37519D01*
Y35591D01*
X37323D01*
Y35079D01*
X36851D01*
Y34989D01*
X35985D01*
Y35079D01*
X35236D01*
Y35591D01*
X34370D01*
Y35079D01*
X33898D01*
Y34989D01*
X33032D01*
Y35079D01*
X29961D01*
X29803Y35236D01*
X29687Y35352D01*
Y35866D01*
X29687Y35869D01*
Y35948D01*
X29685D01*
Y37244D01*
Y39291D01*
X29331Y39646D01*
X29291Y39685D01*
X27205D01*
Y38504D01*
Y37323D01*
X26782D01*
Y36889D01*
X26732D01*
Y36839D01*
X26181D01*
Y36456D01*
X26181D01*
Y36453D01*
X26146Y36417D01*
X25472D01*
X25039Y35984D01*
X24685Y35630D01*
X21850D01*
Y35787D01*
X20984D01*
Y35630D01*
X20512D01*
Y35787D01*
X20129D01*
Y35236D01*
X20029D01*
Y35787D01*
X19646D01*
Y35630D01*
X18543D01*
Y35709D01*
X17677D01*
Y35630D01*
X17205D01*
Y35709D01*
X16822D01*
Y35157D01*
X16722D01*
Y35709D01*
X16339D01*
Y35552D01*
X16339Y35551D01*
Y34375D01*
X14680D01*
X14567Y34488D01*
X14449Y34606D01*
Y36417D01*
Y36627D01*
X14512Y36669D01*
X14748Y36905D01*
X14748Y36905D01*
X14788Y36945D01*
X14831Y37010D01*
X14846Y37087D01*
Y37595D01*
X16325D01*
X16345Y37598D01*
X18629D01*
X18648Y37595D01*
X19553D01*
X19573Y37598D01*
X21857D01*
X21876Y37595D01*
X24331D01*
X24350Y37598D01*
X24567D01*
X24685Y37717D01*
X24803Y37835D01*
Y38031D01*
X24807Y38047D01*
X24806Y38050D01*
X24807Y38053D01*
Y40791D01*
X24957Y40941D01*
X26339D01*
X26415Y40956D01*
X26457Y40984D01*
D01*
X26732D01*
X26929Y41142D01*
X26969Y42165D01*
Y43071D01*
X27047Y43150D01*
X27677D01*
X27717Y43071D01*
D02*
G37*
G36*
X29331Y39252D02*
Y38109D01*
X29438Y38153D01*
X29439Y38154D01*
X29484Y38132D01*
Y37244D01*
Y37162D01*
X29449Y37126D01*
X29272D01*
Y37224D01*
X28446D01*
Y36634D01*
X28372Y36561D01*
X28326Y36580D01*
Y36682D01*
X27499D01*
Y36339D01*
X27402D01*
X27323Y36417D01*
X27283Y36457D01*
Y36969D01*
X27327Y37026D01*
X27355Y37093D01*
X27365Y37165D01*
Y37207D01*
X27390Y37246D01*
X27405Y37323D01*
Y39488D01*
X29094D01*
X29331Y39252D01*
D02*
G37*
G36*
X50880Y44972D02*
X50837Y44922D01*
X50719Y44730D01*
X50633Y44521D01*
X50580Y44301D01*
X50562Y44075D01*
X50580Y43850D01*
X50633Y43630D01*
X50719Y43421D01*
X50837Y43228D01*
X50984Y43056D01*
X51156Y42909D01*
X51349Y42791D01*
X51558Y42704D01*
X51778Y42651D01*
X52004Y42634D01*
X52229Y42651D01*
X52449Y42704D01*
X52658Y42791D01*
X52851Y42909D01*
X52925Y42972D01*
X52970Y42951D01*
Y34252D01*
X48150D01*
X48032Y34370D01*
X47992Y34409D01*
Y34913D01*
X48017Y34974D01*
X48036Y35118D01*
X48017Y35262D01*
X47992Y35323D01*
Y35748D01*
X47677Y36063D01*
X47165D01*
X46929Y36299D01*
X46850Y36378D01*
Y38071D01*
Y38150D01*
X47126Y38425D01*
Y39882D01*
X46851Y40157D01*
Y40879D01*
X44292D01*
Y40157D01*
X43898D01*
X43661Y40394D01*
X43701Y40433D01*
Y43110D01*
Y43110D01*
X43543Y43268D01*
X43346Y43465D01*
X13189D01*
Y40787D01*
X12756Y40354D01*
X12362Y39961D01*
X10906D01*
Y40840D01*
X8347D01*
Y39961D01*
Y39807D01*
Y36181D01*
X8228Y36063D01*
X4015D01*
X3987Y36105D01*
X4023Y36190D01*
X4033Y36269D01*
X3543D01*
Y36319D01*
X3493D01*
Y36809D01*
X3543Y36815D01*
Y40748D01*
X3583Y40787D01*
X4291Y41496D01*
X4370D01*
Y41507D01*
X5551D01*
Y42047D01*
X5039D01*
Y45017D01*
X50859D01*
X50880Y44972D01*
D02*
G37*
G36*
X18386Y4814D02*
X17042Y3470D01*
X16979Y3388D01*
X16939Y3292D01*
X16926Y3189D01*
Y2933D01*
X16634D01*
Y1555D01*
X18012D01*
Y2933D01*
X17720D01*
Y3025D01*
X18340Y3644D01*
X18386Y3625D01*
Y354D01*
X18290Y258D01*
X14370D01*
Y1671D01*
X14415Y1693D01*
X14445Y1668D01*
X14564Y1604D01*
X14694Y1565D01*
X14779Y1557D01*
Y2244D01*
Y2931D01*
X14694Y2923D01*
X14564Y2884D01*
X14445Y2820D01*
X14415Y2796D01*
X14370Y2817D01*
Y8268D01*
X14449Y8346D01*
X15039D01*
Y7506D01*
X17598D01*
Y8346D01*
X18386D01*
Y4814D01*
D02*
G37*
G36*
X4764Y42047D02*
X4370D01*
Y41846D01*
X4332Y41813D01*
X4331Y41813D01*
X4259Y41804D01*
X4192Y41776D01*
X4134Y41732D01*
X3347Y40945D01*
X3303Y40887D01*
X3275Y40820D01*
X3265Y40748D01*
Y36726D01*
X3192Y36670D01*
X3113Y36567D01*
X3064Y36447D01*
X3047Y36319D01*
X3064Y36190D01*
X3113Y36071D01*
X3192Y35968D01*
X3295Y35889D01*
X3327Y35876D01*
X3317Y35827D01*
X3051D01*
Y34843D01*
X4035D01*
Y35057D01*
X4764D01*
Y33701D01*
X3845D01*
Y32421D01*
Y31142D01*
X4764D01*
Y30670D01*
X3845D01*
Y29390D01*
Y28111D01*
X4764D01*
Y27244D01*
X4724Y27205D01*
X5079Y26850D01*
X5276D01*
X5512Y26614D01*
X5931D01*
X5943Y26605D01*
X6077Y26550D01*
X6220Y26531D01*
X6364Y26550D01*
X6498Y26605D01*
X6614Y26694D01*
X6702Y26809D01*
X6710Y26828D01*
X6732Y26850D01*
Y26882D01*
X6757Y26943D01*
X6776Y27087D01*
X6757Y27231D01*
X6732Y27291D01*
Y27520D01*
X6811Y27598D01*
X6890Y27677D01*
X7240D01*
X7246Y27675D01*
X7362Y27660D01*
X7479Y27675D01*
X7484Y27677D01*
X8228D01*
X8307Y27598D01*
X8622Y27283D01*
Y26811D01*
Y26024D01*
X8425Y25827D01*
X8071Y25472D01*
X3898D01*
Y23071D01*
X4055Y22913D01*
Y20003D01*
X3937D01*
X3855Y19992D01*
X3801Y19969D01*
X3778Y19960D01*
X3750Y19938D01*
X3712Y19910D01*
X3437Y19634D01*
X3386Y19568D01*
X3355Y19492D01*
X3344Y19409D01*
Y17111D01*
X3296Y17095D01*
X3292Y17101D01*
X3177Y17189D01*
X3043Y17245D01*
X2899Y17264D01*
X2755Y17245D01*
X2621Y17189D01*
X2506Y17101D01*
X2417Y16986D01*
X2362Y16851D01*
X2343Y16708D01*
X2362Y16564D01*
X2417Y16430D01*
X2506Y16314D01*
X2621Y16226D01*
X2755Y16171D01*
X2899Y16152D01*
X3043Y16171D01*
X3177Y16226D01*
X3292Y16314D01*
X3296Y16320D01*
X3344Y16304D01*
Y14843D01*
X3355Y14760D01*
X3386Y14684D01*
X3437Y14618D01*
X3602Y14453D01*
X3668Y14402D01*
X3744Y14371D01*
X3826Y14360D01*
X4055D01*
Y11456D01*
X3701Y11102D01*
X3657Y11044D01*
X3629Y10977D01*
X3620Y10906D01*
Y8504D01*
X3629Y8432D01*
X3657Y8365D01*
X3701Y8307D01*
X4055Y7953D01*
Y7559D01*
X3766D01*
Y6968D01*
Y6378D01*
X4208D01*
Y6632D01*
X4254Y6651D01*
X4331Y6575D01*
X4764Y6142D01*
X13465D01*
X13504Y6181D01*
X13819Y5866D01*
Y258D01*
X2321D01*
X2300Y304D01*
X2343Y354D01*
X2461Y547D01*
X2548Y756D01*
X2601Y976D01*
X2618Y1201D01*
X2601Y1427D01*
X2548Y1647D01*
X2461Y1856D01*
X2343Y2048D01*
X2196Y2220D01*
X2024Y2367D01*
X1831Y2485D01*
X1622Y2572D01*
X1402Y2625D01*
X1177Y2643D01*
X951Y2625D01*
X731Y2572D01*
X522Y2485D01*
X330Y2367D01*
X304Y2345D01*
X258Y2366D01*
Y42944D01*
X304Y42965D01*
X369Y42909D01*
X562Y42791D01*
X771Y42704D01*
X991Y42651D01*
X1216Y42634D01*
X1442Y42651D01*
X1662Y42704D01*
X1871Y42791D01*
X2063Y42909D01*
X2235Y43056D01*
X2382Y43228D01*
X2501Y43421D01*
X2587Y43630D01*
X2640Y43850D01*
X2658Y44075D01*
X2640Y44301D01*
X2587Y44521D01*
X2501Y44730D01*
X2382Y44922D01*
X2340Y44972D01*
X2361Y45017D01*
X4764D01*
Y42047D01*
D02*
G37*
G36*
X26431Y42978D02*
X26405Y42935D01*
X26316Y42962D01*
X26231Y42971D01*
Y42283D01*
Y41596D01*
X26316Y41604D01*
X26446Y41644D01*
X26566Y41708D01*
X26671Y41794D01*
X26685Y41812D01*
X26732Y41795D01*
Y41535D01*
X26614Y41417D01*
X26339Y41142D01*
X24606D01*
Y38053D01*
X24567Y38017D01*
X24331Y37795D01*
X21876D01*
Y38675D01*
X19553D01*
Y37795D01*
X18648D01*
Y38675D01*
X16325D01*
Y37795D01*
X14764D01*
X14646Y37906D01*
Y37595D01*
Y37106D01*
X14642Y37088D01*
X14632Y37073D01*
X14606Y37047D01*
X14606Y37047D01*
X14384Y36825D01*
X14363Y36811D01*
X13153D01*
X13119Y36892D01*
X13031Y37007D01*
X12916Y37096D01*
X12782Y37151D01*
X12638Y37170D01*
X12494Y37151D01*
X12360Y37096D01*
X12245Y37007D01*
X12156Y36892D01*
X12123Y36811D01*
X11743D01*
X11710Y36849D01*
X11711Y36850D01*
X11695Y36967D01*
X11650Y37076D01*
X11579Y37169D01*
X11485Y37241D01*
X11376Y37286D01*
X11260Y37301D01*
X11143Y37286D01*
X11034Y37241D01*
X10941Y37169D01*
X10903Y37167D01*
X10748Y37322D01*
Y37913D01*
X9882D01*
Y37322D01*
X9456Y36897D01*
X9410Y36916D01*
Y37312D01*
X8977D01*
Y37362D01*
X8927D01*
Y37913D01*
X8583D01*
Y38694D01*
X8630Y38710D01*
X8632Y38708D01*
X8697Y38658D01*
X8774Y38626D01*
X8806Y38622D01*
Y39110D01*
X8906D01*
Y38622D01*
X8939Y38626D01*
X9015Y38658D01*
X9081Y38708D01*
X9081Y38709D01*
X9131D01*
X9132Y38708D01*
X9197Y38658D01*
X9274Y38626D01*
X9306Y38622D01*
Y39110D01*
X9406D01*
Y38622D01*
X9439Y38626D01*
X9515Y38658D01*
X9581Y38708D01*
X9581Y38709D01*
X9631D01*
X9632Y38708D01*
X9697Y38658D01*
X9774Y38626D01*
X9806Y38622D01*
Y39110D01*
X9906D01*
Y38622D01*
X9939Y38626D01*
X10000Y38651D01*
X10041Y38624D01*
Y38618D01*
X10671D01*
Y38940D01*
X10904Y39172D01*
X10941Y39169D01*
X11034Y39098D01*
X11143Y39053D01*
X11260Y39037D01*
X11376Y39053D01*
X11485Y39098D01*
X11579Y39169D01*
X11650Y39263D01*
X11695Y39372D01*
X11711Y39488D01*
X11695Y39605D01*
X11685Y39629D01*
X11713Y39670D01*
X12913D01*
X13110Y39863D01*
X13346Y40095D01*
Y40669D01*
X13374Y40711D01*
X13390Y40787D01*
Y42881D01*
X13425Y42916D01*
X13543Y43032D01*
X14370D01*
X14488Y42916D01*
Y43032D01*
X26378D01*
X26431Y42978D01*
D02*
G37*
G36*
X15237Y9921D02*
X15311D01*
Y9729D01*
X15274D01*
Y8744D01*
X15904D01*
Y8750D01*
X15945Y8778D01*
X16006Y8752D01*
X16039Y8748D01*
Y9237D01*
X16139D01*
Y8748D01*
X16171Y8752D01*
X16247Y8784D01*
X16313Y8835D01*
X16314Y8835D01*
X16364D01*
X16364Y8835D01*
X16430Y8784D01*
X16506Y8752D01*
X16539Y8748D01*
Y9237D01*
X16639D01*
Y8748D01*
X16671Y8752D01*
X16747Y8784D01*
X16813Y8835D01*
X16814Y8835D01*
X16864D01*
X16864Y8835D01*
X16930Y8784D01*
X17006Y8752D01*
X17039Y8748D01*
Y9236D01*
Y9725D01*
X17006Y9720D01*
X16930Y9689D01*
X16902Y9667D01*
X16859Y9692D01*
X16861Y9714D01*
X16417D01*
Y9814D01*
X16861D01*
X16853Y9880D01*
X16880Y9921D01*
X17441D01*
Y9958D01*
X17677D01*
Y9852D01*
X18377D01*
X18425Y9803D01*
Y9764D01*
Y8622D01*
X18386Y8583D01*
X18350Y8547D01*
X17598D01*
X17579Y8543D01*
X15058D01*
X15039Y8547D01*
X14449D01*
X14429Y8543D01*
X14409D01*
X14331Y8622D01*
X14252Y8701D01*
Y9959D01*
X14528D01*
X14600Y9968D01*
X14667Y9996D01*
X14724Y10040D01*
X14803Y10118D01*
X15237D01*
Y9921D01*
D02*
G37*
G36*
X43081Y42918D02*
X43349Y42672D01*
X43425Y42602D01*
Y41339D01*
Y39803D01*
X46693D01*
X46732Y39764D01*
X46811Y39685D01*
Y39528D01*
Y38394D01*
X46708Y38292D01*
X46692Y38267D01*
X46625Y38200D01*
X46579Y38219D01*
Y38657D01*
X46616D01*
Y39642D01*
X45986D01*
Y39636D01*
X45945Y39608D01*
X45883Y39633D01*
X45851Y39638D01*
Y39149D01*
Y38661D01*
X45883Y38665D01*
X45945Y38691D01*
X45986Y38663D01*
Y38657D01*
X46023D01*
Y37953D01*
X45748D01*
Y37795D01*
X45276D01*
Y37953D01*
X44893D01*
Y37401D01*
X44793D01*
Y37953D01*
X44410D01*
Y37795D01*
X38347D01*
Y38714D01*
X35788D01*
Y37795D01*
X35355D01*
Y38714D01*
X32796D01*
Y37795D01*
X31476D01*
X31400Y37865D01*
X31246Y38006D01*
Y38286D01*
Y39620D01*
X31017Y39830D01*
X30480Y40321D01*
X28259D01*
X28068Y40497D01*
X27953Y40602D01*
Y42953D01*
X28051D01*
Y42333D01*
X29429D01*
Y42953D01*
X30396D01*
X30409Y42904D01*
X30324Y42859D01*
X30219Y42773D01*
X30133Y42668D01*
X30069Y42548D01*
X30030Y42419D01*
X30021Y42333D01*
X31396D01*
X31388Y42419D01*
X31348Y42548D01*
X31284Y42668D01*
X31198Y42773D01*
X31093Y42859D01*
X30974Y42923D01*
X30978Y42953D01*
X43081D01*
Y42918D01*
D02*
G37*
%LPC*%
G36*
X6063Y31602D02*
X5625D01*
Y31334D01*
X5752D01*
X5834Y31345D01*
X5911Y31376D01*
X5977Y31427D01*
X6027Y31493D01*
X6059Y31569D01*
X6063Y31602D01*
D02*
G37*
G36*
X5525D02*
X5087D01*
X5091Y31569D01*
X5123Y31493D01*
X5173Y31427D01*
X5239Y31376D01*
X5316Y31345D01*
X5398Y31334D01*
X5525D01*
Y31602D01*
D02*
G37*
G36*
X3745Y32372D02*
X2712D01*
Y31142D01*
X3745D01*
Y32372D01*
D02*
G37*
G36*
X6063Y28570D02*
X5625D01*
Y28302D01*
X5752D01*
X5834Y28313D01*
X5911Y28345D01*
X5977Y28395D01*
X6027Y28461D01*
X6059Y28538D01*
X6063Y28570D01*
D02*
G37*
G36*
X5525D02*
X5087D01*
X5091Y28538D01*
X5123Y28461D01*
X5173Y28395D01*
X5239Y28345D01*
X5316Y28313D01*
X5398Y28302D01*
X5525D01*
Y28570D01*
D02*
G37*
G36*
X3745Y29340D02*
X2712D01*
Y28111D01*
X3745D01*
Y29340D01*
D02*
G37*
G36*
X6063Y29070D02*
X5087D01*
X5091Y29038D01*
X5123Y28961D01*
X5173Y28895D01*
X5174Y28895D01*
Y28845D01*
X5173Y28845D01*
X5123Y28779D01*
X5091Y28702D01*
X5087Y28670D01*
X6063D01*
X6059Y28702D01*
X6027Y28779D01*
X5977Y28845D01*
X5976Y28845D01*
Y28895D01*
X5977Y28895D01*
X6027Y28961D01*
X6059Y29038D01*
X6063Y29070D01*
D02*
G37*
G36*
X5551Y31041D02*
X5435Y31026D01*
X5326Y30981D01*
X5232Y30909D01*
X5161Y30816D01*
X5116Y30707D01*
X5100Y30591D01*
X5116Y30474D01*
X5090Y30435D01*
X5083D01*
Y29805D01*
X5089D01*
X5116Y29764D01*
X5091Y29702D01*
X5087Y29670D01*
X6063D01*
X6059Y29702D01*
X6027Y29779D01*
X6040Y29805D01*
X6067D01*
Y30435D01*
X6012D01*
X5987Y30474D01*
X6002Y30591D01*
X5987Y30707D01*
X5942Y30816D01*
X5870Y30909D01*
X5777Y30981D01*
X5668Y31026D01*
X5551Y31041D01*
D02*
G37*
G36*
X3745Y30670D02*
X2712D01*
Y29440D01*
X3745D01*
Y30670D01*
D02*
G37*
G36*
X6063Y29570D02*
X5087D01*
X5091Y29538D01*
X5123Y29461D01*
X5173Y29395D01*
X5174Y29395D01*
Y29345D01*
X5173Y29345D01*
X5123Y29279D01*
X5091Y29202D01*
X5087Y29170D01*
X6063D01*
X6059Y29202D01*
X6027Y29279D01*
X5977Y29345D01*
X5976Y29345D01*
Y29395D01*
X5977Y29395D01*
X6027Y29461D01*
X6059Y29538D01*
X6063Y29570D01*
D02*
G37*
G36*
X16667Y36895D02*
X16399D01*
Y36767D01*
X16410Y36685D01*
X16441Y36609D01*
X16492Y36543D01*
X16558Y36492D01*
X16634Y36461D01*
X16667Y36456D01*
Y36895D01*
D02*
G37*
G36*
X3593Y36809D02*
Y36369D01*
X4033D01*
X4023Y36447D01*
X3973Y36567D01*
X3894Y36670D01*
X3791Y36749D01*
X3672Y36798D01*
X3593Y36809D01*
D02*
G37*
G36*
X36851Y35591D02*
X36468D01*
Y35089D01*
X36851D01*
Y35591D01*
D02*
G37*
G36*
X36247Y36934D02*
X35980D01*
Y36807D01*
X35990Y36725D01*
X36022Y36648D01*
X36073Y36582D01*
X36138Y36532D01*
X36215Y36500D01*
X36247Y36496D01*
Y36934D01*
D02*
G37*
G36*
X33255D02*
X32987D01*
Y36807D01*
X32998Y36725D01*
X33030Y36648D01*
X33080Y36582D01*
X33146Y36532D01*
X33223Y36500D01*
X33255Y36496D01*
Y36934D01*
D02*
G37*
G36*
X19895Y36895D02*
X19627D01*
Y36767D01*
X19638Y36685D01*
X19670Y36609D01*
X19720Y36543D01*
X19786Y36492D01*
X19863Y36461D01*
X19895Y36456D01*
Y36895D01*
D02*
G37*
G36*
X36368Y35591D02*
X35985D01*
Y35089D01*
X36368D01*
Y35591D01*
D02*
G37*
G36*
X3745Y33701D02*
X2712D01*
Y32472D01*
X3745D01*
Y33701D01*
D02*
G37*
G36*
X6063Y32602D02*
X5087D01*
X5091Y32569D01*
X5123Y32493D01*
X5173Y32427D01*
X5174Y32427D01*
Y32377D01*
X5173Y32376D01*
X5123Y32310D01*
X5091Y32234D01*
X5087Y32202D01*
X6063D01*
X6059Y32234D01*
X6027Y32310D01*
X5977Y32376D01*
X5976Y32377D01*
Y32427D01*
X5977Y32427D01*
X6027Y32493D01*
X6059Y32569D01*
X6063Y32602D01*
D02*
G37*
G36*
Y32102D02*
X5087D01*
X5091Y32069D01*
X5123Y31993D01*
X5173Y31927D01*
X5174Y31927D01*
Y31877D01*
X5173Y31876D01*
X5123Y31810D01*
X5091Y31734D01*
X5087Y31702D01*
X6063D01*
X6059Y31734D01*
X6027Y31810D01*
X5977Y31876D01*
X5976Y31877D01*
Y31927D01*
X5977Y31927D01*
X6027Y31993D01*
X6059Y32069D01*
X6063Y32102D01*
D02*
G37*
G36*
X33898Y35591D02*
X33515D01*
Y35089D01*
X33898D01*
Y35591D01*
D02*
G37*
G36*
X33415D02*
X33032D01*
Y35089D01*
X33415D01*
Y35591D01*
D02*
G37*
G36*
X5551Y34191D02*
X5435Y34176D01*
X5326Y34130D01*
X5232Y34059D01*
X5161Y33966D01*
X5116Y33857D01*
X5100Y33740D01*
X5116Y33624D01*
X5161Y33515D01*
X5163Y33511D01*
X5141Y33467D01*
X5083D01*
Y32837D01*
X5089D01*
X5116Y32795D01*
X5091Y32734D01*
X5087Y32702D01*
X6063D01*
X6059Y32734D01*
X6027Y32810D01*
X6040Y32837D01*
X6067D01*
Y33467D01*
X5961D01*
X5939Y33511D01*
X5942Y33515D01*
X5987Y33624D01*
X6002Y33740D01*
X5987Y33857D01*
X5942Y33966D01*
X5870Y34059D01*
X5777Y34130D01*
X5668Y34176D01*
X5551Y34191D01*
D02*
G37*
G36*
X3887Y2933D02*
X3248D01*
Y2294D01*
X3887D01*
Y2933D01*
D02*
G37*
G36*
X15517Y2194D02*
X14879D01*
Y1557D01*
X14964Y1565D01*
X15094Y1604D01*
X15214Y1668D01*
X15319Y1755D01*
X15405Y1859D01*
X15469Y1979D01*
X15508Y2109D01*
X15517Y2194D01*
D02*
G37*
G36*
X6593D02*
X5956D01*
Y1557D01*
X6041Y1565D01*
X6170Y1604D01*
X6290Y1668D01*
X6395Y1755D01*
X6481Y1859D01*
X6545Y1979D01*
X6585Y2109D01*
X6593Y2194D01*
D02*
G37*
G36*
X5956Y2931D02*
Y2294D01*
X6593D01*
X6585Y2379D01*
X6545Y2509D01*
X6481Y2629D01*
X6395Y2734D01*
X6290Y2820D01*
X6170Y2884D01*
X6041Y2923D01*
X5956Y2931D01*
D02*
G37*
G36*
X5856D02*
X5770Y2923D01*
X5641Y2884D01*
X5521Y2820D01*
X5416Y2734D01*
X5330Y2629D01*
X5266Y2509D01*
X5226Y2379D01*
X5218Y2294D01*
X5856D01*
Y2931D01*
D02*
G37*
G36*
X4626Y2933D02*
X3987D01*
Y2294D01*
X4626D01*
Y2933D01*
D02*
G37*
G36*
X5856Y2194D02*
X5218D01*
X5226Y2109D01*
X5266Y1979D01*
X5330Y1859D01*
X5416Y1755D01*
X5521Y1668D01*
X5641Y1604D01*
X5770Y1565D01*
X5856Y1557D01*
Y2194D01*
D02*
G37*
G36*
X4626D02*
X3987D01*
Y1555D01*
X4626D01*
Y2194D01*
D02*
G37*
G36*
X3887D02*
X3248D01*
Y1555D01*
X3887D01*
Y2194D01*
D02*
G37*
G36*
X10367Y2936D02*
X10232Y2923D01*
X10103Y2884D01*
X9983Y2820D01*
X9878Y2734D01*
X9792Y2629D01*
X9728Y2509D01*
X9688Y2379D01*
X9675Y2244D01*
X9688Y2109D01*
X9728Y1979D01*
X9792Y1859D01*
X9878Y1755D01*
X9983Y1668D01*
X10103Y1604D01*
X10232Y1565D01*
X10367Y1552D01*
X10503Y1565D01*
X10632Y1604D01*
X10752Y1668D01*
X10857Y1755D01*
X10943Y1859D01*
X11007Y1979D01*
X11046Y2109D01*
X11060Y2244D01*
X11046Y2379D01*
X11007Y2509D01*
X10943Y2629D01*
X10857Y2734D01*
X10752Y2820D01*
X10632Y2884D01*
X10503Y2923D01*
X10367Y2936D01*
D02*
G37*
G36*
X13550Y2194D02*
X12911D01*
Y1555D01*
X13550D01*
Y2194D01*
D02*
G37*
G36*
X12811D02*
X12172D01*
Y1555D01*
X12811D01*
Y2194D01*
D02*
G37*
G36*
X9088Y2933D02*
X7710D01*
Y1555D01*
X9088D01*
Y2933D01*
D02*
G37*
G36*
X12811D02*
X12172D01*
Y2294D01*
X12811D01*
Y2933D01*
D02*
G37*
G36*
X3150Y23769D02*
X2609D01*
Y23228D01*
X3150D01*
Y23769D01*
D02*
G37*
G36*
X2509D02*
X1969D01*
Y23228D01*
X2509D01*
Y23769D01*
D02*
G37*
G36*
X17139Y9725D02*
Y9286D01*
X17406D01*
Y9414D01*
X17395Y9496D01*
X17364Y9572D01*
X17313Y9638D01*
X17247Y9689D01*
X17171Y9720D01*
X17139Y9725D01*
D02*
G37*
G36*
X6170Y27636D02*
X6077Y27624D01*
X5943Y27568D01*
X5827Y27480D01*
X5739Y27365D01*
X5683Y27231D01*
X5671Y27137D01*
X6170D01*
Y27636D01*
D02*
G37*
G36*
X3150Y24409D02*
X2609D01*
Y23869D01*
X3150D01*
Y24409D01*
D02*
G37*
G36*
X2509D02*
X1969D01*
Y23869D01*
X2509D01*
Y24409D01*
D02*
G37*
G36*
X17406Y9186D02*
X17139D01*
Y8748D01*
X17171Y8752D01*
X17247Y8784D01*
X17313Y8835D01*
X17364Y8900D01*
X17395Y8977D01*
X17406Y9059D01*
Y9186D01*
D02*
G37*
G36*
X16269Y7406D02*
X15039D01*
Y6374D01*
X16269D01*
Y7406D01*
D02*
G37*
G36*
X14879Y2931D02*
Y2294D01*
X15517D01*
X15508Y2379D01*
X15469Y2509D01*
X15405Y2629D01*
X15319Y2734D01*
X15214Y2820D01*
X15094Y2884D01*
X14964Y2923D01*
X14879Y2931D01*
D02*
G37*
G36*
X13550Y2933D02*
X12911D01*
Y2294D01*
X13550D01*
Y2933D01*
D02*
G37*
G36*
X3666Y7559D02*
X3224D01*
Y7018D01*
X3666D01*
Y7559D01*
D02*
G37*
G36*
Y6919D02*
X3224D01*
Y6378D01*
X3666D01*
Y6919D01*
D02*
G37*
G36*
X17598Y7406D02*
X16369D01*
Y6374D01*
X17598D01*
Y7406D01*
D02*
G37*
G36*
X49871Y40433D02*
X49331D01*
Y39893D01*
X49871D01*
Y40433D01*
D02*
G37*
G36*
X45751Y39638D02*
X45719Y39633D01*
X45642Y39602D01*
X45577Y39551D01*
X45576Y39551D01*
X45526D01*
X45526Y39551D01*
X45460Y39602D01*
X45383Y39633D01*
X45351Y39638D01*
Y39149D01*
Y38661D01*
X45383Y38665D01*
X45460Y38697D01*
X45526Y38748D01*
X45526Y38748D01*
X45576D01*
X45577Y38748D01*
X45642Y38697D01*
X45719Y38665D01*
X45751Y38661D01*
Y39149D01*
Y39638D01*
D02*
G37*
G36*
X45251D02*
X45219Y39633D01*
X45142Y39602D01*
X45077Y39551D01*
X45076Y39551D01*
X45026D01*
X45026Y39551D01*
X44960Y39602D01*
X44883Y39633D01*
X44851Y39638D01*
Y39149D01*
Y38661D01*
X44883Y38665D01*
X44960Y38697D01*
X45026Y38748D01*
X45026Y38748D01*
X45076D01*
X45077Y38748D01*
X45142Y38697D01*
X45219Y38665D01*
X45251Y38661D01*
Y39149D01*
Y39638D01*
D02*
G37*
G36*
X5551Y41407D02*
X5011D01*
Y40866D01*
X5551D01*
Y41407D01*
D02*
G37*
G36*
X4911D02*
X4370D01*
Y40866D01*
X4911D01*
Y41407D01*
D02*
G37*
G36*
X50512Y40433D02*
X49971D01*
Y39893D01*
X50512D01*
Y40433D01*
D02*
G37*
G36*
Y39793D02*
X49971D01*
Y39252D01*
X50512D01*
Y39793D01*
D02*
G37*
G36*
X38347Y39847D02*
X37117D01*
Y38814D01*
X38347D01*
Y39847D01*
D02*
G37*
G36*
X37017D02*
X35788D01*
Y38814D01*
X37017D01*
Y39847D01*
D02*
G37*
G36*
X35355D02*
X34125D01*
Y38814D01*
X35355D01*
Y39847D01*
D02*
G37*
G36*
X49871Y39793D02*
X49331D01*
Y39252D01*
X49871D01*
Y39793D01*
D02*
G37*
G36*
X44751Y39638D02*
X44719Y39633D01*
X44642Y39602D01*
X44577Y39551D01*
X44526Y39485D01*
X44494Y39409D01*
X44483Y39327D01*
Y39199D01*
X44751D01*
Y39638D01*
D02*
G37*
G36*
X4961Y40082D02*
X4845Y40070D01*
X4734Y40036D01*
X4631Y39982D01*
X4541Y39908D01*
X4467Y39818D01*
X4412Y39715D01*
X4379Y39604D01*
X4367Y39488D01*
X4379Y39372D01*
X4412Y39261D01*
X4467Y39159D01*
X4541Y39069D01*
X4631Y38995D01*
X4734Y38940D01*
X4845Y38906D01*
X4961Y38895D01*
X5076Y38906D01*
X5188Y38940D01*
X5290Y38995D01*
X5380Y39069D01*
X5454Y39159D01*
X5509Y39261D01*
X5543Y39372D01*
X5554Y39488D01*
X5543Y39604D01*
X5509Y39715D01*
X5454Y39818D01*
X5380Y39908D01*
X5316Y39961D01*
X5311Y39965D01*
D01*
X5290Y39982D01*
X5188Y40036D01*
X5076Y40070D01*
X4961Y40082D01*
D02*
G37*
G36*
X9576Y41973D02*
X8347D01*
Y40940D01*
X9576D01*
Y41973D01*
D02*
G37*
G36*
X24163Y42233D02*
X23642D01*
Y41713D01*
X24163D01*
Y42233D01*
D02*
G37*
G36*
X31396D02*
X30759D01*
Y41596D01*
X30844Y41604D01*
X30974Y41644D01*
X31093Y41708D01*
X31198Y41794D01*
X31284Y41899D01*
X31348Y42019D01*
X31388Y42148D01*
X31396Y42233D01*
D02*
G37*
G36*
X30659D02*
X30021D01*
X30030Y42148D01*
X30069Y42019D01*
X30133Y41899D01*
X30219Y41794D01*
X30324Y41708D01*
X30444Y41644D01*
X30574Y41604D01*
X30659Y41596D01*
Y42233D01*
D02*
G37*
G36*
X26131Y42971D02*
X26046Y42962D01*
X25916Y42923D01*
X25796Y42859D01*
X25692Y42773D01*
X25605Y42668D01*
X25541Y42548D01*
X25502Y42419D01*
X25494Y42333D01*
X26131D01*
Y42971D01*
D02*
G37*
G36*
X24902Y42972D02*
X24551D01*
X24606Y42921D01*
Y42854D01*
X24263D01*
Y42333D01*
X24902D01*
Y42972D01*
D02*
G37*
G36*
X24163Y42854D02*
X23642D01*
Y42333D01*
X24163D01*
Y42854D01*
D02*
G37*
G36*
X26131Y42233D02*
X25494D01*
X25502Y42148D01*
X25541Y42019D01*
X25605Y41899D01*
X25692Y41794D01*
X25796Y41708D01*
X25916Y41644D01*
X26046Y41604D01*
X26131Y41596D01*
Y42233D01*
D02*
G37*
G36*
X46851Y42012D02*
X45621D01*
Y40979D01*
X46851D01*
Y42012D01*
D02*
G37*
G36*
X45521D02*
X44292D01*
Y40979D01*
X45521D01*
Y42012D01*
D02*
G37*
G36*
X10906Y41973D02*
X9676D01*
Y40940D01*
X10906D01*
Y41973D01*
D02*
G37*
G36*
X29429Y42233D02*
X28790D01*
Y41594D01*
X29429D01*
Y42233D01*
D02*
G37*
G36*
X28690D02*
X28051D01*
Y41594D01*
X28690D01*
Y42233D01*
D02*
G37*
G36*
X24902D02*
X24263D01*
Y41713D01*
X24606D01*
Y41594D01*
X24902D01*
Y42233D01*
D02*
G37*
G36*
X34025Y39847D02*
X32796D01*
Y38814D01*
X34025D01*
Y39847D01*
D02*
G37*
G36*
X20895Y37433D02*
X20863Y37429D01*
X20786Y37397D01*
X20720Y37346D01*
X20720Y37346D01*
X20670D01*
X20670Y37346D01*
X20604Y37397D01*
X20527Y37429D01*
X20495Y37433D01*
Y36945D01*
Y36456D01*
X20527Y36461D01*
X20604Y36492D01*
X20670Y36543D01*
X20670Y36543D01*
X20720D01*
X20720Y36543D01*
X20786Y36492D01*
X20863Y36461D01*
X20895Y36456D01*
Y36945D01*
Y37433D01*
D02*
G37*
G36*
X20395D02*
X20363Y37429D01*
X20286Y37397D01*
X20220Y37346D01*
X20220Y37346D01*
X20170D01*
X20170Y37346D01*
X20104Y37397D01*
X20027Y37429D01*
X19995Y37433D01*
Y36945D01*
Y36456D01*
X20027Y36461D01*
X20104Y36492D01*
X20170Y36543D01*
X20170Y36543D01*
X20220D01*
X20220Y36543D01*
X20286Y36492D01*
X20363Y36461D01*
X20395Y36456D01*
Y36945D01*
Y37433D01*
D02*
G37*
G36*
X17667D02*
X17634Y37429D01*
X17558Y37397D01*
X17492Y37346D01*
X17492Y37346D01*
X17442D01*
X17441Y37346D01*
X17375Y37397D01*
X17299Y37429D01*
X17267Y37433D01*
Y36945D01*
Y36456D01*
X17299Y36461D01*
X17375Y36492D01*
X17441Y36543D01*
X17442Y36543D01*
X17492D01*
X17492Y36543D01*
X17558Y36492D01*
X17634Y36461D01*
X17667Y36456D01*
Y36945D01*
Y37433D01*
D02*
G37*
G36*
X36747Y37472D02*
X36715Y37468D01*
X36638Y37436D01*
X36573Y37386D01*
X36572Y37385D01*
X36522D01*
X36522Y37386D01*
X36456Y37436D01*
X36379Y37468D01*
X36347Y37472D01*
Y36984D01*
Y36496D01*
X36379Y36500D01*
X36456Y36532D01*
X36522Y36582D01*
X36522Y36583D01*
X36572D01*
X36573Y36582D01*
X36638Y36532D01*
X36715Y36500D01*
X36747Y36496D01*
Y36984D01*
Y37472D01*
D02*
G37*
G36*
X34255D02*
X34223Y37468D01*
X34146Y37436D01*
X34080Y37386D01*
X34080Y37385D01*
X34030D01*
X34030Y37386D01*
X33964Y37436D01*
X33887Y37468D01*
X33855Y37472D01*
Y36984D01*
Y36496D01*
X33887Y36500D01*
X33964Y36532D01*
X34030Y36582D01*
X34030Y36583D01*
X34080D01*
X34080Y36582D01*
X34146Y36532D01*
X34223Y36500D01*
X34255Y36496D01*
Y36984D01*
Y37472D01*
D02*
G37*
G36*
X33755D02*
X33723Y37468D01*
X33646Y37436D01*
X33580Y37386D01*
X33580Y37385D01*
X33530D01*
X33530Y37386D01*
X33464Y37436D01*
X33387Y37468D01*
X33355Y37472D01*
Y36984D01*
Y36496D01*
X33387Y36500D01*
X33464Y36532D01*
X33530Y36582D01*
X33530Y36583D01*
X33580D01*
X33580Y36582D01*
X33646Y36532D01*
X33723Y36500D01*
X33755Y36496D01*
Y36984D01*
Y37472D01*
D02*
G37*
G36*
X17167Y37433D02*
X17134Y37429D01*
X17058Y37397D01*
X16992Y37346D01*
X16992Y37346D01*
X16942D01*
X16941Y37346D01*
X16875Y37397D01*
X16799Y37429D01*
X16767Y37433D01*
Y36945D01*
Y36456D01*
X16799Y36461D01*
X16875Y36492D01*
X16941Y36543D01*
X16942Y36543D01*
X16992D01*
X16992Y36543D01*
X17058Y36492D01*
X17134Y36461D01*
X17167Y36456D01*
Y36945D01*
Y37433D01*
D02*
G37*
G36*
X19895D02*
X19863Y37429D01*
X19786Y37397D01*
X19720Y37346D01*
X19670Y37281D01*
X19638Y37204D01*
X19627Y37122D01*
Y36995D01*
X19895D01*
Y37433D01*
D02*
G37*
G36*
X16667D02*
X16634Y37429D01*
X16558Y37397D01*
X16492Y37346D01*
X16441Y37281D01*
X16410Y37204D01*
X16399Y37122D01*
Y36995D01*
X16667D01*
Y37433D01*
D02*
G37*
G36*
X26682Y37323D02*
X26181D01*
Y36939D01*
X26682D01*
Y37323D01*
D02*
G37*
G36*
X49921Y38467D02*
X49805Y38456D01*
X49694Y38422D01*
X49592Y38367D01*
X49502Y38294D01*
X49428Y38204D01*
X49373Y38101D01*
X49339Y37990D01*
X49328Y37874D01*
X49339Y37758D01*
X49373Y37647D01*
X49428Y37544D01*
X49502Y37454D01*
X49592Y37381D01*
X49694Y37326D01*
X49805Y37292D01*
X49921Y37281D01*
X50037Y37292D01*
X50148Y37326D01*
X50251Y37381D01*
X50341Y37454D01*
X50415Y37544D01*
X50469Y37647D01*
X50503Y37758D01*
X50515Y37874D01*
X50503Y37990D01*
X50469Y38101D01*
X50415Y38204D01*
X50341Y38294D01*
X50251Y38367D01*
X50148Y38422D01*
X50037Y38456D01*
X49921Y38467D01*
D02*
G37*
G36*
X36247Y37472D02*
X36215Y37468D01*
X36138Y37436D01*
X36073Y37386D01*
X36022Y37320D01*
X35990Y37243D01*
X35980Y37161D01*
Y37034D01*
X36247D01*
Y37472D01*
D02*
G37*
G36*
X33255D02*
X33223Y37468D01*
X33146Y37436D01*
X33080Y37386D01*
X33030Y37320D01*
X32998Y37243D01*
X32987Y37161D01*
Y37034D01*
X33255D01*
Y37472D01*
D02*
G37*
G36*
X37247D02*
X37215Y37468D01*
X37138Y37436D01*
X37073Y37386D01*
X37072Y37385D01*
X37022D01*
X37022Y37386D01*
X36956Y37436D01*
X36879Y37468D01*
X36847Y37472D01*
Y36984D01*
Y36496D01*
X36879Y36500D01*
X36956Y36532D01*
X37022Y36582D01*
X37022Y36583D01*
X37072D01*
X37073Y36582D01*
X37138Y36532D01*
X37215Y36500D01*
X37247Y36496D01*
Y36984D01*
Y37472D01*
D02*
G37*
G36*
X17437Y39689D02*
X16325D01*
Y38775D01*
X17437D01*
Y39689D01*
D02*
G37*
G36*
X26850Y39606D02*
X26310D01*
Y38672D01*
X26850D01*
Y39606D01*
D02*
G37*
G36*
X26210D02*
X25669D01*
Y38672D01*
X26210D01*
Y39606D01*
D02*
G37*
G36*
X21876Y39689D02*
X20765D01*
Y38775D01*
X21876D01*
Y39689D01*
D02*
G37*
G36*
X20665D02*
X19553D01*
Y38775D01*
X20665D01*
Y39689D01*
D02*
G37*
G36*
X18648D02*
X17537D01*
Y38775D01*
X18648D01*
Y39689D01*
D02*
G37*
G36*
X44751Y39099D02*
X44483D01*
Y38972D01*
X44494Y38890D01*
X44526Y38813D01*
X44577Y38748D01*
X44642Y38697D01*
X44719Y38665D01*
X44751Y38661D01*
Y39099D01*
D02*
G37*
G36*
X9410Y37913D02*
X9027D01*
Y37412D01*
X9410D01*
Y37913D01*
D02*
G37*
G36*
X21760Y37437D02*
X21130D01*
Y37431D01*
X21088Y37403D01*
X21027Y37429D01*
X20995Y37433D01*
Y36945D01*
Y36456D01*
X21027Y36461D01*
X21088Y36486D01*
X21130Y36458D01*
Y36453D01*
X21760D01*
Y36526D01*
X21801Y36554D01*
X21852Y36533D01*
X21969Y36518D01*
X22085Y36533D01*
X22194Y36578D01*
X22287Y36650D01*
X22359Y36743D01*
X22404Y36852D01*
X22419Y36969D01*
X22404Y37085D01*
X22359Y37194D01*
X22287Y37287D01*
X22194Y37359D01*
X22085Y37404D01*
X21969Y37419D01*
X21852Y37404D01*
X21801Y37383D01*
X21760Y37411D01*
Y37437D01*
D02*
G37*
G36*
X18532D02*
X17902D01*
Y37431D01*
X17860Y37403D01*
X17799Y37429D01*
X17767Y37433D01*
Y36945D01*
Y36456D01*
X17799Y36461D01*
X17860Y36486D01*
X17902Y36458D01*
Y36453D01*
X18532D01*
Y36487D01*
X18573Y36515D01*
X18624Y36494D01*
X18740Y36478D01*
X18857Y36494D01*
X18966Y36539D01*
X19059Y36610D01*
X19130Y36704D01*
X19176Y36812D01*
X19191Y36929D01*
X19176Y37046D01*
X19130Y37154D01*
X19059Y37248D01*
X18966Y37319D01*
X18857Y37364D01*
X18740Y37380D01*
X18624Y37364D01*
X18573Y37344D01*
X18532Y37371D01*
Y37437D01*
D02*
G37*
G36*
X26850Y38572D02*
X26310D01*
Y37638D01*
X26850D01*
Y38572D01*
D02*
G37*
G36*
X26210D02*
X25669D01*
Y37638D01*
X26210D01*
Y38572D01*
D02*
G37*
G36*
X35120Y37476D02*
X34490D01*
Y37470D01*
X34449Y37443D01*
X34387Y37468D01*
X34355Y37472D01*
Y36984D01*
Y36496D01*
X34387Y36500D01*
X34449Y36525D01*
X34490Y36498D01*
Y36492D01*
X35108D01*
X35198Y36454D01*
X35315Y36439D01*
X35432Y36454D01*
X35540Y36499D01*
X35634Y36571D01*
X35705Y36664D01*
X35750Y36773D01*
X35766Y36890D01*
X35750Y37006D01*
X35705Y37115D01*
X35634Y37208D01*
X35540Y37280D01*
X35432Y37325D01*
X35315Y37340D01*
X35198Y37325D01*
X35162Y37310D01*
X35120Y37338D01*
Y37476D01*
D02*
G37*
%LPD*%
D10*
X31555Y18169D02*
D03*
D11*
X31752D02*
D03*
X31949D02*
D03*
X32146D02*
D03*
X32343D02*
D03*
X32539D02*
D03*
X32736D02*
D03*
X32933D02*
D03*
X33130D02*
D03*
X33327D02*
D03*
X33524D02*
D03*
X33720D02*
D03*
X33917D02*
D03*
X34114D02*
D03*
X34311D02*
D03*
X34508D02*
D03*
Y23091D02*
D03*
X34311D02*
D03*
X34114D02*
D03*
X33917D02*
D03*
X33720D02*
D03*
X33524D02*
D03*
X33327D02*
D03*
X33130D02*
D03*
X32933D02*
D03*
X32736D02*
D03*
X32539D02*
D03*
X32343D02*
D03*
X32146D02*
D03*
X31949D02*
D03*
X31752D02*
D03*
X31555D02*
D03*
D12*
X35492Y19154D02*
D03*
Y19350D02*
D03*
Y19547D02*
D03*
Y19744D02*
D03*
Y19941D02*
D03*
Y20138D02*
D03*
Y20335D02*
D03*
Y20531D02*
D03*
Y20728D02*
D03*
Y20925D02*
D03*
Y21122D02*
D03*
Y21319D02*
D03*
Y21516D02*
D03*
Y21713D02*
D03*
Y21909D02*
D03*
Y22106D02*
D03*
X30571D02*
D03*
Y21909D02*
D03*
Y21713D02*
D03*
Y21516D02*
D03*
Y21319D02*
D03*
Y21122D02*
D03*
Y20925D02*
D03*
Y20728D02*
D03*
Y20531D02*
D03*
Y20335D02*
D03*
Y20138D02*
D03*
Y19941D02*
D03*
Y19744D02*
D03*
Y19547D02*
D03*
Y19350D02*
D03*
Y19154D02*
D03*
D13*
X21575Y21101D02*
D03*
Y22589D02*
D03*
X20394Y21101D02*
D03*
Y22589D02*
D03*
X18268Y11733D02*
D03*
Y10245D02*
D03*
X30157Y10867D02*
D03*
Y9379D02*
D03*
D14*
X15591Y15787D02*
D03*
X20590Y11732D02*
D03*
X19252D02*
D03*
X16929Y14567D02*
D03*
X15591D02*
D03*
X8977Y37362D02*
D03*
X10315D02*
D03*
X8977Y36260D02*
D03*
X10315D02*
D03*
X16772Y35157D02*
D03*
X18110D02*
D03*
X20079Y35236D02*
D03*
X21417D02*
D03*
X18110Y34016D02*
D03*
X16772D02*
D03*
X20079Y34055D02*
D03*
X21417D02*
D03*
X34803Y33858D02*
D03*
X33465D02*
D03*
X36418Y35039D02*
D03*
X37756D02*
D03*
X33465D02*
D03*
X34803D02*
D03*
X37756Y33858D02*
D03*
X36418D02*
D03*
X44843Y37402D02*
D03*
X46181D02*
D03*
Y36220D02*
D03*
X44843D02*
D03*
X12638Y35433D02*
D03*
X13976D02*
D03*
X42008Y35512D02*
D03*
X43346D02*
D03*
X29212Y31890D02*
D03*
X27874D02*
D03*
X29212Y30551D02*
D03*
X27874D02*
D03*
X26220Y30591D02*
D03*
X24882D02*
D03*
X23897D02*
D03*
X22559D02*
D03*
X50078Y27598D02*
D03*
X48740D02*
D03*
X50315Y30118D02*
D03*
X48977D02*
D03*
X15670Y11654D02*
D03*
X17008D02*
D03*
X15670Y10472D02*
D03*
X17008D02*
D03*
X16929Y15787D02*
D03*
X15591Y17008D02*
D03*
X16929D02*
D03*
X17834Y19488D02*
D03*
X16496D02*
D03*
X17834Y18268D02*
D03*
X16496D02*
D03*
X20315Y20157D02*
D03*
X21653D02*
D03*
D15*
X18096Y12999D02*
D03*
X16206Y13117D02*
D03*
D16*
X17178Y12532D02*
D03*
X17168Y13506D02*
D03*
X15289Y12650D02*
D03*
X15279Y13624D02*
D03*
D17*
X14921Y25237D02*
D03*
Y24291D02*
D03*
X13661Y18149D02*
D03*
Y19095D02*
D03*
X12126Y7125D02*
D03*
Y8072D02*
D03*
X35197Y7284D02*
D03*
Y6338D02*
D03*
X28071Y19606D02*
D03*
Y20552D02*
D03*
D18*
X9488Y18644D02*
D03*
X10394D02*
D03*
X11299D02*
D03*
D19*
X10390Y21120D02*
D03*
D20*
X34075Y38764D02*
D03*
X17487Y38725D02*
D03*
X20715D02*
D03*
X37067Y38764D02*
D03*
X9626Y40890D02*
D03*
X45571Y40929D02*
D03*
X16319Y7456D02*
D03*
D21*
X34805Y36984D02*
D03*
X18217Y36945D02*
D03*
X21445D02*
D03*
X37797Y36984D02*
D03*
X10356Y39110D02*
D03*
X46301Y39149D02*
D03*
X15589Y9236D02*
D03*
D22*
X34305Y36984D02*
D03*
X33805D02*
D03*
X33305D02*
D03*
X17717Y36945D02*
D03*
X17217D02*
D03*
X16717D02*
D03*
X20945D02*
D03*
X20445D02*
D03*
X19945D02*
D03*
X37297Y36984D02*
D03*
X36797D02*
D03*
X36297D02*
D03*
X9856Y39110D02*
D03*
X9356D02*
D03*
X8856D02*
D03*
X45801Y39149D02*
D03*
X45301D02*
D03*
X44801D02*
D03*
X17089Y9236D02*
D03*
X16589D02*
D03*
X16089D02*
D03*
D23*
X37204Y8740D02*
D03*
X38150D02*
D03*
X28859Y36732D02*
D03*
X27913D02*
D03*
X32873Y12520D02*
D03*
X33820D02*
D03*
X21300Y18937D02*
D03*
X20354D02*
D03*
X40196Y20866D02*
D03*
X41142D02*
D03*
X40196Y19803D02*
D03*
X41142D02*
D03*
X33503Y16024D02*
D03*
X34449D02*
D03*
X33582Y28228D02*
D03*
X34528D02*
D03*
X32481D02*
D03*
X31535D02*
D03*
D24*
X39526Y9210D02*
D03*
X40026D02*
D03*
X40526D02*
D03*
X41026D02*
D03*
X39526Y11263D02*
D03*
X40026D02*
D03*
X40526D02*
D03*
X13215Y32044D02*
D03*
X13715D02*
D03*
X14215D02*
D03*
X12715Y34097D02*
D03*
X13215D02*
D03*
X13715D02*
D03*
X14215D02*
D03*
X42545Y32044D02*
D03*
X43045D02*
D03*
X43545D02*
D03*
X42045Y34097D02*
D03*
X42545D02*
D03*
X43045D02*
D03*
X43545D02*
D03*
X28872Y35357D02*
D03*
X28372D02*
D03*
X27872D02*
D03*
X29372Y33304D02*
D03*
X28872D02*
D03*
X28372D02*
D03*
X27872D02*
D03*
X33636Y11263D02*
D03*
X33136D02*
D03*
X32636D02*
D03*
X34136Y9210D02*
D03*
X33636D02*
D03*
X33136D02*
D03*
X32636D02*
D03*
X16797Y20824D02*
D03*
X17297D02*
D03*
X17797D02*
D03*
X16297Y22877D02*
D03*
X16797D02*
D03*
X17297D02*
D03*
X17797D02*
D03*
D25*
X41026Y11263D02*
D03*
X12715Y32044D02*
D03*
X42045D02*
D03*
X29372Y35357D02*
D03*
X34136Y11263D02*
D03*
X16297Y20824D02*
D03*
D26*
X5812Y6969D02*
D03*
X3716D02*
D03*
D27*
X7008Y6708D02*
D03*
Y8804D02*
D03*
X8425D02*
D03*
Y6708D02*
D03*
X11457Y34158D02*
D03*
Y32062D02*
D03*
X40748Y34079D02*
D03*
Y31983D02*
D03*
D28*
X9803Y7087D02*
D03*
Y8425D02*
D03*
X10984D02*
D03*
Y7087D02*
D03*
X26732Y35552D02*
D03*
Y36889D02*
D03*
X9646Y29882D02*
D03*
Y28544D02*
D03*
X10827Y29882D02*
D03*
Y28544D02*
D03*
X40394Y29921D02*
D03*
Y28583D02*
D03*
X39134Y29921D02*
D03*
Y28583D02*
D03*
X7205Y29921D02*
D03*
Y28583D02*
D03*
X8425D02*
D03*
Y29921D02*
D03*
X26693Y32638D02*
D03*
Y33976D02*
D03*
X30354Y30394D02*
D03*
Y31732D02*
D03*
X51378Y24843D02*
D03*
Y26181D02*
D03*
X10748Y11574D02*
D03*
Y10237D02*
D03*
X12008Y11574D02*
D03*
Y10237D02*
D03*
X13228D02*
D03*
Y11574D02*
D03*
X47835Y32166D02*
D03*
Y33504D02*
D03*
X28780Y7637D02*
D03*
Y6300D02*
D03*
X30000Y7637D02*
D03*
Y6300D02*
D03*
X19055Y7756D02*
D03*
Y6418D02*
D03*
X20315D02*
D03*
Y7756D02*
D03*
X21535Y6418D02*
D03*
Y7756D02*
D03*
X22756Y6418D02*
D03*
Y7756D02*
D03*
X21496Y8859D02*
D03*
Y10197D02*
D03*
X22717D02*
D03*
Y8859D02*
D03*
X27362Y10826D02*
D03*
Y9488D02*
D03*
X28583Y10826D02*
D03*
Y9488D02*
D03*
X34016Y6339D02*
D03*
Y7677D02*
D03*
X32795D02*
D03*
Y6339D02*
D03*
X37047Y6300D02*
D03*
Y7637D02*
D03*
X38425Y6300D02*
D03*
Y7637D02*
D03*
X39724D02*
D03*
Y6300D02*
D03*
X41102Y7637D02*
D03*
Y6300D02*
D03*
X42047Y9725D02*
D03*
Y11063D02*
D03*
X16260Y24292D02*
D03*
Y25630D02*
D03*
X17756Y24292D02*
D03*
Y25630D02*
D03*
X19055Y22559D02*
D03*
Y21221D02*
D03*
X19055Y24292D02*
D03*
Y25630D02*
D03*
X14961Y22637D02*
D03*
Y21300D02*
D03*
X14961Y19488D02*
D03*
Y18150D02*
D03*
X8268Y23504D02*
D03*
Y24842D02*
D03*
X47165Y15394D02*
D03*
Y16732D02*
D03*
X42047Y25708D02*
D03*
Y24370D02*
D03*
X43346D02*
D03*
Y25708D02*
D03*
X40787Y24370D02*
D03*
Y25708D02*
D03*
D29*
X5575Y28620D02*
D03*
Y29120D02*
D03*
Y29620D02*
D03*
Y31652D02*
D03*
Y32152D02*
D03*
Y32652D02*
D03*
D30*
Y30120D02*
D03*
Y33152D02*
D03*
D31*
X3795Y29390D02*
D03*
Y32422D02*
D03*
D32*
X10434Y35079D02*
D03*
X8946D02*
D03*
X16731Y32756D02*
D03*
X18219D02*
D03*
X19999D02*
D03*
X21487D02*
D03*
X33424Y32677D02*
D03*
X34912D02*
D03*
X36298D02*
D03*
X37786D02*
D03*
X44763Y35118D02*
D03*
X46251D02*
D03*
X27283Y11890D02*
D03*
X28770D02*
D03*
D33*
X26260Y38622D02*
D03*
X28462D02*
D03*
D34*
X25584Y32584D02*
D03*
D35*
X26051Y31667D02*
D03*
X25077Y31657D02*
D03*
D36*
X24643Y8270D02*
D03*
D37*
Y7770D02*
D03*
Y7270D02*
D03*
Y6770D02*
D03*
X26696Y8270D02*
D03*
Y7770D02*
D03*
Y7270D02*
D03*
Y6770D02*
D03*
D38*
X47087Y7935D02*
D03*
Y8601D02*
D03*
X50118Y7935D02*
D03*
Y8601D02*
D03*
X51102Y7935D02*
D03*
Y8601D02*
D03*
X46142Y7935D02*
D03*
Y8601D02*
D03*
X52087Y7935D02*
D03*
Y8601D02*
D03*
X48110Y7974D02*
D03*
Y8640D02*
D03*
D39*
X14215Y34097D02*
X14493Y33819D01*
X27598Y34528D02*
X28228D01*
X25600Y34891D02*
X27235D01*
X25098Y34390D02*
X25600Y34891D01*
X26811Y35315D02*
X27235Y34891D01*
X25079Y34370D02*
X25098Y34390D01*
X27235Y34891D02*
X27598Y34528D01*
X14016Y33189D02*
X14606D01*
X14803Y31299D02*
Y32992D01*
Y31299D02*
X15551Y30551D01*
X14606Y33189D02*
X14803Y32992D01*
X15551Y28346D02*
Y30551D01*
X4961Y41496D02*
X5000D01*
X4370D02*
X4961D01*
X5000D02*
X9567D01*
X4961D02*
X5000D01*
X3543Y40669D02*
X4370Y41496D01*
X3543Y36319D02*
Y40669D01*
X27992Y29646D02*
X28150D01*
X27913Y29724D02*
X27992Y29646D01*
X27913Y29724D02*
X28858D01*
X27087D02*
X27913D01*
X24252Y25866D02*
X27165D01*
X27480Y26181D01*
Y26772D01*
X38976Y9488D02*
X38996Y9469D01*
X32953Y30079D02*
X33189Y29843D01*
X37638D02*
X38031Y29449D01*
X15709Y22126D02*
X16297Y22715D01*
X33189Y29843D02*
X37638D01*
X26732Y30079D02*
Y30551D01*
X26693Y30591D02*
X26772Y30512D01*
X28858Y29724D02*
X29212Y30078D01*
X26732Y30079D02*
X27087Y29724D01*
X29212Y30078D02*
Y30551D01*
X18976Y14094D02*
Y15472D01*
X19488Y10709D02*
X19961Y11181D01*
Y13110D01*
X18976Y14094D02*
X19961Y13110D01*
X19488Y9055D02*
Y10709D01*
X18307Y19016D02*
X20394D01*
X12165Y8031D02*
Y8425D01*
X16417Y9764D02*
X17008D01*
X16181D02*
X16417D01*
X44646Y11063D02*
Y11142D01*
Y10197D02*
Y11063D01*
X43189Y9606D02*
X43425Y9843D01*
X44291D02*
X44646Y10197D01*
X43425Y9843D02*
X44291D01*
X43189Y8898D02*
Y9606D01*
Y8898D02*
X44094Y7992D01*
Y6890D02*
Y7992D01*
X48189Y22283D02*
X48248Y22224D01*
X48248D02*
X48268Y22205D01*
X48248Y22224D02*
X48268Y22244D01*
X48268Y19843D02*
Y22205D01*
X45394Y24488D02*
X46181D01*
X44843Y19528D02*
X47953D01*
X43150D02*
X44843D01*
X46339Y24646D02*
Y26339D01*
X47953Y19528D02*
X48268Y19843D01*
X41142Y18858D02*
X41142Y18859D01*
Y19803D01*
X46181Y24488D02*
X46339Y24646D01*
Y22362D02*
Y24646D01*
Y22362D02*
X46496Y22205D01*
X48268Y22244D02*
X50669D01*
X50984Y21929D01*
Y20181D02*
Y21929D01*
X27205Y11890D02*
X27283Y11811D01*
X26732Y11890D02*
X27205D01*
X23937D02*
X26732D01*
X23701D02*
X23937D01*
X27205D02*
X27205Y11890D01*
X26732D02*
X27205D01*
X16299Y30276D02*
X22244D01*
X22559Y30591D01*
X23268Y28937D02*
X28071D01*
X16457Y29016D02*
X16968Y28504D01*
X22835D02*
X23268Y28937D01*
X16968Y28504D02*
X22835D01*
X23897Y30630D02*
X23937Y30590D01*
X23504Y29449D02*
X23897Y29842D01*
X22559Y29449D02*
X23504D01*
X23897Y29842D02*
Y30591D01*
X32520Y30512D02*
Y32756D01*
X30354Y30197D02*
Y30394D01*
X12520Y17323D02*
X12598Y17402D01*
Y17835D01*
Y21142D01*
Y17402D02*
Y17835D01*
X13465Y22008D02*
X15630D01*
X12598Y21142D02*
X13465Y22008D01*
X12520Y17323D02*
X12598Y17402D01*
X15630Y22008D02*
X15748Y22126D01*
X19307Y9236D02*
X19488Y9055D01*
X19567Y8976D01*
X17089Y9236D02*
X19307D01*
X21142Y5512D02*
X21535Y5906D01*
Y6418D01*
X28780Y29213D02*
X29370D01*
X30354Y30197D01*
X30906Y30039D02*
X32087D01*
X28071Y28937D02*
X28465Y28543D01*
X29409D01*
X30906Y30039D01*
X14094Y12835D02*
X14370Y12559D01*
X8976Y12835D02*
X14094D01*
X8740Y12598D02*
X8976Y12835D01*
X8740Y11063D02*
Y12598D01*
X16206Y12534D02*
X16220Y12520D01*
X16206Y12534D02*
Y13117D01*
X13228Y10237D02*
X14528D01*
X14803Y10512D01*
Y11693D01*
X16299Y10591D02*
Y10984D01*
X15669Y11614D02*
X16299Y10984D01*
X11732Y27717D02*
X11850Y27598D01*
X13976D01*
X14094Y27716D01*
Y29055D01*
X38701Y24528D02*
X40236Y22992D01*
X36299Y24528D02*
X38701D01*
X36024Y24803D02*
X36299Y24528D01*
X36929Y27283D02*
X46339D01*
X36614Y26102D02*
Y26969D01*
X36929Y27283D01*
X51220Y23071D02*
Y24685D01*
X18189Y17008D02*
X19331Y18150D01*
X16260Y14016D02*
Y16339D01*
X16929Y17008D01*
X18189D01*
X49636Y32628D02*
X49724Y32717D01*
X49636Y31661D02*
Y32628D01*
X48386Y16732D02*
X48780Y16339D01*
X47165Y16732D02*
X48386D01*
X43543Y11063D02*
X43819Y11339D01*
X42047Y11063D02*
X43543D01*
X32835Y12559D02*
X33136Y12258D01*
X32165Y10512D02*
X32244Y10433D01*
X32992D01*
X33136Y10577D01*
Y11263D01*
X37835Y38071D02*
X44843D01*
X23425Y25039D02*
X24252Y25866D01*
X21968Y25039D02*
X23425D01*
X21968D02*
X23150D01*
X17913D02*
X21968D01*
X17756Y25197D02*
X17913Y25039D01*
X17756Y25197D02*
Y25630D01*
X31811Y37992D02*
X32583Y38764D01*
X31811Y36339D02*
Y37992D01*
X32583Y38764D02*
X34075D01*
X13715Y33490D02*
X14016Y33189D01*
X13715Y33490D02*
Y34097D01*
X40236Y22992D02*
X43071D01*
X41968Y24370D02*
X42047D01*
X41811D02*
X41968D01*
X41929Y24409D02*
X41968Y24370D01*
X41417Y23976D02*
X41811Y24370D01*
X40157Y23780D02*
Y24803D01*
X43819Y23504D02*
X43937Y23622D01*
X40157Y23780D02*
X40433Y23504D01*
X43819D01*
X29213Y15354D02*
X29409D01*
X21496Y12953D02*
X21693Y13150D01*
X29016Y15157D02*
X29213Y15354D01*
X29016Y13465D02*
Y15157D01*
X28701Y13150D02*
X29016Y13465D01*
X21693Y13150D02*
X28701D01*
X22874Y12677D02*
X29173D01*
X29449Y12953D02*
Y14409D01*
X29173Y12677D02*
X29449Y12953D01*
X22677Y12480D02*
X22874Y12677D01*
X22677Y11575D02*
Y12480D01*
X21457Y12953D02*
X21496D01*
X39094Y14094D02*
X40827D01*
X30157Y14843D02*
X30157Y14843D01*
X40157Y24803D02*
X40433Y25079D01*
X41654D01*
X34136Y9210D02*
X35354D01*
X34882Y9921D02*
X34961D01*
X32835D02*
X34882D01*
Y10630D02*
X34921D01*
X33819D02*
X34882D01*
X39016Y9488D02*
X39294Y9210D01*
X33636Y10813D02*
X33819Y10630D01*
X33636Y10813D02*
Y11263D01*
X46339Y27283D02*
X46693Y27638D01*
Y28583D01*
X47126Y29016D01*
X50157D01*
X50315Y29173D01*
Y30118D01*
X34961Y16024D02*
X34961Y16024D01*
X34449Y16024D02*
X34961D01*
X32636Y9722D02*
X32835Y9921D01*
X32636Y9210D02*
Y9722D01*
X27874Y5197D02*
Y6732D01*
X27205Y4528D02*
X27874Y5197D01*
X23898Y4528D02*
X27205D01*
X23583Y4331D02*
X23661Y4409D01*
X23780D01*
X23898Y4528D01*
X27874Y6732D02*
X28780Y7637D01*
X22992Y6418D02*
X23583Y5827D01*
X22952Y6418D02*
X22992D01*
X31142Y8031D02*
Y10866D01*
X31102Y10906D02*
X31142Y10866D01*
X31693Y9803D02*
X32286Y9210D01*
X32636D01*
X21181Y11142D02*
X21772D01*
X20590Y11732D02*
X21181Y11142D01*
X28583Y10826D02*
X30236D01*
X30157Y10867D02*
Y14843D01*
X35197Y11496D02*
Y12717D01*
X40984D02*
X41024Y12677D01*
X41024Y12677D02*
X41026Y12675D01*
X41024Y12677D02*
Y13898D01*
X40827Y14094D02*
X41024Y13898D01*
X40026Y11955D02*
X40157Y12087D01*
X40026Y11263D02*
Y11955D01*
X45815Y15866D02*
X46287Y15394D01*
X47165D01*
X47126Y17992D02*
X47165Y17953D01*
Y16732D02*
Y17953D01*
X11890Y29882D02*
X11968Y29803D01*
X10827Y29882D02*
X11890D01*
X9646Y29882D02*
Y30748D01*
X9173Y31220D02*
X9646Y30748D01*
Y30827D01*
X20984Y10669D02*
X21457Y10197D01*
X20236Y10669D02*
X20984D01*
X41102Y7637D02*
X41969D01*
X41026Y7675D02*
X41142Y7559D01*
X42717Y6890D02*
X44094D01*
X41969Y7637D02*
X42717Y6890D01*
X34016Y4803D02*
X35472D01*
X35866Y5197D01*
Y5787D01*
Y7717D01*
Y5591D02*
Y5787D01*
X35197Y5787D02*
Y6338D01*
X30748Y7637D02*
X31142Y8031D01*
X30000Y7637D02*
X30748D01*
X26260Y8706D02*
Y10039D01*
Y8706D02*
X26696Y8270D01*
X19567Y9094D02*
X20236D01*
X20472Y8859D01*
X21496D01*
X24567Y6142D02*
X24643Y6218D01*
Y6770D01*
X40984Y26496D02*
X46181D01*
X46339Y26339D01*
X46181Y26496D02*
X48346D01*
X48740Y27598D02*
X48740Y27598D01*
X48740Y26890D02*
Y27598D01*
X48346Y26496D02*
X48740Y26890D01*
X40787Y26299D02*
X40984Y26496D01*
X40787Y25708D02*
Y26299D01*
X41654Y25079D02*
X42047Y25472D01*
Y25708D01*
X40748Y24409D02*
X41929D01*
X42047Y24370D02*
X43346D01*
X41968D02*
X42047D01*
X45138Y25708D02*
X45394Y25453D01*
X43346Y25708D02*
X45138D01*
X46299Y29291D02*
Y30236D01*
Y28071D02*
Y29291D01*
X32520Y30512D02*
X32953Y30079D01*
X30315Y33031D02*
X32244D01*
X32520Y32756D01*
X46024Y27795D02*
X46299Y28071D01*
X40906Y27795D02*
X46024D01*
X46299Y30236D02*
Y33307D01*
Y29291D02*
Y30236D01*
X29134Y38622D02*
X29213Y38543D01*
X28462Y38622D02*
X29134D01*
X29645Y33031D02*
X30315D01*
X29372Y33304D02*
X29645Y33031D01*
X46299Y33307D02*
X46496Y33504D01*
X47835D01*
X49606Y32559D02*
X49685Y32638D01*
X48937Y32559D02*
X49606D01*
X48544Y32166D02*
X48937Y32559D01*
X47835Y32166D02*
X48544D01*
X48977Y31002D02*
X49636Y31661D01*
X48977Y30118D02*
Y31002D01*
X51575Y30118D02*
X51693Y30236D01*
X50315Y30118D02*
X51575D01*
X49921Y26004D02*
X50078Y26161D01*
X49921Y26004D02*
X51240D01*
X49449D02*
X49921D01*
X50078Y26161D02*
Y27598D01*
X51240Y26004D02*
X51457Y26220D01*
X51220Y24685D02*
X51417Y24882D01*
X16968Y11614D02*
X17178Y11824D01*
X17598Y11102D02*
X17638D01*
X17441D02*
X17598D01*
X17638D01*
X16968Y11575D02*
X17441Y11102D01*
X10748Y9528D02*
X10748Y9528D01*
Y10237D01*
X4893Y10255D02*
X6102D01*
X3583Y29351D02*
X3622Y29390D01*
X3795D01*
X1792D02*
X3622D01*
X8150Y26024D02*
X8425Y26299D01*
X3780Y26024D02*
X8150D01*
X3583Y26220D02*
Y29351D01*
Y26220D02*
X3780Y26024D01*
X8425Y26299D02*
Y28583D01*
X1220Y23976D02*
X1378Y23819D01*
X1220Y23976D02*
Y28819D01*
Y9646D02*
Y23976D01*
X1378Y23819D02*
X2559D01*
X36693Y6339D02*
X37284D01*
X34016Y6339D02*
Y6378D01*
X19213Y2165D02*
X20315Y3268D01*
X19213Y2165D02*
Y2205D01*
X20315Y3268D02*
Y6418D01*
X14803Y2165D02*
Y5941D01*
X16319Y7456D01*
X12402Y4685D02*
X12874Y4213D01*
Y2283D02*
Y4213D01*
X3937Y4685D02*
X12402D01*
X3937D02*
Y6747D01*
Y2244D02*
Y4685D01*
X5906Y2244D02*
X5945Y2205D01*
X3937Y2244D02*
X5906D01*
X10394Y21024D02*
X10472Y21102D01*
X10394Y18644D02*
Y18740D01*
Y21024D01*
X9409Y17441D02*
X9488Y17520D01*
Y18644D01*
X16297Y22715D02*
Y22877D01*
X19016Y25512D02*
X19134Y25630D01*
X18858Y26220D02*
X19055Y26024D01*
X18858Y26220D02*
X18898D01*
X19055Y25630D02*
Y26024D01*
X17520Y26181D02*
X17756Y25945D01*
Y25630D02*
Y25945D01*
X14961Y23189D02*
X15118Y23346D01*
X14961Y22637D02*
Y23189D01*
X17834Y17599D02*
X17835Y17598D01*
X17834Y17599D02*
Y18268D01*
X20394Y22589D02*
Y23110D01*
X17797Y19407D02*
Y20824D01*
X17834Y19488D02*
X18307Y19016D01*
X21575Y22244D02*
Y22598D01*
X16797Y22179D02*
X16968Y22008D01*
X21339D01*
X21535Y22638D02*
X21575Y22598D01*
X21339Y22008D02*
X21575Y22244D01*
X16797Y22179D02*
Y22877D01*
X18698Y20824D02*
X19094Y21220D01*
X17797Y19407D02*
X17874Y19331D01*
X17797Y20824D02*
X18698D01*
X16496Y18229D02*
Y19488D01*
Y19528D02*
X17297Y20329D01*
X16496Y19488D02*
Y19528D01*
X17297Y20329D02*
Y20824D01*
X14961Y21339D02*
X15000Y21378D01*
X14961Y19528D02*
Y21339D01*
X15000Y21299D02*
X15197Y21496D01*
X16693D01*
X16797Y21392D01*
Y20824D02*
Y21392D01*
X14961Y19488D02*
Y19528D01*
X15079D01*
X14094D02*
X14961D01*
X13661Y18149D02*
X15629D01*
X15827Y18346D02*
Y20353D01*
X15629Y18149D02*
X15827Y18346D01*
Y20353D02*
X16297Y20824D01*
X21260Y19016D02*
X21653Y19409D01*
Y20157D01*
X20315Y20905D02*
X20512Y21101D01*
X21575D01*
X20394D02*
X20512D01*
X20315Y20157D02*
Y20905D01*
X21575Y21101D02*
X21615D01*
X21654Y21063D01*
X16496Y25630D02*
X17756Y24370D01*
X17297Y23990D02*
X17677Y24370D01*
X17297Y22877D02*
Y23990D01*
X19055Y22520D02*
Y24292D01*
X18619Y22877D02*
X18976Y22520D01*
X17797Y22877D02*
X18619D01*
X19055Y22520D02*
X19055Y22520D01*
X14921Y24291D02*
X16260D01*
X16797Y22877D02*
X16811Y22891D01*
Y23780D01*
X16457Y24134D02*
X16811Y23780D01*
X16417Y24134D02*
X16457D01*
X16260Y24291D02*
X16417Y24134D01*
X15788Y25237D02*
X16299Y25748D01*
X16260Y25630D02*
X16496D01*
X14921Y25237D02*
X15788D01*
X38898Y33268D02*
X43425D01*
X38661Y33031D02*
X38898Y33268D01*
X36339Y31732D02*
X38346D01*
X36339D02*
Y32638D01*
Y30906D02*
Y31732D01*
X38346D02*
X38661Y32047D01*
Y33031D01*
X45079Y32795D02*
X45315Y32559D01*
Y30748D02*
Y32559D01*
X42677Y32795D02*
X45079D01*
X42545Y32663D02*
X42677Y32795D01*
X42545Y32044D02*
Y32663D01*
X43425Y33268D02*
X43545Y33388D01*
Y34097D01*
X43386Y29173D02*
X43545Y29333D01*
Y32044D01*
X39921Y32165D02*
X40103Y31983D01*
X40748D01*
X41260Y29567D02*
Y30709D01*
X41024Y29331D02*
X41260Y29567D01*
X42402Y30945D02*
X42545Y31089D01*
X41260Y30709D02*
X41496Y30945D01*
X42402D01*
X42545Y31089D02*
Y32044D01*
X43032Y30591D02*
X43045Y30604D01*
Y32044D01*
Y31156D02*
Y32044D01*
X39921Y31417D02*
X40394Y30945D01*
X39016Y31417D02*
X39921D01*
X40394Y29921D02*
Y30945D01*
X39252Y29331D02*
X41024D01*
X39134Y29449D02*
X39252Y29331D01*
X39134Y29449D02*
Y29921D01*
X40711Y32044D02*
X42045D01*
X40709Y32047D02*
X40711Y32044D01*
X43307Y35551D02*
X43976D01*
X45039Y37402D02*
X45512Y36929D01*
Y34528D02*
Y36929D01*
X45157Y34173D02*
X45512Y34528D01*
X44173Y34449D02*
Y35354D01*
X43976Y35551D02*
X44173Y35354D01*
Y34449D02*
X44449Y34173D01*
X45157D01*
X44843Y37402D02*
X45039D01*
X37047Y38858D02*
X37835Y38071D01*
X46301Y35116D02*
Y37402D01*
X47480Y35039D02*
X47559Y35118D01*
X46301Y37402D02*
Y39149D01*
X46378Y35039D02*
X47480D01*
X46301Y35116D02*
X46378Y35039D01*
X44843Y38071D02*
X45472D01*
X44843D02*
Y38268D01*
Y37402D02*
Y38071D01*
X45472D02*
X45801Y38400D01*
Y39149D01*
X44843Y38268D02*
X45157D01*
X44843D02*
Y39108D01*
X45157Y38268D02*
X45301Y38411D01*
Y39149D01*
X44801D02*
X44843Y39108D01*
X43045Y35093D02*
X43425Y35472D01*
X43045Y34097D02*
Y35093D01*
X44763Y35118D02*
X44843Y35198D01*
Y36220D01*
X42545Y34750D02*
X42677Y34882D01*
Y36024D01*
X42874Y36220D02*
X44843D01*
X42677Y36024D02*
X42874Y36220D01*
X42545Y34097D02*
Y34750D01*
X42008Y36890D02*
X42126Y37008D01*
X42008Y35591D02*
Y36890D01*
Y35591D02*
X42045Y35553D01*
Y34097D02*
Y35553D01*
X42027Y34079D02*
X42045Y34097D01*
X40748Y34079D02*
X42027D01*
X36339Y32638D02*
X36418Y32717D01*
X36339Y32638D02*
Y32717D01*
X36220Y32520D02*
X36339Y32638D01*
X33465Y32599D02*
Y33858D01*
X33424Y30946D02*
X33740Y30630D01*
X36063D02*
X36339Y30906D01*
X33740Y30630D02*
X36063D01*
X33424Y30946D02*
Y32677D01*
X36418Y32717D02*
Y33858D01*
X33425Y32559D02*
X33465Y32599D01*
X34803Y31339D02*
X34961Y31496D01*
X34803Y33858D02*
Y35039D01*
Y32717D02*
Y33858D01*
X34961Y31496D02*
Y32559D01*
X34803Y32717D02*
X34961Y32559D01*
X37797Y32600D02*
Y36984D01*
X37756Y32598D02*
X37795D01*
X37797Y32600D01*
X36614Y35787D02*
X36797Y35970D01*
X36297Y35787D02*
Y36984D01*
X36614Y35787D02*
X37047D01*
X36297D02*
X36614D01*
X36260D02*
X36297D01*
X36378Y35039D02*
Y35591D01*
X36297Y35671D02*
Y35787D01*
X36260D02*
X36297D01*
X36181D02*
X36260D01*
X37047D02*
X37297Y36037D01*
Y36984D01*
X36102Y35787D02*
X36181D01*
X36102D02*
X36181D01*
X34094D02*
X36102D01*
X36797Y35970D02*
Y36984D01*
X30472Y35787D02*
X33305D01*
X36297Y35671D02*
X36378Y35591D01*
X33305Y35787D02*
X33661D01*
X34094D02*
X34305Y35998D01*
X33305Y35787D02*
Y36984D01*
X33661Y35787D02*
X33805Y35931D01*
X33661Y35787D02*
X34094D01*
X33305Y35474D02*
Y35787D01*
X34899Y36890D02*
X35315D01*
X34805Y36984D02*
X34899Y36890D01*
X34305Y35998D02*
Y36984D01*
X29055Y40000D02*
X29921Y39134D01*
Y36339D02*
Y39134D01*
Y36339D02*
X30472Y35787D01*
X33805Y35931D02*
Y36984D01*
X33504Y35079D02*
X33583Y35000D01*
X33504Y35079D02*
Y35276D01*
X33305Y35474D02*
X33504Y35276D01*
X26732Y36811D02*
X27087Y37165D01*
X26260Y39646D02*
X26614Y40000D01*
X29055D01*
X26260Y38622D02*
Y39646D01*
X26220Y30591D02*
X26693D01*
X14134Y38346D02*
X17205D01*
X9961D02*
X14134D01*
X13976Y38189D02*
X14134Y38346D01*
X13976Y35433D02*
Y38189D01*
X14055Y28976D02*
X14215Y29136D01*
Y32044D01*
X10512Y32047D02*
X10527Y32062D01*
X11457D01*
X11511Y32008D02*
X12756D01*
X11457Y32062D02*
X11511Y32008D01*
X13386Y30630D02*
X13715Y30959D01*
X10945Y30630D02*
X13386D01*
X10827Y29882D02*
X10827Y29882D01*
X10827Y29882D02*
Y30512D01*
X10945Y30630D01*
X13715Y30959D02*
Y32044D01*
X9646Y29882D02*
X9685Y29843D01*
X12953Y31024D02*
X13215Y31285D01*
X9843Y31024D02*
X12953D01*
X9646Y30827D02*
X9843Y31024D01*
X13215Y31285D02*
Y32044D01*
X24567Y31654D02*
X25074D01*
X25077Y31657D01*
X45512Y40945D02*
X49488D01*
X49921Y39764D02*
Y40512D01*
X49488Y40945D02*
X49921Y40512D01*
X45236Y41220D02*
X45512Y40945D01*
X45236Y41220D02*
Y43622D01*
X44882Y43976D02*
X45236Y43622D01*
X10236Y43976D02*
X44882D01*
X9626Y43366D02*
X10236Y43976D01*
X9626Y40890D02*
Y43366D01*
X21487Y34055D02*
X23622D01*
X21417D02*
X21487D01*
Y35206D01*
Y32756D02*
Y34055D01*
X23622D02*
X23622Y34055D01*
X37244Y38661D02*
Y41339D01*
X30709Y42283D02*
X36299D01*
X28740D02*
X30709D01*
X36299D02*
X37244Y41339D01*
X34055Y38622D02*
X34094Y38661D01*
X37244D01*
X20630Y38701D02*
Y41968D01*
X24213Y42283D02*
X26181D01*
X20945D02*
X24213D01*
X17598Y38661D02*
X17638Y38701D01*
X20630D01*
Y41968D02*
X20945Y42283D01*
X28372Y36167D02*
X28937Y36732D01*
X28228Y34528D02*
X28372Y34671D01*
Y35357D01*
X28872Y34620D02*
Y35357D01*
X26654Y34094D02*
X28346D01*
X28872Y34620D01*
X27717Y32638D02*
X27872Y32793D01*
X26732Y32638D02*
X27717D01*
X27872Y32793D02*
Y33304D01*
X26220Y30433D02*
Y31497D01*
X26051Y31667D02*
X26220Y31497D01*
X23897Y30630D02*
Y32362D01*
Y30591D02*
Y30630D01*
Y32362D02*
X24119Y32584D01*
X25584D01*
X24882Y31418D02*
X25118Y31654D01*
X24882Y30591D02*
Y31418D01*
X29449Y31732D02*
X30472D01*
X28872Y32309D02*
X29449Y31732D01*
X28872Y32309D02*
Y33304D01*
X27795Y31890D02*
X28372Y32467D01*
X27795Y30748D02*
X27992Y30551D01*
X27795Y30748D02*
Y31890D01*
X28372Y32467D02*
Y33304D01*
X29409Y35157D02*
Y35866D01*
X28872Y35841D02*
X29016Y35984D01*
X29370Y35118D02*
X29409Y35157D01*
X29291Y35984D02*
X29409Y35866D01*
X29016Y35984D02*
X29291D01*
X28872Y35357D02*
Y35841D01*
X28372Y35357D02*
Y36167D01*
X27872Y36692D02*
X27913Y36732D01*
X27872Y35357D02*
Y36692D01*
X27756Y37008D02*
X27992Y36772D01*
X27756Y37008D02*
Y38465D01*
X27913Y38622D01*
X28462D01*
X27087Y37165D02*
Y38386D01*
X26850Y38622D02*
X27087Y38386D01*
X26260Y38622D02*
X26850D01*
X21063Y35866D02*
X24212D01*
X20551D02*
X21063D01*
X20945Y35984D02*
X21063Y35866D01*
X20945Y35984D02*
Y36945D01*
X20445Y35972D02*
X20551Y35866D01*
X19945D02*
X20551D01*
X20445Y35972D02*
Y36945D01*
X19945Y35866D02*
Y36945D01*
Y35528D02*
Y35866D01*
X17323D02*
X19945D01*
Y35528D02*
X20157Y35315D01*
X17717Y36024D02*
X17795Y35945D01*
X17717Y36024D02*
Y36945D01*
X17217Y35972D02*
X17323Y35866D01*
X16717D02*
X17323D01*
X17217Y35972D02*
Y36945D01*
X24212Y35866D02*
X25236Y36889D01*
X26732D01*
X16717Y35866D02*
Y36945D01*
Y35213D02*
Y35866D01*
Y35213D02*
X16772Y35157D01*
X22087Y32756D02*
X22087Y32756D01*
X21487Y32756D02*
X22087D01*
X21378Y35315D02*
X21487Y35206D01*
X18819Y32756D02*
X18819Y32756D01*
X18219Y32756D02*
X18819D01*
X19961Y32087D02*
Y32835D01*
X16772Y32717D02*
Y34016D01*
X19921Y32874D02*
X19961Y32835D01*
X19685Y31811D02*
X19961Y32087D01*
X17008Y31811D02*
X19685D01*
X16731Y32088D02*
X17008Y31811D01*
X16731Y32088D02*
Y32756D01*
X16772Y33976D02*
X16811D01*
X16615Y33819D02*
X16772Y33976D01*
X14493Y33819D02*
X16615D01*
X19961Y32677D02*
X20079Y32796D01*
Y34055D01*
X16772Y32717D02*
X16772Y32717D01*
X18110Y32953D02*
X18268Y32795D01*
X18110Y34016D02*
Y35157D01*
Y32953D02*
Y34016D01*
X21945Y36945D02*
X21969Y36969D01*
X21445Y36945D02*
X21945D01*
X18232Y36929D02*
X18740D01*
X18217Y36945D02*
X18232Y36929D01*
X13228Y8189D02*
X13504Y7913D01*
X13228Y8189D02*
Y10237D01*
X12087Y8504D02*
X12165Y8425D01*
X12008Y8189D02*
X12165Y8031D01*
X12008Y8189D02*
Y10237D01*
X6142Y27008D02*
X6339Y27205D01*
Y28740D02*
Y29291D01*
Y27205D02*
Y28740D01*
X6219Y28620D02*
X6339Y28740D01*
X7205Y28268D02*
X7362Y28110D01*
X7205Y28268D02*
Y28583D01*
X7205Y29921D02*
X8425D01*
X7205D02*
Y30591D01*
Y29882D02*
Y29921D01*
X10826Y36850D02*
X11260D01*
X10315Y37362D02*
X10826Y36850D01*
X9528Y38346D02*
X9961D01*
X9856Y38451D02*
X9961Y38346D01*
X9856Y38451D02*
Y39110D01*
X9356Y38518D02*
X9528Y38346D01*
X8856D02*
X9528D01*
X9356Y38518D02*
Y39110D01*
X17205Y38346D02*
X17283Y38425D01*
X8856Y38346D02*
Y39110D01*
Y37522D02*
Y38346D01*
Y37522D02*
X9016Y37362D01*
X9055Y33976D02*
X9094D01*
X8946Y34085D02*
X9055Y33976D01*
X8946Y34085D02*
Y35079D01*
X13228Y33425D02*
Y34134D01*
X13071Y33268D02*
X13228Y33425D01*
X10669Y33268D02*
X13071D01*
X10434Y33503D02*
X10669Y33268D01*
X10434Y33503D02*
Y35079D01*
X13715Y35053D02*
X14055Y35394D01*
X13715Y34097D02*
Y35053D01*
X12598Y36654D02*
X12677Y36575D01*
Y35472D02*
Y36575D01*
Y35472D02*
X12715Y35435D01*
Y34097D02*
Y35435D01*
X12654Y34158D02*
X12715Y34097D01*
X11457Y34158D02*
X12654D01*
X10315Y35315D02*
X10433Y35197D01*
X10315Y35315D02*
Y36260D01*
X8946Y36229D02*
X8977Y36260D01*
X8946Y35079D02*
Y36229D01*
X9212Y36260D02*
X10315Y37362D01*
X8977Y36260D02*
X9212D01*
X10827Y39488D02*
X11260D01*
X10449Y39110D02*
X10827Y39488D01*
X10356Y39110D02*
X10449D01*
X5551Y30591D02*
X5575Y30567D01*
Y30120D02*
Y30567D01*
X6339Y29291D02*
Y29764D01*
X6167Y29120D02*
X6339Y29291D01*
X5575Y29120D02*
X6167D01*
X6339Y29764D02*
Y31612D01*
X6195Y29620D02*
X6339Y29764D01*
X5575Y29620D02*
X6195D01*
X6299Y31652D02*
X6339Y31612D01*
X6299Y31652D02*
X6337D01*
X5575D02*
X6299D01*
X5575Y28620D02*
X6219D01*
X6325Y32152D02*
X6535Y32362D01*
Y32874D01*
Y31850D02*
Y32362D01*
X5575Y32152D02*
X6325D01*
X6535Y32953D02*
Y34724D01*
Y32874D02*
Y32953D01*
Y32874D02*
Y32953D01*
X6313Y32652D02*
X6535Y32874D01*
X6337Y31652D02*
X6535Y31850D01*
X5551Y33740D02*
X5575Y33716D01*
Y33152D02*
Y33716D01*
X5925Y35335D02*
X6535Y34724D01*
X3543Y35335D02*
X5925D01*
X5575Y32652D02*
X6313D01*
X3795Y32422D02*
Y32425D01*
Y29390D02*
Y32422D01*
X3661Y32559D02*
X3795Y32425D01*
X1220Y9646D02*
X3716Y7150D01*
X1220Y28819D02*
X1792Y29390D01*
X3716Y6969D02*
Y7150D01*
Y6969D02*
X3937Y6747D01*
X16089Y9236D02*
Y9671D01*
X16181Y9764D01*
X17008D02*
X17089Y9683D01*
Y9236D02*
Y9683D01*
X16089Y9236D02*
X16589D01*
X15589Y10352D02*
X15669Y10433D01*
X15589Y9236D02*
Y10352D01*
X22756Y8937D02*
X23423Y8270D01*
X24055Y7756D02*
X24643D01*
X23937Y8189D02*
X24018Y8270D01*
X24643D01*
X23423D02*
X24018D01*
X25591Y11142D02*
X25906Y10826D01*
X27362D01*
X28740Y10866D02*
X28770Y10896D01*
Y11890D01*
X27362Y10826D02*
X28583D01*
X30236D02*
X30236Y10827D01*
X29331Y8937D02*
Y9379D01*
X30157D01*
X28692D02*
X29331D01*
X28583Y9488D02*
X28692Y9379D01*
X35157Y8425D02*
X35866Y7717D01*
X33780Y8425D02*
X35157D01*
X33636Y8569D02*
X33780Y8425D01*
X33636Y8569D02*
Y9210D01*
X31929Y6614D02*
X32204Y6339D01*
X32165Y8386D02*
X32913D01*
X33110Y9184D02*
X33136Y9210D01*
X33110Y8583D02*
Y9184D01*
X32913Y8386D02*
X33110Y8583D01*
X31929Y8150D02*
X32165Y8386D01*
X31929Y6614D02*
Y8150D01*
X32204Y6339D02*
X32795D01*
X33636Y12336D02*
X33820Y12520D01*
X33636Y11263D02*
Y12336D01*
X33136Y11263D02*
Y12258D01*
X34963Y11263D02*
X35197Y11496D01*
X34136Y11263D02*
X34963D01*
X30984Y11850D02*
X31572Y11263D01*
X32636D01*
X42008Y10591D02*
Y11102D01*
X37441Y9488D02*
X38976D01*
X37204Y9251D02*
X37441Y9488D01*
X37204Y8740D02*
Y9251D01*
X41026Y8346D02*
X41417D01*
X41026D02*
Y9210D01*
Y7675D02*
Y8346D01*
X39294Y9210D02*
X39526D01*
X38386Y11299D02*
X38422Y11263D01*
X39526D01*
X41968Y11142D02*
X42008Y11102D01*
X41890Y10472D02*
X42008Y10591D01*
X40669Y10472D02*
X41890D01*
X40526Y10616D02*
X40669Y10472D01*
X40526Y10616D02*
Y11263D01*
X41026D02*
Y12675D01*
X40526Y11263D02*
Y11955D01*
X40394Y12087D02*
X40526Y11955D01*
X40157Y12087D02*
X40394D01*
X36890Y10118D02*
X40394D01*
X36417Y6614D02*
Y9646D01*
X36890Y10118D01*
X40394D02*
X40526Y9986D01*
Y9210D02*
Y9986D01*
X37323Y6300D02*
X38425D01*
X37047D02*
X37323D01*
X37284Y6339D02*
X37323Y6300D01*
X36417Y6614D02*
X36693Y6339D01*
X40394Y6300D02*
Y8150D01*
Y6300D02*
X41102D01*
X39724D02*
X40394D01*
X40026Y8518D02*
X40394Y8150D01*
X40026Y8518D02*
Y9210D01*
X42047Y9213D02*
X42992Y8268D01*
X42047Y9213D02*
Y9725D01*
X41102Y6300D02*
X41141D01*
X41181Y6260D01*
X38425Y6300D02*
X38465Y6260D01*
X38150Y7991D02*
X38504Y7638D01*
X39803D02*
X39843Y7598D01*
X38504Y7638D02*
X39803D01*
X38150Y7991D02*
Y8740D01*
X37047Y7559D02*
X37204Y7716D01*
Y8740D01*
X34016Y7677D02*
X34134D01*
X32795D02*
X34016D01*
X34764Y7717D02*
X35197Y7284D01*
X34173Y7717D02*
X34764D01*
X34134Y7677D02*
X34173Y7717D01*
X30000Y6300D02*
X30157D01*
X28780D02*
X30000D01*
X30157D02*
X30157Y6299D01*
X27270Y7270D02*
X27402Y7402D01*
X27270Y7270D02*
X27388D01*
X26696D02*
X27270D01*
X27402Y9528D02*
X27441D01*
X27520Y9449D01*
Y7402D02*
Y9449D01*
X27388Y7270D02*
X27520Y7402D01*
X27402D02*
Y7677D01*
X27309Y7770D02*
X27402Y7677D01*
X26696Y7770D02*
X27309D01*
X23937Y7874D02*
X24055Y7756D01*
X23937Y7874D02*
Y8189D01*
X22756Y6418D02*
X22952D01*
X21535D02*
X22756D01*
X22952D02*
X22953Y6417D01*
X22835Y7756D02*
X23321Y7270D01*
X22835Y7756D02*
X22874D01*
X22756D02*
X22835D01*
X23321Y7270D02*
X24643D01*
X21535Y7756D02*
X22756D01*
X20315D02*
X21535D01*
X19055D02*
X20315D01*
X22874D02*
X22913Y7717D01*
X22717Y10197D02*
X22795D01*
X21496D02*
X22717D01*
X22677Y11575D02*
X22795Y11457D01*
Y10197D02*
Y11457D01*
X22795Y10197D02*
X22795Y10197D01*
X20591Y11654D02*
Y14567D01*
X20787Y14764D01*
X20591Y14567D02*
Y14921D01*
X20787Y14764D02*
X22126D01*
X20118Y15394D02*
X20591Y14921D01*
X16968Y11575D02*
Y11614D01*
X17178Y11824D02*
Y12532D01*
X16260Y14016D02*
X16417Y13858D01*
X16816D01*
X17168Y13506D01*
X16457Y18189D02*
X16496D01*
X16457D02*
X16496Y18229D01*
X15078Y18149D02*
X15118Y18189D01*
X13661Y19095D02*
X14094Y19528D01*
X16417Y10472D02*
X17008D01*
X16299Y10591D02*
X16417Y10472D01*
X17244Y10236D02*
X18346D01*
X17008Y10472D02*
X17244Y10236D01*
X18228Y11772D02*
X19252D01*
X17795Y14567D02*
X18096Y14267D01*
X18228Y11772D02*
Y12866D01*
X18096Y12999D02*
X18228Y12866D01*
X18096Y12999D02*
Y14267D01*
X16929Y14567D02*
X17795D01*
X15279Y14255D02*
X15630Y14606D01*
X15279Y13624D02*
Y14255D01*
X13228Y11574D02*
X13267D01*
X12008D02*
X13228D01*
X10748D02*
X12008D01*
X13268Y11575D02*
X13307D01*
X13267Y11574D02*
X13268Y11575D01*
X4291Y11299D02*
X5000D01*
X3898Y8504D02*
X5433Y6969D01*
X3898Y8504D02*
Y10906D01*
X5000Y11299D02*
X5039Y11260D01*
X3898Y10906D02*
X4291Y11299D01*
X5433Y6969D02*
X5812D01*
X11772Y8425D02*
X12165Y8031D01*
X10984Y8425D02*
X11772D01*
X9685Y7126D02*
X12205D01*
X9267Y6708D02*
X9685Y7126D01*
X8425Y6708D02*
X9267D01*
X8543Y6654D02*
Y7638D01*
X4903Y8286D02*
X5236Y7953D01*
X8504Y6614D02*
Y6654D01*
Y6614D02*
X8543Y6654D01*
X8228Y7953D02*
X8543Y7638D01*
X5236Y7953D02*
X8228D01*
X4903Y8286D02*
Y9245D01*
X9409Y8780D02*
X9843Y8346D01*
X8425Y8780D02*
X8740Y9094D01*
X6929Y8780D02*
X8425D01*
X8425D02*
X9409D01*
X8740Y9094D02*
Y11063D01*
X6009Y6772D02*
X7087D01*
X5812Y6969D02*
X6009Y6772D01*
X48094Y6890D02*
Y8055D01*
X45000Y3661D02*
Y4685D01*
X47047Y7953D02*
X47094Y7906D01*
X43976Y3661D02*
Y5039D01*
X47094Y6890D02*
Y7906D01*
X42953Y3740D02*
Y5472D01*
X46094Y7887D02*
X46142Y7935D01*
X46094Y6890D02*
Y7887D01*
X46535Y4843D02*
X48094Y6402D01*
X45000Y4685D02*
X45157Y4843D01*
X46535D01*
X48094Y6402D02*
Y6890D01*
X46260Y5315D02*
X47094Y6150D01*
X44252Y5315D02*
X46260D01*
X43976Y5039D02*
X44252Y5315D01*
X47094Y6150D02*
Y6890D01*
X45709Y5748D02*
X46094Y6134D01*
X43228Y5748D02*
X45709D01*
X42953Y5472D02*
X43228Y5748D01*
X46094Y6134D02*
Y6890D01*
X41929Y3661D02*
Y5866D01*
X42244Y6181D01*
X44921D01*
X45094Y6354D01*
Y6890D01*
X46378Y3740D02*
Y3976D01*
X48780Y5591D02*
X49094Y5906D01*
X46378Y3976D02*
X47992Y5591D01*
X48780D01*
X49094Y5906D02*
Y6890D01*
X50079Y5472D02*
Y6929D01*
Y7992D02*
X50118Y7953D01*
Y6969D02*
Y7953D01*
X50079Y6929D02*
X50118Y6969D01*
X49764Y5157D02*
X50079Y5472D01*
X48307Y5157D02*
X49764D01*
X47335Y4185D02*
X48307Y5157D01*
X47335Y3783D02*
Y4185D01*
X51102Y5000D02*
Y7992D01*
X48335Y4122D02*
X48898Y4685D01*
X50787D01*
X51102Y5000D01*
X48335Y3783D02*
Y4122D01*
X52087Y4213D02*
Y6929D01*
Y8031D02*
X52126Y7992D01*
Y6969D02*
Y7992D01*
X52087Y6929D02*
X52126Y6969D01*
X51657Y3783D02*
X52087Y4213D01*
X49335Y3783D02*
X51657D01*
D40*
X24409Y27913D02*
X30118D01*
X25463Y27707D02*
X30463D01*
X36850Y17126D02*
X45394D01*
X45630Y16890D01*
X38228Y18425D02*
X40197D01*
X40591Y18032D01*
X37008Y18425D02*
X38228D01*
X42480Y18661D02*
X47913D01*
X48150Y17441D02*
Y18425D01*
X47913Y18661D02*
X48150Y18425D01*
X42598Y19055D02*
X47520D01*
X49961Y18189D02*
X50039Y18110D01*
X49094Y18189D02*
X49961D01*
X42480Y19173D02*
Y21575D01*
X47520Y19055D02*
X48701D01*
X48937Y18346D02*
X49094Y18189D01*
X48937Y18346D02*
Y18819D01*
X48701Y19055D02*
X48937Y18819D01*
X42480Y19173D02*
X42598Y19055D01*
X42244Y18898D02*
Y21378D01*
Y18898D02*
X42480Y18661D01*
X42283Y18110D02*
X43740D01*
X42047Y18346D02*
Y21220D01*
Y18346D02*
X42283Y18110D01*
X43307Y20000D02*
X47047D01*
X47677Y23071D02*
X51220D01*
X42953Y20354D02*
Y20984D01*
Y20354D02*
X43307Y20000D01*
X47047D02*
X47402Y20354D01*
Y22795D01*
X47677Y23071D01*
X25039Y27283D02*
X25463Y27707D01*
X23583Y27362D02*
X23661Y27283D01*
X25039D01*
X30118Y27913D02*
X30433Y28228D01*
Y28661D01*
X31102Y29331D01*
X30463Y27707D02*
X30709Y27953D01*
Y28622D01*
X31181Y29094D01*
X26850Y27323D02*
X26929Y27244D01*
X30079D02*
X30354Y27520D01*
X30709D01*
X30984Y27795D01*
Y28583D01*
X31220Y28819D01*
X15289Y12074D02*
X15709Y11654D01*
X15669Y11614D02*
X15709D01*
X15289Y12074D02*
Y12650D01*
X37441Y26575D02*
Y26614D01*
Y25866D02*
Y26575D01*
X37008Y25433D02*
X37441Y25866D01*
X35433Y25433D02*
X37008D01*
X35079Y25787D02*
X35433Y25433D01*
X38622Y24134D02*
X40256Y22500D01*
X38543Y24213D02*
X38622Y24134D01*
X34547Y25335D02*
X34606Y25276D01*
X34449Y25236D02*
Y25315D01*
Y25236D02*
X35472Y24213D01*
X38543D01*
X38346Y23937D02*
X40039Y22244D01*
X35315Y23937D02*
X38346D01*
X34528Y24724D02*
X35315Y23937D01*
X33898Y24724D02*
X34528D01*
X33858Y24764D02*
X33898Y24724D01*
X38024Y23668D02*
X39724Y21969D01*
X34114Y23091D02*
Y23878D01*
X34291Y24055D01*
X35229Y23668D02*
X38024D01*
X34843Y24055D02*
X35229Y23668D01*
X34291Y24055D02*
X34843D01*
X30197D02*
X30669D01*
X38346Y26417D02*
X38661Y26732D01*
X41850D01*
X47283D01*
X40748D02*
X41850D01*
X37441Y26575D02*
Y26614D01*
X36260Y27795D02*
X36614D01*
X35551Y27087D02*
X36260Y27795D01*
X35118Y26299D02*
X35630D01*
X31220Y28819D02*
X34961D01*
X35294Y27893D02*
Y28485D01*
X34961Y26457D02*
X35118Y26299D01*
X34961Y26457D02*
Y27559D01*
X35294Y27893D01*
X34961Y28819D02*
X35294Y28485D01*
X30866Y25000D02*
X31614D01*
X30722Y25145D02*
Y26995D01*
X30669Y27047D02*
X30722Y26995D01*
Y25145D02*
X30866Y25000D01*
X30669Y27047D02*
X30669Y27047D01*
X31614Y25000D02*
X32146Y24468D01*
X37795Y26969D02*
X46693D01*
X37441Y26614D02*
X37795Y26969D01*
X47323Y28740D02*
X52165D01*
X46693Y26969D02*
X47126Y27402D01*
Y28543D01*
X47323Y28740D01*
X47717Y27165D02*
Y28110D01*
X47283Y26732D02*
X47717Y27165D01*
X52480Y21811D02*
Y28425D01*
X52165Y28740D02*
X52480Y28425D01*
X52087Y16339D02*
Y28031D01*
X47717Y28110D02*
X47992Y28386D01*
X51732D01*
X52087Y28031D01*
X52480Y21811D02*
Y21890D01*
Y15591D02*
Y21811D01*
X51220Y23071D02*
X51339D01*
X52283Y15394D02*
X52480Y15591D01*
X50236Y15394D02*
X52283D01*
X49984Y15646D02*
X50236Y15394D01*
X49984Y15646D02*
Y16181D01*
X51929D02*
X52087Y16339D01*
X50984Y16181D02*
X51929D01*
X48346Y14409D02*
X49370D01*
X17559Y15787D02*
X17598Y15827D01*
X16929Y15787D02*
X17559D01*
X14961Y17008D02*
X15591D01*
X38031Y17441D02*
X45866D01*
X37717Y18110D02*
X37913Y17913D01*
X35630Y18110D02*
X37717D01*
X37913Y17559D02*
Y17913D01*
Y17559D02*
X38031Y17441D01*
X38484Y19941D02*
X39134Y20591D01*
X35492Y19941D02*
X38484D01*
X39134Y20591D02*
Y21024D01*
X39213Y19724D02*
X40236D01*
X37669Y18866D02*
X38748D01*
X38858Y18976D01*
Y19370D02*
X39213Y19724D01*
X38858Y18976D02*
Y19370D01*
X36850Y18583D02*
X37008Y18425D01*
X35492Y19350D02*
X36673D01*
X36850Y18583D02*
Y19173D01*
X36673Y19350D02*
X36850Y19173D01*
X37972Y19744D02*
X38681D01*
X35492D02*
X37972D01*
X38307Y19409D01*
X37421Y19547D02*
X37638Y19331D01*
Y18898D02*
Y19331D01*
X37047Y19547D02*
X37421D01*
X37047D02*
X37362D01*
X35492D02*
X37047D01*
X37638Y18898D02*
X37669Y18866D01*
X34606Y17756D02*
X37087D01*
X37205Y17638D01*
X36496Y16811D02*
X36496D01*
X36063Y17244D02*
X36496Y16811D01*
X34213Y17244D02*
X36063D01*
X25748Y15748D02*
X31063D01*
X31255Y14690D02*
X31772Y14173D01*
X31255Y14690D02*
Y15556D01*
X31063Y15748D02*
X31255Y15556D01*
X21260Y17835D02*
X21300Y17875D01*
X22283Y17874D02*
X22559Y17598D01*
Y16181D02*
Y17598D01*
X23386Y15354D02*
X25354D01*
X25748Y15748D01*
X22559Y16181D02*
X23386Y15354D01*
X21299Y17874D02*
X22283D01*
X24961Y15866D02*
Y17087D01*
Y15866D02*
X24961Y15866D01*
X23937Y18110D02*
X24961Y17087D01*
X23504Y17835D02*
X24134Y17205D01*
X23976D02*
X24134D01*
X23110Y17126D02*
Y23858D01*
Y17087D02*
Y17126D01*
X36024Y13032D02*
X36220D01*
X33071Y13740D02*
X35315D01*
X36260Y12992D02*
X36614D01*
X36220Y13032D02*
X36535D01*
X35315Y13740D02*
X36024Y13032D01*
X36220D02*
X36260Y12992D01*
X35748Y14134D02*
X35866Y14016D01*
X27283Y18819D02*
X28543D01*
X25984Y20236D02*
Y20315D01*
Y20118D02*
Y20236D01*
Y20118D02*
X27283Y18819D01*
X27874Y21496D02*
X28189D01*
X27795D02*
X27874D01*
X28031Y23780D02*
X29902Y21909D01*
X26693Y23780D02*
X28031D01*
X26929Y27244D02*
X28583D01*
X30079D01*
X28031D02*
X28583D01*
X40118Y20827D02*
X40197Y20748D01*
X23937Y18110D02*
Y23386D01*
X29783Y23091D02*
X31555D01*
X29562Y23312D02*
Y24375D01*
Y23312D02*
X29783Y23091D01*
X29016Y24921D02*
X29562Y24375D01*
X29193Y21516D02*
X30571D01*
X25276Y22874D02*
X27835D01*
X29193Y21516D01*
X27913Y23307D02*
X29508Y21713D01*
X24882Y23307D02*
X27913D01*
X24331Y22756D02*
X24882Y23307D01*
X24331Y18150D02*
Y22756D01*
X24685Y18228D02*
Y22283D01*
X25276Y22874D01*
X37717Y20433D02*
Y22008D01*
X36614Y22362D02*
X37362D01*
X36575D02*
X36614D01*
X37362D02*
X37717Y22008D01*
X35492Y22106D02*
Y22776D01*
X43268Y16654D02*
X43307Y16614D01*
X37165Y16654D02*
X43268D01*
X36890Y16378D02*
X37165Y16654D01*
X36299Y16378D02*
X36890D01*
X35669Y17008D02*
X36299Y16378D01*
X42913Y16181D02*
X43032Y16063D01*
X35394Y16535D02*
X36220Y15709D01*
X42087D01*
X35197Y16535D02*
X35394D01*
X35197D02*
X35276D01*
X33701D02*
X35197D01*
X36102Y16181D02*
X42913D01*
X35512Y16772D02*
X36102Y16181D01*
X34803Y16772D02*
X35512D01*
X34803D02*
X35236D01*
X33898D02*
X34803D01*
X24331Y18150D02*
X26457Y16024D01*
X31299D01*
X31535Y15787D01*
Y15276D02*
X33071Y13740D01*
X31535Y15276D02*
Y15787D01*
X26535Y16378D02*
X31614D01*
X31811Y16181D01*
X33031Y14134D02*
X35748D01*
X31811Y15354D02*
X33031Y14134D01*
X31811Y15354D02*
Y16181D01*
X33268Y15118D02*
X43937D01*
X32736Y15650D02*
X32992Y15394D01*
Y15394D02*
X33268Y15118D01*
X32343Y15492D02*
X33110Y14724D01*
X41535D01*
X32539Y15571D02*
X33184Y14926D01*
X41885D01*
X24685Y18228D02*
X26535Y16378D01*
X21300Y17875D02*
Y18937D01*
X25827Y19370D02*
X25866Y19331D01*
X26496Y18701D02*
Y19134D01*
X25866Y19331D02*
X26299D01*
X26496Y19134D01*
X25394Y18346D02*
Y20512D01*
X25906Y21024D01*
X25039Y21220D02*
X25236Y21417D01*
X25039Y18268D02*
Y21220D01*
X23937Y23386D02*
X25079Y24528D01*
X28760Y20925D02*
X30571D01*
X34055Y17008D02*
X35669D01*
X35492Y20335D02*
X37618D01*
X37717Y20433D01*
X46614Y16063D02*
X47795D01*
X48032Y15827D01*
Y14724D02*
Y15827D01*
Y14724D02*
X48346Y14409D01*
X46063Y16614D02*
Y17244D01*
Y16614D02*
X46614Y16063D01*
X45866Y17441D02*
X46063Y17244D01*
X34370Y17480D02*
X36496D01*
X36850Y17126D01*
X26220Y18228D02*
X29016D01*
X29213Y18819D02*
Y19409D01*
X26654Y18543D02*
X28937D01*
X29213Y18819D01*
X25906Y18543D02*
X26220Y18228D01*
X23504Y17835D02*
Y23622D01*
X26496Y18701D02*
X26654Y18543D01*
X38110Y27874D02*
X40236D01*
X31181Y29094D02*
X36890D01*
X38110Y27874D01*
X40236D02*
X40394Y28031D01*
Y28583D01*
X37244Y29331D02*
X37992Y28583D01*
X31102Y29331D02*
X37244D01*
X37992Y28583D02*
X39134D01*
X29587Y19350D02*
X30571D01*
X29114Y19744D02*
X30571D01*
X26850Y16890D02*
X31260D01*
X26693Y16614D02*
X31457D01*
X25039Y18268D02*
X26693Y16614D01*
X25394Y18346D02*
X26850Y16890D01*
X24685Y25433D02*
X29764D01*
X23110Y23858D02*
X24685Y25433D01*
X24803Y24921D02*
X29016D01*
X23504Y23622D02*
X24803Y24921D01*
X29764Y25433D02*
X30669Y24528D01*
X25079D02*
X28858D01*
X29213Y23110D02*
Y24173D01*
X28858Y24528D02*
X29213Y24173D01*
X30217Y22106D02*
X30571D01*
X35709Y9528D02*
Y12953D01*
X35354Y9210D02*
X35391D01*
X35709Y9528D01*
X35236Y13425D02*
X35709Y12953D01*
X30866Y13425D02*
X35236D01*
X30709Y13583D02*
X30866Y13425D01*
X30709Y13583D02*
Y14409D01*
X28307Y17559D02*
X28937D01*
X35492Y20138D02*
X37972D01*
X38228Y20394D01*
X47047Y11614D02*
Y13740D01*
X33386Y15315D02*
X45000D01*
X46732Y14055D02*
X47047Y13740D01*
X45000Y15315D02*
X45236Y15079D01*
X45472Y14055D02*
X46732D01*
X45236Y14291D02*
X45472Y14055D01*
X45236Y14291D02*
Y15079D01*
X44252Y14331D02*
Y14803D01*
X43937Y15118D02*
X44252Y14803D01*
X41885Y14926D02*
X42047Y14764D01*
Y12913D02*
Y14764D01*
X45394Y12756D02*
X45512Y12638D01*
X42205Y12756D02*
X45394D01*
X42047Y12913D02*
X42205Y12756D01*
X32717Y20118D02*
X33937D01*
X41535Y14724D02*
X41654Y14606D01*
X41929Y12362D02*
X42795D01*
X41654Y12638D02*
X41929Y12362D01*
X41654Y12638D02*
Y14606D01*
X33543Y26457D02*
X34331D01*
X34150Y26457D02*
X34528Y26835D01*
Y28228D01*
X31535Y27087D02*
X32165Y26457D01*
X32874D01*
X32150D02*
X32165D01*
X31535Y27087D02*
Y28228D01*
X48150Y17441D02*
X48409Y17181D01*
X49984D01*
X39173Y21457D02*
X41811D01*
X42047Y21220D01*
X39449Y21693D02*
X41929D01*
X42244Y21378D01*
X34705Y23091D02*
X34803Y23189D01*
X37441D02*
X39173Y21457D01*
X34803Y23189D02*
X37441D01*
X34508Y23091D02*
X34705D01*
X34409Y23819D02*
X34685D01*
X35118Y23386D01*
X37756D02*
X39449Y21693D01*
X35118Y23386D02*
X37756D01*
X42087Y21969D02*
X42480Y21575D01*
X39724Y21969D02*
X42087D01*
X32343Y23091D02*
Y24902D01*
X40039Y22244D02*
X44665D01*
X45394Y21516D01*
X40256Y22500D02*
X45394D01*
X32539Y23091D02*
Y25177D01*
X32677Y25315D01*
X31850Y25394D02*
X32343Y24902D01*
X34311Y23720D02*
X34409Y23819D01*
X34311Y23091D02*
Y23720D01*
X33327Y26240D02*
X33543Y26457D01*
X33327Y23091D02*
Y26240D01*
X32874Y26457D02*
X33130Y26201D01*
Y23091D02*
Y26201D01*
X32146Y23091D02*
Y24468D01*
X31614Y24528D02*
X31949Y24193D01*
X30669Y24528D02*
X31614D01*
X31949Y23091D02*
Y24193D01*
X31457Y24055D02*
X31752Y23760D01*
X30669Y24055D02*
X31457D01*
X31752Y23091D02*
Y23760D01*
X29213Y23110D02*
X30217Y22106D01*
X35492Y18248D02*
X35630Y18110D01*
X35492Y18248D02*
Y19154D01*
X34508Y17854D02*
X34606Y17756D01*
X34508Y17854D02*
Y18169D01*
X39606Y20827D02*
X40118D01*
X39449Y20669D02*
X39606Y20827D01*
X39449Y20512D02*
Y20669D01*
X38681Y19744D02*
X39449Y20512D01*
X33917Y17146D02*
X34055Y17008D01*
X33917Y17146D02*
Y18169D01*
X34114Y17343D02*
X34213Y17244D01*
X34114Y17343D02*
Y18169D01*
X34311Y17539D02*
X34370Y17480D01*
X34311Y17539D02*
Y18169D01*
X33720Y16949D02*
X33898Y16772D01*
X33720Y16949D02*
Y18169D01*
X33524Y16713D02*
X33701Y16535D01*
X33524Y16713D02*
Y18169D01*
X34094Y19291D02*
X34213Y19409D01*
X33425Y19291D02*
X34094D01*
X33327Y19193D02*
X33425Y19291D01*
X33327Y18169D02*
Y19193D01*
X32933Y15768D02*
X33386Y15315D01*
X32933Y15768D02*
Y18169D01*
X32736Y15650D02*
Y18169D01*
X32539Y15571D02*
Y18169D01*
X32343Y15492D02*
Y18169D01*
X33327Y16280D02*
Y18169D01*
Y16280D02*
X33543Y16063D01*
X31457Y16614D02*
X31949Y17106D01*
Y18169D01*
X31260Y16890D02*
X31752Y17382D01*
Y18169D01*
X28937Y17559D02*
X30531Y19154D01*
X30571D01*
X29016Y18228D02*
X29488Y18701D01*
Y19252D01*
X29587Y19350D01*
X29213Y19409D02*
X29350Y19547D01*
X30571D01*
X28543Y18819D02*
X28858Y19134D01*
Y19488D01*
X29114Y19744D01*
X28091Y20728D02*
X30571D01*
X27953Y20591D02*
X28091Y20728D01*
X28189Y21496D02*
X28760Y20925D01*
X27953Y22244D02*
X28878Y21319D01*
X27323Y22244D02*
X27953D01*
X28878Y21319D02*
X30571D01*
X29508Y21713D02*
X30571D01*
X29902Y21909D02*
X30571D01*
X31516Y20531D02*
X32205Y21220D01*
X32244D01*
X30571Y20531D02*
X31516D01*
X33937Y20118D02*
X34094Y20276D01*
X32835Y20039D02*
X33130Y19744D01*
X34449Y21102D02*
X34626Y20925D01*
X34449Y21102D02*
Y21811D01*
X34626Y20925D02*
X35492D01*
X33130Y18169D02*
Y19744D01*
D41*
X33031Y28228D02*
X33582D01*
X32481D02*
X33031D01*
X18976Y6260D02*
X19094Y6378D01*
X18976Y4843D02*
Y6260D01*
X17323Y3189D02*
X18976Y4843D01*
X17323Y2244D02*
Y3189D01*
D42*
X41339Y20866D02*
X41693Y20512D01*
X41142Y20866D02*
X41339D01*
X36988Y20728D02*
X37205Y20945D01*
Y21614D01*
X35492Y20728D02*
X36988D01*
X34055Y20276D02*
X34508Y20728D01*
X34075Y20295D02*
X34084Y20305D01*
X34252Y22008D02*
X34449Y21811D01*
X33583Y22008D02*
X34252D01*
X33524Y22067D02*
X33583Y22008D01*
X33524Y22067D02*
Y23091D01*
X28917Y20925D02*
X30571D01*
X32717Y20118D02*
Y21693D01*
X32402Y22008D02*
X32717Y21693D01*
X32402Y22008D02*
X32756D01*
X31969D02*
X32402D01*
X32756D02*
X32933Y22185D01*
Y23091D01*
X34508Y20728D02*
X35492D01*
D43*
X18937Y15433D02*
Y16457D01*
X20354Y17873D01*
Y18937D01*
X14921Y15787D02*
X15591D01*
X12953D02*
X14921D01*
X12756Y15591D02*
X12953Y15787D01*
X26102Y26969D02*
X26142Y26929D01*
X26102Y26969D02*
X26142Y27008D01*
X25866Y26732D02*
X26102Y26969D01*
X21693Y26732D02*
X25866D01*
X21299Y27126D02*
X21693Y26732D01*
X11024Y27126D02*
X21299D01*
X28228Y19606D02*
X28898Y20276D01*
X29291D01*
X28071Y19606D02*
X28228D01*
X10000Y26732D02*
X21063D01*
X9646Y27087D02*
Y28544D01*
Y27087D02*
X10000Y26732D01*
X10827Y27323D02*
X11024Y27126D01*
X10827Y27323D02*
Y28544D01*
X26535Y26378D02*
X26654Y26496D01*
X21417Y26378D02*
X26535D01*
X21063Y26732D02*
X21417Y26378D01*
X7559Y24843D02*
X7559Y24842D01*
X8268D01*
X9146Y23504D02*
X9736Y24094D01*
X8268Y23504D02*
X9146D01*
D44*
X12756Y15591D02*
Y16496D01*
Y14921D02*
Y15591D01*
X14685Y30000D02*
X14882Y30197D01*
X14685Y28346D02*
Y30000D01*
X5709Y17362D02*
X8386D01*
X10000Y16102D02*
X10039Y16063D01*
Y15197D02*
Y16063D01*
X9882Y15039D02*
X10039Y15197D01*
X8740Y15039D02*
X9882D01*
X12126Y13307D02*
X12323Y13504D01*
X8937Y13307D02*
X12126D01*
X8740Y13504D02*
X8937Y13307D01*
X8740Y13504D02*
Y15039D01*
X4744Y19685D02*
X4843D01*
X3937D02*
X4744D01*
Y20571D01*
Y19646D02*
Y19685D01*
Y20571D02*
X4961Y20787D01*
X6969Y21063D02*
Y23937D01*
X7205Y24173D01*
X8937D02*
X10984Y26220D01*
X12953D01*
X6693Y20787D02*
X6969Y21063D01*
X4961Y20787D02*
X6693D01*
X5054Y16708D02*
X5709Y17362D01*
X30276Y8307D02*
X30354Y8386D01*
X28898Y8307D02*
X30276D01*
X28780Y8189D02*
X28898Y8307D01*
X28780Y7637D02*
Y8189D01*
X32874Y12598D02*
X32913Y12559D01*
X3661Y19409D02*
X3937Y19685D01*
X3661Y14843D02*
Y19409D01*
Y14843D02*
X3826Y14678D01*
X4903D01*
X34016Y4803D02*
Y6339D01*
Y3780D02*
Y4803D01*
X4914Y10276D02*
X6496D01*
X6517Y10255D02*
X6929Y9843D01*
X6890Y8780D02*
X6929Y8819D01*
Y9843D01*
X6102Y10255D02*
X6517D01*
X4893D02*
X4914Y10276D01*
X6496D02*
X6575Y10354D01*
Y11811D01*
X6220Y12165D02*
X6575Y11811D01*
X5354Y12165D02*
X6220D01*
X4903Y12616D02*
X5354Y12165D01*
X4903Y12616D02*
Y14678D01*
X8661Y15118D02*
X8740Y15039D01*
X8661Y15118D02*
Y17087D01*
X8386Y17362D02*
X8661Y17087D01*
X4903Y16708D02*
X5054D01*
X12441Y22520D02*
Y23858D01*
Y22480D02*
Y22520D01*
X12480D01*
X10551D02*
X12441D01*
X12205Y24094D02*
X12441Y23858D01*
X10736Y24094D02*
X12205D01*
X39291Y2165D02*
X39724Y2598D01*
X39252Y2165D02*
X39291D01*
X39724Y2598D02*
Y6300D01*
X35394Y3740D02*
X37047Y5394D01*
X35394Y2205D02*
Y3740D01*
X37047Y5394D02*
Y6300D01*
X30709Y2244D02*
X30748D01*
X32795Y4291D01*
Y6339D01*
X32677Y2165D02*
Y2441D01*
X34016Y3780D01*
X26220Y2283D02*
X26299Y2362D01*
Y3701D01*
X26575Y3976D01*
X28150D01*
X28780Y4606D01*
Y6300D01*
X21693Y2244D02*
X21772Y2323D01*
Y4843D01*
X22047Y5118D01*
X26457D01*
X26696Y5357D01*
Y6770D01*
X10315Y18661D02*
X10394Y18740D01*
X12677Y14843D02*
X12756Y14921D01*
X12638Y16614D02*
X12756Y16496D01*
X10669Y16614D02*
X12638D01*
X10394Y16890D02*
X10669Y16614D01*
X10394Y16890D02*
Y18644D01*
X11299Y17480D02*
X11339Y17441D01*
X11299Y17480D02*
Y18644D01*
X10390Y22358D02*
X10551Y22520D01*
X10390Y21120D02*
Y22358D01*
X10394Y18740D02*
X10472Y18819D01*
Y21102D01*
D45*
X22795Y27756D02*
X23583Y28543D01*
X19606Y27756D02*
X19646D01*
X22795D01*
X23583Y28543D02*
X25354D01*
X29528Y28228D02*
X30906Y29606D01*
X25669Y28228D02*
X29528D01*
X25354Y28543D02*
X25669Y28228D01*
X30906Y29606D02*
X32717D01*
X32953Y29843D01*
Y30079D01*
X43858Y9094D02*
X43898Y9055D01*
X44803D01*
X43228Y13268D02*
X45866D01*
X33031Y14528D02*
X37008D01*
X37283Y11181D02*
Y14252D01*
X37008Y14528D02*
X37283Y14252D01*
X32146Y15413D02*
X33031Y14528D01*
X42717Y13780D02*
X43228Y13268D01*
X46654Y10630D02*
Y13268D01*
X43268Y14370D02*
X43307D01*
X44016Y13661D01*
X46260D01*
X46654Y13268D01*
X47047Y11024D02*
Y11614D01*
X45512Y12638D02*
X45709Y12441D01*
X42795Y12362D02*
X45000D01*
X42717D02*
X42795D01*
X32146Y15413D02*
Y18169D01*
X47323Y10748D02*
X48976D01*
X50118Y9606D02*
X51575D01*
X48976Y10748D02*
X50118Y9606D01*
X46535Y10039D02*
X48425D01*
X51575Y9606D02*
X52087Y9094D01*
X47047Y11024D02*
X47323Y10748D01*
X52087Y8601D02*
Y9094D01*
X48780Y10354D02*
X50079Y9055D01*
X46654Y10630D02*
X46929Y10354D01*
X48780D01*
X50079Y9055D02*
X50984D01*
X51102Y8937D01*
Y8601D02*
Y8937D01*
X48425Y10039D02*
X49864Y8601D01*
X46220Y10354D02*
Y12913D01*
Y10354D02*
X46535Y10039D01*
X45866Y13268D02*
X46220Y12913D01*
X49864Y8601D02*
X50118D01*
X47756Y9724D02*
X48110Y9370D01*
X45709Y10000D02*
Y12441D01*
Y10000D02*
X45984Y9724D01*
X47756D01*
X48110Y8640D02*
Y9370D01*
X45000Y12362D02*
X45236Y12126D01*
Y9685D02*
Y12126D01*
Y9685D02*
X45630Y9291D01*
X46732D01*
X47087Y8937D01*
Y8601D02*
Y8937D01*
X44803Y9055D02*
X45257Y8601D01*
X46142D01*
D46*
X7205Y24173D02*
X8937D01*
D47*
X22953Y14419D02*
Y13819D01*
X23253D01*
X23353Y13919D01*
Y14319D01*
X23253Y14419D01*
X22953D01*
X23952Y14319D02*
X23852Y14419D01*
X23653D01*
X23553Y14319D01*
Y13919D01*
X23653Y13819D01*
X23852D01*
X23952Y13919D01*
X25152Y14319D02*
X25052Y14419D01*
X24852D01*
X24752Y14319D01*
Y13919D01*
X24852Y13819D01*
X25052D01*
X25152Y13919D01*
X25652Y14419D02*
X25452D01*
X25352Y14319D01*
Y13919D01*
X25452Y13819D01*
X25652D01*
X25752Y13919D01*
Y14319D01*
X25652Y14419D01*
X25952Y13819D02*
Y14419D01*
X26352Y13819D01*
Y14419D01*
X26552D02*
X26951D01*
X26752D01*
Y13819D01*
X27751Y14319D02*
X27851Y14419D01*
X28051D01*
X28151Y14319D01*
Y13919D01*
X28051Y13819D01*
X27851D01*
X27751Y13919D01*
Y14319D01*
X28351Y13819D02*
X28551D01*
X28451D01*
Y14419D01*
X28351Y14319D01*
D48*
X16772Y9193D02*
D03*
D49*
X16299Y7028D02*
D03*
D50*
X24272Y42224D02*
D03*
D51*
X28740Y42244D02*
D03*
D52*
X14427Y42956D02*
D03*
D53*
X9298Y38753D02*
D03*
D54*
X33012Y28209D02*
D03*
D55*
X16831Y9252D02*
D03*
D56*
X52008Y44055D02*
D03*
X51181Y11811D02*
D03*
X1220Y44055D02*
D03*
X1181Y1181D02*
D03*
X52008Y1181D02*
D03*
D57*
X16850Y9409D02*
D03*
X17362D02*
D03*
X17835D02*
D03*
Y8937D02*
D03*
X17362D02*
D03*
X16850D02*
D03*
X28583Y39055D02*
D03*
X28071D02*
D03*
Y38189D02*
D03*
X28583D02*
D03*
Y38622D02*
D03*
X28071D02*
D03*
X28583Y37756D02*
D03*
X28071D02*
D03*
X44961Y41457D02*
D03*
Y40906D02*
D03*
Y40394D02*
D03*
X45827D02*
D03*
Y40906D02*
D03*
Y41457D02*
D03*
X45394D02*
D03*
Y40906D02*
D03*
Y40394D02*
D03*
X46260Y41457D02*
D03*
Y40906D02*
D03*
Y40394D02*
D03*
X36378Y39331D02*
D03*
Y38780D02*
D03*
Y38268D02*
D03*
X37244D02*
D03*
Y38780D02*
D03*
Y39331D02*
D03*
X36811D02*
D03*
Y38780D02*
D03*
Y38268D02*
D03*
X37677Y39331D02*
D03*
Y38780D02*
D03*
Y38268D02*
D03*
X33465Y39291D02*
D03*
Y38740D02*
D03*
Y38228D02*
D03*
X34331D02*
D03*
Y38740D02*
D03*
Y39291D02*
D03*
X33898D02*
D03*
Y38740D02*
D03*
Y38228D02*
D03*
X34764Y39291D02*
D03*
Y38740D02*
D03*
Y38228D02*
D03*
X20079Y39252D02*
D03*
Y38701D02*
D03*
Y38189D02*
D03*
X20945D02*
D03*
Y38701D02*
D03*
Y39252D02*
D03*
X20512D02*
D03*
Y38701D02*
D03*
Y38189D02*
D03*
X21378Y39252D02*
D03*
Y38701D02*
D03*
Y38189D02*
D03*
X16850Y39252D02*
D03*
Y38701D02*
D03*
Y38189D02*
D03*
X17717D02*
D03*
Y38701D02*
D03*
Y39252D02*
D03*
X17283D02*
D03*
Y38701D02*
D03*
Y38189D02*
D03*
X18150Y39252D02*
D03*
Y38701D02*
D03*
Y38189D02*
D03*
X9016Y41496D02*
D03*
Y40945D02*
D03*
Y40433D02*
D03*
X9882D02*
D03*
Y40945D02*
D03*
Y41496D02*
D03*
X9449D02*
D03*
Y40945D02*
D03*
Y40433D02*
D03*
X10315Y41496D02*
D03*
Y40945D02*
D03*
Y40433D02*
D03*
X4331Y30079D02*
D03*
X3780D02*
D03*
X3268D02*
D03*
Y29213D02*
D03*
X3780D02*
D03*
X4331D02*
D03*
Y29646D02*
D03*
X3780D02*
D03*
X3268D02*
D03*
X4331Y28780D02*
D03*
X3780D02*
D03*
X3268D02*
D03*
X4213Y33071D02*
D03*
X3661D02*
D03*
X3150D02*
D03*
Y32205D02*
D03*
X3661D02*
D03*
X4213D02*
D03*
Y32638D02*
D03*
X3661D02*
D03*
X3150D02*
D03*
X4213Y31772D02*
D03*
X3661D02*
D03*
X3150D02*
D03*
D58*
X22126Y14764D02*
D03*
X21299Y17874D02*
D03*
X39016Y31417D02*
D03*
X2899Y16708D02*
D03*
X12441Y22480D02*
D03*
X9134Y31181D02*
D03*
X11929Y29843D02*
D03*
X25669Y11102D02*
D03*
X22677Y11575D02*
D03*
X51654Y30236D02*
D03*
X38386Y11299D02*
D03*
X43740Y11299D02*
D03*
X41024Y12677D02*
D03*
X30984Y11929D02*
D03*
X35157Y12638D02*
D03*
X19291Y18071D02*
D03*
X47126Y17992D02*
D03*
X22559Y29449D02*
D03*
X28976Y29134D02*
D03*
X25157Y34331D02*
D03*
X13504Y7992D02*
D03*
X51220Y22992D02*
D03*
X24882Y15945D02*
D03*
X45315Y30748D02*
D03*
X9055Y34016D02*
D03*
X47480Y35118D02*
D03*
X23543Y34055D02*
D03*
X34882Y31339D02*
D03*
X12638Y36614D02*
D03*
X6220Y27087D02*
D03*
X42047Y36929D02*
D03*
D59*
X4961Y39488D02*
D03*
X4528Y23819D02*
D03*
X49921Y37874D02*
D03*
X4744Y19646D02*
D03*
X6909D02*
D03*
X34150Y26457D02*
D03*
X32150D02*
D03*
D60*
X4961Y41457D02*
D03*
X49921Y39843D02*
D03*
D61*
X4903Y9245D02*
D03*
Y14678D02*
D03*
D62*
X4893Y10255D02*
D03*
X4903Y11275D02*
D03*
X4893Y15688D02*
D03*
X4903Y16708D02*
D03*
D63*
X3543Y36319D02*
D03*
X9736Y24094D02*
D03*
X10736D02*
D03*
X45815Y15866D02*
D03*
X44815D02*
D03*
X45394Y21516D02*
D03*
Y24469D02*
D03*
Y23484D02*
D03*
Y22500D02*
D03*
Y20531D02*
D03*
X7560Y15039D02*
D03*
X49984Y20181D02*
D03*
X50984D02*
D03*
X49984Y19181D02*
D03*
X50984D02*
D03*
X49984Y18181D02*
D03*
X50984D02*
D03*
X49984Y17181D02*
D03*
X50984D02*
D03*
X49984Y16181D02*
D03*
X46094Y6890D02*
D03*
X47094D02*
D03*
X48094D02*
D03*
X49094D02*
D03*
X50094D02*
D03*
X51094D02*
D03*
X52094D02*
D03*
X45094D02*
D03*
X14094Y29055D02*
D03*
X43464Y29252D02*
D03*
X49449Y25020D02*
D03*
X49636Y32646D02*
D03*
Y33630D02*
D03*
D64*
X3543Y35335D02*
D03*
X45394Y25453D02*
D03*
X44094Y6890D02*
D03*
X49449Y26004D02*
D03*
X49636Y31661D02*
D03*
D65*
X3937Y2244D02*
D03*
X8399D02*
D03*
X24213Y42283D02*
D03*
X28740D02*
D03*
X17323Y2244D02*
D03*
X21785D02*
D03*
X26247D02*
D03*
X12861D02*
D03*
X30709D02*
D03*
X35394Y2205D02*
D03*
D66*
X5906Y2244D02*
D03*
X10367D02*
D03*
X26181Y42283D02*
D03*
X30709D02*
D03*
X19291Y2244D02*
D03*
X23753D02*
D03*
X28215D02*
D03*
X14829D02*
D03*
X32677D02*
D03*
X39331Y2205D02*
D03*
X37362D02*
D03*
D67*
X44965Y3783D02*
D03*
X49335D02*
D03*
D68*
X43965D02*
D03*
X42965D02*
D03*
X41965D02*
D03*
X44965Y783D02*
D03*
X43965D02*
D03*
X42965D02*
D03*
X41965D02*
D03*
X46335D02*
D03*
X47335D02*
D03*
X48335D02*
D03*
X49335D02*
D03*
X46335Y3783D02*
D03*
X47335D02*
D03*
X48335D02*
D03*
D69*
X7559Y11063D02*
D03*
X11575Y14921D02*
D03*
X18937Y15394D02*
D03*
D70*
X8740Y11063D02*
D03*
X12756Y14921D02*
D03*
X20118Y15394D02*
D03*
D71*
X8740Y15039D02*
D03*
X50984Y16181D02*
D03*
X12914Y29055D02*
D03*
X42284Y29252D02*
D03*
D72*
X2559Y23819D02*
D03*
D73*
X28150Y29646D02*
D03*
X33031Y28228D02*
D03*
X16417Y9764D02*
D03*
X44646Y11063D02*
D03*
X44843Y19528D02*
D03*
X43150D02*
D03*
X41142Y18858D02*
D03*
X48228Y22205D02*
D03*
X46496D02*
D03*
X26732Y11890D02*
D03*
X23937D02*
D03*
X16299Y30276D02*
D03*
X14882Y30197D02*
D03*
X14685Y28346D02*
D03*
X19646Y27756D02*
D03*
X23701Y27362D02*
D03*
X25945Y18583D02*
D03*
X12520Y17323D02*
D03*
X10000Y16102D02*
D03*
X12323Y13504D02*
D03*
X21142Y5512D02*
D03*
X16535Y29016D02*
D03*
X32047Y30079D02*
D03*
X14370Y12559D02*
D03*
X16220Y12520D02*
D03*
X11732Y27717D02*
D03*
X12953Y26260D02*
D03*
X35079Y25787D02*
D03*
X30197Y24055D02*
D03*
X38346Y26417D02*
D03*
X37441Y26575D02*
D03*
X36614Y27795D02*
D03*
X35551Y27087D02*
D03*
X30669Y27047D02*
D03*
X49370Y14409D02*
D03*
X17598Y15827D02*
D03*
X31772Y14173D02*
D03*
X41614Y20551D02*
D03*
X37205Y21614D02*
D03*
X48780Y16378D02*
D03*
X27480Y26772D02*
D03*
X31811Y36339D02*
D03*
X15551Y28346D02*
D03*
X36102Y24803D02*
D03*
X36654Y26102D02*
D03*
X35512Y26339D02*
D03*
X35492Y22776D02*
D03*
X43071Y22992D02*
D03*
X43307Y16693D02*
D03*
X43032Y16063D02*
D03*
X42126Y15748D02*
D03*
X36535Y13032D02*
D03*
X39094Y14094D02*
D03*
X35866Y14016D02*
D03*
X25236Y21417D02*
D03*
X26890Y27323D02*
D03*
X43937Y23622D02*
D03*
X24291Y27874D02*
D03*
X24094Y17244D02*
D03*
X25866Y19370D02*
D03*
X25984Y20236D02*
D03*
X14961Y17008D02*
D03*
X25906Y21024D02*
D03*
X26654Y26496D02*
D03*
X26142Y27008D02*
D03*
X29291Y20276D02*
D03*
X23110Y17126D02*
D03*
X43740Y18110D02*
D03*
X30709Y14409D02*
D03*
X28307Y17559D02*
D03*
X38228Y20394D02*
D03*
X30118Y14882D02*
D03*
X37165Y17677D02*
D03*
X29449Y14409D02*
D03*
X29488Y15354D02*
D03*
X36496Y16811D02*
D03*
X42717Y13780D02*
D03*
X43268Y14370D02*
D03*
X44291D02*
D03*
X43858Y9094D02*
D03*
X37323Y11220D02*
D03*
X45630Y16890D02*
D03*
X42953Y20984D02*
D03*
X39134Y21024D02*
D03*
X36614Y22362D02*
D03*
X33858Y24764D02*
D03*
X34528Y25315D02*
D03*
X32677D02*
D03*
X31811Y25394D02*
D03*
X40591Y18032D02*
D03*
X37638Y18898D02*
D03*
X38268Y19370D02*
D03*
X34961Y16024D02*
D03*
X34213Y19409D02*
D03*
X27874Y21496D02*
D03*
X27323Y22244D02*
D03*
X26693Y23780D02*
D03*
X32244Y21220D02*
D03*
X34449Y21811D02*
D03*
X31969Y22008D02*
D03*
X34094Y20276D02*
D03*
X32717Y20118D02*
D03*
X34882Y9921D02*
D03*
X23583Y4331D02*
D03*
Y5827D02*
D03*
X30354Y8386D02*
D03*
X31693Y9803D02*
D03*
X32165Y10512D02*
D03*
X34882Y10630D02*
D03*
X21772Y11142D02*
D03*
X21457Y12953D02*
D03*
X14803Y11693D02*
D03*
X31102Y10906D02*
D03*
X20236Y10669D02*
D03*
X35197Y5787D02*
D03*
X31142Y8031D02*
D03*
X26260Y10039D02*
D03*
X19488Y9055D02*
D03*
X24567Y6142D02*
D03*
X41417Y23976D02*
D03*
X37992Y29449D02*
D03*
X40906Y27795D02*
D03*
X29213Y38543D02*
D03*
X30315Y33031D02*
D03*
X17638Y11102D02*
D03*
X10748Y9528D02*
D03*
X7559Y24843D02*
D03*
X11339Y17441D02*
D03*
X9409D02*
D03*
X19488Y21220D02*
D03*
X15748Y22126D02*
D03*
X18858Y26220D02*
D03*
X17520Y26181D02*
D03*
X15118Y23346D02*
D03*
X17835Y17598D02*
D03*
X15827Y20472D02*
D03*
X20394Y23110D02*
D03*
X39921Y32165D02*
D03*
X43032Y30591D02*
D03*
X35315Y36890D02*
D03*
X26772Y30512D02*
D03*
X10512Y32047D02*
D03*
X24567Y31654D02*
D03*
X22087Y32756D02*
D03*
X18819D02*
D03*
X21969Y36969D02*
D03*
X18740Y36929D02*
D03*
X12087Y8504D02*
D03*
X7362Y28110D02*
D03*
X7205Y30591D02*
D03*
X11260Y36850D02*
D03*
Y39488D02*
D03*
X5551Y30591D02*
D03*
Y33740D02*
D03*
X29331Y8937D02*
D03*
X41417Y8346D02*
D03*
X39016Y9488D02*
D03*
X42992Y8268D02*
D03*
M02*
