%FSLAX24Y24*%
%MOIN*%
G70*
G01*
G75*
G04 Layer_Color=128*
%ADD10O,0.0110X0.0866*%
%ADD11R,0.0110X0.0866*%
%ADD12R,0.0866X0.0110*%
%ADD13R,0.0787X0.0394*%
%ADD14R,0.0472X0.0709*%
%ADD15R,0.0591X0.0472*%
%ADD16R,0.0512X0.0433*%
%ADD17R,0.0591X0.0433*%
%ADD18R,0.0472X0.0906*%
%ADD19R,0.1575X0.0866*%
%ADD20R,0.2165X0.1772*%
%ADD21R,0.0236X0.0591*%
%ADD22O,0.0236X0.0591*%
%ADD23R,0.0433X0.0591*%
%ADD24O,0.0236X0.0787*%
%ADD25R,0.0236X0.0787*%
%ADD26R,0.0591X0.0787*%
%ADD27R,0.0787X0.0591*%
%ADD28R,0.0709X0.0472*%
%ADD29O,0.0591X0.0236*%
%ADD30R,0.0591X0.0236*%
%ADD31R,0.1772X0.2165*%
%ADD32R,0.0394X0.0787*%
%ADD33R,0.0787X0.1575*%
%ADD34R,0.0472X0.0591*%
%ADD35R,0.0433X0.0512*%
%ADD36R,0.0787X0.0236*%
%ADD37O,0.0787X0.0236*%
%ADD38R,0.0315X0.0335*%
%ADD39C,0.0157*%
%ADD40C,0.0098*%
%ADD41C,0.0394*%
%ADD42C,0.0079*%
%ADD43C,0.0197*%
%ADD44C,0.0236*%
%ADD45C,0.0118*%
%ADD46C,0.0138*%
%ADD47C,0.0100*%
%ADD48R,0.1339X0.1063*%
%ADD49R,0.3071X0.1772*%
%ADD50R,0.1299X0.1535*%
%ADD51R,0.1575X0.1417*%
%ADD52R,0.0193X0.0151*%
%ADD53R,0.1116X0.0604*%
%ADD54R,0.1063X0.0906*%
%ADD55R,0.0512X0.0157*%
%ADD56C,0.1181*%
%ADD57C,0.0600*%
%ADD58C,0.0709*%
%ADD59C,0.0787*%
%ADD60R,0.0787X0.0787*%
%ADD61R,0.1181X0.0669*%
%ADD62O,0.1181X0.0669*%
%ADD63C,0.0591*%
%ADD64R,0.0591X0.0591*%
%ADD65R,0.0984X0.0984*%
%ADD66C,0.0984*%
%ADD67R,0.0472X0.0984*%
%ADD68O,0.0472X0.0984*%
%ADD69C,0.0669*%
%ADD70R,0.0669X0.0669*%
%ADD71R,0.0591X0.0591*%
%ADD72R,0.0787X0.0787*%
%ADD73C,0.0500*%
%ADD74C,0.0787*%
%ADD75R,0.4213X0.3504*%
%ADD76R,0.7165X0.3189*%
%ADD77R,0.1732X0.1811*%
%ADD78R,0.2795X0.6811*%
%ADD79C,0.0039*%
%ADD80C,0.0102*%
%ADD81C,0.0080*%
%ADD82R,5.3228X0.0551*%
D17*
X36890Y19803D02*
D03*
Y20749D02*
D03*
X43071Y7717D02*
D03*
Y6771D02*
D03*
X20276Y10001D02*
D03*
Y9054D02*
D03*
X30433Y33897D02*
D03*
Y34843D02*
D03*
X50630Y32362D02*
D03*
Y33308D02*
D03*
X31181Y7284D02*
D03*
Y6338D02*
D03*
X29094Y10631D02*
D03*
Y9684D02*
D03*
X34646Y21064D02*
D03*
Y20117D02*
D03*
X31614Y21064D02*
D03*
Y20117D02*
D03*
X46299Y23425D02*
D03*
Y24371D02*
D03*
X48898Y39253D02*
D03*
Y38306D02*
D03*
X6102Y40906D02*
D03*
Y39960D02*
D03*
X44449Y25316D02*
D03*
Y24369D02*
D03*
D23*
X4881Y12362D02*
D03*
X5827D02*
D03*
X8623Y12008D02*
D03*
X7677D02*
D03*
X8623Y16063D02*
D03*
X7677D02*
D03*
X12678Y15906D02*
D03*
X11732D02*
D03*
X10867Y17441D02*
D03*
X9921D02*
D03*
X3070Y24843D02*
D03*
X4016D02*
D03*
X13031Y28071D02*
D03*
X13977D02*
D03*
X42401Y28307D02*
D03*
X43347D02*
D03*
X50946Y24409D02*
D03*
X49999D02*
D03*
X12993Y9528D02*
D03*
X12047D02*
D03*
X26221Y9331D02*
D03*
X25275D02*
D03*
X32913Y10394D02*
D03*
X33859D02*
D03*
X39842Y9449D02*
D03*
X40788D02*
D03*
X20040Y16339D02*
D03*
X19094D02*
D03*
X17520Y21811D02*
D03*
X16574D02*
D03*
X33623Y19409D02*
D03*
X32677D02*
D03*
X33544Y22008D02*
D03*
X32598D02*
D03*
X50985Y21181D02*
D03*
X50039D02*
D03*
D26*
X12732Y6181D02*
D03*
X14828D02*
D03*
M02*
