%FSLAX24Y24*%
%MOIN*%
G70*
G01*
G75*
G04 Layer_Physical_Order=2*
G04 Layer_Color=16711680*
%ADD10O,0.0110X0.0866*%
%ADD11R,0.0110X0.0866*%
%ADD12R,0.0866X0.0110*%
%ADD13R,0.0787X0.0394*%
%ADD14R,0.0472X0.0709*%
%ADD15R,0.0591X0.0472*%
%ADD16R,0.0512X0.0433*%
%ADD17R,0.0591X0.0433*%
%ADD18R,0.0472X0.0906*%
%ADD19R,0.1575X0.0866*%
%ADD20R,0.2165X0.1772*%
%ADD21R,0.0236X0.0591*%
%ADD22O,0.0236X0.0591*%
%ADD23R,0.0433X0.0591*%
%ADD24O,0.0236X0.0787*%
%ADD25R,0.0236X0.0787*%
%ADD26R,0.0591X0.0787*%
%ADD27R,0.0787X0.0591*%
%ADD28R,0.0709X0.0472*%
%ADD29O,0.0591X0.0236*%
%ADD30R,0.0591X0.0236*%
%ADD31R,0.1772X0.2165*%
%ADD32R,0.0394X0.0787*%
%ADD33R,0.0787X0.1575*%
%ADD34R,0.0472X0.0591*%
%ADD35R,0.0433X0.0512*%
%ADD36R,0.0787X0.0236*%
%ADD37O,0.0787X0.0236*%
%ADD38R,0.0315X0.0335*%
%ADD39C,0.0157*%
%ADD40C,0.0098*%
%ADD41C,0.0394*%
%ADD42C,0.0079*%
%ADD43C,0.0197*%
%ADD44C,0.0236*%
%ADD45C,0.0118*%
%ADD46C,0.0138*%
%ADD47C,0.0100*%
%ADD48R,0.1339X0.1063*%
%ADD49R,0.3071X0.1772*%
%ADD50R,0.1299X0.1535*%
%ADD51R,0.1575X0.1417*%
%ADD52R,0.0193X0.0151*%
%ADD53R,0.1116X0.0604*%
%ADD54R,0.1063X0.0906*%
%ADD55R,0.0512X0.0157*%
%ADD56C,0.1181*%
%ADD57C,0.0600*%
%ADD58C,0.0709*%
%ADD59C,0.0787*%
%ADD60R,0.0787X0.0787*%
%ADD61R,0.1181X0.0669*%
%ADD62O,0.1181X0.0669*%
%ADD63C,0.0591*%
%ADD64R,0.0591X0.0591*%
%ADD65R,0.0984X0.0984*%
%ADD66C,0.0984*%
%ADD67R,0.0472X0.0984*%
%ADD68O,0.0472X0.0984*%
%ADD69C,0.0669*%
%ADD70R,0.0669X0.0669*%
%ADD71R,0.0591X0.0591*%
%ADD72R,0.0787X0.0787*%
%ADD73C,0.0500*%
%ADD74C,0.0787*%
%ADD75R,0.4213X0.3504*%
%ADD76R,0.7165X0.3189*%
%ADD77R,0.1732X0.1811*%
%ADD78R,0.2795X0.6811*%
G36*
X50763Y44914D02*
X50666Y44756D01*
X50576Y44539D01*
X50521Y44310D01*
X50503Y44075D01*
X50521Y43840D01*
X50576Y43611D01*
X50666Y43394D01*
X50790Y43193D01*
X50942Y43014D01*
X51122Y42861D01*
X51322Y42738D01*
X51540Y42648D01*
X51769Y42593D01*
X52004Y42574D01*
X52238Y42593D01*
X52467Y42648D01*
X52685Y42738D01*
X52867Y42850D01*
X52911Y42825D01*
Y2451D01*
X52867Y2427D01*
X52685Y2538D01*
X52467Y2628D01*
X52238Y2683D01*
X52004Y2702D01*
X51769Y2683D01*
X51540Y2628D01*
X51322Y2538D01*
X51122Y2415D01*
X50942Y2262D01*
X50790Y2083D01*
X50666Y1882D01*
X50576Y1665D01*
X50521Y1436D01*
X50503Y1201D01*
X50521Y966D01*
X50576Y737D01*
X50666Y520D01*
X50764Y361D01*
X50739Y318D01*
X49825D01*
X49798Y359D01*
X49814Y399D01*
X49831Y528D01*
Y733D01*
X49335D01*
Y783D01*
X49285D01*
Y1529D01*
X49206Y1519D01*
X49086Y1469D01*
X48984Y1390D01*
X48905Y1288D01*
X48860Y1179D01*
X48810D01*
X48765Y1288D01*
X48686Y1390D01*
X48583Y1469D01*
X48463Y1519D01*
X48385Y1529D01*
Y783D01*
X48285D01*
Y1529D01*
X48206Y1519D01*
X48086Y1469D01*
X47984Y1390D01*
X47905Y1288D01*
X47860Y1179D01*
X47810D01*
X47765Y1288D01*
X47686Y1390D01*
X47583Y1469D01*
X47463Y1519D01*
X47385Y1529D01*
Y783D01*
X47285D01*
Y1529D01*
X47206Y1519D01*
X47086Y1469D01*
X46984Y1390D01*
X46905Y1288D01*
X46860Y1179D01*
X46810D01*
X46765Y1288D01*
X46686Y1390D01*
X46583Y1469D01*
X46463Y1519D01*
X46385Y1529D01*
Y783D01*
X46335D01*
Y733D01*
X45838D01*
Y528D01*
X45855Y399D01*
X45872Y359D01*
X45844Y318D01*
X45455D01*
X45428Y359D01*
X45444Y399D01*
X45461Y528D01*
Y733D01*
X44964D01*
Y783D01*
X44915D01*
Y1529D01*
X44836Y1519D01*
X44716Y1469D01*
X44614Y1390D01*
X44535Y1288D01*
X44490Y1179D01*
X44440D01*
X44394Y1288D01*
X44316Y1390D01*
X44213Y1469D01*
X44093Y1519D01*
X44015Y1529D01*
Y783D01*
X43915D01*
Y1529D01*
X43836Y1519D01*
X43716Y1469D01*
X43614Y1390D01*
X43535Y1288D01*
X43490Y1179D01*
X43440D01*
X43394Y1288D01*
X43316Y1390D01*
X43213Y1469D01*
X43093Y1519D01*
X43015Y1529D01*
Y783D01*
X42915D01*
Y1529D01*
X42836Y1519D01*
X42716Y1469D01*
X42614Y1390D01*
X42535Y1288D01*
X42490Y1179D01*
X42440D01*
X42394Y1288D01*
X42316Y1390D01*
X42213Y1469D01*
X42093Y1519D01*
X42015Y1529D01*
Y783D01*
X41965D01*
Y733D01*
X41468D01*
Y528D01*
X41485Y399D01*
X41502Y359D01*
X41474Y318D01*
X2441D01*
X2417Y361D01*
X2514Y520D01*
X2604Y737D01*
X2659Y966D01*
X2678Y1201D01*
X2659Y1436D01*
X2604Y1665D01*
X2514Y1882D01*
X2391Y2083D01*
X2238Y2262D01*
X2059Y2415D01*
X1858Y2538D01*
X1641Y2628D01*
X1412Y2683D01*
X1177Y2702D01*
X942Y2683D01*
X713Y2628D01*
X496Y2538D01*
X361Y2456D01*
X318Y2480D01*
Y42820D01*
X361Y42844D01*
X535Y42738D01*
X752Y42648D01*
X981Y42593D01*
X1216Y42574D01*
X1451Y42593D01*
X1680Y42648D01*
X1898Y42738D01*
X2098Y42861D01*
X2277Y43014D01*
X2430Y43193D01*
X2553Y43394D01*
X2643Y43611D01*
X2698Y43840D01*
X2717Y44075D01*
X2698Y44310D01*
X2643Y44539D01*
X2553Y44756D01*
X2430Y44957D01*
X2431Y44958D01*
X50739D01*
X50763Y44914D01*
D02*
G37*
%LPC*%
G36*
X29646Y9634D02*
X28543D01*
Y9212D01*
X28852D01*
X28880Y9170D01*
X28838Y9069D01*
X28827Y8987D01*
X29834D01*
X29824Y9069D01*
X29773Y9192D01*
X29692Y9298D01*
X29646Y9333D01*
Y9634D01*
D02*
G37*
G36*
X16367Y9714D02*
X15914D01*
X15924Y9632D01*
X15975Y9509D01*
X16056Y9403D01*
X16162Y9322D01*
X16285Y9271D01*
X16367Y9260D01*
Y9714D01*
D02*
G37*
G36*
X38966Y9438D02*
X38512D01*
X38523Y9356D01*
X38574Y9233D01*
X38655Y9127D01*
X38761Y9046D01*
X38884Y8995D01*
X38966Y8985D01*
Y9438D01*
D02*
G37*
G36*
X5355Y12913D02*
X5354Y12913D01*
X5354D01*
Y12913D01*
X5354D01*
X5354D01*
X4409D01*
Y11817D01*
X4318Y11768D01*
X4228Y11694D01*
X4154Y11604D01*
X4099Y11502D01*
X4065Y11390D01*
X4054Y11275D01*
X4065Y11159D01*
X4099Y11047D01*
X4154Y10945D01*
X4228Y10855D01*
X4268Y10822D01*
X4302Y10758D01*
Y10744D01*
X4218Y10674D01*
X4144Y10584D01*
X4089Y10482D01*
X4055Y10370D01*
X4044Y10255D01*
X4055Y10139D01*
X4089Y10027D01*
X4144Y9925D01*
X4180Y9880D01*
X4159Y9835D01*
X4057D01*
Y8654D01*
X5750D01*
Y9835D01*
X5627D01*
X5606Y9880D01*
X5642Y9925D01*
X5697Y10027D01*
X5731Y10139D01*
X5742Y10255D01*
X5731Y10370D01*
X5697Y10482D01*
X5642Y10584D01*
X5569Y10674D01*
X5479Y10748D01*
Y10776D01*
X5489Y10781D01*
X5579Y10855D01*
X5652Y10945D01*
X5707Y11047D01*
X5741Y11159D01*
X5753Y11275D01*
X5741Y11390D01*
X5707Y11502D01*
X5652Y11604D01*
X5579Y11694D01*
X5489Y11768D01*
X5500Y11811D01*
X5777D01*
Y12362D01*
Y12913D01*
X5355D01*
Y12913D01*
D02*
G37*
G36*
X25225Y9281D02*
X24803D01*
Y8780D01*
X25225D01*
Y9281D01*
D02*
G37*
G36*
X16921Y9714D02*
X16467D01*
Y9260D01*
X16549Y9271D01*
X16672Y9322D01*
X16778Y9403D01*
X16859Y9509D01*
X16910Y9632D01*
X16921Y9714D01*
D02*
G37*
G36*
X39792Y10000D02*
X39369D01*
Y9911D01*
X39325Y9889D01*
X39271Y9930D01*
X39148Y9981D01*
X39066Y9992D01*
Y9488D01*
Y8985D01*
X39148Y8995D01*
X39271Y9046D01*
X39325Y9088D01*
X39369Y9065D01*
Y8898D01*
X39792D01*
Y9449D01*
Y10000D01*
D02*
G37*
G36*
X12554Y10079D02*
D01*
D01*
X12554Y10079D01*
X12520Y10079D01*
X12520D01*
X12519D01*
X12485Y10079D01*
X12485Y10079D01*
Y10079D01*
X12097D01*
Y9527D01*
X12047D01*
Y9478D01*
X11574D01*
Y8976D01*
X11794D01*
X11810Y8929D01*
X11726Y8865D01*
X11645Y8759D01*
X11594Y8636D01*
X11583Y8554D01*
X12590D01*
X12579Y8636D01*
X12529Y8759D01*
X12447Y8865D01*
X12342Y8946D01*
X12348Y8976D01*
X12519D01*
X12519Y8976D01*
Y8976D01*
D01*
X12520D01*
X12554Y8976D01*
Y8976D01*
X12554D01*
X12554D01*
Y8976D01*
D01*
D01*
D01*
X13067D01*
X13166Y8877D01*
Y8504D01*
X13163Y8502D01*
X13070Y8426D01*
X12994Y8333D01*
X12937Y8227D01*
X12903Y8112D01*
X12891Y7992D01*
X12903Y7872D01*
X12937Y7757D01*
X12994Y7651D01*
X13070Y7559D01*
X13163Y7482D01*
X13269Y7426D01*
X13384Y7391D01*
X13504Y7379D01*
X13624Y7391D01*
X13739Y7426D01*
X13845Y7482D01*
X13938Y7559D01*
X14014Y7651D01*
X14070Y7757D01*
X14105Y7872D01*
X14117Y7992D01*
X14105Y8112D01*
X14070Y8227D01*
X14014Y8333D01*
X13938Y8426D01*
X13845Y8502D01*
X13841Y8504D01*
Y9016D01*
X13841Y9016D01*
X13830Y9104D01*
X13796Y9185D01*
X13743Y9255D01*
X13743Y9255D01*
X13465Y9532D01*
Y10079D01*
X12554D01*
X12554Y10079D01*
D02*
G37*
G36*
X11997Y10079D02*
X11574D01*
Y9578D01*
X11997D01*
Y10079D01*
D02*
G37*
G36*
X20236Y11180D02*
X20104Y11162D01*
X19981Y11111D01*
X19875Y11030D01*
X19794Y10924D01*
X19743Y10801D01*
X19726Y10669D01*
X19743Y10537D01*
X19753Y10515D01*
X19725Y10473D01*
X19724D01*
Y9562D01*
X19724Y9562D01*
X19724D01*
X19724Y9550D01*
X19683Y9522D01*
X19620Y9548D01*
X19538Y9559D01*
Y9055D01*
Y8551D01*
X19620Y8562D01*
X19703Y8596D01*
X19724Y8582D01*
Y8582D01*
X20226D01*
Y9055D01*
X20275D01*
Y9104D01*
X20827D01*
Y9493D01*
X20827Y9493D01*
D01*
D01*
X20827Y9527D01*
Y9527D01*
Y9528D01*
X20827Y9528D01*
X20827Y9562D01*
X20827D01*
D01*
Y9562D01*
X20827D01*
D01*
Y10473D01*
X20748D01*
X20720Y10515D01*
X20729Y10537D01*
X20746Y10669D01*
X20729Y10801D01*
X20678Y10924D01*
X20597Y11030D01*
X20491Y11111D01*
X20368Y11162D01*
X20236Y11180D01*
D02*
G37*
G36*
X38966Y9992D02*
X38884Y9981D01*
X38761Y9930D01*
X38655Y9849D01*
X38574Y9743D01*
X38523Y9620D01*
X38512Y9538D01*
X38966D01*
Y9992D01*
D02*
G37*
G36*
X20827Y9004D02*
X20326D01*
Y8582D01*
X20827D01*
Y9004D01*
D02*
G37*
G36*
X24517Y6645D02*
X24435Y6635D01*
X24312Y6584D01*
X24206Y6503D01*
X24125Y6397D01*
X24074Y6274D01*
X24063Y6192D01*
X24517D01*
Y6645D01*
D02*
G37*
G36*
X24617D02*
Y6192D01*
X25071D01*
X25060Y6274D01*
X25009Y6397D01*
X24928Y6503D01*
X24822Y6584D01*
X24699Y6635D01*
X24617Y6645D01*
D02*
G37*
G36*
X31732Y6288D02*
X31231D01*
Y5866D01*
X31732D01*
Y6288D01*
D02*
G37*
G36*
X35247Y6291D02*
Y5837D01*
X35701D01*
X35690Y5919D01*
X35639Y6043D01*
X35558Y6148D01*
X35452Y6229D01*
X35329Y6280D01*
X35247Y6291D01*
D02*
G37*
G36*
X31131Y6288D02*
X30630D01*
Y5866D01*
X31131D01*
Y6288D01*
D02*
G37*
G36*
X43622Y7667D02*
X42520D01*
Y7245D01*
D01*
X42520Y7245D01*
X42520Y7243D01*
X42520D01*
Y6299D01*
X43622D01*
Y6339D01*
X44646D01*
Y6491D01*
X44693Y6508D01*
X44701Y6497D01*
X44817Y6408D01*
X44951Y6353D01*
X45094Y6334D01*
X45238Y6353D01*
X45372Y6408D01*
X45488Y6497D01*
X45569Y6603D01*
X45619D01*
X45701Y6497D01*
X45817Y6408D01*
X45951Y6353D01*
X46094Y6334D01*
X46238Y6353D01*
X46372Y6408D01*
X46488Y6497D01*
X46569Y6603D01*
X46619D01*
X46701Y6497D01*
X46817Y6408D01*
X46951Y6353D01*
X47094Y6334D01*
X47238Y6353D01*
X47372Y6408D01*
X47488Y6497D01*
X47569Y6603D01*
X47619D01*
X47701Y6497D01*
X47817Y6408D01*
X47951Y6353D01*
X48094Y6334D01*
X48238Y6353D01*
X48372Y6408D01*
X48488Y6497D01*
X48569Y6603D01*
X48619D01*
X48701Y6497D01*
X48817Y6408D01*
X48951Y6353D01*
X49094Y6334D01*
X49238Y6353D01*
X49372Y6408D01*
X49488Y6497D01*
X49569Y6603D01*
X49619D01*
X49701Y6497D01*
X49817Y6408D01*
X49951Y6353D01*
X50094Y6334D01*
X50238Y6353D01*
X50372Y6408D01*
X50488Y6497D01*
X50569Y6603D01*
X50619D01*
X50701Y6497D01*
X50817Y6408D01*
X50951Y6353D01*
X51094Y6334D01*
X51238Y6353D01*
X51372Y6408D01*
X51488Y6497D01*
X51569Y6603D01*
X51619D01*
X51701Y6497D01*
X51817Y6408D01*
X51951Y6353D01*
X52094Y6334D01*
X52238Y6353D01*
X52372Y6408D01*
X52488Y6497D01*
X52576Y6612D01*
X52631Y6746D01*
X52650Y6890D01*
X52631Y7034D01*
X52576Y7168D01*
X52488Y7283D01*
X52372Y7371D01*
X52238Y7427D01*
X52094Y7446D01*
X51951Y7427D01*
X51817Y7371D01*
X51701Y7283D01*
X51619Y7176D01*
X51569D01*
X51488Y7283D01*
X51372Y7371D01*
X51238Y7427D01*
X51094Y7446D01*
X50951Y7427D01*
X50817Y7371D01*
X50701Y7283D01*
X50619Y7176D01*
X50569D01*
X50488Y7283D01*
X50372Y7371D01*
X50238Y7427D01*
X50094Y7446D01*
X49951Y7427D01*
X49817Y7371D01*
X49701Y7283D01*
X49619Y7176D01*
X49569D01*
X49488Y7283D01*
X49372Y7371D01*
X49238Y7427D01*
X49094Y7446D01*
X48951Y7427D01*
X48817Y7371D01*
X48701Y7283D01*
X48619Y7176D01*
X48569D01*
X48488Y7283D01*
X48372Y7371D01*
X48238Y7427D01*
X48094Y7446D01*
X47951Y7427D01*
X47817Y7371D01*
X47701Y7283D01*
X47619Y7176D01*
X47569D01*
X47488Y7283D01*
X47372Y7371D01*
X47238Y7427D01*
X47094Y7446D01*
X46951Y7427D01*
X46817Y7371D01*
X46701Y7283D01*
X46619Y7176D01*
X46569D01*
X46488Y7283D01*
X46372Y7371D01*
X46238Y7427D01*
X46094Y7446D01*
X45951Y7427D01*
X45817Y7371D01*
X45701Y7283D01*
X45619Y7176D01*
X45569D01*
X45488Y7283D01*
X45372Y7371D01*
X45238Y7427D01*
X45094Y7446D01*
X44951Y7427D01*
X44817Y7371D01*
X44701Y7283D01*
X44693Y7272D01*
X44646Y7288D01*
Y7441D01*
X43622D01*
Y7667D01*
D02*
G37*
G36*
X29281Y8887D02*
X28827D01*
X28838Y8805D01*
X28889Y8682D01*
X28970Y8576D01*
X29076Y8495D01*
X29199Y8444D01*
X29281Y8433D01*
Y8887D01*
D02*
G37*
G36*
X29834D02*
X29381D01*
Y8433D01*
X29463Y8444D01*
X29586Y8495D01*
X29692Y8576D01*
X29773Y8682D01*
X29824Y8805D01*
X29834Y8887D01*
D02*
G37*
G36*
X12590Y8454D02*
X12137D01*
Y8000D01*
X12219Y8011D01*
X12342Y8062D01*
X12447Y8143D01*
X12529Y8249D01*
X12579Y8372D01*
X12590Y8454D01*
D02*
G37*
G36*
X43497Y8227D02*
X43496Y8218D01*
X42488D01*
X42499Y8136D01*
X42520Y8086D01*
Y7767D01*
X43622D01*
Y8190D01*
X43530D01*
X43497Y8227D01*
D02*
G37*
G36*
X12037Y8454D02*
X11583D01*
X11594Y8372D01*
X11645Y8249D01*
X11726Y8143D01*
X11831Y8062D01*
X11955Y8011D01*
X12037Y8000D01*
Y8454D01*
D02*
G37*
G36*
X9359Y17391D02*
X8906D01*
X8917Y17309D01*
X8968Y17186D01*
X9049Y17080D01*
X9154Y16999D01*
X9277Y16948D01*
X9359Y16937D01*
Y17391D01*
D02*
G37*
G36*
X19291Y18684D02*
X19172Y18672D01*
X19057Y18637D01*
X18951Y18581D01*
X18858Y18504D01*
X18781Y18412D01*
X18725Y18306D01*
X18690Y18190D01*
X18678Y18071D01*
X18690Y17951D01*
X18725Y17836D01*
X18781Y17730D01*
X18858Y17637D01*
X18951Y17561D01*
X19057Y17504D01*
X19172Y17469D01*
X19291Y17458D01*
X19411Y17469D01*
X19526Y17504D01*
X19632Y17561D01*
X19725Y17637D01*
X19801Y17730D01*
X19858Y17836D01*
X19893Y17951D01*
X19905Y18071D01*
X19893Y18190D01*
X19858Y18306D01*
X19801Y18412D01*
X19725Y18504D01*
X19632Y18581D01*
X19526Y18637D01*
X19411Y18672D01*
X19291Y18684D01*
D02*
G37*
G36*
X8184Y16614D02*
D01*
D01*
X8184Y16614D01*
X8150Y16614D01*
X8150D01*
X8149D01*
X8115Y16614D01*
X8115Y16614D01*
Y16614D01*
X7727D01*
Y16063D01*
X7677D01*
Y16013D01*
X7204D01*
Y15512D01*
X7204Y15512D01*
X7204D01*
X7218Y15472D01*
X7166Y15432D01*
X7078Y15317D01*
X7023Y15183D01*
X7010Y15089D01*
X8109D01*
X8097Y15183D01*
X8041Y15317D01*
X7953Y15432D01*
X7911Y15464D01*
X7927Y15512D01*
X8149D01*
Y15512D01*
X8150D01*
X8166D01*
X8188D01*
X8188D01*
X8188Y15512D01*
Y14488D01*
X9291D01*
Y15591D01*
X9117D01*
Y15985D01*
X9104Y16082D01*
X9095Y16104D01*
Y16614D01*
X8184D01*
X8184Y16614D01*
D02*
G37*
G36*
X2899Y17321D02*
X2779Y17309D01*
X2664Y17274D01*
X2558Y17217D01*
X2465Y17141D01*
X2389Y17048D01*
X2332Y16942D01*
X2297Y16827D01*
X2286Y16708D01*
X2297Y16588D01*
X2332Y16473D01*
X2389Y16367D01*
X2465Y16274D01*
X2558Y16198D01*
X2664Y16141D01*
X2779Y16106D01*
X2899Y16094D01*
X3018Y16106D01*
X3133Y16141D01*
X3239Y16198D01*
X3332Y16274D01*
X3379Y16330D01*
X4193D01*
X4228Y16288D01*
X4268Y16255D01*
X4302Y16191D01*
Y16177D01*
X4218Y16107D01*
X4144Y16017D01*
X4089Y15915D01*
X4055Y15803D01*
X4049Y15738D01*
X5738D01*
X5731Y15803D01*
X5697Y15915D01*
X5642Y16017D01*
X5569Y16107D01*
X5479Y16181D01*
Y16209D01*
X5489Y16214D01*
X5579Y16288D01*
X5652Y16378D01*
X5707Y16481D01*
X5741Y16592D01*
X5753Y16708D01*
X5741Y16823D01*
X5707Y16935D01*
X5652Y17037D01*
X5579Y17127D01*
X5489Y17201D01*
X5386Y17256D01*
X5275Y17290D01*
X5159Y17301D01*
X4647D01*
X4532Y17290D01*
X4420Y17256D01*
X4318Y17201D01*
X4228Y17127D01*
X4193Y17085D01*
X3379D01*
X3332Y17141D01*
X3239Y17217D01*
X3133Y17274D01*
X3018Y17309D01*
X2899Y17321D01*
D02*
G37*
G36*
X7627Y16614D02*
X7204D01*
Y16113D01*
X7627D01*
Y16614D01*
D02*
G37*
G36*
X9359Y17945D02*
X9277Y17934D01*
X9154Y17883D01*
X9049Y17802D01*
X8968Y17696D01*
X8917Y17573D01*
X8906Y17491D01*
X9359D01*
Y17945D01*
D02*
G37*
G36*
X29241Y20226D02*
X28788D01*
X28798Y20144D01*
X28849Y20020D01*
X28931Y19915D01*
X29036Y19834D01*
X29159Y19783D01*
X29241Y19772D01*
Y20226D01*
D02*
G37*
G36*
X29795D02*
X29341D01*
Y19772D01*
X29423Y19783D01*
X29546Y19834D01*
X29652Y19915D01*
X29733Y20020D01*
X29784Y20144D01*
X29795Y20226D01*
D02*
G37*
G36*
X31564Y20067D02*
X31063D01*
Y19645D01*
X31564D01*
Y20067D01*
D02*
G37*
G36*
X32627Y19359D02*
X32204D01*
Y18858D01*
X32627D01*
Y19359D01*
D02*
G37*
G36*
X4744Y20298D02*
X4617Y20286D01*
X4494Y20249D01*
X4381Y20188D01*
X4283Y20107D01*
X4201Y20008D01*
X4141Y19895D01*
X4104Y19773D01*
X4091Y19646D01*
X4104Y19518D01*
X4141Y19396D01*
X4201Y19283D01*
X4283Y19184D01*
X4381Y19103D01*
X4494Y19043D01*
X4617Y19005D01*
X4744Y18993D01*
X4871Y19005D01*
X4994Y19043D01*
X5107Y19103D01*
X5206Y19184D01*
X5287Y19283D01*
X5347Y19396D01*
X5384Y19518D01*
X5397Y19646D01*
X5384Y19773D01*
X5347Y19895D01*
X5287Y20008D01*
X5206Y20107D01*
X5107Y20188D01*
X4994Y20249D01*
X4871Y20286D01*
X4744Y20298D01*
D02*
G37*
G36*
X18887Y15344D02*
X18349D01*
X18355Y15278D01*
X18389Y15167D01*
X18444Y15064D01*
X18517Y14974D01*
X18607Y14900D01*
X18710Y14845D01*
X18821Y14812D01*
X18887Y14805D01*
Y15344D01*
D02*
G37*
G36*
X34932Y11134D02*
Y10680D01*
X35386D01*
X35375Y10762D01*
X35324Y10885D01*
X35243Y10991D01*
X35137Y11072D01*
X35014Y11123D01*
X34932Y11134D01*
D02*
G37*
G36*
X6300Y12312D02*
X5877D01*
Y11811D01*
X6300D01*
Y12312D01*
D02*
G37*
G36*
X7509Y11013D02*
X6971D01*
X6977Y10947D01*
X7011Y10836D01*
X7066Y10733D01*
X7139Y10643D01*
X7229Y10570D01*
X7332Y10515D01*
X7443Y10481D01*
X7509Y10475D01*
Y11013D01*
D02*
G37*
G36*
X51177Y13332D02*
X50942Y13313D01*
X50713Y13258D01*
X50496Y13168D01*
X50295Y13045D01*
X50116Y12892D01*
X49963Y12713D01*
X49840Y12512D01*
X49750Y12295D01*
X49695Y12066D01*
X49676Y11831D01*
X49695Y11596D01*
X49750Y11367D01*
X49840Y11150D01*
X49963Y10949D01*
X50116Y10770D01*
X50295Y10617D01*
X50496Y10494D01*
X50713Y10404D01*
X50942Y10349D01*
X51177Y10330D01*
X51412Y10349D01*
X51641Y10404D01*
X51858Y10494D01*
X52059Y10617D01*
X52238Y10770D01*
X52391Y10949D01*
X52514Y11150D01*
X52604Y11367D01*
X52659Y11596D01*
X52678Y11831D01*
X52659Y12066D01*
X52604Y12295D01*
X52514Y12512D01*
X52391Y12713D01*
X52238Y12892D01*
X52059Y13045D01*
X51858Y13168D01*
X51641Y13258D01*
X51412Y13313D01*
X51177Y13332D01*
D02*
G37*
G36*
X8150Y12559D02*
X8149Y12559D01*
X8149D01*
Y12559D01*
X8149D01*
X8149D01*
X7727D01*
Y12008D01*
X7677D01*
Y11958D01*
X7204D01*
Y11536D01*
X7139Y11483D01*
X7066Y11393D01*
X7011Y11290D01*
X6977Y11179D01*
X6971Y11113D01*
X7559D01*
Y11063D01*
X7609D01*
Y10475D01*
X7675Y10481D01*
X7786Y10515D01*
X7889Y10570D01*
X7979Y10643D01*
X8052Y10733D01*
X8101Y10824D01*
X8150Y10812D01*
Y10472D01*
X9331D01*
Y11654D01*
X9095D01*
Y12559D01*
X8150D01*
Y12559D01*
D02*
G37*
G36*
X7627Y12559D02*
X7204D01*
Y12058D01*
X7627D01*
Y12559D01*
D02*
G37*
G36*
X7510Y14989D02*
X7010D01*
X7023Y14895D01*
X7078Y14761D01*
X7166Y14646D01*
X7282Y14558D01*
X7416Y14502D01*
X7510Y14490D01*
Y14989D01*
D02*
G37*
G36*
X8109D02*
X7610D01*
Y14490D01*
X7703Y14502D01*
X7838Y14558D01*
X7953Y14646D01*
X8041Y14761D01*
X8097Y14895D01*
X8109Y14989D01*
D02*
G37*
G36*
X11525Y14871D02*
X10986D01*
X10993Y14805D01*
X11027Y14694D01*
X11081Y14592D01*
X11155Y14502D01*
X11245Y14428D01*
X11348Y14373D01*
X11459Y14339D01*
X11525Y14333D01*
Y14871D01*
D02*
G37*
G36*
X6300Y12913D02*
X5877D01*
Y12412D01*
X6300D01*
Y12913D01*
D02*
G37*
G36*
X5738Y15638D02*
X4049D01*
X4055Y15572D01*
X4089Y15461D01*
X4144Y15358D01*
X4180Y15313D01*
X4159Y15268D01*
X4057D01*
Y14087D01*
X5750D01*
Y15268D01*
X5627D01*
X5606Y15313D01*
X5642Y15358D01*
X5697Y15461D01*
X5731Y15572D01*
X5738Y15638D01*
D02*
G37*
G36*
X18071Y2992D02*
X16575D01*
Y1496D01*
X18071D01*
Y2992D01*
D02*
G37*
G36*
X22533D02*
X21037D01*
Y1496D01*
X22533D01*
Y2992D01*
D02*
G37*
G36*
X10748Y10038D02*
X10616Y10020D01*
X10493Y9969D01*
X10387Y9888D01*
X10306Y9783D01*
X10255Y9660D01*
X10238Y9528D01*
X10255Y9395D01*
X10291Y9308D01*
Y6929D01*
X10291Y6929D01*
X10307Y6811D01*
X10353Y6701D01*
X10425Y6606D01*
X11173Y5858D01*
D01*
X11173D01*
X11173Y5858D01*
X11173Y5858D01*
X11173D01*
D01*
X11173D01*
X11173Y5858D01*
Y5858D01*
X11173Y5858D01*
Y5858D01*
X11268Y5786D01*
X11378Y5740D01*
X11433Y5733D01*
X11496Y5724D01*
X11496Y5724D01*
X12180D01*
Y5531D01*
X12523D01*
Y2992D01*
X12113D01*
Y1496D01*
X13609D01*
Y2992D01*
X13198D01*
Y5531D01*
X13283D01*
Y6831D01*
X12180D01*
Y6638D01*
X11685D01*
X11205Y7118D01*
Y9308D01*
X11241Y9395D01*
X11258Y9528D01*
X11241Y9660D01*
X11190Y9783D01*
X11109Y9888D01*
X11003Y9969D01*
X10880Y10020D01*
X10748Y10038D01*
D02*
G37*
G36*
X8349Y2194D02*
X7651D01*
Y1496D01*
X8349D01*
Y2194D01*
D02*
G37*
G36*
X9147D02*
X8449D01*
Y1496D01*
X9147D01*
Y2194D01*
D02*
G37*
G36*
X26995Y2992D02*
X25499D01*
Y1496D01*
X26995D01*
Y2992D01*
D02*
G37*
G36*
X19241Y2194D02*
X18545D01*
X18554Y2097D01*
X18597Y1956D01*
X18666Y1827D01*
X18760Y1713D01*
X18874Y1619D01*
X19004Y1550D01*
X19145Y1507D01*
X19241Y1497D01*
Y2194D01*
D02*
G37*
G36*
X20038D02*
X19341D01*
Y1497D01*
X19438Y1507D01*
X19579Y1550D01*
X19709Y1619D01*
X19823Y1713D01*
X19916Y1827D01*
X19986Y1956D01*
X20029Y2097D01*
X20038Y2194D01*
D02*
G37*
G36*
X11114D02*
X10417D01*
Y1497D01*
X10514Y1507D01*
X10655Y1550D01*
X10785Y1619D01*
X10899Y1713D01*
X10992Y1827D01*
X11062Y1956D01*
X11105Y2097D01*
X11114Y2194D01*
D02*
G37*
G36*
X31457Y2992D02*
X29961D01*
Y1496D01*
X31457D01*
Y2992D01*
D02*
G37*
G36*
X10317Y2194D02*
X9621D01*
X9630Y2097D01*
X9673Y1956D01*
X9742Y1827D01*
X9836Y1713D01*
X9950Y1619D01*
X10080Y1550D01*
X10221Y1507D01*
X10317Y1497D01*
Y2194D01*
D02*
G37*
G36*
X4685Y2992D02*
X3189D01*
Y1496D01*
X4685D01*
Y2992D01*
D02*
G37*
G36*
X49385Y1529D02*
Y833D01*
X49831D01*
Y1039D01*
X49814Y1168D01*
X49765Y1288D01*
X49686Y1390D01*
X49583Y1469D01*
X49463Y1519D01*
X49385Y1529D01*
D02*
G37*
G36*
X39331Y2956D02*
X39184Y2942D01*
X39043Y2899D01*
X38913Y2830D01*
X38799Y2736D01*
X38706Y2622D01*
X38636Y2492D01*
X38593Y2351D01*
X38579Y2205D01*
X38593Y2058D01*
X38636Y1917D01*
X38706Y1787D01*
X38799Y1673D01*
X38913Y1580D01*
X39043Y1510D01*
X39184Y1468D01*
X39331Y1453D01*
X39477Y1468D01*
X39618Y1510D01*
X39748Y1580D01*
X39862Y1673D01*
X39956Y1787D01*
X40025Y1917D01*
X40068Y2058D01*
X40082Y2205D01*
X40068Y2351D01*
X40025Y2492D01*
X39956Y2622D01*
X39862Y2736D01*
X39748Y2830D01*
X39618Y2899D01*
X39477Y2942D01*
X39331Y2956D01*
D02*
G37*
G36*
X46285Y1529D02*
X46206Y1519D01*
X46086Y1469D01*
X45984Y1390D01*
X45905Y1288D01*
X45855Y1168D01*
X45838Y1039D01*
Y833D01*
X46285D01*
Y1529D01*
D02*
G37*
G36*
X41915D02*
X41836Y1519D01*
X41716Y1469D01*
X41614Y1390D01*
X41535Y1288D01*
X41485Y1168D01*
X41468Y1039D01*
Y833D01*
X41915D01*
Y1529D01*
D02*
G37*
G36*
X45015D02*
Y833D01*
X45461D01*
Y1039D01*
X45444Y1168D01*
X45394Y1288D01*
X45316Y1390D01*
X45213Y1469D01*
X45093Y1519D01*
X45015Y1529D01*
D02*
G37*
G36*
X36142Y2953D02*
X34646D01*
Y1457D01*
X36142D01*
Y2953D01*
D02*
G37*
G36*
X15379Y6831D02*
X14276D01*
Y5531D01*
X14492D01*
Y2912D01*
X14412Y2869D01*
X14298Y2776D01*
X14204Y2662D01*
X14135Y2532D01*
X14092Y2391D01*
X14078Y2244D01*
X14092Y2097D01*
X14135Y1956D01*
X14204Y1827D01*
X14298Y1713D01*
X14412Y1619D01*
X14542Y1550D01*
X14683Y1507D01*
X14829Y1492D01*
X14976Y1507D01*
X15117Y1550D01*
X15247Y1619D01*
X15361Y1713D01*
X15454Y1827D01*
X15524Y1956D01*
X15567Y2097D01*
X15581Y2244D01*
X15567Y2391D01*
X15524Y2532D01*
X15454Y2662D01*
X15361Y2776D01*
X15247Y2869D01*
X15167Y2912D01*
Y5531D01*
X15379D01*
Y6831D01*
D02*
G37*
G36*
X32677Y2996D02*
X32531Y2981D01*
X32390Y2939D01*
X32260Y2869D01*
X32146Y2776D01*
X32052Y2662D01*
X31983Y2532D01*
X31940Y2391D01*
X31926Y2244D01*
X31940Y2097D01*
X31983Y1956D01*
X32052Y1827D01*
X32146Y1713D01*
X32260Y1619D01*
X32390Y1550D01*
X32531Y1507D01*
X32677Y1492D01*
X32824Y1507D01*
X32965Y1550D01*
X33095Y1619D01*
X33209Y1713D01*
X33302Y1827D01*
X33372Y1956D01*
X33414Y2097D01*
X33429Y2244D01*
X33414Y2391D01*
X33372Y2532D01*
X33302Y2662D01*
X33209Y2776D01*
X33095Y2869D01*
X32965Y2939D01*
X32824Y2981D01*
X32677Y2996D01*
D02*
G37*
G36*
X5906D02*
X5759Y2981D01*
X5618Y2939D01*
X5488Y2869D01*
X5374Y2776D01*
X5281Y2662D01*
X5211Y2532D01*
X5168Y2391D01*
X5154Y2244D01*
X5168Y2097D01*
X5211Y1956D01*
X5281Y1827D01*
X5374Y1713D01*
X5488Y1619D01*
X5618Y1550D01*
X5759Y1507D01*
X5906Y1492D01*
X6052Y1507D01*
X6193Y1550D01*
X6323Y1619D01*
X6437Y1713D01*
X6530Y1827D01*
X6600Y1956D01*
X6643Y2097D01*
X6657Y2244D01*
X6643Y2391D01*
X6600Y2532D01*
X6530Y2662D01*
X6437Y2776D01*
X6323Y2869D01*
X6193Y2939D01*
X6052Y2981D01*
X5906Y2996D01*
D02*
G37*
G36*
X37312Y2155D02*
X36615D01*
X36625Y2058D01*
X36668Y1917D01*
X36737Y1787D01*
X36831Y1673D01*
X36945Y1580D01*
X37075Y1510D01*
X37216Y1468D01*
X37312Y1458D01*
Y2155D01*
D02*
G37*
G36*
X38109D02*
X37412D01*
Y1458D01*
X37509Y1468D01*
X37650Y1510D01*
X37780Y1580D01*
X37894Y1673D01*
X37987Y1787D01*
X38057Y1917D01*
X38099Y2058D01*
X38109Y2155D01*
D02*
G37*
G36*
X28265Y2991D02*
Y2294D01*
X28962D01*
X28952Y2391D01*
X28910Y2532D01*
X28840Y2662D01*
X28747Y2776D01*
X28633Y2869D01*
X28503Y2939D01*
X28362Y2981D01*
X28265Y2991D01*
D02*
G37*
G36*
X43965Y4536D02*
X43836Y4519D01*
X43716Y4469D01*
X43614Y4390D01*
X43535Y4288D01*
X43490Y4179D01*
X43485D01*
Y4179D01*
D01*
D01*
X43485D01*
X43458D01*
X43433Y4196D01*
X43394Y4288D01*
X43316Y4390D01*
X43213Y4469D01*
X43093Y4519D01*
X42965Y4536D01*
X42836Y4519D01*
X42716Y4469D01*
X42614Y4390D01*
X42535Y4288D01*
X42490Y4179D01*
X42485D01*
Y4179D01*
D01*
D01*
X42485D01*
X42458D01*
X42433Y4196D01*
X42394Y4288D01*
X42316Y4390D01*
X42213Y4469D01*
X42093Y4519D01*
X41965Y4536D01*
X41836Y4519D01*
X41716Y4469D01*
X41614Y4390D01*
X41535Y4288D01*
X41485Y4168D01*
X41468Y4039D01*
Y3528D01*
X41485Y3399D01*
X41535Y3279D01*
X41614Y3177D01*
X41716Y3098D01*
X41836Y3048D01*
X41965Y3031D01*
X42093Y3048D01*
X42213Y3098D01*
X42316Y3177D01*
X42394Y3279D01*
X42440Y3388D01*
X42444D01*
Y3388D01*
D01*
D01*
X42444D01*
X42485D01*
Y3388D01*
X42490D01*
X42535Y3279D01*
X42614Y3177D01*
X42716Y3098D01*
X42836Y3048D01*
X42965Y3031D01*
X43093Y3048D01*
X43213Y3098D01*
X43316Y3177D01*
X43394Y3279D01*
X43440Y3388D01*
X43444D01*
Y3388D01*
D01*
D01*
X43444D01*
X43485D01*
Y3388D01*
X43490D01*
X43535Y3279D01*
X43614Y3177D01*
X43716Y3098D01*
X43836Y3048D01*
X43965Y3031D01*
X44093Y3048D01*
X44213Y3098D01*
X44316Y3177D01*
X44394Y3279D01*
X44423Y3349D01*
X44472Y3340D01*
Y3035D01*
X45457D01*
Y4531D01*
X44472D01*
Y4227D01*
X44423Y4218D01*
X44394Y4288D01*
X44316Y4390D01*
X44213Y4469D01*
X44093Y4519D01*
X43965Y4536D01*
D02*
G37*
G36*
X28165Y2991D02*
X28069Y2981D01*
X27928Y2939D01*
X27798Y2869D01*
X27684Y2776D01*
X27590Y2662D01*
X27521Y2532D01*
X27478Y2391D01*
X27468Y2294D01*
X28165D01*
Y2991D01*
D02*
G37*
G36*
X23703D02*
X23607Y2981D01*
X23466Y2939D01*
X23336Y2869D01*
X23222Y2776D01*
X23128Y2662D01*
X23059Y2532D01*
X23016Y2391D01*
X23007Y2294D01*
X23703D01*
Y2991D01*
D02*
G37*
G36*
X23803D02*
Y2294D01*
X24500D01*
X24490Y2391D01*
X24448Y2532D01*
X24378Y2662D01*
X24285Y2776D01*
X24171Y2869D01*
X24041Y2939D01*
X23900Y2981D01*
X23803Y2991D01*
D02*
G37*
G36*
X48335Y4536D02*
X48206Y4519D01*
X48086Y4469D01*
X47984Y4390D01*
X47905Y4288D01*
X47860Y4179D01*
X47855D01*
Y4179D01*
D01*
D01*
X47855D01*
X47828D01*
X47803Y4196D01*
X47765Y4288D01*
X47686Y4390D01*
X47583Y4469D01*
X47463Y4519D01*
X47335Y4536D01*
X47206Y4519D01*
X47086Y4469D01*
X46984Y4390D01*
X46905Y4288D01*
X46860Y4179D01*
X46855D01*
Y4179D01*
D01*
D01*
X46855D01*
X46828D01*
X46803Y4196D01*
X46765Y4288D01*
X46686Y4390D01*
X46583Y4469D01*
X46463Y4519D01*
X46335Y4536D01*
X46206Y4519D01*
X46086Y4469D01*
X45984Y4390D01*
X45905Y4288D01*
X45855Y4168D01*
X45838Y4039D01*
Y3528D01*
X45855Y3399D01*
X45905Y3279D01*
X45984Y3177D01*
X46086Y3098D01*
X46206Y3048D01*
X46335Y3031D01*
X46463Y3048D01*
X46583Y3098D01*
X46686Y3177D01*
X46765Y3279D01*
X46810Y3388D01*
X46814D01*
Y3388D01*
D01*
D01*
X46814D01*
X46855D01*
Y3388D01*
X46860D01*
X46905Y3279D01*
X46984Y3177D01*
X47086Y3098D01*
X47206Y3048D01*
X47335Y3031D01*
X47463Y3048D01*
X47583Y3098D01*
X47686Y3177D01*
X47765Y3279D01*
X47810Y3388D01*
X47814D01*
Y3388D01*
D01*
D01*
X47814D01*
X47855D01*
Y3388D01*
X47860D01*
X47905Y3279D01*
X47984Y3177D01*
X48086Y3098D01*
X48206Y3048D01*
X48335Y3031D01*
X48463Y3048D01*
X48583Y3098D01*
X48686Y3177D01*
X48765Y3279D01*
X48793Y3349D01*
X48843Y3340D01*
Y3035D01*
X49827D01*
Y4531D01*
X48843D01*
Y4227D01*
X48793Y4218D01*
X48765Y4288D01*
X48686Y4390D01*
X48583Y4469D01*
X48463Y4519D01*
X48335Y4536D01*
D02*
G37*
G36*
X25071Y6092D02*
X24617D01*
Y5638D01*
X24699Y5649D01*
X24822Y5700D01*
X24928Y5781D01*
X25009Y5887D01*
X25060Y6010D01*
X25071Y6092D01*
D02*
G37*
G36*
X35147Y6291D02*
X35065Y6280D01*
X34942Y6229D01*
X34836Y6148D01*
X34755Y6043D01*
X34704Y5919D01*
X34693Y5837D01*
X35147D01*
Y6291D01*
D02*
G37*
G36*
X23583Y6337D02*
X23451Y6320D01*
X23328Y6269D01*
X23222Y6188D01*
X23141Y6082D01*
X23090Y5959D01*
X23072Y5827D01*
X23090Y5695D01*
X23141Y5572D01*
X23222Y5466D01*
X23245Y5448D01*
Y4709D01*
X23222Y4692D01*
X23141Y4586D01*
X23090Y4463D01*
X23072Y4331D01*
X23090Y4199D01*
X23141Y4076D01*
X23222Y3970D01*
X23328Y3889D01*
X23451Y3838D01*
X23583Y3820D01*
X23715Y3838D01*
X23838Y3889D01*
X23943Y3970D01*
X24025Y4076D01*
X24076Y4199D01*
X24093Y4331D01*
X24076Y4463D01*
X24025Y4586D01*
X23943Y4692D01*
X23920Y4709D01*
Y5448D01*
X23943Y5466D01*
X24025Y5572D01*
X24076Y5695D01*
X24093Y5827D01*
X24089Y5854D01*
X24136Y5873D01*
X24206Y5781D01*
X24312Y5700D01*
X24435Y5649D01*
X24517Y5638D01*
Y6092D01*
X24063D01*
X24060Y6115D01*
X24014Y6096D01*
X23943Y6188D01*
X23838Y6269D01*
X23715Y6320D01*
X23583Y6337D01*
D02*
G37*
G36*
X35147Y5737D02*
X34693D01*
X34704Y5655D01*
X34755Y5532D01*
X34836Y5427D01*
X34942Y5345D01*
X35065Y5295D01*
X35147Y5284D01*
Y5737D01*
D02*
G37*
G36*
X35701D02*
X35247D01*
Y5284D01*
X35329Y5295D01*
X35452Y5345D01*
X35558Y5427D01*
X35639Y5532D01*
X35690Y5655D01*
X35701Y5737D01*
D02*
G37*
G36*
X19341Y2991D02*
Y2294D01*
X20038D01*
X20029Y2391D01*
X19986Y2532D01*
X19916Y2662D01*
X19823Y2776D01*
X19709Y2869D01*
X19579Y2939D01*
X19438Y2981D01*
X19341Y2991D01*
D02*
G37*
G36*
X28962Y2194D02*
X28265D01*
Y1497D01*
X28362Y1507D01*
X28503Y1550D01*
X28633Y1619D01*
X28747Y1713D01*
X28840Y1827D01*
X28910Y1956D01*
X28952Y2097D01*
X28962Y2194D01*
D02*
G37*
G36*
X37312Y2951D02*
X37216Y2942D01*
X37075Y2899D01*
X36945Y2830D01*
X36831Y2736D01*
X36737Y2622D01*
X36668Y2492D01*
X36625Y2351D01*
X36615Y2255D01*
X37312D01*
Y2951D01*
D02*
G37*
G36*
X28165Y2194D02*
X27468D01*
X27478Y2097D01*
X27521Y1956D01*
X27590Y1827D01*
X27684Y1713D01*
X27798Y1619D01*
X27928Y1550D01*
X28069Y1507D01*
X28165Y1497D01*
Y2194D01*
D02*
G37*
G36*
X23703D02*
X23007D01*
X23016Y2097D01*
X23059Y1956D01*
X23128Y1827D01*
X23222Y1713D01*
X23336Y1619D01*
X23466Y1550D01*
X23607Y1507D01*
X23703Y1497D01*
Y2194D01*
D02*
G37*
G36*
X24500D02*
X23803D01*
Y1497D01*
X23900Y1507D01*
X24041Y1550D01*
X24171Y1619D01*
X24285Y1713D01*
X24378Y1827D01*
X24448Y1956D01*
X24490Y2097D01*
X24500Y2194D01*
D02*
G37*
G36*
X37412Y2951D02*
Y2255D01*
X38109D01*
X38099Y2351D01*
X38057Y2492D01*
X37987Y2622D01*
X37894Y2736D01*
X37780Y2830D01*
X37650Y2899D01*
X37509Y2942D01*
X37412Y2951D01*
D02*
G37*
G36*
X10417Y2991D02*
Y2294D01*
X11114D01*
X11105Y2391D01*
X11062Y2532D01*
X10992Y2662D01*
X10899Y2776D01*
X10785Y2869D01*
X10655Y2939D01*
X10514Y2981D01*
X10417Y2991D01*
D02*
G37*
G36*
X19241D02*
X19145Y2981D01*
X19004Y2939D01*
X18874Y2869D01*
X18760Y2776D01*
X18666Y2662D01*
X18597Y2532D01*
X18554Y2391D01*
X18545Y2294D01*
X19241D01*
Y2991D01*
D02*
G37*
G36*
X10317D02*
X10221Y2981D01*
X10080Y2939D01*
X9950Y2869D01*
X9836Y2776D01*
X9742Y2662D01*
X9673Y2532D01*
X9630Y2391D01*
X9621Y2294D01*
X10317D01*
Y2991D01*
D02*
G37*
G36*
X8349Y2992D02*
X7651D01*
Y2294D01*
X8349D01*
Y2992D01*
D02*
G37*
G36*
X9147D02*
X8449D01*
Y2294D01*
X9147D01*
Y2992D01*
D02*
G37*
G36*
X41564Y20501D02*
X41110D01*
X41121Y20419D01*
X41172Y20296D01*
X41253Y20190D01*
X41359Y20109D01*
X41482Y20058D01*
X41564Y20047D01*
Y20501D01*
D02*
G37*
G36*
X9055Y34629D02*
X8935Y34617D01*
X8820Y34582D01*
X8714Y34526D01*
X8622Y34449D01*
X8545Y34356D01*
X8489Y34250D01*
X8454Y34135D01*
X8442Y34016D01*
X8454Y33896D01*
X8489Y33781D01*
X8545Y33675D01*
X8622Y33582D01*
X8714Y33506D01*
X8820Y33449D01*
X8935Y33414D01*
X9055Y33403D01*
X9175Y33414D01*
X9290Y33449D01*
X9396Y33506D01*
X9489Y33582D01*
X9565Y33675D01*
X9622Y33781D01*
X9657Y33896D01*
X9668Y34016D01*
X9657Y34135D01*
X9622Y34250D01*
X9565Y34356D01*
X9489Y34449D01*
X9396Y34526D01*
X9290Y34582D01*
X9175Y34617D01*
X9055Y34629D01*
D02*
G37*
G36*
X23543Y34668D02*
X23424Y34657D01*
X23309Y34622D01*
X23203Y34565D01*
X23110Y34489D01*
X23033Y34396D01*
X22977Y34290D01*
X22942Y34175D01*
X22930Y34055D01*
X22942Y33935D01*
X22977Y33820D01*
X23033Y33714D01*
X23110Y33622D01*
X23203Y33545D01*
X23309Y33489D01*
X23424Y33454D01*
X23543Y33442D01*
X23663Y33454D01*
X23778Y33489D01*
X23884Y33545D01*
X23977Y33622D01*
X24053Y33714D01*
X24110Y33820D01*
X24145Y33935D01*
X24156Y34055D01*
X24145Y34175D01*
X24110Y34290D01*
X24053Y34396D01*
X23977Y34489D01*
X23884Y34565D01*
X23778Y34622D01*
X23663Y34657D01*
X23543Y34668D01*
D02*
G37*
G36*
X51181Y33780D02*
X50680D01*
Y33358D01*
X51181D01*
Y33780D01*
D02*
G37*
G36*
X30984Y34793D02*
X29882D01*
Y34405D01*
X29882Y34405D01*
X29882D01*
X29882Y34371D01*
Y34369D01*
X29882Y34369D01*
X29882Y34369D01*
Y33425D01*
X29922D01*
X29944Y33380D01*
X29873Y33287D01*
X29822Y33164D01*
X29805Y33031D01*
X29822Y32899D01*
X29873Y32776D01*
X29954Y32671D01*
X30060Y32590D01*
X30183Y32539D01*
X30315Y32521D01*
X30447Y32539D01*
X30570Y32590D01*
X30676Y32671D01*
X30757Y32776D01*
X30808Y32899D01*
X30825Y33031D01*
X30808Y33164D01*
X30757Y33287D01*
X30676Y33392D01*
X30652Y33410D01*
Y33425D01*
X30984D01*
Y34335D01*
X30984Y34335D01*
D01*
D01*
X30984Y34369D01*
Y34369D01*
Y34370D01*
X30984Y34371D01*
X30984Y34405D01*
X30984D01*
D01*
Y34405D01*
X30984D01*
D01*
Y34793D01*
D02*
G37*
G36*
X49686Y34179D02*
Y33630D01*
X49636D01*
Y33580D01*
X49086D01*
X49099Y33486D01*
X49154Y33352D01*
X49243Y33237D01*
X49339Y33163D01*
Y33113D01*
X49243Y33039D01*
X49154Y32924D01*
X49099Y32790D01*
X49080Y32646D01*
X49099Y32502D01*
X49154Y32368D01*
X49239Y32257D01*
X49217Y32213D01*
X49084D01*
Y31110D01*
X50187D01*
Y31889D01*
X50292D01*
Y30709D01*
X50292Y30709D01*
X50304Y30621D01*
X50338Y30540D01*
X50391Y30470D01*
X50864Y29998D01*
X50864Y29998D01*
X50903Y29967D01*
X50934Y29944D01*
X50967Y29930D01*
X51015Y29910D01*
X51102Y29899D01*
X51142D01*
X51144Y29896D01*
X51220Y29803D01*
X51313Y29726D01*
X51419Y29670D01*
X51534Y29635D01*
X51654Y29623D01*
X51773Y29635D01*
X51888Y29670D01*
X51994Y29726D01*
X52087Y29803D01*
X52163Y29896D01*
X52220Y30002D01*
X52255Y30117D01*
X52267Y30236D01*
X52255Y30356D01*
X52220Y30471D01*
X52163Y30577D01*
X52087Y30670D01*
X51994Y30746D01*
X51888Y30803D01*
X51773Y30838D01*
X51654Y30849D01*
X51534Y30838D01*
X51419Y30803D01*
X51313Y30746D01*
X51220Y30670D01*
X51210Y30658D01*
X51160Y30656D01*
X50967Y30848D01*
Y31889D01*
X51181D01*
Y32834D01*
D01*
Y32834D01*
X51181Y32834D01*
Y32835D01*
X51181D01*
Y33258D01*
X50630D01*
Y33308D01*
X50580D01*
Y33780D01*
X50170D01*
X50117Y33908D01*
X50029Y34023D01*
X49914Y34111D01*
X49780Y34167D01*
X49686Y34179D01*
D02*
G37*
G36*
X49586D02*
X49492Y34167D01*
X49358Y34111D01*
X49243Y34023D01*
X49154Y33908D01*
X49099Y33774D01*
X49086Y33680D01*
X49586D01*
Y34179D01*
D02*
G37*
G36*
X30984Y35316D02*
X30483D01*
Y34893D01*
X30984D01*
Y35316D01*
D02*
G37*
G36*
X12638Y37227D02*
X12518Y37216D01*
X12403Y37181D01*
X12297Y37124D01*
X12204Y37048D01*
X12128Y36955D01*
X12071Y36849D01*
X12036Y36734D01*
X12025Y36614D01*
X12036Y36495D01*
X12071Y36380D01*
X12128Y36274D01*
X12204Y36181D01*
X12297Y36104D01*
X12403Y36048D01*
X12518Y36013D01*
X12638Y36001D01*
X12757Y36013D01*
X12872Y36048D01*
X12978Y36104D01*
X13071Y36181D01*
X13148Y36274D01*
X13204Y36380D01*
X13239Y36495D01*
X13251Y36614D01*
X13239Y36734D01*
X13204Y36849D01*
X13148Y36955D01*
X13071Y37048D01*
X12978Y37124D01*
X12872Y37181D01*
X12757Y37216D01*
X12638Y37227D01*
D02*
G37*
G36*
X30383Y35316D02*
X29882D01*
Y34893D01*
X30383D01*
Y35316D01*
D02*
G37*
G36*
X47480Y35731D02*
X47361Y35720D01*
X47246Y35685D01*
X47140Y35628D01*
X47047Y35552D01*
X46970Y35459D01*
X46914Y35353D01*
X46879Y35238D01*
X46867Y35118D01*
X46879Y34998D01*
X46914Y34883D01*
X46970Y34777D01*
X47047Y34685D01*
X47140Y34608D01*
X47246Y34552D01*
X47361Y34517D01*
X47480Y34505D01*
X47600Y34517D01*
X47715Y34552D01*
X47821Y34608D01*
X47914Y34685D01*
X47990Y34777D01*
X48047Y34883D01*
X48082Y34998D01*
X48094Y35118D01*
X48082Y35238D01*
X48047Y35353D01*
X47990Y35459D01*
X47914Y35552D01*
X47821Y35628D01*
X47715Y35685D01*
X47600Y35720D01*
X47480Y35731D01*
D02*
G37*
G36*
X3543Y36875D02*
X3399Y36856D01*
X3265Y36800D01*
X3150Y36712D01*
X3062Y36597D01*
X3006Y36463D01*
X2987Y36319D01*
X3006Y36175D01*
X3062Y36041D01*
X3146Y35931D01*
X3124Y35886D01*
X2992D01*
Y34783D01*
X4094D01*
Y35886D01*
X3962D01*
X3940Y35931D01*
X4025Y36041D01*
X4080Y36175D01*
X4099Y36319D01*
X4080Y36463D01*
X4025Y36597D01*
X3936Y36712D01*
X3821Y36800D01*
X3687Y36856D01*
X3543Y36875D01*
D02*
G37*
G36*
X22835Y41164D02*
X15669D01*
X15602Y41155D01*
X15540Y41129D01*
X15487Y41088D01*
X15446Y41035D01*
X15420Y40972D01*
X15411Y40906D01*
Y37717D01*
X15420Y37650D01*
X15446Y37587D01*
X15487Y37534D01*
X15540Y37493D01*
X15602Y37467D01*
X15669Y37458D01*
X18568D01*
X18578Y37409D01*
X18485Y37371D01*
X18379Y37290D01*
X18298Y37184D01*
X18247Y37061D01*
X18230Y36929D01*
X18247Y36797D01*
X18298Y36674D01*
X18379Y36568D01*
X18403Y36550D01*
Y33044D01*
X18377Y33011D01*
X18326Y32888D01*
X18309Y32756D01*
X18326Y32624D01*
X18377Y32501D01*
X18458Y32395D01*
X18564Y32314D01*
X18687Y32263D01*
X18819Y32246D01*
X18951Y32263D01*
X19074Y32314D01*
X19180Y32395D01*
X19261Y32501D01*
X19312Y32624D01*
X19329Y32756D01*
X19312Y32888D01*
X19261Y33011D01*
X19180Y33117D01*
X19078Y33195D01*
Y36550D01*
X19101Y36568D01*
X19182Y36674D01*
X19233Y36797D01*
X19250Y36929D01*
X19233Y37061D01*
X19182Y37184D01*
X19101Y37290D01*
X18995Y37371D01*
X18903Y37409D01*
X18912Y37458D01*
X21704D01*
X21713Y37410D01*
X21608Y37329D01*
X21527Y37224D01*
X21476Y37101D01*
X21458Y36969D01*
X21476Y36836D01*
X21527Y36713D01*
X21608Y36608D01*
X21631Y36590D01*
Y32978D01*
X21594Y32888D01*
X21576Y32756D01*
X21594Y32624D01*
X21645Y32501D01*
X21726Y32395D01*
X21831Y32314D01*
X21955Y32263D01*
X22087Y32246D01*
X22219Y32263D01*
X22342Y32314D01*
X22447Y32395D01*
X22529Y32501D01*
X22580Y32624D01*
X22597Y32756D01*
X22580Y32888D01*
X22529Y33011D01*
X22447Y33117D01*
X22342Y33198D01*
X22306Y33213D01*
Y36590D01*
X22329Y36608D01*
X22410Y36713D01*
X22461Y36836D01*
X22479Y36969D01*
X22461Y37101D01*
X22410Y37224D01*
X22329Y37329D01*
X22224Y37410D01*
X22233Y37458D01*
X22835D01*
X22901Y37467D01*
X22964Y37493D01*
X23017Y37534D01*
X23058Y37587D01*
X23084Y37650D01*
X23093Y37717D01*
Y40906D01*
X23084Y40972D01*
X23058Y41035D01*
X23017Y41088D01*
X22964Y41129D01*
X22901Y41155D01*
X22835Y41164D01*
D02*
G37*
G36*
X26722Y30462D02*
X26268D01*
X26279Y30380D01*
X26330Y30257D01*
X26411Y30151D01*
X26517Y30070D01*
X26640Y30019D01*
X26722Y30008D01*
Y30462D01*
D02*
G37*
G36*
X45315Y31361D02*
X45195Y31349D01*
X45080Y31315D01*
X44974Y31258D01*
X44881Y31182D01*
X44805Y31089D01*
X44748Y30983D01*
X44714Y30868D01*
X44702Y30748D01*
X44714Y30628D01*
X44748Y30513D01*
X44805Y30407D01*
X44881Y30314D01*
X44974Y30238D01*
X45080Y30182D01*
X45195Y30147D01*
X45315Y30135D01*
X45435Y30147D01*
X45550Y30182D01*
X45656Y30238D01*
X45749Y30314D01*
X45825Y30407D01*
X45881Y30513D01*
X45916Y30628D01*
X45928Y30748D01*
X45916Y30868D01*
X45881Y30983D01*
X45825Y31089D01*
X45749Y31182D01*
X45656Y31258D01*
X45550Y31315D01*
X45435Y31349D01*
X45315Y31361D01*
D02*
G37*
G36*
X43514Y29801D02*
Y29302D01*
X44013D01*
X44001Y29396D01*
X43945Y29530D01*
X43857Y29645D01*
X43742Y29733D01*
X43608Y29789D01*
X43514Y29801D01*
D02*
G37*
G36*
X33081Y28732D02*
Y28278D01*
X33535D01*
X33524Y28360D01*
X33473Y28483D01*
X33392Y28589D01*
X33287Y28670D01*
X33163Y28721D01*
X33081Y28732D01*
D02*
G37*
G36*
X43414Y29801D02*
X43320Y29789D01*
X43186Y29733D01*
X43071Y29645D01*
X42983Y29530D01*
X42927Y29396D01*
X42915Y29302D01*
X43414D01*
Y29801D01*
D02*
G37*
G36*
X26722Y31016D02*
X26640Y31005D01*
X26517Y30954D01*
X26411Y30873D01*
X26330Y30767D01*
X26279Y30644D01*
X26268Y30562D01*
X26722D01*
Y31016D01*
D02*
G37*
G36*
X35315Y37400D02*
X35183Y37383D01*
X35060Y37332D01*
X34954Y37251D01*
X34873Y37145D01*
X34822Y37022D01*
X34805Y36890D01*
X34822Y36758D01*
X34873Y36635D01*
X34954Y36529D01*
X34977Y36511D01*
Y31980D01*
X34940Y31946D01*
X34882Y31952D01*
X34762Y31940D01*
X34647Y31905D01*
X34541Y31848D01*
X34448Y31772D01*
X34372Y31679D01*
X34315Y31573D01*
X34280Y31458D01*
X34269Y31339D01*
X34280Y31219D01*
X34315Y31104D01*
X34323Y31089D01*
X34298Y31046D01*
X32677D01*
X32677Y31046D01*
X32590Y31035D01*
X32508Y31001D01*
X32438Y30947D01*
X32438Y30947D01*
X32195Y30704D01*
X32149Y30723D01*
Y32165D01*
Y35960D01*
X32172Y35978D01*
X32253Y36083D01*
X32304Y36207D01*
X32321Y36339D01*
X32304Y36471D01*
X32253Y36594D01*
X32172Y36699D01*
X32066Y36780D01*
X31943Y36831D01*
X31811Y36849D01*
X31679Y36831D01*
X31556Y36780D01*
X31450Y36699D01*
X31369Y36594D01*
X31318Y36471D01*
X31301Y36339D01*
X31318Y36207D01*
X31369Y36083D01*
X31450Y35978D01*
X31473Y35960D01*
Y32165D01*
Y32008D01*
Y30770D01*
X31238Y30534D01*
X27638D01*
X27638Y30534D01*
X27550Y30523D01*
X27469Y30489D01*
X27399Y30436D01*
X27399Y30436D01*
X27299Y30336D01*
X27258Y30364D01*
X27265Y30380D01*
X27275Y30462D01*
X26822D01*
Y30008D01*
X26904Y30019D01*
X27027Y30070D01*
X27132Y30151D01*
X27145Y30167D01*
X27191Y30148D01*
X27182Y30079D01*
X27182Y30079D01*
Y29486D01*
X27135Y29470D01*
X27089Y29530D01*
X26853Y29766D01*
X26783Y29820D01*
X26702Y29854D01*
X26614Y29865D01*
X26614Y29865D01*
X23007D01*
X22993Y29882D01*
X22900Y29959D01*
X22794Y30015D01*
X22679Y30050D01*
X22559Y30062D01*
X22439Y30050D01*
X22324Y30015D01*
X22218Y29959D01*
X22125Y29882D01*
X22049Y29789D01*
X21993Y29683D01*
X21958Y29568D01*
X21946Y29449D01*
X21958Y29329D01*
X21993Y29214D01*
X22049Y29108D01*
X22125Y29015D01*
X22218Y28939D01*
X22324Y28882D01*
X22439Y28847D01*
X22559Y28836D01*
X22679Y28847D01*
X22794Y28882D01*
X22900Y28939D01*
X22993Y29015D01*
X23069Y29108D01*
X23113Y29190D01*
X26474D01*
X26513Y29152D01*
Y27663D01*
X26448Y27578D01*
X26409Y27483D01*
X26362Y27464D01*
X26274Y27501D01*
X26142Y27518D01*
X26010Y27501D01*
X25887Y27450D01*
X25781Y27369D01*
X25740Y27316D01*
X25551D01*
X25472Y27305D01*
X25397Y27274D01*
X25334Y27225D01*
X25039Y26931D01*
X24993Y26950D01*
Y27480D01*
X24982Y27560D01*
X24973Y27582D01*
X24952Y27634D01*
X24903Y27698D01*
X24793Y27808D01*
X24802Y27874D01*
X24784Y28006D01*
X24733Y28129D01*
X24652Y28235D01*
X24546Y28316D01*
X24423Y28367D01*
X24291Y28384D01*
X24159Y28367D01*
X24036Y28316D01*
X23931Y28235D01*
X23849Y28129D01*
X23798Y28006D01*
X23784Y27897D01*
X23744Y27867D01*
X23701Y27872D01*
X23569Y27855D01*
X23446Y27804D01*
X23340Y27723D01*
X23259Y27617D01*
X23208Y27494D01*
X23191Y27362D01*
X23208Y27230D01*
X23259Y27107D01*
X23340Y27001D01*
X23446Y26920D01*
X23569Y26869D01*
X23701Y26852D01*
X23767Y26861D01*
X23984Y26644D01*
Y18819D01*
X23994Y18739D01*
X24003Y18718D01*
X24025Y18665D01*
X24074Y18601D01*
X24310Y18365D01*
X24310Y18365D01*
X24359Y18328D01*
X24374Y18316D01*
X24390Y18310D01*
X24380Y18261D01*
X22441D01*
X22361Y18250D01*
X22324Y18235D01*
X22287Y18219D01*
X22223Y18170D01*
X21955Y17902D01*
X21908Y17919D01*
X21901Y17994D01*
X21866Y18109D01*
X21809Y18215D01*
X21733Y18308D01*
X21640Y18384D01*
X21534Y18441D01*
X21419Y18475D01*
X21299Y18487D01*
X21180Y18475D01*
X21065Y18441D01*
X20959Y18384D01*
X20866Y18308D01*
X20789Y18215D01*
X20733Y18109D01*
X20698Y17994D01*
X20686Y17874D01*
X20698Y17754D01*
X20733Y17639D01*
X20789Y17533D01*
X20866Y17440D01*
X20959Y17364D01*
X20959Y17364D01*
X20946Y17316D01*
X18310D01*
X18282Y17357D01*
X18328Y17466D01*
X18345Y17598D01*
X18328Y17730D01*
X18277Y17854D01*
X18212Y17938D01*
Y19528D01*
X18200Y19615D01*
X18200Y19615D01*
Y19615D01*
X18200D01*
X18200Y19615D01*
D01*
D01*
D01*
Y19615D01*
X18200D01*
D01*
X18200D01*
D01*
D01*
D01*
X18166Y19696D01*
X18143Y19727D01*
X18113Y19766D01*
X18113Y19766D01*
X17876Y20002D01*
X17807Y20056D01*
X17725Y20090D01*
X17638Y20101D01*
X17638Y20101D01*
X16236D01*
X16214Y20146D01*
X16236Y20174D01*
X20000D01*
X20000Y20174D01*
X20087Y20186D01*
X20169Y20220D01*
X20239Y20273D01*
X20632Y20667D01*
X20632Y20667D01*
X20663Y20706D01*
X20686Y20737D01*
X20720Y20818D01*
X20731Y20906D01*
Y22732D01*
X20755Y22749D01*
X20836Y22855D01*
X20887Y22978D01*
X20904Y23110D01*
X20887Y23242D01*
X20836Y23365D01*
X20755Y23471D01*
X20649Y23552D01*
X20526Y23603D01*
X20394Y23621D01*
X20262Y23603D01*
X20139Y23552D01*
X20033Y23471D01*
X19952Y23365D01*
X19901Y23242D01*
X19883Y23110D01*
X19901Y22978D01*
X19952Y22855D01*
X20033Y22749D01*
X20056Y22732D01*
Y21045D01*
X19988Y20977D01*
X19947Y21005D01*
X19981Y21088D01*
X19992Y21170D01*
X18985D01*
X18995Y21088D01*
X19046Y20965D01*
X19101Y20894D01*
X19079Y20849D01*
X16167D01*
X16082Y20914D01*
X15959Y20965D01*
X15827Y20983D01*
X15695Y20965D01*
X15572Y20914D01*
X15466Y20833D01*
X15385Y20728D01*
X15334Y20605D01*
X15316Y20472D01*
X15334Y20340D01*
X15385Y20217D01*
X15439Y20146D01*
X15417Y20101D01*
X15219D01*
X15141Y20179D01*
Y21986D01*
X15203Y22048D01*
X15250Y22032D01*
X15255Y21994D01*
X15306Y21871D01*
X15387Y21765D01*
X15493Y21684D01*
X15616Y21633D01*
X15748Y21616D01*
X15777Y21620D01*
X15824Y21572D01*
X15894Y21519D01*
X15976Y21485D01*
X16063Y21473D01*
X16063Y21473D01*
X16102D01*
Y21260D01*
X17047D01*
X17047Y21260D01*
Y21260D01*
D01*
X17048D01*
X17082Y21260D01*
Y21260D01*
X17082D01*
X17082D01*
Y21260D01*
D01*
D01*
D01*
X17470D01*
Y21811D01*
Y22362D01*
X17082D01*
X17082Y22362D01*
D01*
D01*
X17082Y22362D01*
X17048Y22362D01*
X17047D01*
X17047D01*
X17013Y22362D01*
X17013Y22362D01*
Y22362D01*
X16198D01*
X16190Y22381D01*
X16162Y22417D01*
X16656Y22911D01*
X16656Y22911D01*
X16710Y22981D01*
X16743Y23062D01*
D01*
X16743D01*
D01*
D01*
D01*
D01*
X16743D01*
D01*
D01*
D01*
D01*
Y23062D01*
X16743D01*
D01*
Y23062D01*
D01*
D01*
D01*
D01*
D01*
D01*
D01*
D01*
D01*
D01*
D01*
D01*
Y23062D01*
D01*
X16743D01*
D01*
D01*
D01*
D01*
X16743Y23062D01*
X16755Y23150D01*
X16755Y23150D01*
Y25057D01*
X16833Y25135D01*
X19331D01*
X19331Y25135D01*
X19418Y25146D01*
X19499Y25180D01*
X19569Y25234D01*
X19845Y25509D01*
X19845Y25509D01*
X19899Y25579D01*
X19932Y25661D01*
X19944Y25748D01*
X19944Y25748D01*
Y27347D01*
X20006Y27395D01*
X20088Y27501D01*
X20139Y27624D01*
X20156Y27756D01*
X20139Y27888D01*
X20088Y28011D01*
X20006Y28117D01*
X19901Y28198D01*
X19778Y28249D01*
X19646Y28266D01*
X19514Y28249D01*
X19391Y28198D01*
X19285Y28117D01*
X19204Y28011D01*
X19153Y27888D01*
X19135Y27756D01*
X19153Y27624D01*
X19204Y27501D01*
X19269Y27416D01*
Y26642D01*
X19220Y26632D01*
X19190Y26704D01*
X19190Y26704D01*
D01*
D01*
D01*
D01*
X19190Y26704D01*
D01*
D01*
Y26704D01*
D01*
X19190D01*
D01*
X19190D01*
D01*
D01*
X19136Y26774D01*
X19136Y26774D01*
X18861Y27050D01*
X18791Y27103D01*
X18709Y27137D01*
X18622Y27149D01*
X18622Y27149D01*
X15889D01*
Y27968D01*
X15912Y27986D01*
X15993Y28091D01*
X16044Y28214D01*
X16061Y28346D01*
X16044Y28479D01*
X15993Y28602D01*
X15969Y28633D01*
X15991Y28678D01*
X16157D01*
X16175Y28655D01*
X16280Y28574D01*
X16403Y28523D01*
X16535Y28505D01*
X16667Y28523D01*
X16790Y28574D01*
X16896Y28655D01*
X16977Y28761D01*
X17028Y28884D01*
X17046Y29016D01*
X17028Y29148D01*
X16977Y29271D01*
X16896Y29377D01*
X16790Y29458D01*
X16667Y29509D01*
X16535Y29526D01*
X16403Y29509D01*
X16280Y29458D01*
X16175Y29377D01*
X16157Y29353D01*
X15140D01*
X14850Y29643D01*
X14872Y29688D01*
X14882Y29687D01*
X15014Y29704D01*
X15137Y29755D01*
X15221Y29820D01*
X16078D01*
X16167Y29783D01*
X16299Y29765D01*
X16431Y29783D01*
X16554Y29834D01*
X16660Y29915D01*
X16741Y30020D01*
X16792Y30144D01*
X16809Y30276D01*
X16792Y30408D01*
X16741Y30531D01*
X16660Y30636D01*
X16554Y30717D01*
X16431Y30768D01*
X16299Y30786D01*
X16167Y30768D01*
X16044Y30717D01*
X15938Y30636D01*
X15891Y30574D01*
X15221D01*
X15137Y30639D01*
X15014Y30690D01*
X14882Y30707D01*
X14750Y30690D01*
X14627Y30639D01*
X14521Y30558D01*
X14440Y30452D01*
X14389Y30329D01*
X14372Y30197D01*
X14375Y30168D01*
X14336Y30137D01*
X14261Y30169D01*
X14173Y30180D01*
X14173Y30180D01*
X13251D01*
Y31771D01*
X13251Y31771D01*
X13240Y31858D01*
X13206Y31940D01*
X13153Y32010D01*
X12876Y32286D01*
X12807Y32340D01*
X12725Y32373D01*
X12638Y32385D01*
X12638Y32385D01*
X10890D01*
X10873Y32408D01*
X10767Y32489D01*
X10644Y32540D01*
X10512Y32558D01*
X10380Y32540D01*
X10257Y32489D01*
X10151Y32408D01*
X10070Y32302D01*
X10019Y32179D01*
X10002Y32047D01*
X10019Y31915D01*
X10070Y31792D01*
X10151Y31686D01*
X10257Y31605D01*
X10380Y31554D01*
X10512Y31537D01*
X10644Y31554D01*
X10767Y31605D01*
X10873Y31686D01*
X10890Y31710D01*
X12498D01*
X12576Y31631D01*
Y29981D01*
X12527Y29974D01*
X12496Y30077D01*
X12439Y30183D01*
X12363Y30276D01*
X12270Y30352D01*
X12164Y30409D01*
X12049Y30444D01*
X11929Y30456D01*
X11810Y30444D01*
X11694Y30409D01*
X11588Y30352D01*
X11496Y30276D01*
X11419Y30183D01*
X11363Y30077D01*
X11328Y29962D01*
X11316Y29843D01*
X11328Y29723D01*
X11363Y29608D01*
X11419Y29502D01*
X11496Y29409D01*
X11588Y29333D01*
X11694Y29276D01*
X11810Y29241D01*
X11929Y29229D01*
X12049Y29241D01*
X12164Y29276D01*
X12270Y29333D01*
X12318Y29372D01*
X12363Y29350D01*
Y28504D01*
X12558D01*
Y27520D01*
X12693D01*
Y26698D01*
X12592Y26621D01*
X12511Y26515D01*
X12460Y26392D01*
X12442Y26260D01*
X12460Y26128D01*
X12511Y26005D01*
X12592Y25899D01*
X12698Y25818D01*
X12821Y25767D01*
X12953Y25750D01*
X13085Y25767D01*
X13208Y25818D01*
X13314Y25899D01*
X13395Y26005D01*
X13446Y26128D01*
X13463Y26260D01*
X13446Y26392D01*
X13395Y26515D01*
X13368Y26549D01*
Y27520D01*
X13503D01*
Y27520D01*
X13503D01*
X13503Y27520D01*
X13505D01*
Y27520D01*
X13927D01*
Y28071D01*
X14027D01*
Y27520D01*
X14229D01*
Y23266D01*
X13820Y22858D01*
X12921D01*
X12875Y22914D01*
X12782Y22990D01*
X12676Y23047D01*
X12561Y23082D01*
X12441Y23094D01*
X12321Y23082D01*
X12206Y23047D01*
X12100Y22990D01*
X12007Y22914D01*
X11931Y22821D01*
X11874Y22715D01*
X11840Y22600D01*
X11828Y22480D01*
X11840Y22361D01*
X11874Y22246D01*
X11931Y22140D01*
X12007Y22047D01*
X12100Y21970D01*
X12206Y21914D01*
X12321Y21879D01*
X12441Y21867D01*
X12561Y21879D01*
X12676Y21914D01*
X12782Y21970D01*
X12875Y22047D01*
X12921Y22103D01*
X13976D01*
X14074Y22116D01*
X14165Y22154D01*
X14243Y22214D01*
Y22214D01*
X14243D01*
D01*
D01*
D01*
D01*
D01*
D01*
X14243D01*
D01*
X14243D01*
Y22214D01*
D01*
D01*
D01*
D01*
Y22214D01*
D01*
D01*
D01*
D01*
D01*
D01*
Y22214D01*
D01*
D01*
X14243D01*
D01*
D01*
D01*
X14873Y22843D01*
X14906Y22887D01*
X14986Y22854D01*
X14990Y22853D01*
X15006Y22806D01*
X14564Y22365D01*
X14511Y22295D01*
X14477Y22213D01*
X14466Y22126D01*
X14466Y22126D01*
Y20039D01*
X14466Y20039D01*
X14477Y19952D01*
X14511Y19871D01*
X14564Y19801D01*
X14840Y19525D01*
X14840Y19525D01*
X14910Y19471D01*
D01*
D01*
Y19471D01*
X14910Y19471D01*
D01*
D01*
X14910D01*
Y19471D01*
D01*
X14910D01*
Y19471D01*
X14991Y19438D01*
X15079Y19426D01*
X15079Y19426D01*
X17498D01*
X17536Y19388D01*
Y18007D01*
X17474Y17959D01*
X17393Y17854D01*
X17342Y17730D01*
X17324Y17598D01*
X17342Y17466D01*
X17387Y17357D01*
X17359Y17316D01*
X15362D01*
X15321Y17369D01*
X15216Y17450D01*
X15093Y17501D01*
X14961Y17518D01*
X14829Y17501D01*
X14705Y17450D01*
X14600Y17369D01*
X14519Y17263D01*
X14468Y17140D01*
X14450Y17008D01*
X14468Y16876D01*
X14519Y16753D01*
X14600Y16647D01*
X14705Y16566D01*
X14829Y16515D01*
X14961Y16498D01*
X15093Y16515D01*
X15216Y16566D01*
X15321Y16647D01*
X15362Y16700D01*
X17291D01*
Y16228D01*
X17238Y16188D01*
X17157Y16082D01*
X17106Y15959D01*
X17088Y15827D01*
X17106Y15695D01*
X17157Y15572D01*
X17238Y15466D01*
X17343Y15385D01*
X17466Y15334D01*
X17598Y15316D01*
X17730Y15334D01*
X17854Y15385D01*
X17959Y15466D01*
X18040Y15572D01*
X18091Y15695D01*
X18109Y15827D01*
X18091Y15959D01*
X18040Y16082D01*
X17959Y16188D01*
X17906Y16228D01*
Y16700D01*
X18621D01*
Y16389D01*
X19094D01*
Y16289D01*
X18621D01*
Y15895D01*
X18607Y15887D01*
X18517Y15813D01*
X18444Y15723D01*
X18389Y15621D01*
X18355Y15509D01*
X18349Y15444D01*
X18937D01*
Y15394D01*
X18987D01*
Y14805D01*
X19053Y14812D01*
X19164Y14845D01*
X19267Y14900D01*
X19357Y14974D01*
X19430Y15064D01*
X19479Y15155D01*
X19528Y15143D01*
Y14803D01*
X19781D01*
Y13841D01*
X18797Y12857D01*
X16599D01*
X16581Y12881D01*
X16476Y12962D01*
X16353Y13013D01*
X16220Y13030D01*
X16088Y13013D01*
X15965Y12962D01*
X15860Y12881D01*
X15842Y12857D01*
X14779D01*
X14731Y12920D01*
X14625Y13001D01*
X14502Y13052D01*
X14370Y13069D01*
X14238Y13052D01*
X14119Y13003D01*
X14078Y13031D01*
Y14685D01*
X14078Y14685D01*
X14066Y14772D01*
X14032Y14854D01*
X13979Y14924D01*
X13743Y15160D01*
X13673Y15214D01*
X13591Y15247D01*
X13504Y15259D01*
X13504Y15259D01*
X13346D01*
Y15512D01*
X13150D01*
Y16457D01*
X12725D01*
X12706Y16503D01*
X12786Y16584D01*
X12846Y16662D01*
X12884Y16753D01*
X12897Y16850D01*
D01*
D01*
D01*
D01*
D01*
X12897D01*
D01*
D01*
D01*
D01*
Y16850D01*
X12897D01*
D01*
Y16850D01*
D01*
D01*
D01*
D01*
D01*
D01*
D01*
D01*
D01*
D01*
D01*
D01*
Y16850D01*
D01*
X12897D01*
D01*
D01*
D01*
D01*
X12897Y16850D01*
Y16983D01*
X12962Y17068D01*
X13013Y17191D01*
X13030Y17323D01*
X13013Y17455D01*
X12962Y17578D01*
X12881Y17684D01*
X12775Y17765D01*
X12652Y17816D01*
X12520Y17833D01*
X12388Y17816D01*
X12265Y17765D01*
X12159Y17684D01*
X12078Y17578D01*
X12027Y17455D01*
X12009Y17323D01*
X12027Y17191D01*
X12076Y17072D01*
X12048Y17031D01*
X11713D01*
X11697Y17078D01*
X11699Y17080D01*
X11780Y17186D01*
X11831Y17309D01*
X11849Y17441D01*
X11831Y17573D01*
X11780Y17696D01*
X11716Y17780D01*
Y19409D01*
X11703Y19507D01*
X11692Y19534D01*
X11665Y19598D01*
X11605Y19676D01*
X11330Y19952D01*
X11252Y20012D01*
Y20012D01*
X11252D01*
D01*
D01*
D01*
D01*
X11252D01*
Y20012D01*
D01*
D01*
X11252Y20012D01*
X11252Y20012D01*
X11252Y20012D01*
D01*
X11161Y20049D01*
X11063Y20062D01*
X7408D01*
X7371Y20107D01*
X7272Y20188D01*
X7159Y20249D01*
X7037Y20286D01*
X6909Y20298D01*
X6782Y20286D01*
X6660Y20249D01*
X6547Y20188D01*
X6448Y20107D01*
X6367Y20008D01*
X6306Y19895D01*
X6269Y19773D01*
X6257Y19646D01*
X6269Y19518D01*
X6306Y19396D01*
X6367Y19283D01*
X6448Y19184D01*
X6547Y19103D01*
X6660Y19043D01*
X6782Y19005D01*
X6909Y18993D01*
X7037Y19005D01*
X7159Y19043D01*
X7272Y19103D01*
X7371Y19184D01*
X7452Y19283D01*
X7465Y19308D01*
X10907D01*
X10961Y19253D01*
Y17992D01*
X10394D01*
D01*
D01*
X10394Y17992D01*
X10393D01*
Y17992D01*
X9971D01*
Y17441D01*
X9871D01*
Y17992D01*
X9448D01*
Y17984D01*
X9411Y17951D01*
X9459Y17945D01*
Y17441D01*
Y16937D01*
X9411Y16931D01*
X9448Y16898D01*
Y16890D01*
X9834D01*
X9853Y16844D01*
X9733Y16723D01*
X9673Y16645D01*
X9636Y16554D01*
X9623Y16457D01*
Y16442D01*
X9558Y16358D01*
X9507Y16234D01*
X9490Y16102D01*
X9507Y15970D01*
X9558Y15847D01*
X9639Y15742D01*
X9745Y15660D01*
X9868Y15609D01*
X10000Y15592D01*
X10132Y15609D01*
X10255Y15660D01*
X10361Y15742D01*
X10442Y15847D01*
X10493Y15970D01*
X10510Y16102D01*
X10493Y16234D01*
X10493Y16235D01*
X10521Y16276D01*
X11259D01*
Y15956D01*
X11732D01*
Y15856D01*
X11259D01*
Y15422D01*
X11245Y15415D01*
X11155Y15341D01*
X11081Y15251D01*
X11027Y15148D01*
X10993Y15037D01*
X10986Y14971D01*
X11575D01*
Y14921D01*
X11625D01*
Y14333D01*
X11691Y14339D01*
X11802Y14373D01*
X11904Y14428D01*
X11994Y14502D01*
X12068Y14592D01*
X12117Y14683D01*
X12165Y14670D01*
Y14331D01*
X13346D01*
Y14536D01*
X13361Y14542D01*
X13403Y14514D01*
Y11299D01*
X13403Y11299D01*
X13414Y11212D01*
X13448Y11130D01*
X13501Y11061D01*
X13706Y10856D01*
X13687Y10810D01*
X12738D01*
X12621Y10927D01*
Y13095D01*
X12684Y13143D01*
X12765Y13249D01*
X12816Y13372D01*
X12833Y13504D01*
X12816Y13636D01*
X12765Y13759D01*
X12684Y13865D01*
X12578Y13946D01*
X12455Y13997D01*
X12323Y14014D01*
X12191Y13997D01*
X12068Y13946D01*
X11962Y13865D01*
X11881Y13759D01*
X11830Y13636D01*
X11813Y13504D01*
X11830Y13372D01*
X11881Y13249D01*
X11946Y13164D01*
Y10787D01*
X11946Y10787D01*
X11957Y10700D01*
X11991Y10619D01*
X12045Y10549D01*
X12360Y10234D01*
X12360Y10234D01*
X12430Y10180D01*
D01*
D01*
Y10180D01*
X12430Y10180D01*
D01*
D01*
X12430D01*
Y10180D01*
D01*
X12430D01*
Y10180D01*
X12511Y10146D01*
X12598Y10135D01*
X12598Y10135D01*
X16008D01*
X16030Y10090D01*
X15975Y10019D01*
X15924Y9896D01*
X15914Y9814D01*
X16921D01*
X16910Y9896D01*
X16859Y10019D01*
X16778Y10125D01*
X16782Y10135D01*
X18089D01*
X18403Y9821D01*
Y5906D01*
X18403Y5906D01*
X18414Y5818D01*
X18448Y5737D01*
X18501Y5667D01*
X18935Y5234D01*
X18935Y5234D01*
X19004Y5180D01*
D01*
D01*
Y5180D01*
X19004Y5180D01*
D01*
D01*
X19004D01*
Y5180D01*
D01*
X19004D01*
Y5180D01*
X19086Y5146D01*
X19173Y5135D01*
X19173Y5135D01*
X20802D01*
X20887Y5070D01*
X21010Y5019D01*
X21142Y5002D01*
X21274Y5019D01*
X21397Y5070D01*
X21503Y5151D01*
X21584Y5257D01*
X21635Y5380D01*
X21652Y5512D01*
X21635Y5644D01*
X21584Y5767D01*
X21503Y5873D01*
X21397Y5954D01*
X21274Y6005D01*
X21142Y6022D01*
X21010Y6005D01*
X20887Y5954D01*
X20781Y5873D01*
X20733Y5810D01*
X19313D01*
X19078Y6045D01*
Y8681D01*
X19125Y8697D01*
X19127Y8694D01*
X19233Y8613D01*
X19356Y8562D01*
X19438Y8551D01*
Y9055D01*
Y9559D01*
X19356Y9548D01*
X19233Y9497D01*
X19127Y9416D01*
X19125Y9413D01*
X19078Y9429D01*
Y9961D01*
X19078Y9961D01*
X19066Y10048D01*
X19032Y10129D01*
X18979Y10199D01*
X18467Y10711D01*
X18397Y10765D01*
X18316Y10798D01*
X18228Y10810D01*
X18228Y10810D01*
X18109D01*
X18081Y10852D01*
X18131Y10970D01*
X18141Y11052D01*
X17638D01*
Y11152D01*
X18141D01*
X18131Y11234D01*
X18133Y11237D01*
X21142D01*
X21142Y11237D01*
X21229Y11249D01*
X21232Y11250D01*
X21272Y11220D01*
X21261Y11142D01*
X21279Y11010D01*
X21330Y10887D01*
X21411Y10781D01*
X21434Y10763D01*
Y10276D01*
X21434Y10276D01*
X21446Y10188D01*
X21479Y10107D01*
X21533Y10037D01*
X21730Y9840D01*
X21800Y9786D01*
X21881Y9753D01*
X21969Y9741D01*
X21969Y9741D01*
X24803D01*
Y9381D01*
X25275D01*
Y9331D01*
X25325D01*
Y8780D01*
X25747D01*
Y8780D01*
X25747D01*
X25747Y8780D01*
X25749D01*
Y8780D01*
X26694D01*
Y9774D01*
X26702Y9784D01*
X26753Y9907D01*
X26770Y10039D01*
X26753Y10171D01*
X26702Y10295D01*
X26621Y10400D01*
X26515Y10481D01*
X26517Y10489D01*
X28482D01*
X28543Y10428D01*
Y10158D01*
D01*
X28543Y10158D01*
X28543Y10157D01*
X28543D01*
Y9734D01*
X29646D01*
Y9812D01*
X29692Y9831D01*
X29958Y9564D01*
X29958Y9564D01*
X30028Y9511D01*
X30109Y9477D01*
X30186Y9467D01*
X30197Y9435D01*
X30197Y9414D01*
X30116Y9333D01*
X30062Y9263D01*
X30028Y9182D01*
X30017Y9094D01*
X30017Y9094D01*
Y8765D01*
X29994Y8747D01*
X29912Y8641D01*
X29861Y8518D01*
X29844Y8386D01*
X29861Y8254D01*
X29912Y8131D01*
X29994Y8025D01*
X30099Y7944D01*
X30222Y7893D01*
X30354Y7876D01*
X30486Y7893D01*
X30603Y7941D01*
X30647Y7916D01*
X30649Y7899D01*
X30691Y7798D01*
X30663Y7757D01*
X30630D01*
Y6846D01*
X30630Y6846D01*
X30630D01*
X30630Y6812D01*
Y6810D01*
X30630Y6810D01*
X30630Y6810D01*
Y6388D01*
X31732D01*
Y6776D01*
X31732Y6776D01*
D01*
D01*
X31732Y6810D01*
Y6810D01*
Y6811D01*
X31732Y6812D01*
X31732Y6846D01*
X31732D01*
D01*
Y6846D01*
X31732D01*
D01*
Y7757D01*
X31620D01*
X31593Y7798D01*
X31635Y7899D01*
X31652Y8031D01*
X31635Y8164D01*
X31584Y8287D01*
X31503Y8392D01*
X31397Y8473D01*
X31274Y8524D01*
X31142Y8542D01*
X31010Y8524D01*
X30893Y8476D01*
X30849Y8501D01*
X30847Y8518D01*
X30796Y8641D01*
X30715Y8747D01*
X30692Y8765D01*
Y8875D01*
X32559D01*
X32559Y8875D01*
X32646Y8887D01*
X32728Y8920D01*
X32798Y8974D01*
X33151Y9328D01*
X33151Y9328D01*
X33205Y9398D01*
X33239Y9479D01*
X33250Y9566D01*
Y9843D01*
X33385D01*
X33385Y9843D01*
Y9843D01*
D01*
X33386D01*
X33421Y9843D01*
Y9843D01*
X33421D01*
X33421D01*
Y9843D01*
D01*
D01*
D01*
X33809D01*
Y10394D01*
Y10945D01*
X33421D01*
X33421Y10945D01*
D01*
D01*
X33421Y10945D01*
X33386Y10945D01*
X33386D01*
X33385D01*
X33351Y10945D01*
X33351Y10945D01*
Y10945D01*
X32440D01*
X32440Y10945D01*
Y10945D01*
X32435Y10942D01*
X32420Y10954D01*
X32297Y11005D01*
X32165Y11022D01*
X32033Y11005D01*
X31910Y10954D01*
X31805Y10873D01*
X31723Y10767D01*
X31672Y10644D01*
X31655Y10512D01*
X31672Y10380D01*
X31684Y10352D01*
X31659Y10309D01*
X31561Y10296D01*
X31438Y10245D01*
X31332Y10164D01*
X31314Y10141D01*
X30337D01*
X30259Y10219D01*
Y10931D01*
X30305Y10950D01*
X30568Y10687D01*
X30568Y10687D01*
X30608Y10656D01*
X30638Y10633D01*
X30672Y10619D01*
X30690Y10611D01*
X30742Y10545D01*
X30847Y10464D01*
X30970Y10413D01*
X31102Y10395D01*
X31234Y10413D01*
X31358Y10464D01*
X31463Y10545D01*
X31544Y10650D01*
X31595Y10773D01*
X31613Y10906D01*
X31595Y11038D01*
X31544Y11161D01*
X31463Y11266D01*
X31358Y11347D01*
X31317Y11364D01*
X31315Y11414D01*
X31325Y11419D01*
X31418Y11496D01*
X31494Y11588D01*
X31551Y11694D01*
X31586Y11810D01*
X31597Y11929D01*
X31586Y12049D01*
X31551Y12164D01*
X31494Y12270D01*
X31418Y12363D01*
X31325Y12439D01*
X31219Y12496D01*
X31108Y12529D01*
Y12529D01*
X31108D01*
D01*
D01*
X31108D01*
X31104Y12531D01*
Y12531D01*
X31104Y12536D01*
X34554D01*
X34556Y12518D01*
X34591Y12403D01*
X34648Y12297D01*
X34724Y12204D01*
X34817Y12128D01*
X34923Y12071D01*
X35038Y12036D01*
X35157Y12025D01*
X35277Y12036D01*
X35392Y12071D01*
X35498Y12128D01*
X35591Y12204D01*
X35667Y12297D01*
X35724Y12403D01*
X35759Y12518D01*
X35771Y12638D01*
X35759Y12757D01*
X35724Y12872D01*
X35667Y12978D01*
X35591Y13071D01*
X35498Y13148D01*
X35392Y13204D01*
X35397Y13236D01*
X36027D01*
X36055Y13194D01*
X36043Y13164D01*
X36025Y13032D01*
X36043Y12899D01*
X36094Y12776D01*
X36175Y12671D01*
X36280Y12590D01*
X36403Y12539D01*
X36535Y12521D01*
X36667Y12539D01*
X36791Y12590D01*
X36896Y12671D01*
X36937Y12724D01*
X38022D01*
X38078Y12668D01*
Y11827D01*
X38045Y11809D01*
X37952Y11733D01*
X37876Y11640D01*
X37819Y11534D01*
X37807Y11494D01*
X37758Y11485D01*
X37684Y11581D01*
X37578Y11662D01*
X37455Y11713D01*
X37323Y11731D01*
X37191Y11713D01*
X37068Y11662D01*
X36962Y11581D01*
X36881Y11476D01*
X36830Y11353D01*
X36813Y11220D01*
X36830Y11088D01*
X36881Y10965D01*
X36962Y10860D01*
X37068Y10779D01*
X37191Y10728D01*
X37323Y10710D01*
X37377Y10717D01*
X37689Y10405D01*
D01*
X37689D01*
X37689Y10405D01*
X37689Y10405D01*
X37689D01*
D01*
X37689D01*
X37689Y10405D01*
Y10405D01*
X37689Y10405D01*
Y10405D01*
X37755Y10355D01*
X37799Y10336D01*
X37831Y10323D01*
X37913Y10312D01*
X41561D01*
X41651Y10223D01*
Y9522D01*
X41605Y9503D01*
X41420Y9687D01*
X41350Y9741D01*
X41268Y9775D01*
X41260Y9776D01*
Y10000D01*
X40350D01*
X40350Y10000D01*
D01*
D01*
X40350Y10000D01*
X40316Y10000D01*
X40315D01*
X40314D01*
X40280Y10000D01*
X40280Y10000D01*
Y10000D01*
X39892D01*
Y9449D01*
Y8898D01*
X40314D01*
Y8898D01*
X40316D01*
X40350Y8898D01*
Y8898D01*
X40350D01*
X40350D01*
Y8898D01*
D01*
D01*
D01*
X41080D01*
Y8725D01*
X41057Y8707D01*
X41039Y8684D01*
X35376D01*
X35141Y8919D01*
Y9482D01*
X35243Y9560D01*
X35324Y9666D01*
X35375Y9789D01*
X35392Y9921D01*
X35375Y10053D01*
X35324Y10176D01*
X35248Y10276D01*
X35324Y10375D01*
X35375Y10498D01*
X35386Y10580D01*
X34882D01*
Y10630D01*
X34832D01*
Y11134D01*
X34750Y11123D01*
X34627Y11072D01*
X34521Y10991D01*
X34440Y10885D01*
X34389Y10762D01*
X34381Y10703D01*
X34331Y10706D01*
Y10945D01*
X33909D01*
Y10394D01*
Y9843D01*
X34331D01*
Y9845D01*
X34381Y9848D01*
X34389Y9789D01*
X34440Y9666D01*
X34466Y9633D01*
Y8780D01*
X34466Y8780D01*
X34477Y8692D01*
X34511Y8611D01*
X34564Y8541D01*
X34998Y8108D01*
X34998Y8108D01*
X35067Y8054D01*
X35149Y8020D01*
X35236Y8009D01*
X35236Y8009D01*
X41039D01*
X41057Y7986D01*
X41162Y7905D01*
X41285Y7854D01*
X41417Y7836D01*
X41549Y7854D01*
X41672Y7905D01*
X41778Y7986D01*
X41859Y8091D01*
X41910Y8214D01*
X41928Y8346D01*
X41910Y8479D01*
X41859Y8602D01*
X41778Y8707D01*
X41755Y8725D01*
Y9108D01*
X41801Y9128D01*
X42098Y8830D01*
Y8830D01*
D01*
Y8830D01*
X42098Y8830D01*
D01*
D01*
X42098D01*
X42098Y8830D01*
Y8830D01*
X42098Y8830D01*
Y8830D01*
X42164Y8780D01*
X42241Y8748D01*
Y8748D01*
X42241Y8748D01*
D01*
D01*
D01*
X42241D01*
Y8748D01*
X42241Y8748D01*
X42241Y8748D01*
X42323Y8737D01*
X42695D01*
X42712Y8690D01*
X42631Y8629D01*
X42550Y8523D01*
X42499Y8400D01*
X42488Y8318D01*
X43496D01*
X43485Y8400D01*
X43434Y8523D01*
X43353Y8629D01*
X43247Y8710D01*
X43253Y8737D01*
X43495D01*
X43497Y8734D01*
X43603Y8653D01*
X43726Y8602D01*
X43858Y8584D01*
X43990Y8602D01*
X44113Y8653D01*
X44219Y8734D01*
X44300Y8839D01*
X44351Y8962D01*
X44369Y9094D01*
X44357Y9182D01*
X44390Y9220D01*
X48465D01*
X48544Y9230D01*
X48566Y9239D01*
X48618Y9261D01*
X48682Y9310D01*
X49037Y9664D01*
X49085Y9728D01*
X49107Y9780D01*
X49116Y9802D01*
X49127Y9882D01*
Y13918D01*
X49168Y13945D01*
X49238Y13917D01*
X49370Y13899D01*
X49502Y13917D01*
X49625Y13968D01*
X49731Y14049D01*
X49741Y14062D01*
X51732D01*
X51812Y14073D01*
X51843Y14086D01*
X51886Y14104D01*
X51950Y14152D01*
X52462Y14664D01*
X52511Y14728D01*
X52532Y14780D01*
X52541Y14802D01*
X52543Y14812D01*
X52552Y14882D01*
X52552Y14882D01*
Y17756D01*
X52552Y17756D01*
X52547Y17796D01*
X52541Y17836D01*
X52522Y17882D01*
X52511Y17910D01*
X52499Y17925D01*
X52462Y17974D01*
X52462Y17974D01*
X52037Y18399D01*
X51973Y18448D01*
X51920Y18469D01*
X51899Y18478D01*
X51819Y18489D01*
X51443D01*
X51377Y18574D01*
X51262Y18663D01*
Y18700D01*
X51377Y18788D01*
X51466Y18903D01*
X51521Y19037D01*
X51540Y19181D01*
X51521Y19325D01*
X51466Y19459D01*
X51377Y19574D01*
X51262Y19663D01*
X51258Y19664D01*
X51251Y19681D01*
X51255Y19697D01*
X51262Y19700D01*
X51377Y19788D01*
X51466Y19903D01*
X51521Y20037D01*
X51540Y20181D01*
X51521Y20325D01*
X51466Y20459D01*
X51377Y20574D01*
X51361Y20586D01*
Y20630D01*
X51457D01*
Y21732D01*
X50512D01*
D01*
D01*
X50512Y21732D01*
X50511D01*
Y21732D01*
X50089D01*
Y21181D01*
X50039D01*
Y21131D01*
X49566D01*
Y20630D01*
X49586D01*
X49602Y20583D01*
X49591Y20574D01*
X49503Y20459D01*
X49447Y20325D01*
X49435Y20231D01*
X49984D01*
Y20131D01*
X49435D01*
X49447Y20037D01*
X49448Y20034D01*
X49421Y19993D01*
X46102D01*
X46102Y19993D01*
X46063Y19988D01*
X46023Y19982D01*
X45986Y19967D01*
X45948Y19952D01*
X45912Y19924D01*
X45885Y19903D01*
X45885Y19903D01*
X45649Y19666D01*
X45600Y19603D01*
X45582Y19559D01*
X45569Y19528D01*
X45558Y19449D01*
Y17391D01*
X45498Y17383D01*
X45375Y17332D01*
X45269Y17251D01*
X45200Y17160D01*
X45152Y17176D01*
Y19128D01*
X45203Y19167D01*
X45284Y19272D01*
X45335Y19395D01*
X45353Y19528D01*
X45335Y19660D01*
X45284Y19783D01*
X45203Y19888D01*
X45098Y19969D01*
X44975Y20020D01*
X44843Y20038D01*
X44710Y20020D01*
X44641Y19992D01*
X44599Y20019D01*
Y22677D01*
X44599Y22677D01*
X44599Y22677D01*
Y23268D01*
X44589Y23347D01*
X44573Y23384D01*
X44558Y23422D01*
X44509Y23485D01*
X44439Y23556D01*
X44447Y23622D01*
X44430Y23754D01*
X44379Y23877D01*
X44389Y23897D01*
X44399D01*
Y24319D01*
X43898D01*
Y24127D01*
X43805Y24115D01*
X43682Y24064D01*
X43576Y23983D01*
X43495Y23877D01*
X43444Y23754D01*
X43427Y23622D01*
X43444Y23490D01*
X43495Y23367D01*
X43512Y23345D01*
X43504Y23328D01*
X43454Y23323D01*
X43432Y23353D01*
X43326Y23434D01*
X43203Y23485D01*
X43071Y23502D01*
X42939Y23485D01*
X42816Y23434D01*
X42710Y23353D01*
X42629Y23247D01*
X42578Y23124D01*
X42561Y22992D01*
X42578Y22860D01*
X42629Y22737D01*
X42710Y22631D01*
X42816Y22550D01*
X42939Y22499D01*
X43071Y22482D01*
X43203Y22499D01*
X43326Y22550D01*
X43432Y22631D01*
X43472Y22684D01*
X43629D01*
Y22480D01*
Y21457D01*
Y19811D01*
X43582Y19795D01*
X43510Y19888D01*
X43405Y19969D01*
X43282Y20020D01*
X43150Y20038D01*
X43018Y20020D01*
X42894Y19969D01*
X42789Y19888D01*
X42708Y19783D01*
X42657Y19660D01*
X42639Y19528D01*
X42657Y19395D01*
X42708Y19272D01*
X42732Y19241D01*
X42710Y19196D01*
X41520D01*
X41503Y19219D01*
X41397Y19300D01*
X41274Y19351D01*
X41142Y19369D01*
X41010Y19351D01*
X40887Y19300D01*
X40781Y19219D01*
X40763Y19196D01*
X40000D01*
X40000Y19196D01*
X39913Y19184D01*
X39831Y19151D01*
X39761Y19097D01*
X39761Y19097D01*
X39525Y18861D01*
X39471Y18791D01*
X39438Y18709D01*
X39426Y18622D01*
X39426Y18622D01*
Y16085D01*
X39388Y16046D01*
X38990D01*
X38971Y16092D01*
X39176Y16297D01*
X39176Y16297D01*
X39229Y16367D01*
X39263Y16448D01*
D01*
X39263D01*
D01*
D01*
D01*
D01*
X39263D01*
D01*
D01*
D01*
D01*
Y16448D01*
X39263D01*
D01*
Y16448D01*
D01*
D01*
D01*
D01*
D01*
D01*
D01*
D01*
D01*
D01*
D01*
D01*
Y16448D01*
D01*
X39263D01*
D01*
D01*
D01*
D01*
X39263Y16448D01*
X39275Y16535D01*
X39275Y16535D01*
Y19685D01*
X39263Y19772D01*
X39229Y19854D01*
X39206Y19884D01*
X39176Y19924D01*
X39176Y19924D01*
X38735Y20365D01*
X38739Y20394D01*
X38721Y20526D01*
X38670Y20649D01*
X38589Y20755D01*
X38483Y20836D01*
X38360Y20887D01*
X38228Y20904D01*
X38096Y20887D01*
X37973Y20836D01*
X37958Y20824D01*
X37908Y20830D01*
X37895Y20848D01*
X37737Y21005D01*
X37674Y21054D01*
X37621Y21076D01*
X37599Y21085D01*
X37520Y21095D01*
X37441D01*
Y21164D01*
X37460Y21172D01*
X37566Y21253D01*
X37647Y21359D01*
X37698Y21482D01*
X37708Y21564D01*
X36701D01*
X36712Y21482D01*
X36763Y21359D01*
X36834Y21266D01*
X36812Y21221D01*
X36339D01*
Y20276D01*
D01*
X36339Y20276D01*
X36339Y20275D01*
X36339D01*
Y19330D01*
X36582D01*
Y19016D01*
X36593Y18936D01*
X36602Y18914D01*
X36623Y18862D01*
X36672Y18798D01*
X36790Y18680D01*
X36854Y18631D01*
X36897Y18613D01*
X36928Y18600D01*
X37008Y18590D01*
X37236D01*
X37277Y18537D01*
X37383Y18456D01*
X37506Y18405D01*
X37638Y18387D01*
X37770Y18405D01*
X37893Y18456D01*
X37999Y18537D01*
X38080Y18642D01*
X38131Y18766D01*
X38141Y18841D01*
X38180Y18871D01*
X38268Y18860D01*
X38400Y18877D01*
X38523Y18928D01*
X38555Y18953D01*
X38599Y18930D01*
Y16675D01*
X38522Y16597D01*
X37000D01*
X36972Y16639D01*
X36989Y16679D01*
X37006Y16811D01*
X36989Y16943D01*
X36938Y17066D01*
X36857Y17172D01*
X36751Y17253D01*
X36628Y17304D01*
X36496Y17321D01*
X36514Y17340D01*
X36787D01*
X36805Y17316D01*
X36910Y17235D01*
X37033Y17184D01*
X37165Y17167D01*
X37297Y17184D01*
X37420Y17235D01*
X37526Y17316D01*
X37607Y17422D01*
X37658Y17545D01*
X37676Y17677D01*
X37658Y17809D01*
X37607Y17932D01*
X37526Y18038D01*
X37420Y18119D01*
X37297Y18170D01*
X37165Y18187D01*
X37033Y18170D01*
X36910Y18119D01*
X36805Y18038D01*
X36787Y18015D01*
X29606D01*
X29519Y18003D01*
X29438Y17969D01*
X29407Y17946D01*
X29368Y17916D01*
X29368Y17916D01*
X28835Y17383D01*
X28793Y17411D01*
X28800Y17427D01*
X28817Y17559D01*
X28800Y17691D01*
X28749Y17814D01*
X28668Y17920D01*
X28562Y18001D01*
X28439Y18052D01*
X28307Y18069D01*
X28175Y18052D01*
X28052Y18001D01*
X27990Y17954D01*
X27946Y17976D01*
Y19991D01*
X28092Y20137D01*
X28141Y20200D01*
X28159Y20244D01*
X28171Y20275D01*
X28182Y20354D01*
Y21095D01*
X28235Y21135D01*
X28316Y21241D01*
X28367Y21364D01*
X28384Y21496D01*
X28367Y21628D01*
X28316Y21751D01*
X28235Y21857D01*
X28129Y21938D01*
X28006Y21989D01*
X27874Y22006D01*
X27816Y21999D01*
X27785Y22038D01*
X27816Y22112D01*
X27833Y22244D01*
X27816Y22376D01*
X27765Y22499D01*
X27684Y22605D01*
X27578Y22686D01*
X27455Y22737D01*
X27323Y22754D01*
X27191Y22737D01*
X27068Y22686D01*
X27046Y22669D01*
X27001Y22691D01*
Y23378D01*
X27054Y23419D01*
X27135Y23524D01*
X27186Y23647D01*
X27203Y23780D01*
X27186Y23912D01*
X27135Y24035D01*
X27054Y24140D01*
X26948Y24221D01*
X26825Y24272D01*
X26693Y24290D01*
X26561Y24272D01*
X26438Y24221D01*
X26332Y24140D01*
X26261Y24047D01*
X26213Y24063D01*
Y26116D01*
X26250Y26151D01*
X26283Y26149D01*
X26293Y26135D01*
X26398Y26054D01*
X26521Y26003D01*
X26654Y25986D01*
X26786Y26003D01*
X26909Y26054D01*
X27014Y26135D01*
X27095Y26241D01*
X27139Y26346D01*
X27187Y26359D01*
X27225Y26330D01*
X27348Y26279D01*
X27480Y26261D01*
X27612Y26279D01*
X27735Y26330D01*
X27841Y26411D01*
X27922Y26517D01*
X27973Y26640D01*
X27991Y26772D01*
X27973Y26904D01*
X27922Y27027D01*
X27857Y27111D01*
Y29174D01*
X27899Y29202D01*
X28018Y29153D01*
X28100Y29142D01*
Y29646D01*
X28200D01*
Y29142D01*
X28282Y29153D01*
X28324Y29170D01*
X28364Y29140D01*
X28363Y29134D01*
X28375Y29014D01*
X28410Y28899D01*
X28442Y28839D01*
Y27874D01*
X28442Y27874D01*
X28453Y27787D01*
X28487Y27705D01*
X28541Y27635D01*
X28777Y27399D01*
X28847Y27345D01*
X28928Y27312D01*
X29016Y27300D01*
X29016Y27300D01*
X30182D01*
X30209Y27259D01*
X30176Y27179D01*
X30159Y27047D01*
X30176Y26915D01*
X30227Y26792D01*
X30308Y26686D01*
X30414Y26605D01*
X30537Y26554D01*
X30669Y26537D01*
X30801Y26554D01*
X30924Y26605D01*
X31030Y26686D01*
X31071Y26739D01*
X31515D01*
X31544Y26699D01*
X31509Y26584D01*
X31497Y26457D01*
X31509Y26329D01*
X31547Y26207D01*
X31562Y26177D01*
X31537Y26135D01*
X30433D01*
X30353Y26124D01*
X30301Y26102D01*
X30279Y26093D01*
X30215Y26044D01*
X29979Y25808D01*
X29930Y25744D01*
X29912Y25701D01*
X29900Y25670D01*
X29889Y25591D01*
Y24457D01*
X29836Y24416D01*
X29755Y24310D01*
X29704Y24187D01*
X29687Y24055D01*
X29704Y23923D01*
X29755Y23800D01*
X29836Y23694D01*
X29942Y23613D01*
X30065Y23562D01*
X30197Y23545D01*
X30329Y23562D01*
X30452Y23613D01*
X30558Y23694D01*
X30639Y23800D01*
X30690Y23923D01*
X30707Y24055D01*
X30690Y24187D01*
X30639Y24310D01*
X30558Y24416D01*
X30505Y24457D01*
Y25463D01*
X30561Y25519D01*
X31279D01*
X31312Y25481D01*
X31301Y25394D01*
X31318Y25262D01*
X31369Y25139D01*
X31450Y25033D01*
X31556Y24952D01*
X31679Y24901D01*
X31811Y24883D01*
X31877Y24892D01*
X32223Y24546D01*
X32287Y24497D01*
X32340Y24476D01*
X32361Y24467D01*
X32441Y24456D01*
X33457D01*
X33497Y24403D01*
X33603Y24322D01*
X33726Y24271D01*
X33858Y24254D01*
X33990Y24271D01*
X34113Y24322D01*
X34219Y24403D01*
X34300Y24509D01*
X34351Y24632D01*
X34369Y24764D01*
X34366Y24786D01*
X34401Y24821D01*
X34528Y24805D01*
X34660Y24822D01*
X34783Y24873D01*
X34888Y24954D01*
X34969Y25060D01*
X35020Y25183D01*
X35034Y25283D01*
X35079Y25277D01*
X35147Y25286D01*
X35184Y25253D01*
Y23177D01*
X35131Y23136D01*
X35050Y23031D01*
X34999Y22908D01*
X34982Y22776D01*
X34999Y22644D01*
X35050Y22520D01*
X35131Y22415D01*
X35237Y22334D01*
X35360Y22283D01*
X35492Y22265D01*
X35624Y22283D01*
X35747Y22334D01*
X35853Y22415D01*
X35934Y22520D01*
X35985Y22644D01*
X36002Y22776D01*
X35985Y22908D01*
X35934Y23031D01*
X35853Y23136D01*
X35800Y23177D01*
Y24341D01*
X35845Y24363D01*
X35847Y24361D01*
X35970Y24310D01*
X36102Y24293D01*
X36234Y24310D01*
X36265Y24323D01*
X36306Y24295D01*
Y22764D01*
X36253Y22723D01*
X36172Y22617D01*
X36121Y22494D01*
X36104Y22362D01*
X36121Y22230D01*
X36172Y22107D01*
X36253Y22001D01*
X36359Y21920D01*
X36482Y21869D01*
X36614Y21852D01*
X36714Y21865D01*
X36745Y21825D01*
X36712Y21746D01*
X36701Y21664D01*
X37155D01*
Y22118D01*
X37105Y22111D01*
X37074Y22151D01*
X37107Y22230D01*
X37124Y22362D01*
X37107Y22494D01*
X37056Y22617D01*
X36975Y22723D01*
X36922Y22764D01*
Y25671D01*
X37014Y25742D01*
X37095Y25847D01*
X37146Y25970D01*
X37163Y26099D01*
X37170Y26103D01*
X37236Y26112D01*
X37309Y26082D01*
X37441Y26065D01*
X37573Y26082D01*
X37696Y26133D01*
X37802Y26214D01*
X37824Y26243D01*
X37874Y26237D01*
X37905Y26162D01*
X37986Y26057D01*
X38091Y25975D01*
X38214Y25924D01*
X38346Y25907D01*
X38479Y25924D01*
X38602Y25975D01*
X38707Y26057D01*
X38788Y26162D01*
X38839Y26285D01*
X38857Y26417D01*
X38839Y26549D01*
X38788Y26672D01*
X38707Y26778D01*
X38654Y26819D01*
Y27559D01*
X38644Y27639D01*
X38635Y27660D01*
X38613Y27713D01*
X38564Y27777D01*
X38328Y28013D01*
X38264Y28062D01*
X38221Y28080D01*
X38190Y28093D01*
X38110Y28103D01*
X37016D01*
X36975Y28156D01*
X36869Y28237D01*
X36746Y28288D01*
X36614Y28306D01*
X36482Y28288D01*
X36359Y28237D01*
X36253Y28156D01*
X36172Y28050D01*
X36121Y27927D01*
X36112Y27854D01*
X36064Y27838D01*
X36026Y27876D01*
X35956Y27930D01*
X35875Y27964D01*
X35787Y27975D01*
X35787Y27975D01*
X33519D01*
X33491Y28017D01*
X33524Y28096D01*
X33535Y28178D01*
X32528D01*
X32538Y28096D01*
X32571Y28017D01*
X32544Y27975D01*
X29156D01*
X29117Y28014D01*
Y28539D01*
X29211Y28567D01*
X29317Y28624D01*
X29410Y28700D01*
X29486Y28793D01*
X29543Y28899D01*
X29578Y29014D01*
X29590Y29134D01*
X29578Y29253D01*
X29543Y29369D01*
X29486Y29475D01*
X29410Y29567D01*
X29317Y29644D01*
X29211Y29700D01*
X29096Y29735D01*
X28976Y29747D01*
X28857Y29735D01*
X28742Y29700D01*
X28697Y29677D01*
X28653Y29699D01*
X28642Y29778D01*
X28626Y29818D01*
X28654Y29859D01*
X31378D01*
X31378Y29859D01*
X31465Y29871D01*
X31535Y29900D01*
X31582Y29881D01*
X31605Y29824D01*
X31686Y29718D01*
X31792Y29637D01*
X31915Y29586D01*
X32047Y29568D01*
X32179Y29586D01*
X32302Y29637D01*
X32408Y29718D01*
X32489Y29824D01*
X32540Y29947D01*
X32558Y30079D01*
X32554Y30108D01*
X32817Y30371D01*
X38661D01*
X38661Y30371D01*
X38661Y30371D01*
X41868D01*
X41985Y30254D01*
Y29803D01*
X41733D01*
Y28701D01*
X41929D01*
Y27756D01*
X42873D01*
X42873Y27756D01*
Y27756D01*
D01*
X42875D01*
X42909Y27756D01*
Y27756D01*
X42909D01*
X42909D01*
Y27756D01*
D01*
D01*
D01*
X43297D01*
Y28307D01*
X43347D01*
Y28357D01*
X43820D01*
Y28830D01*
X43857Y28859D01*
X43945Y28974D01*
X44001Y29108D01*
X44013Y29202D01*
X42915D01*
X42927Y29108D01*
X42983Y28974D01*
X43037Y28903D01*
X43015Y28858D01*
X42909D01*
X42909Y28858D01*
D01*
D01*
X42909Y28858D01*
X42875Y28858D01*
X42874D01*
X42873D01*
X42857D01*
X42835Y28880D01*
Y29803D01*
X42660D01*
Y30181D01*
X42705Y30203D01*
X42776Y30149D01*
X42899Y30098D01*
X43032Y30080D01*
X43164Y30098D01*
X43287Y30149D01*
X43392Y30230D01*
X43473Y30335D01*
X43524Y30458D01*
X43542Y30591D01*
X43524Y30723D01*
X43473Y30846D01*
X43392Y30951D01*
X43369Y30969D01*
Y31299D01*
X43369Y31299D01*
X43358Y31387D01*
X43324Y31468D01*
X43270Y31538D01*
X43034Y31774D01*
X42964Y31828D01*
X42883Y31861D01*
X42795Y31873D01*
X42795Y31873D01*
X40393D01*
X40365Y31915D01*
X40414Y32033D01*
X40432Y32165D01*
X40414Y32297D01*
X40363Y32420D01*
X40282Y32526D01*
X40176Y32607D01*
X40053Y32658D01*
X39921Y32676D01*
X39789Y32658D01*
X39666Y32607D01*
X39560Y32526D01*
X39543Y32503D01*
X38583D01*
X38583Y32503D01*
X38495Y32491D01*
X38414Y32458D01*
X38344Y32404D01*
X38344Y32404D01*
X38108Y32168D01*
X38054Y32098D01*
X38020Y32016D01*
X38009Y31929D01*
X38009Y31929D01*
Y31046D01*
X35466D01*
X35440Y31089D01*
X35448Y31104D01*
X35483Y31219D01*
X35495Y31339D01*
X35483Y31458D01*
X35482Y31462D01*
X35554Y31533D01*
X35607Y31603D01*
X35641Y31684D01*
X35652Y31772D01*
X35652Y31772D01*
Y36511D01*
X35676Y36529D01*
X35757Y36635D01*
X35808Y36758D01*
X35825Y36890D01*
X35808Y37022D01*
X35757Y37145D01*
X35676Y37251D01*
X35570Y37332D01*
X35447Y37383D01*
X35315Y37400D01*
D02*
G37*
G36*
X25157Y34944D02*
X25038Y34932D01*
X24923Y34897D01*
X24817Y34841D01*
X24724Y34764D01*
X24648Y34671D01*
X24591Y34565D01*
X24556Y34450D01*
X24544Y34331D01*
X24556Y34211D01*
X24591Y34096D01*
X24648Y33990D01*
X24724Y33897D01*
X24817Y33821D01*
X24859Y33798D01*
Y32423D01*
X24596Y32160D01*
X24567Y32164D01*
X24435Y32146D01*
X24312Y32095D01*
X24206Y32014D01*
X24125Y31909D01*
X24074Y31786D01*
X24057Y31654D01*
X24074Y31521D01*
X24125Y31398D01*
X24206Y31293D01*
X24312Y31212D01*
X24435Y31161D01*
X24567Y31143D01*
X24699Y31161D01*
X24822Y31212D01*
X24928Y31293D01*
X25009Y31398D01*
X25060Y31521D01*
X25077Y31654D01*
X25073Y31683D01*
X25436Y32045D01*
X25436Y32045D01*
X25466Y32084D01*
X25489Y32115D01*
X25523Y32196D01*
X25534Y32283D01*
Y33851D01*
X25591Y33897D01*
X25667Y33990D01*
X25724Y34096D01*
X25759Y34211D01*
X25771Y34331D01*
X25759Y34450D01*
X25724Y34565D01*
X25667Y34671D01*
X25591Y34764D01*
X25498Y34841D01*
X25392Y34897D01*
X25277Y34932D01*
X25157Y34944D01*
D02*
G37*
G36*
X5551Y34250D02*
X5419Y34233D01*
X5296Y34182D01*
X5190Y34101D01*
X5109Y33995D01*
X5058Y33872D01*
X5041Y33740D01*
X5058Y33608D01*
X5109Y33485D01*
X5190Y33379D01*
X5296Y33298D01*
X5419Y33247D01*
X5551Y33230D01*
X5683Y33247D01*
X5806Y33298D01*
X5840Y33324D01*
X5923D01*
X6001Y33246D01*
Y30971D01*
X5965Y30937D01*
X5965Y30937D01*
X5921Y30940D01*
X5912Y30951D01*
X5806Y31032D01*
X5683Y31083D01*
X5551Y31101D01*
X5419Y31083D01*
X5296Y31032D01*
X5190Y30951D01*
X5109Y30846D01*
X5058Y30723D01*
X5041Y30591D01*
X5058Y30458D01*
X5109Y30335D01*
X5190Y30230D01*
X5296Y30149D01*
X5419Y30098D01*
X5551Y30080D01*
X5683Y30098D01*
X5806Y30149D01*
X5912Y30230D01*
X5930Y30253D01*
X6102D01*
X6102Y30253D01*
X6102Y30253D01*
X6826D01*
X6844Y30230D01*
X6950Y30149D01*
X7073Y30098D01*
X7205Y30080D01*
X7337Y30098D01*
X7460Y30149D01*
X7566Y30230D01*
X7647Y30335D01*
X7698Y30458D01*
X7715Y30591D01*
X7698Y30723D01*
X7647Y30846D01*
X7566Y30951D01*
X7460Y31032D01*
X7337Y31083D01*
X7205Y31101D01*
X7073Y31083D01*
X6950Y31032D01*
X6844Y30951D01*
X6826Y30928D01*
X6676D01*
Y33386D01*
X6676Y33386D01*
X6665Y33473D01*
X6631Y33555D01*
X6577Y33624D01*
X6577Y33624D01*
X6302Y33900D01*
X6232Y33954D01*
X6150Y33987D01*
X6063Y33999D01*
X6063Y33999D01*
X5990D01*
X5912Y34101D01*
X5806Y34182D01*
X5683Y34233D01*
X5551Y34250D01*
D02*
G37*
G36*
X26822Y31016D02*
Y30562D01*
X27275D01*
X27265Y30644D01*
X27214Y30767D01*
X27132Y30873D01*
X27027Y30954D01*
X26904Y31005D01*
X26822Y31016D01*
D02*
G37*
G36*
X9134Y31794D02*
X9014Y31783D01*
X8899Y31748D01*
X8793Y31691D01*
X8700Y31615D01*
X8624Y31522D01*
X8567Y31416D01*
X8532Y31301D01*
X8521Y31181D01*
X8532Y31061D01*
X8567Y30946D01*
X8624Y30840D01*
X8700Y30748D01*
X8793Y30671D01*
X8899Y30615D01*
X9014Y30580D01*
X9134Y30568D01*
X9253Y30580D01*
X9369Y30615D01*
X9475Y30671D01*
X9567Y30748D01*
X9644Y30840D01*
X9700Y30946D01*
X9735Y31061D01*
X9747Y31181D01*
X9735Y31301D01*
X9700Y31416D01*
X9644Y31522D01*
X9567Y31615D01*
X9475Y31691D01*
X9369Y31748D01*
X9253Y31783D01*
X9134Y31794D01*
D02*
G37*
G36*
X4911Y40136D02*
X4833Y40128D01*
X4711Y40091D01*
X4598Y40031D01*
X4499Y39950D01*
X4418Y39851D01*
X4358Y39738D01*
X4320Y39616D01*
X4313Y39538D01*
X4911D01*
Y40136D01*
D02*
G37*
G36*
X47717Y43801D02*
X43504D01*
X43437Y43793D01*
X43375Y43767D01*
X43321Y43726D01*
X43280Y43672D01*
X43255Y43610D01*
X43246Y43543D01*
Y40039D01*
X43255Y39973D01*
X43280Y39910D01*
X43321Y39857D01*
X43375Y39816D01*
X43437Y39790D01*
X43504Y39781D01*
X47717D01*
X47783Y39790D01*
X47846Y39816D01*
X47899Y39857D01*
X47940Y39910D01*
X47966Y39973D01*
X47975Y40039D01*
Y43543D01*
X47966Y43610D01*
X47940Y43672D01*
X47899Y43726D01*
X47846Y43767D01*
X47783Y43793D01*
X47717Y43801D01*
D02*
G37*
G36*
X6654Y39910D02*
X6152D01*
Y39488D01*
X6654D01*
Y39910D01*
D02*
G37*
G36*
X5608Y39438D02*
X5011D01*
Y38840D01*
X5088Y38848D01*
X5210Y38885D01*
X5323Y38945D01*
X5422Y39027D01*
X5503Y39126D01*
X5564Y39238D01*
X5601Y39361D01*
X5608Y39438D01*
D02*
G37*
G36*
X5011Y40136D02*
Y39538D01*
X5608D01*
X5613Y39488D01*
X5613Y39488D01*
X6052D01*
Y39910D01*
X5551D01*
Y39863D01*
X5503Y39851D01*
X5422Y39950D01*
X5323Y40031D01*
X5210Y40091D01*
X5088Y40128D01*
X5011Y40136D01*
D02*
G37*
G36*
X5610Y42106D02*
X4311D01*
Y40807D01*
X5551D01*
Y40468D01*
X5551Y40468D01*
X5551D01*
X5551Y40434D01*
Y40432D01*
X5551Y40432D01*
X5551Y40432D01*
Y40010D01*
X6654D01*
Y40398D01*
X6654Y40398D01*
D01*
D01*
X6654Y40432D01*
Y40432D01*
Y40433D01*
X6654Y40434D01*
X6654Y40468D01*
X6654D01*
D01*
Y40468D01*
X6654D01*
D01*
Y41379D01*
X6146D01*
X5829Y41695D01*
X5759Y41749D01*
X5678Y41783D01*
X5610Y41792D01*
Y42106D01*
D02*
G37*
G36*
X24961Y43031D02*
X23465D01*
Y41535D01*
X24961D01*
Y43031D01*
D02*
G37*
G36*
X29488D02*
X27992D01*
Y41535D01*
X29488D01*
Y43031D01*
D02*
G37*
G36*
X30709Y43035D02*
X30562Y43021D01*
X30421Y42978D01*
X30291Y42908D01*
X30177Y42815D01*
X30084Y42701D01*
X30014Y42571D01*
X29971Y42430D01*
X29957Y42283D01*
X29971Y42137D01*
X30014Y41996D01*
X30084Y41866D01*
X30177Y41752D01*
X30291Y41658D01*
X30421Y41589D01*
X30562Y41546D01*
X30709Y41532D01*
X30855Y41546D01*
X30996Y41589D01*
X31126Y41658D01*
X31240Y41752D01*
X31334Y41866D01*
X31403Y41996D01*
X31446Y42137D01*
X31460Y42283D01*
X31446Y42430D01*
X31403Y42571D01*
X31334Y42701D01*
X31240Y42815D01*
X31126Y42908D01*
X30996Y42978D01*
X30855Y43021D01*
X30709Y43035D01*
D02*
G37*
G36*
X50571Y40492D02*
X49272D01*
Y40180D01*
X49055D01*
X49055Y40180D01*
X48968Y40169D01*
X48886Y40135D01*
X48816Y40081D01*
X48659Y39924D01*
X48605Y39854D01*
X48572Y39772D01*
X48565Y39725D01*
X48346D01*
Y38814D01*
X48346Y38814D01*
X48346D01*
X48346Y38780D01*
Y38779D01*
X48346Y38779D01*
X48346Y38779D01*
Y38356D01*
X48898D01*
Y38307D01*
X48948D01*
Y37834D01*
X49272D01*
X49268Y37874D01*
X49273Y37924D01*
X49871D01*
Y38522D01*
X49794Y38514D01*
X49671Y38477D01*
X49559Y38417D01*
X49494Y38364D01*
X49449Y38385D01*
Y38745D01*
X49449Y38745D01*
D01*
D01*
X49449Y38779D01*
Y38779D01*
Y38780D01*
X49449Y38780D01*
X49449Y38814D01*
X49449D01*
D01*
Y38814D01*
X49449D01*
D01*
Y39193D01*
X50571D01*
Y40492D01*
D02*
G37*
G36*
X26181Y43035D02*
X26034Y43021D01*
X25893Y42978D01*
X25764Y42908D01*
X25650Y42815D01*
X25556Y42701D01*
X25487Y42571D01*
X25444Y42430D01*
X25429Y42283D01*
X25444Y42137D01*
X25487Y41996D01*
X25556Y41866D01*
X25650Y41752D01*
X25764Y41658D01*
X25893Y41589D01*
X26034Y41546D01*
X26181Y41532D01*
X26328Y41546D01*
X26469Y41589D01*
X26599Y41658D01*
X26713Y41752D01*
X26806Y41866D01*
X26876Y41996D01*
X26918Y42137D01*
X26933Y42283D01*
X26918Y42430D01*
X26876Y42571D01*
X26806Y42701D01*
X26713Y42815D01*
X26599Y42908D01*
X26469Y42978D01*
X26328Y43021D01*
X26181Y43035D01*
D02*
G37*
G36*
X4911Y39438D02*
X4313D01*
X4320Y39361D01*
X4358Y39238D01*
X4418Y39126D01*
X4499Y39027D01*
X4598Y38945D01*
X4711Y38885D01*
X4833Y38848D01*
X4911Y38840D01*
Y39438D01*
D02*
G37*
G36*
X50569Y37824D02*
X49971D01*
Y37226D01*
X50049Y37234D01*
X50171Y37271D01*
X50284Y37331D01*
X50383Y37412D01*
X50464Y37511D01*
X50524Y37624D01*
X50561Y37747D01*
X50569Y37824D01*
D02*
G37*
G36*
X39094Y41242D02*
X31929D01*
X31862Y41234D01*
X31800Y41208D01*
X31747Y41167D01*
X31706Y41113D01*
X31680Y41051D01*
X31671Y40984D01*
Y37795D01*
X31680Y37728D01*
X31706Y37666D01*
X31747Y37613D01*
X31800Y37572D01*
X31862Y37546D01*
X31929Y37537D01*
X39094D01*
X39161Y37546D01*
X39224Y37572D01*
X39277Y37613D01*
X39318Y37666D01*
X39344Y37728D01*
X39353Y37795D01*
Y40984D01*
X39344Y41051D01*
X39318Y41113D01*
X39277Y41167D01*
X39224Y41208D01*
X39161Y41234D01*
X39094Y41242D01*
D02*
G37*
G36*
X49871Y37824D02*
X49273D01*
X49281Y37747D01*
X49318Y37624D01*
X49379Y37511D01*
X49460Y37412D01*
X49559Y37331D01*
X49671Y37271D01*
X49794Y37234D01*
X49871Y37226D01*
Y37824D01*
D02*
G37*
G36*
X42047Y37542D02*
X41928Y37531D01*
X41813Y37496D01*
X41707Y37439D01*
X41614Y37363D01*
X41537Y37270D01*
X41481Y37164D01*
X41446Y37049D01*
X41434Y36929D01*
X41446Y36810D01*
X41481Y36694D01*
X41537Y36588D01*
X41614Y36496D01*
X41707Y36419D01*
X41813Y36363D01*
X41928Y36328D01*
X42047Y36316D01*
X42167Y36328D01*
X42282Y36363D01*
X42388Y36419D01*
X42481Y36496D01*
X42557Y36588D01*
X42614Y36694D01*
X42649Y36810D01*
X42660Y36929D01*
X42649Y37049D01*
X42614Y37164D01*
X42557Y37270D01*
X42481Y37363D01*
X42388Y37439D01*
X42282Y37496D01*
X42167Y37531D01*
X42047Y37542D01*
D02*
G37*
G36*
X11811Y43841D02*
X7598D01*
X7532Y43832D01*
X7469Y43806D01*
X7416Y43765D01*
X7375Y43712D01*
X7349Y43649D01*
X7340Y43583D01*
Y40079D01*
X7349Y40012D01*
X7375Y39950D01*
X7416Y39896D01*
X7469Y39855D01*
X7532Y39829D01*
X7598Y39821D01*
X10821D01*
X10843Y39776D01*
X10818Y39743D01*
X10767Y39620D01*
X10750Y39488D01*
X10767Y39356D01*
X10818Y39233D01*
X10899Y39127D01*
X10922Y39110D01*
Y37229D01*
X10899Y37211D01*
X10818Y37106D01*
X10767Y36982D01*
X10750Y36850D01*
X10767Y36718D01*
X10818Y36595D01*
X10899Y36490D01*
X11005Y36408D01*
X11128Y36358D01*
X11260Y36340D01*
X11392Y36358D01*
X11515Y36408D01*
X11621Y36490D01*
X11702Y36595D01*
X11753Y36718D01*
X11770Y36850D01*
X11753Y36982D01*
X11702Y37106D01*
X11621Y37211D01*
X11597Y37229D01*
Y39110D01*
X11621Y39127D01*
X11702Y39233D01*
X11753Y39356D01*
X11770Y39488D01*
X11753Y39620D01*
X11702Y39743D01*
X11677Y39776D01*
X11699Y39821D01*
X11811D01*
X11878Y39829D01*
X11940Y39855D01*
X11994Y39896D01*
X12035Y39950D01*
X12060Y40012D01*
X12069Y40079D01*
Y43583D01*
X12060Y43649D01*
X12035Y43712D01*
X11994Y43765D01*
X11940Y43806D01*
X11878Y43832D01*
X11811Y43841D01*
D02*
G37*
G36*
X48848Y38256D02*
X48346D01*
Y37834D01*
X48848D01*
Y38256D01*
D02*
G37*
G36*
X29163Y39047D02*
X29081Y39036D01*
X28957Y38985D01*
X28852Y38904D01*
X28771Y38798D01*
X28720Y38675D01*
X28709Y38593D01*
X29163D01*
Y39047D01*
D02*
G37*
G36*
X29263D02*
Y38593D01*
X29716D01*
X29705Y38675D01*
X29655Y38798D01*
X29573Y38904D01*
X29468Y38985D01*
X29345Y39036D01*
X29263Y39047D01*
D02*
G37*
G36*
X29716Y38493D02*
X29263D01*
Y38040D01*
X29345Y38050D01*
X29468Y38101D01*
X29573Y38182D01*
X29655Y38288D01*
X29705Y38411D01*
X29716Y38493D01*
D02*
G37*
G36*
X49971Y38522D02*
Y37924D01*
X50569D01*
X50561Y38001D01*
X50524Y38124D01*
X50464Y38237D01*
X50383Y38336D01*
X50284Y38417D01*
X50171Y38477D01*
X50049Y38514D01*
X49971Y38522D01*
D02*
G37*
G36*
X29163Y38493D02*
X28709D01*
X28720Y38411D01*
X28771Y38288D01*
X28852Y38182D01*
X28957Y38101D01*
X29081Y38050D01*
X29163Y38040D01*
Y38493D01*
D02*
G37*
G36*
X4478Y23769D02*
X3880D01*
X3887Y23692D01*
X3925Y23569D01*
X3985Y23456D01*
X4066Y23357D01*
X4165Y23276D01*
X4278Y23216D01*
X4400Y23179D01*
X4478Y23171D01*
Y23769D01*
D02*
G37*
G36*
X5175D02*
X4578D01*
Y23171D01*
X4655Y23179D01*
X4777Y23216D01*
X4890Y23276D01*
X4989Y23357D01*
X5070Y23456D01*
X5131Y23569D01*
X5168Y23692D01*
X5175Y23769D01*
D02*
G37*
G36*
X46850Y23375D02*
X46349D01*
Y22952D01*
X46850D01*
Y23375D01*
D02*
G37*
G36*
X31918Y22512D02*
X31836Y22501D01*
X31713Y22450D01*
X31608Y22369D01*
X31527Y22263D01*
X31476Y22140D01*
X31465Y22058D01*
X31918D01*
Y22512D01*
D02*
G37*
G36*
X48228Y22715D02*
X48096Y22698D01*
X47973Y22647D01*
X47868Y22566D01*
X47850Y22542D01*
X46875D01*
X46857Y22566D01*
X46751Y22647D01*
X46628Y22698D01*
X46496Y22715D01*
X46364Y22698D01*
X46241Y22647D01*
X46135Y22566D01*
X46054Y22460D01*
X46003Y22337D01*
X45986Y22205D01*
X46003Y22073D01*
X46054Y21950D01*
X46135Y21844D01*
X46241Y21763D01*
X46364Y21712D01*
X46496Y21694D01*
X46628Y21712D01*
X46751Y21763D01*
X46857Y21844D01*
X46875Y21867D01*
X47850D01*
X47868Y21844D01*
X47973Y21763D01*
X48096Y21712D01*
X48228Y21694D01*
X48360Y21712D01*
X48483Y21763D01*
X48589Y21844D01*
X48670Y21950D01*
X48721Y22073D01*
X48739Y22205D01*
X48721Y22337D01*
X48670Y22460D01*
X48589Y22566D01*
X48483Y22647D01*
X48360Y22698D01*
X48228Y22715D01*
D02*
G37*
G36*
X49949Y24359D02*
X49527D01*
Y23858D01*
X49949D01*
Y24359D01*
D02*
G37*
G36*
X8063Y24793D02*
X7609D01*
Y24339D01*
X7691Y24350D01*
X7814Y24401D01*
X7920Y24482D01*
X8001Y24587D01*
X8052Y24710D01*
X8063Y24793D01*
D02*
G37*
G36*
X10736Y24650D02*
X10592Y24631D01*
X10458Y24576D01*
X10343Y24488D01*
X10261Y24381D01*
X10211D01*
X10129Y24488D01*
X10014Y24576D01*
X9880Y24631D01*
X9736Y24650D01*
X9592Y24631D01*
X9458Y24576D01*
X9343Y24488D01*
X9255Y24372D01*
X9199Y24238D01*
X9180Y24094D01*
X9199Y23951D01*
X9255Y23817D01*
X9343Y23701D01*
X9458Y23613D01*
X9592Y23557D01*
X9736Y23539D01*
X9880Y23557D01*
X10014Y23613D01*
X10129Y23701D01*
X10211Y23808D01*
X10261D01*
X10343Y23701D01*
X10458Y23613D01*
X10592Y23557D01*
X10736Y23539D01*
X10880Y23557D01*
X11014Y23613D01*
X11129Y23701D01*
X11218Y23817D01*
X11273Y23951D01*
X11292Y24094D01*
X11273Y24238D01*
X11218Y24372D01*
X11129Y24488D01*
X11014Y24576D01*
X10880Y24631D01*
X10736Y24650D01*
D02*
G37*
G36*
X7509Y24793D02*
X7055D01*
X7066Y24710D01*
X7117Y24587D01*
X7198Y24482D01*
X7304Y24401D01*
X7427Y24350D01*
X7509Y24339D01*
Y24793D01*
D02*
G37*
G36*
X4489Y24793D02*
X4066D01*
Y24291D01*
X4016D01*
X4038Y24246D01*
X3985Y24182D01*
X3925Y24069D01*
X3887Y23946D01*
X3880Y23869D01*
X4478D01*
Y24467D01*
X4526Y24471D01*
X4489Y24505D01*
Y24793D01*
D02*
G37*
G36*
X4578Y24467D02*
Y23869D01*
X5175D01*
X5168Y23946D01*
X5131Y24069D01*
X5070Y24182D01*
X4989Y24280D01*
X4890Y24362D01*
X4777Y24422D01*
X4655Y24459D01*
X4578Y24467D01*
D02*
G37*
G36*
X39134Y21534D02*
X39002Y21517D01*
X38879Y21466D01*
X38773Y21384D01*
X38692Y21279D01*
X38641Y21156D01*
X38624Y21024D01*
X38641Y20892D01*
X38692Y20768D01*
X38773Y20663D01*
X38879Y20582D01*
X39002Y20531D01*
X39134Y20513D01*
X39266Y20531D01*
X39389Y20582D01*
X39495Y20663D01*
X39505Y20677D01*
X41082D01*
X41115Y20639D01*
X41110Y20601D01*
X42118D01*
X42113Y20639D01*
X42146Y20677D01*
X42551D01*
X42592Y20623D01*
X42698Y20542D01*
X42821Y20491D01*
X42953Y20474D01*
X43085Y20491D01*
X43208Y20542D01*
X43314Y20623D01*
X43395Y20729D01*
X43446Y20852D01*
X43463Y20984D01*
X43446Y21116D01*
X43395Y21239D01*
X43314Y21345D01*
X43208Y21426D01*
X43085Y21477D01*
X42953Y21495D01*
X42821Y21477D01*
X42698Y21426D01*
X42592Y21345D01*
X42551Y21292D01*
X39566D01*
X39495Y21384D01*
X39389Y21466D01*
X39266Y21517D01*
X39134Y21534D01*
D02*
G37*
G36*
X49989Y21732D02*
X49566D01*
Y21231D01*
X49989D01*
Y21732D01*
D02*
G37*
G36*
X29341Y20779D02*
Y20326D01*
X29795D01*
X29784Y20408D01*
X29733Y20531D01*
X29652Y20636D01*
X29546Y20717D01*
X29423Y20768D01*
X29341Y20779D01*
D02*
G37*
G36*
X42118Y20501D02*
X41664D01*
Y20047D01*
X41746Y20058D01*
X41869Y20109D01*
X41975Y20190D01*
X42056Y20296D01*
X42107Y20419D01*
X42118Y20501D01*
D02*
G37*
G36*
X29241Y20779D02*
X29159Y20768D01*
X29036Y20717D01*
X28931Y20636D01*
X28849Y20531D01*
X28798Y20408D01*
X28788Y20326D01*
X29241D01*
Y20779D01*
D02*
G37*
G36*
X17993Y21761D02*
X17570D01*
Y21260D01*
X17993D01*
Y21761D01*
D02*
G37*
G36*
Y22362D02*
X17570D01*
Y21861D01*
X17993D01*
Y22362D01*
D02*
G37*
G36*
X33071Y22559D02*
X33071Y22559D01*
X33070D01*
Y22559D01*
X33070D01*
X33070D01*
X32648D01*
Y22008D01*
X32548D01*
Y22559D01*
X32125D01*
Y22535D01*
X32088Y22502D01*
X32018Y22512D01*
Y22008D01*
X31969D01*
Y21958D01*
X31465D01*
X31476Y21876D01*
X31527Y21753D01*
X31608Y21647D01*
X31691Y21583D01*
X31675Y21536D01*
X31063D01*
Y20625D01*
X31063Y20625D01*
X31063D01*
X31063Y20591D01*
Y20590D01*
X31063Y20590D01*
X31063Y20590D01*
Y20167D01*
X31614D01*
Y20118D01*
X31664D01*
Y19645D01*
X32165D01*
Y19645D01*
X32169D01*
X32204Y19610D01*
Y19459D01*
X32677D01*
Y19410D01*
X32727D01*
Y18858D01*
X33149D01*
Y18858D01*
X33149D01*
X33149Y18858D01*
X33150D01*
Y18858D01*
X34095D01*
Y18877D01*
X34133Y18910D01*
X34213Y18899D01*
X34345Y18917D01*
X34468Y18968D01*
X34573Y19049D01*
X34655Y19154D01*
X34705Y19277D01*
X34723Y19409D01*
X34705Y19542D01*
X34680Y19603D01*
X34708Y19645D01*
X35197D01*
Y20067D01*
X34646D01*
Y20167D01*
X35197D01*
Y20590D01*
D01*
Y20590D01*
X35197Y20590D01*
Y20591D01*
X35197D01*
Y21536D01*
X34943D01*
Y21654D01*
X34941Y21676D01*
X34942Y21679D01*
X34959Y21811D01*
X34942Y21943D01*
X34891Y22066D01*
X34810Y22172D01*
X34704Y22253D01*
X34581Y22304D01*
X34449Y22321D01*
X34317Y22304D01*
X34314Y22303D01*
X34291Y22306D01*
X34016D01*
Y22559D01*
X33071D01*
Y22559D01*
D02*
G37*
G36*
X37255Y22118D02*
Y21664D01*
X37708D01*
X37698Y21746D01*
X37647Y21869D01*
X37566Y21975D01*
X37460Y22056D01*
X37337Y22107D01*
X37255Y22118D01*
D02*
G37*
G36*
X19438Y21724D02*
X19356Y21713D01*
X19233Y21662D01*
X19127Y21581D01*
X19046Y21476D01*
X18995Y21353D01*
X18985Y21270D01*
X19438D01*
Y21724D01*
D02*
G37*
G36*
X19538D02*
Y21270D01*
X19992D01*
X19981Y21353D01*
X19930Y21476D01*
X19849Y21581D01*
X19743Y21662D01*
X19620Y21713D01*
X19538Y21724D01*
D02*
G37*
G36*
X7312Y28060D02*
X6859D01*
X6869Y27978D01*
X6920Y27855D01*
X7001Y27749D01*
X7107Y27668D01*
X7230Y27617D01*
X7312Y27607D01*
Y28060D01*
D02*
G37*
G36*
X7866D02*
X7412D01*
Y27607D01*
X7494Y27617D01*
X7617Y27668D01*
X7723Y27749D01*
X7804Y27855D01*
X7855Y27978D01*
X7866Y28060D01*
D02*
G37*
G36*
X4724Y34628D02*
X1929D01*
X1862Y34619D01*
X1800Y34594D01*
X1747Y34553D01*
X1706Y34499D01*
X1680Y34437D01*
X1671Y34370D01*
Y27559D01*
X1680Y27492D01*
X1706Y27430D01*
X1747Y27377D01*
X1800Y27336D01*
X1862Y27310D01*
X1929Y27301D01*
X4724D01*
X4791Y27310D01*
X4853Y27336D01*
X4907Y27377D01*
X4948Y27430D01*
X4974Y27492D01*
X4983Y27559D01*
Y34370D01*
X4974Y34437D01*
X4948Y34499D01*
X4907Y34553D01*
X4853Y34594D01*
X4791Y34619D01*
X4724Y34628D01*
D02*
G37*
G36*
X12236Y27667D02*
X11782D01*
Y27213D01*
X11864Y27224D01*
X11987Y27275D01*
X12093Y27356D01*
X12174Y27461D01*
X12225Y27584D01*
X12236Y27667D01*
D02*
G37*
G36*
X37992Y29959D02*
X37860Y29942D01*
X37737Y29891D01*
X37631Y29810D01*
X37550Y29704D01*
X37499Y29581D01*
X37482Y29449D01*
X37499Y29317D01*
X37550Y29194D01*
X37631Y29088D01*
X37737Y29007D01*
X37860Y28956D01*
X37992Y28939D01*
X38124Y28956D01*
X38247Y29007D01*
X38353Y29088D01*
X38401Y29151D01*
X40333D01*
X40568Y28915D01*
Y28174D01*
X40545Y28156D01*
X40464Y28050D01*
X40413Y27927D01*
X40395Y27795D01*
X40413Y27663D01*
X40464Y27540D01*
X40545Y27434D01*
X40650Y27353D01*
X40773Y27302D01*
X40906Y27285D01*
X41038Y27302D01*
X41161Y27353D01*
X41266Y27434D01*
X41347Y27540D01*
X41398Y27663D01*
X41416Y27795D01*
X41398Y27927D01*
X41347Y28050D01*
X41266Y28156D01*
X41243Y28174D01*
Y29055D01*
X41243Y29055D01*
X41232Y29142D01*
X41198Y29224D01*
X41198Y29224D01*
D01*
D01*
D01*
D01*
X41198Y29224D01*
D01*
D01*
Y29224D01*
D01*
X41198D01*
D01*
X41198D01*
D01*
D01*
X41144Y29294D01*
X41144Y29294D01*
X40711Y29727D01*
X40641Y29780D01*
X40560Y29814D01*
X40472Y29826D01*
X40472Y29826D01*
X38332D01*
X38247Y29891D01*
X38124Y29942D01*
X37992Y29959D01*
D02*
G37*
G36*
X43820Y28257D02*
X43397D01*
Y27756D01*
X43820D01*
Y28257D01*
D02*
G37*
G36*
X7412Y28614D02*
Y28160D01*
X7866D01*
X7855Y28242D01*
X7804Y28365D01*
X7723Y28471D01*
X7617Y28552D01*
X7494Y28603D01*
X7412Y28614D01*
D02*
G37*
G36*
X32981Y28732D02*
X32899Y28721D01*
X32776Y28670D01*
X32671Y28589D01*
X32589Y28483D01*
X32538Y28360D01*
X32528Y28278D01*
X32981D01*
Y28732D01*
D02*
G37*
G36*
X7312Y28614D02*
X7230Y28603D01*
X7107Y28552D01*
X7001Y28471D01*
X6920Y28365D01*
X6869Y28242D01*
X6859Y28160D01*
X7312D01*
Y28614D01*
D02*
G37*
G36*
X11682Y28220D02*
X11600Y28209D01*
X11477Y28158D01*
X11371Y28077D01*
X11290Y27972D01*
X11239Y27849D01*
X11229Y27767D01*
X11682D01*
Y28220D01*
D02*
G37*
G36*
X11782D02*
Y27767D01*
X12236D01*
X12225Y27849D01*
X12174Y27972D01*
X12093Y28077D01*
X11987Y28158D01*
X11864Y28209D01*
X11782Y28220D01*
D02*
G37*
G36*
X7509Y25346D02*
X7427Y25335D01*
X7304Y25284D01*
X7198Y25203D01*
X7117Y25098D01*
X7066Y24975D01*
X7055Y24893D01*
X7509D01*
Y25346D01*
D02*
G37*
G36*
X7609D02*
Y24893D01*
X8063D01*
X8052Y24975D01*
X8001Y25098D01*
X7920Y25203D01*
X7814Y25284D01*
X7691Y25335D01*
X7609Y25346D01*
D02*
G37*
G36*
X45945Y26004D02*
X44843D01*
Y25788D01*
X43898D01*
Y25653D01*
X41654D01*
X41567Y25642D01*
X41485Y25608D01*
X41415Y25554D01*
X41415Y25554D01*
X41218Y25357D01*
X41164Y25287D01*
X41131Y25205D01*
X41119Y25118D01*
X41119Y25118D01*
Y24385D01*
X41057Y24337D01*
X40975Y24232D01*
X40924Y24108D01*
X40907Y23976D01*
X40924Y23844D01*
X40975Y23721D01*
X41057Y23616D01*
X41162Y23534D01*
X41285Y23483D01*
X41417Y23466D01*
X41549Y23483D01*
X41672Y23534D01*
X41778Y23616D01*
X41859Y23721D01*
X41910Y23844D01*
X41928Y23976D01*
X41910Y24108D01*
X41859Y24232D01*
X41794Y24316D01*
Y24978D01*
X43898D01*
Y24843D01*
D01*
X43898Y24843D01*
X43898Y24842D01*
X43898D01*
Y24419D01*
X44449D01*
Y24370D01*
X44499D01*
Y23897D01*
X44959D01*
X44981Y23852D01*
X44912Y23762D01*
X44857Y23628D01*
X44844Y23534D01*
X45394D01*
Y23434D01*
X44844D01*
X44857Y23340D01*
X44912Y23206D01*
X45001Y23091D01*
X45097Y23017D01*
Y22967D01*
X45001Y22893D01*
X44912Y22778D01*
X44857Y22644D01*
X44838Y22500D01*
X44857Y22356D01*
X44912Y22222D01*
X45001Y22107D01*
X45097Y22033D01*
Y21983D01*
X45001Y21909D01*
X44912Y21794D01*
X44857Y21660D01*
X44838Y21516D01*
X44857Y21372D01*
X44912Y21238D01*
X45001Y21123D01*
X45097Y21049D01*
Y20999D01*
X45001Y20925D01*
X44912Y20809D01*
X44857Y20675D01*
X44838Y20531D01*
X44857Y20388D01*
X44912Y20254D01*
X45001Y20138D01*
X45116Y20050D01*
X45250Y19995D01*
X45394Y19976D01*
X45538Y19995D01*
X45672Y20050D01*
X45787Y20138D01*
X45875Y20254D01*
X45931Y20388D01*
X45950Y20531D01*
X45931Y20675D01*
X45875Y20809D01*
X45787Y20925D01*
X45672Y21013D01*
Y21034D01*
X45787Y21123D01*
X45875Y21238D01*
X45931Y21372D01*
X45950Y21516D01*
X45931Y21660D01*
X45875Y21794D01*
X45787Y21909D01*
X45672Y21997D01*
Y22019D01*
X45787Y22107D01*
X45875Y22222D01*
X45931Y22356D01*
X45950Y22500D01*
X45931Y22644D01*
X45875Y22778D01*
X45787Y22893D01*
X45752Y22920D01*
X45748Y22952D01*
D01*
X45758D01*
X45783Y22952D01*
D01*
X46249D01*
Y23425D01*
X46299D01*
Y23475D01*
X46850D01*
Y23897D01*
D01*
Y23897D01*
X46850Y23897D01*
Y23898D01*
X46850D01*
Y24843D01*
X46221D01*
X46201Y24846D01*
X45824D01*
X45795Y24886D01*
X45800Y24902D01*
X45945D01*
Y26004D01*
D02*
G37*
G36*
X50002Y24998D02*
X49998Y24970D01*
X49499D01*
Y24470D01*
X49489Y24469D01*
X49527Y24436D01*
Y24459D01*
X49949D01*
Y24961D01*
X50035D01*
X50002Y24998D01*
D02*
G37*
G36*
X49399Y24970D02*
X48899D01*
X48912Y24876D01*
X48967Y24742D01*
X49056Y24627D01*
X49171Y24538D01*
X49305Y24483D01*
X49399Y24470D01*
Y24970D01*
D02*
G37*
G36*
X4489Y25394D02*
X4066D01*
Y24893D01*
X4489D01*
Y25394D01*
D02*
G37*
G36*
X3578Y25394D02*
D01*
D01*
X3578Y25394D01*
X3544Y25394D01*
X3543D01*
X3543D01*
X3509Y25394D01*
X3509Y25394D01*
Y25394D01*
X2598D01*
Y24847D01*
X2320Y24569D01*
X2267Y24499D01*
X2254Y24469D01*
X1909D01*
Y23169D01*
X3209D01*
Y24291D01*
X3543D01*
X3543Y24291D01*
Y24291D01*
D01*
X3544D01*
X3578Y24291D01*
Y24291D01*
X3578D01*
X3578D01*
Y24291D01*
D01*
D01*
D01*
X3966D01*
Y24842D01*
Y25394D01*
X3578D01*
X3578Y25394D01*
D02*
G37*
G36*
X6220Y27700D02*
X6101Y27688D01*
X5986Y27653D01*
X5880Y27596D01*
X5787Y27520D01*
X5711Y27427D01*
X5654Y27321D01*
X5619Y27206D01*
X5607Y27087D01*
X5619Y26967D01*
X5654Y26852D01*
X5711Y26746D01*
X5787Y26653D01*
X5880Y26577D01*
X5986Y26520D01*
X6101Y26485D01*
X6220Y26473D01*
X6340Y26485D01*
X6455Y26520D01*
X6561Y26577D01*
X6654Y26653D01*
X6730Y26746D01*
X6787Y26852D01*
X6822Y26967D01*
X6834Y27087D01*
X6822Y27206D01*
X6787Y27321D01*
X6730Y27427D01*
X6654Y27520D01*
X6561Y27596D01*
X6455Y27653D01*
X6340Y27688D01*
X6220Y27700D01*
D02*
G37*
G36*
X11682Y27667D02*
X11229D01*
X11239Y27584D01*
X11290Y27461D01*
X11371Y27356D01*
X11477Y27275D01*
X11600Y27224D01*
X11682Y27213D01*
Y27667D01*
D02*
G37*
G36*
X50507Y24961D02*
D01*
D01*
X50507Y24961D01*
X50473Y24961D01*
X50472D01*
X50472D01*
X50438Y24961D01*
X50438Y24961D01*
Y24961D01*
X50049D01*
Y24409D01*
Y23858D01*
X50472D01*
X50472Y23858D01*
Y23858D01*
D01*
X50473D01*
X50507Y23858D01*
Y23858D01*
X50507D01*
X50507D01*
Y23858D01*
D01*
D01*
D01*
X50922D01*
Y23525D01*
X50880Y23502D01*
X50787Y23426D01*
X50711Y23333D01*
X50654Y23227D01*
X50619Y23112D01*
X50607Y22992D01*
X50619Y22872D01*
X50654Y22757D01*
X50711Y22651D01*
X50787Y22559D01*
X50880Y22482D01*
X50986Y22426D01*
X51101Y22391D01*
X51220Y22379D01*
X51340Y22391D01*
X51455Y22426D01*
X51561Y22482D01*
X51654Y22559D01*
X51730Y22651D01*
X51787Y22757D01*
X51822Y22872D01*
X51834Y22992D01*
X51822Y23112D01*
X51787Y23227D01*
X51730Y23333D01*
X51654Y23426D01*
X51597Y23472D01*
Y24094D01*
X51597Y24094D01*
X51586Y24182D01*
X51552Y24263D01*
X51499Y24333D01*
X51461Y24370D01*
X51459Y24373D01*
X51459Y24373D01*
X51418Y24414D01*
Y24961D01*
X50507D01*
X50507Y24961D01*
D02*
G37*
G36*
X50000Y26555D02*
X48898D01*
Y25453D01*
X49030D01*
X49052Y25408D01*
X48967Y25298D01*
X48912Y25164D01*
X48899Y25070D01*
X49998D01*
X49986Y25164D01*
X49930Y25298D01*
X49842Y25413D01*
X49855Y25453D01*
X50000D01*
Y26555D01*
D02*
G37*
%LPD*%
G36*
X33325Y19961D02*
X33244D01*
X33211Y19998D01*
X33220Y20068D01*
X32716D01*
Y20118D01*
X32667D01*
Y20622D01*
X32584Y20611D01*
X32461Y20560D01*
X32356Y20479D01*
X32275Y20373D01*
X32224Y20250D01*
X32215Y20186D01*
X32165Y20190D01*
Y20556D01*
X32165Y20556D01*
D01*
D01*
X32165Y20590D01*
Y20590D01*
Y20591D01*
X32165Y20591D01*
X32165Y20625D01*
X32165D01*
D01*
Y20625D01*
X32165D01*
D01*
Y20683D01*
X32203Y20716D01*
X32244Y20710D01*
X32376Y20728D01*
X32444Y20756D01*
X33325D01*
Y19961D01*
D02*
G37*
%LPC*%
G36*
X32767Y20622D02*
Y20168D01*
X33220D01*
X33209Y20250D01*
X33158Y20373D01*
X33077Y20479D01*
X32972Y20560D01*
X32849Y20611D01*
X32767Y20622D01*
D02*
G37*
%LPD*%
D17*
X36890Y19803D02*
D03*
Y20749D02*
D03*
X43071Y7717D02*
D03*
Y6771D02*
D03*
X20276Y10001D02*
D03*
Y9054D02*
D03*
X30433Y33897D02*
D03*
Y34843D02*
D03*
X50630Y32362D02*
D03*
Y33308D02*
D03*
X31181Y7284D02*
D03*
Y6338D02*
D03*
X29094Y10631D02*
D03*
Y9684D02*
D03*
X34646Y21064D02*
D03*
Y20117D02*
D03*
X31614Y21064D02*
D03*
Y20117D02*
D03*
X46299Y23425D02*
D03*
Y24371D02*
D03*
X48898Y39253D02*
D03*
Y38306D02*
D03*
X6102Y40906D02*
D03*
Y39960D02*
D03*
X44449Y25316D02*
D03*
Y24369D02*
D03*
D23*
X4881Y12362D02*
D03*
X5827D02*
D03*
X8623Y12008D02*
D03*
X7677D02*
D03*
X8623Y16063D02*
D03*
X7677D02*
D03*
X12678Y15906D02*
D03*
X11732D02*
D03*
X10867Y17441D02*
D03*
X9921D02*
D03*
X3070Y24843D02*
D03*
X4016D02*
D03*
X13031Y28071D02*
D03*
X13977D02*
D03*
X42401Y28307D02*
D03*
X43347D02*
D03*
X50946Y24409D02*
D03*
X49999D02*
D03*
X12993Y9528D02*
D03*
X12047D02*
D03*
X26221Y9331D02*
D03*
X25275D02*
D03*
X32913Y10394D02*
D03*
X33859D02*
D03*
X39842Y9449D02*
D03*
X40788D02*
D03*
X20040Y16339D02*
D03*
X19094D02*
D03*
X17520Y21811D02*
D03*
X16574D02*
D03*
X33623Y19409D02*
D03*
X32677D02*
D03*
X33544Y22008D02*
D03*
X32598D02*
D03*
X50985Y21181D02*
D03*
X50039D02*
D03*
D26*
X12732Y6181D02*
D03*
X14828D02*
D03*
D39*
X15551Y28346D02*
Y28386D01*
Y26890D02*
Y28346D01*
X27638Y30197D02*
X28661D01*
X27480Y26772D02*
X27520Y26811D01*
Y30079D01*
X27638Y30197D01*
X28661D02*
X31378D01*
X33031Y29134D02*
Y29921D01*
X32913Y29252D02*
X33031Y29134D01*
X43268Y27480D02*
Y28346D01*
X7362Y28110D02*
Y28150D01*
X19882Y25276D02*
X20591D01*
X21063Y25748D01*
X26811Y30394D02*
X26850Y30433D01*
X21535Y30394D02*
X26811D01*
X21063Y29921D02*
X21535Y30394D01*
X21063Y25748D02*
Y29921D01*
X19331Y21811D02*
X19488Y21654D01*
Y24882D01*
Y21220D02*
Y21654D01*
Y24882D02*
X19882Y25276D01*
X34646Y10394D02*
X35118D01*
X20236Y8386D02*
Y9054D01*
X34173Y5397D02*
X34807D01*
X30241D02*
X34173D01*
X37953Y29488D02*
X40472D01*
X40906Y27795D02*
Y29055D01*
X19606Y27677D02*
X19724Y27795D01*
X40472Y29488D02*
X40906Y29055D01*
X43347Y28307D02*
Y29095D01*
X33031Y28228D02*
Y29134D01*
X43150Y27362D02*
X43268Y27480D01*
X41693Y27362D02*
X43150D01*
X41378Y27677D02*
X41693Y27362D01*
X41378Y27677D02*
Y29921D01*
X41142Y30157D02*
X41378Y29921D01*
X33268Y30157D02*
X41142D01*
X33031Y29921D02*
X33268Y30157D01*
X49961Y23701D02*
Y24449D01*
X44685Y23465D02*
X47795D01*
Y27717D01*
Y23465D02*
X49724D01*
X47205Y28307D02*
X47795Y27717D01*
X43347Y28307D02*
X47205D01*
X12087Y8504D02*
X12126Y8543D01*
X12047Y8465D02*
X12087Y8504D01*
X14094Y7126D02*
X14291Y7323D01*
X12520Y7126D02*
X14094D01*
X12047Y7598D02*
Y8465D01*
Y7598D02*
X12520Y7126D01*
X14291Y7323D02*
Y9528D01*
X14528Y9764D01*
X16417D01*
X44646Y11063D02*
X44685Y11102D01*
X44803D01*
X44815Y11114D01*
Y15866D01*
Y19500D02*
X44843Y19528D01*
X44815Y15866D02*
Y19500D01*
X41220Y18858D02*
X43071D01*
X41142D02*
X41220D01*
X41142D02*
X41220D01*
X40000D02*
X41142D01*
X39764Y18622D02*
X40000Y18858D01*
X39764Y15945D02*
Y18622D01*
X39528Y15709D02*
X39764Y15945D01*
X35709Y15709D02*
X39528D01*
X35394Y16024D02*
X35709Y15709D01*
X34961Y16024D02*
X35394D01*
X43189Y18976D02*
Y19567D01*
X43071Y18858D02*
X43189Y18976D01*
X46496Y22205D02*
X48228D01*
X21850Y12283D02*
X23504D01*
X16890Y11575D02*
X21142D01*
X13740Y11299D02*
Y14685D01*
X21142Y11575D02*
X21850Y12283D01*
X16260Y10945D02*
X16890Y11575D01*
X13740Y11299D02*
X14094Y10945D01*
X23504Y12283D02*
X23898Y11890D01*
X23937D01*
X14094Y10945D02*
X16260D01*
X13504Y14921D02*
X13740Y14685D01*
X12756Y14921D02*
X13504D01*
X20039Y12953D02*
X21457D01*
X14843Y11614D02*
X15197Y11968D01*
X12598Y10472D02*
X18228D01*
X12283Y13504D02*
X12323Y13543D01*
X12283Y10787D02*
Y13504D01*
Y10787D02*
X12598Y10472D01*
X15000Y29016D02*
X16535D01*
X12914Y29882D02*
X12953Y29843D01*
X14173D02*
X15000Y29016D01*
X12914Y29882D02*
Y31771D01*
Y29055D02*
Y29882D01*
X12953Y29843D02*
X14173D01*
X19606Y25748D02*
Y27677D01*
X19331Y25472D02*
X19606Y25748D01*
X16693Y25472D02*
X19331D01*
X16417Y25197D02*
X16693Y25472D01*
X16417Y23150D02*
Y25197D01*
X15748Y22480D02*
X16417Y23150D01*
X15748Y22126D02*
Y22480D01*
X26850Y27283D02*
Y29291D01*
X22677Y29370D02*
X22835Y29528D01*
X26614D01*
X26850Y29291D01*
X30551Y34803D02*
Y34882D01*
X26969Y34843D02*
X30433D01*
Y34882D02*
X30551D01*
X26654Y30630D02*
X26772Y30512D01*
X26654Y30630D02*
Y34528D01*
X26969Y34843D01*
X18740Y5906D02*
Y9961D01*
X19173Y5472D02*
X21102D01*
X21142Y5512D01*
X18740Y5906D02*
X19173Y5472D01*
X18228Y10472D02*
X18740Y9961D01*
X29016Y27638D02*
X35787D01*
X28780Y29134D02*
X28858Y29213D01*
X28780Y27874D02*
Y29134D01*
Y27874D02*
X29016Y27638D01*
X38346Y31024D02*
X38661Y30709D01*
X39173D01*
X32677D02*
X38661D01*
X36024Y24764D02*
Y27402D01*
X35787Y27638D02*
X36024Y27402D01*
X32047Y30079D02*
X32677Y30709D01*
X39173D02*
X42008D01*
X38661D02*
X39173D01*
X14291Y12598D02*
X14370Y12520D01*
X20118Y15433D02*
Y16220D01*
Y15394D02*
Y15433D01*
Y15394D02*
Y15433D01*
Y13701D02*
Y15394D01*
X14370Y12520D02*
X16220D01*
X18937D02*
X20118Y13701D01*
X16220Y12520D02*
X18937D01*
X12953Y26260D02*
X13031Y26338D01*
Y28071D01*
X38228Y20394D02*
X38937Y19685D01*
X35709Y16260D02*
X38661D01*
X38937Y16535D01*
Y19685D01*
X28543Y15276D02*
X29429Y14390D01*
X36024Y17244D02*
X36496Y16772D01*
X29803Y17244D02*
X36024D01*
X24882Y15276D02*
Y16063D01*
X30807Y10925D02*
X31122D01*
X24882Y15276D02*
X27953Y12205D01*
X31122Y10925D02*
X31158Y10889D01*
X31122Y10925D02*
X31158Y10889D01*
X30315Y12520D02*
X30984Y11850D01*
X26457Y14488D02*
X26457D01*
X25827Y15118D02*
X26457Y14488D01*
X23583Y16654D02*
X25551D01*
X25827Y15118D02*
Y16378D01*
X25551Y16654D02*
X25827Y16378D01*
X23110Y17126D02*
X23583Y16654D01*
X26457Y15039D02*
X26710Y14786D01*
Y14786D02*
X28622Y12874D01*
X26457Y15039D02*
Y16968D01*
X26181Y17244D02*
X26457Y16968D01*
X24094Y17244D02*
X26181D01*
X35000Y12638D02*
X35157Y12480D01*
X28622Y12874D02*
X34764D01*
X35000Y12638D01*
X28425Y12520D02*
X30315D01*
X30984Y11929D02*
X30984D01*
X29055Y15669D02*
X29449Y15276D01*
X30197Y9803D02*
X31693D01*
X29173Y11890D02*
X29921Y11142D01*
Y10079D02*
Y11142D01*
Y10079D02*
X30197Y9803D01*
X27953Y12205D02*
X29528D01*
X30807Y10925D01*
X31158Y10889D02*
X31220Y10827D01*
X31181D02*
X31220D01*
X31811Y30630D02*
Y32165D01*
X31378Y30197D02*
X31811Y30630D01*
Y32165D02*
Y36339D01*
Y32008D02*
Y32165D01*
X15551Y26890D02*
X15630Y26811D01*
X15512Y28425D02*
X15551Y28386D01*
X41654Y25316D02*
X44449D01*
X41417Y23976D02*
X41457Y24016D01*
Y25118D01*
X41654Y25316D01*
X28543Y15276D02*
Y16614D01*
X19961Y16378D02*
X20118Y16220D01*
X30315Y16811D02*
X35157D01*
X30118Y14882D02*
Y16614D01*
X30315Y16811D01*
X29055Y16496D02*
X29803Y17244D01*
X29055Y15669D02*
Y16496D01*
X28543Y16614D02*
X29606Y17677D01*
X24094Y17244D02*
Y17244D01*
X26457Y14488D02*
X28425Y12520D01*
X35236Y8346D02*
X41417D01*
X34803Y9843D02*
X34882Y9921D01*
X34803Y8780D02*
Y9843D01*
Y8780D02*
X35236Y8346D01*
X35157Y16811D02*
X35709Y16260D01*
X29606Y17677D02*
X37165D01*
X9488Y9055D02*
X9803Y9370D01*
X23583Y5787D02*
X23661Y5866D01*
X23583Y4331D02*
Y5787D01*
X32559Y9213D02*
X32913Y9566D01*
Y10394D01*
X30472Y9213D02*
X32559D01*
X30354Y9094D02*
X30472Y9213D01*
X30354Y8386D02*
Y9094D01*
X26732Y11890D02*
X29173D01*
X25669Y11102D02*
X25945Y10827D01*
X28622D01*
X28818Y10631D01*
X29094D01*
X21772Y10276D02*
X21969Y10079D01*
X26220D02*
X26260Y10039D01*
Y9291D02*
Y10039D01*
X26339D01*
X21969Y10079D02*
X26220D01*
X21772Y10276D02*
Y11142D01*
X19055Y11968D02*
X20039Y12953D01*
X15197Y11968D02*
X19055D01*
X20236Y10669D02*
X20276Y10630D01*
Y10001D02*
Y10630D01*
X19449Y9055D02*
Y10709D01*
X19055Y11102D02*
X19449Y10709D01*
X17638Y11102D02*
X19055D01*
X40748Y748D02*
Y7047D01*
Y669D02*
Y748D01*
Y7047D02*
X41418Y7717D01*
X43071D01*
X43032Y6732D02*
X43189Y6890D01*
X44094D01*
X29173Y6142D02*
X29331Y5984D01*
Y8937D01*
Y5197D02*
Y5984D01*
X25039Y6142D02*
X29173D01*
X24567D02*
X25039D01*
X25275Y6377D01*
X29094Y9252D02*
X29370Y8976D01*
X29134Y5000D02*
X29331Y5197D01*
X29134Y5000D02*
X29843D01*
X28425D02*
X29134D01*
X30241Y5397D02*
X31181Y6338D01*
X29843Y5000D02*
X30241Y5397D01*
X34807D02*
X35197Y5787D01*
X28215Y2244D02*
Y4790D01*
X28425Y5000D01*
X31142Y8031D02*
X31181Y7992D01*
Y7284D02*
Y7992D01*
X20236Y9054D02*
X20276D01*
X19489D02*
X20236D01*
Y9094D01*
Y8386D02*
X20433Y8189D01*
X25275D01*
Y9331D01*
Y6377D02*
Y8189D01*
X50039Y21181D02*
Y24566D01*
X49984Y20181D02*
Y21244D01*
X50039Y24566D02*
X50039Y24567D01*
X9409Y17441D02*
X9921D01*
X49449Y25020D02*
X49999Y24469D01*
Y24409D02*
Y24469D01*
X49724Y23465D02*
X49961Y23701D01*
X44449Y23701D02*
X44685Y23465D01*
X44449Y23701D02*
Y24369D01*
X30551Y34882D02*
Y38228D01*
X30236Y38543D02*
X30551Y38228D01*
X29213Y38543D02*
X30236D01*
X30315Y33779D02*
X30433Y33897D01*
X30315Y33031D02*
Y33779D01*
X50425Y33630D02*
X50709Y33346D01*
X43347Y29095D02*
X43504Y29252D01*
X49567Y33661D02*
X49636D01*
X49685Y33630D02*
X50425D01*
X49636D02*
X49685D01*
X49636D02*
Y33661D01*
Y33630D02*
X49685D01*
X47488D02*
X49636D01*
X43504Y29252D02*
X46417D01*
X43464D02*
X43504D01*
X43504Y29252D01*
X46811Y32953D02*
X47488Y33630D01*
X46811Y29646D02*
Y32953D01*
X46417Y29252D02*
X46811Y29646D01*
X49843Y37874D02*
X49921Y37953D01*
X49636Y37667D02*
X49843Y37874D01*
X49636Y33661D02*
Y37667D01*
X48878Y38287D02*
X49291Y37874D01*
X49843D01*
X48898Y39685D02*
X49055Y39843D01*
X48898Y39253D02*
Y39685D01*
X49055Y39843D02*
X49921D01*
X50630Y32362D02*
Y32441D01*
Y30709D02*
Y32362D01*
Y30709D02*
X51102Y30236D01*
X51654D01*
X50669Y33307D02*
X50709Y33346D01*
X50630Y33308D02*
Y33465D01*
X51260Y22953D02*
Y24094D01*
X51220Y24134D02*
X51260Y24094D01*
X51220Y24134D02*
Y24134D01*
X50946Y24409D02*
X51220Y24134D01*
X49449Y25039D02*
X49449Y25039D01*
Y25020D02*
Y25039D01*
X49984Y21244D02*
X50000Y21260D01*
X7559Y9291D02*
Y11063D01*
Y9291D02*
X7795Y9055D01*
X9488D01*
X9803Y9370D02*
Y10118D01*
X10079Y10394D01*
X11732D01*
X12047Y10079D01*
Y9528D02*
Y10079D01*
X12598Y6181D02*
X12861Y5919D01*
X7262Y15688D02*
X7677Y16102D01*
X7953Y17441D02*
X9409D01*
X7677Y16102D02*
Y17165D01*
Y16063D02*
Y16102D01*
X7677Y16102D01*
X7677Y17165D02*
X7953Y17441D01*
X4893Y15688D02*
X7262D01*
X7560Y13543D02*
X11102D01*
X7560D02*
Y15039D01*
Y12165D02*
Y13543D01*
X11102D02*
X11575Y14016D01*
Y14921D01*
X7657Y12067D02*
X7717Y12008D01*
X7657Y12067D02*
X7717Y12126D01*
X7560Y12165D02*
X7657Y12067D01*
X4843Y12402D02*
X4903Y12341D01*
Y11275D02*
Y12341D01*
X2559Y24331D02*
X3110Y24882D01*
X2559Y23819D02*
Y24331D01*
X5591Y41457D02*
X6181Y40866D01*
X4961Y41457D02*
X5591D01*
X10315Y2244D02*
X10367D01*
X49291Y783D02*
X49335D01*
X14829Y2244D02*
Y6247D01*
X14843Y6260D01*
X12861Y2244D02*
Y5919D01*
X10367Y2244D02*
X10433D01*
X10433Y2244D01*
X11575Y15709D02*
X11772Y15906D01*
X11575Y14921D02*
Y15709D01*
X7560Y15867D02*
X7677Y15984D01*
X7560Y15039D02*
Y15867D01*
X17520Y21811D02*
X19331D01*
X15748Y22126D02*
X16063Y21811D01*
X16574D01*
X17874Y17559D02*
Y19528D01*
X14803Y22126D02*
X15906Y23228D01*
X15079Y19764D02*
X17638D01*
X17874Y19528D01*
X14803Y20039D02*
X15079Y19764D01*
X14803Y20039D02*
Y22126D01*
X15906Y23228D02*
Y24488D01*
X15591Y24803D02*
X15906Y24488D01*
X15591Y24803D02*
Y26024D01*
X15748Y26181D01*
X17520D01*
X18898D02*
Y26535D01*
X15118Y26299D02*
X15630Y26811D01*
X18622D01*
X18898Y26535D01*
X15118Y23346D02*
Y26299D01*
X20000Y20512D02*
X20394Y20906D01*
X15709Y20512D02*
X20000D01*
X20394Y20906D02*
Y23110D01*
X42244Y29213D02*
X42323Y29291D01*
X38346Y31929D02*
X38583Y32165D01*
X42323Y29291D02*
Y30394D01*
X42008Y30709D02*
X42323Y30394D01*
X38346Y31024D02*
Y31929D01*
X38583Y32165D02*
X39921D01*
X42401Y28307D02*
Y29253D01*
X42283Y29370D02*
X42401Y29253D01*
X39016Y31535D02*
X42795D01*
X43032Y31299D01*
Y30591D02*
Y31299D01*
X34803Y31260D02*
X35315Y31772D01*
Y36890D01*
X13977Y28938D02*
X14094Y29055D01*
X13977Y28071D02*
Y28938D01*
X12795Y29055D02*
X13031Y28820D01*
Y28071D02*
Y28820D01*
X12638Y32047D02*
X12914Y31771D01*
X10512Y32047D02*
X12638D01*
X25197Y32283D02*
Y34409D01*
X24567Y31654D02*
X25197Y32283D01*
X21969Y32913D02*
X22087Y32795D01*
X21969Y32913D02*
Y36969D01*
X18740Y32795D02*
Y36929D01*
X8583Y12008D02*
X8740Y11850D01*
Y11063D02*
Y11850D01*
X7559Y11063D02*
Y11969D01*
X12993Y9528D02*
X13504Y9016D01*
Y7992D02*
Y9016D01*
X11968Y8465D02*
X12047Y8543D01*
Y9528D01*
X5512Y33780D02*
X5630Y33661D01*
X6102Y30591D02*
X7205D01*
X5945D02*
X6102D01*
X6339Y30827D01*
X5945Y30591D02*
X6102D01*
X5551D02*
X5945D01*
X5472Y33780D02*
X5512D01*
X5630Y33661D02*
X6063D01*
X6339Y33386D01*
Y30827D02*
Y33386D01*
X11220Y39528D02*
X11260Y39488D01*
Y36850D02*
Y39488D01*
X29094Y9252D02*
Y9684D01*
X39016Y9488D02*
X39055Y9449D01*
X39842D01*
X41417Y8346D02*
Y9213D01*
Y8307D02*
Y8346D01*
X41378Y8268D02*
X41417Y8307D01*
X41181Y9449D02*
X41417Y9213D01*
X40788Y9449D02*
X41181D01*
X43071Y8189D02*
X43071Y8189D01*
X43071Y7717D02*
Y8189D01*
X47335Y783D02*
X48335D01*
X46335D02*
X47335D01*
X44965D02*
X46335D01*
X43965D02*
X44965D01*
X42965D02*
X43965D01*
X41965D02*
X42965D01*
D40*
X23701Y27362D02*
X24291Y26772D01*
X46102Y19685D02*
X50827D01*
X45866Y19449D02*
X46102Y19685D01*
X45630Y16890D02*
X45866Y17126D01*
X45591Y16850D02*
X45630Y16890D01*
X45551Y16850D02*
X45591D01*
X45866Y17126D02*
Y19449D01*
X35236Y15315D02*
X40433D01*
X40591Y18032D02*
X40630Y17992D01*
Y15512D02*
Y17992D01*
X40433Y15315D02*
X40630Y15512D01*
X43740Y11269D02*
Y18110D01*
X39134Y20984D02*
X42953D01*
X24685Y19606D02*
Y27480D01*
X24291Y27874D02*
X24685Y27480D01*
X24291Y18819D02*
Y26772D01*
Y18819D02*
X24528Y18583D01*
X25945D01*
X26102Y27087D02*
X26181Y27008D01*
X30197Y25591D02*
X30433Y25827D01*
X35039D01*
X30197Y24055D02*
Y25591D01*
X38110Y27795D02*
X38346Y27559D01*
Y26417D02*
Y27559D01*
X36614Y27795D02*
X38110D01*
X35512Y27047D02*
X35551Y27087D01*
X34842Y27047D02*
X35512D01*
X34842D02*
X35079D01*
X30669D02*
X34842D01*
X36614Y26102D02*
X36654Y26142D01*
X36614Y22362D02*
Y26102D01*
X49331Y14370D02*
X51732D01*
X51819Y18181D02*
X52244Y17756D01*
Y14882D02*
Y17756D01*
X51732Y14370D02*
X52244Y14882D01*
X50984Y18181D02*
X51819D01*
X17520Y17008D02*
X17598Y16929D01*
X17520Y17008D02*
X21496D01*
X14961D02*
X17520D01*
X17598Y15827D02*
Y16929D01*
X36850Y20787D02*
X37520D01*
X37835Y19370D02*
X38268D01*
X34094Y14173D02*
X35236Y15315D01*
X31772Y14173D02*
X34094D01*
X50984Y17283D02*
X51575D01*
X49055Y15118D02*
X51339D01*
X51575Y17283D02*
X51772Y17087D01*
Y15551D02*
Y17087D01*
X51339Y15118D02*
X51772Y15551D01*
X48819Y9882D02*
Y14882D01*
X49055Y15118D01*
X48268Y15866D02*
X48780Y16378D01*
X48268Y11732D02*
Y15866D01*
Y11732D02*
Y11850D01*
Y10276D02*
Y11732D01*
X47874Y10630D02*
Y12165D01*
Y18819D01*
X48236Y19181D01*
X49984D01*
X50827Y19685D02*
X50984Y19528D01*
Y19181D02*
Y19528D01*
X40669Y11850D02*
X42953D01*
X43153Y10548D02*
Y11650D01*
X47638Y10394D02*
X47874Y10630D01*
X43307Y10394D02*
X47638D01*
X43153Y10548D02*
X43307Y10394D01*
X42953Y11850D02*
X43153Y11650D01*
X42756Y10157D02*
Y11102D01*
Y10157D02*
X42913Y10000D01*
X47992D02*
X48268Y10276D01*
X42913Y10000D02*
X47992D01*
X42598Y9528D02*
X48465D01*
X48819Y9882D01*
X42402Y9724D02*
Y10591D01*
Y9724D02*
X42598Y9528D01*
X35315Y14961D02*
X39843D01*
X29094Y13780D02*
X34134D01*
X39843Y14961D02*
X40394Y14409D01*
Y12126D02*
X40669Y11850D01*
X40394Y12126D02*
Y14409D01*
X39803Y11772D02*
Y14291D01*
X42362Y11496D02*
X42756Y11102D01*
X40079Y11496D02*
X42362D01*
X39803Y11772D02*
X40079Y11496D01*
X39488Y14606D02*
X39803Y14291D01*
X35472Y14606D02*
X39488D01*
X35079Y13543D02*
X38819D01*
X39331Y13032D01*
X39646Y11063D02*
X41929D01*
X42402Y10591D01*
X39331Y11378D02*
X39646Y11063D01*
X39331Y11378D02*
Y13032D01*
X34134Y13780D02*
X35315Y14961D01*
X29016Y13543D02*
X34409D01*
X35472Y14606D01*
X28858Y13228D02*
X34764D01*
X35079Y13543D01*
X26890Y15197D02*
X28858Y13228D01*
X26890Y15197D02*
Y20039D01*
X27323Y15236D02*
Y22244D01*
X27638Y15236D02*
Y20118D01*
X27992Y17244D02*
X28307Y17559D01*
X27323Y15236D02*
X29016Y13543D01*
X27638Y15236D02*
X29094Y13780D01*
X38386Y11299D02*
Y12795D01*
X26004Y20256D02*
X26319D01*
X26693Y20236D02*
X26890Y20039D01*
X26693Y20236D02*
Y23780D01*
X26457Y18110D02*
Y20118D01*
X26319Y20256D02*
X26457Y20118D01*
X27638Y20118D02*
X27874Y20354D01*
Y21496D01*
X22441Y17953D02*
X26299D01*
X26457Y18110D01*
X38976Y14016D02*
X39094Y14134D01*
X35492Y22776D02*
Y26319D01*
X33858Y24764D02*
X33898D01*
X32441D02*
X33858D01*
X32677Y25315D02*
X34528D01*
X43858Y22992D02*
X43937Y22913D01*
X43071Y22992D02*
X43858D01*
X43937Y21457D02*
Y22913D01*
Y21457D02*
Y22480D01*
Y19213D02*
Y21457D01*
X44291Y22677D02*
Y23268D01*
X43898Y23661D02*
X43937Y23622D01*
X44291Y23268D01*
Y14370D02*
Y22677D01*
X43071Y18346D02*
X43937Y19213D01*
X43071Y17441D02*
Y18346D01*
Y17441D02*
X43307Y17205D01*
Y16693D02*
Y17205D01*
X43032Y14646D02*
X43307Y14370D01*
X43032Y14646D02*
Y16063D01*
X42717Y13701D02*
X42756Y13740D01*
X42323Y13701D02*
X42717D01*
X42126Y13898D02*
X42323Y13701D01*
X42126Y13898D02*
Y15748D01*
X38150Y13032D02*
X38386Y12795D01*
X36535Y13032D02*
X38150D01*
X30276Y13976D02*
X30709Y14409D01*
X35866Y14016D02*
X38976D01*
X21496Y17008D02*
X22441Y17953D01*
X24961Y19331D02*
X25906D01*
X24685Y19606D02*
X24961Y19331D01*
X26142Y26496D02*
X26654D01*
X25906Y26260D02*
X26142Y26496D01*
X25906Y21024D02*
Y26260D01*
X25551Y27008D02*
X26142D01*
X26181D01*
X25236Y26693D02*
X25551Y27008D01*
X25236Y21417D02*
Y26693D01*
X27992Y15276D02*
X29291Y13976D01*
X30276D01*
X27992Y15276D02*
Y17244D01*
X31811Y25394D02*
X32441Y24764D01*
X37638Y18898D02*
X37717D01*
X37008D02*
X37638D01*
X37717D01*
X37520Y20787D02*
X37677Y20630D01*
Y19528D02*
Y20630D01*
Y19528D02*
X37835Y19370D01*
X36890Y19016D02*
X37008Y18898D01*
X36890Y19016D02*
Y19803D01*
X34646Y21064D02*
X34724D01*
X33504D02*
X34646D01*
X31614D02*
X33504D01*
X34685Y21063D02*
X34724D01*
X34724Y21064D02*
X34724Y21063D01*
D41*
X12732Y6181D02*
X12795D01*
X12598D02*
X12732D01*
X11496D02*
X12598D01*
X10748Y6929D02*
X11496Y6181D01*
X10748Y6929D02*
Y9528D01*
X37362Y866D02*
X37402Y827D01*
X37362Y866D02*
Y2205D01*
X28215Y761D02*
X28228Y748D01*
X28215Y761D02*
Y2244D01*
X23661Y827D02*
X23753Y919D01*
Y2244D01*
X19134Y866D02*
X19291Y1024D01*
Y2244D01*
D42*
X42913Y24331D02*
X44528D01*
X41811Y23228D02*
X42913Y24331D01*
X41811Y22205D02*
Y23228D01*
Y22205D02*
X42047Y21969D01*
X43228D01*
X43543Y21654D01*
Y20669D02*
Y21654D01*
X43425Y20551D02*
X43543Y20669D01*
X41614Y20551D02*
X43425D01*
X41575Y20512D02*
X41614Y20551D01*
X38898Y20512D02*
X41575D01*
X37795Y21614D02*
X38898Y20512D01*
X37205Y21614D02*
X37795D01*
X32520Y20117D02*
X32677Y19961D01*
X32007Y21969D02*
X32677D01*
X31693Y20117D02*
X32520D01*
X34291Y22008D02*
X34646Y21654D01*
X33623Y19409D02*
X34252D01*
X34291Y19370D01*
X34646Y21064D02*
Y21654D01*
X33504Y21064D02*
X33623Y20945D01*
X31969Y22008D02*
X32007Y21969D01*
X34094Y20276D02*
X34253Y20117D01*
X34646D01*
X32520D02*
X32716D01*
X32677Y19409D02*
Y19961D01*
X33623Y19409D02*
Y20945D01*
X32598Y22047D02*
X32677Y21969D01*
X33544Y22008D02*
X34291D01*
D43*
X29291Y20276D02*
Y21535D01*
X32913Y29252D02*
X32992D01*
X31142D02*
X32913D01*
X30551Y29843D02*
X31142Y29252D01*
X28268Y22559D02*
X29291Y21535D01*
X28268Y29488D02*
X28622Y29843D01*
X30551D01*
X28268Y22559D02*
Y29488D01*
X7362Y28150D02*
X7559Y27953D01*
X7323Y28110D02*
X7362Y28150D01*
X8189Y28976D01*
X4606Y23819D02*
Y24567D01*
X6102Y38622D02*
X8189Y36535D01*
Y28976D02*
Y36535D01*
X6102Y38622D02*
Y39960D01*
X33859Y5712D02*
X34173Y5397D01*
X33859Y5712D02*
Y10394D01*
X11732Y27717D02*
X11772Y27756D01*
X11457Y27441D02*
X11732Y27717D01*
X7559Y27441D02*
X11457D01*
X18937Y16181D02*
X19134Y16378D01*
X18937Y15394D02*
Y16181D01*
X29291Y20276D02*
X31457D01*
X31693Y20039D01*
X35197Y10315D02*
X38819D01*
X39036Y9508D02*
Y10098D01*
X34882Y10630D02*
X35118Y10394D01*
X35197Y10315D01*
X39016Y9488D02*
X39036Y9508D01*
X38819Y10315D02*
X39036Y10098D01*
X33859Y10394D02*
X34646D01*
X4567Y23740D02*
X4606Y23780D01*
X4843Y15748D02*
X5551D01*
X4606Y23819D02*
X5197D01*
X4528D02*
X4606D01*
X5197D02*
X5787Y23228D01*
Y15984D02*
Y23228D01*
X4803Y15787D02*
X4843Y15748D01*
X5551D02*
X5787Y15984D01*
X7677Y12008D02*
X7717Y11968D01*
X7323Y12362D02*
X7638Y12047D01*
X5827Y12362D02*
X7323D01*
X7559Y27441D02*
Y27953D01*
Y24843D02*
Y27441D01*
X4331Y24843D02*
X4606Y24567D01*
X4016Y24843D02*
X4094D01*
X4331Y24843D02*
X7559D01*
X4094D02*
X4331D01*
X5631Y39488D02*
X6102Y39960D01*
X4961Y39488D02*
X5631D01*
D44*
X16299Y30276D02*
X16339Y30315D01*
X16220Y30197D02*
X16299Y30276D01*
X14882Y30197D02*
X16220D01*
X13976Y22480D02*
X14606Y23110D01*
X14685Y27717D02*
Y28346D01*
X14606Y27638D02*
X14685Y27717D01*
X14606Y23110D02*
Y27638D01*
X12441Y22480D02*
X13976D01*
X12520Y17323D02*
Y17441D01*
Y16850D02*
Y17323D01*
X12323Y16654D02*
X12520Y16850D01*
X10197Y16654D02*
X12323D01*
X10000Y16457D02*
X10197Y16654D01*
X10000Y16102D02*
Y16457D01*
X32244Y10394D02*
X32913D01*
X6850Y19685D02*
X11063D01*
X11339Y19409D01*
Y17441D02*
Y19409D01*
X2849Y16708D02*
X4903D01*
X2835Y16693D02*
X2849Y16708D01*
X46201Y24469D02*
X46339Y24331D01*
X45394Y24469D02*
X46201D01*
X50984Y20181D02*
Y21142D01*
X12678Y15906D02*
X12756Y15827D01*
Y14921D02*
Y15827D01*
X8583Y16142D02*
X8740Y15985D01*
Y15039D02*
Y15985D01*
X11339Y17441D02*
X11339Y17441D01*
X10867Y17441D02*
X11339D01*
D45*
X37913Y10630D02*
X41693D01*
X41968Y10354D01*
X43819Y9055D02*
X43858Y9094D01*
X42323Y9055D02*
X43819D01*
X41968Y9409D02*
X42323Y9055D01*
X41968Y9409D02*
Y10354D01*
X37323Y11220D02*
X37913Y10630D01*
D56*
X52008Y44055D02*
D03*
X51181Y11811D02*
D03*
X1220Y44055D02*
D03*
X1181Y1181D02*
D03*
X52008Y1181D02*
D03*
D57*
X16850Y9409D02*
D03*
X17362D02*
D03*
X17835D02*
D03*
Y8937D02*
D03*
X17362D02*
D03*
X16850D02*
D03*
X28583Y39055D02*
D03*
X28071D02*
D03*
Y38189D02*
D03*
X28583D02*
D03*
Y38622D02*
D03*
X28071D02*
D03*
X28583Y37756D02*
D03*
X28071D02*
D03*
X44961Y41457D02*
D03*
Y40906D02*
D03*
Y40394D02*
D03*
X45827D02*
D03*
Y40906D02*
D03*
Y41457D02*
D03*
X45394D02*
D03*
Y40906D02*
D03*
Y40394D02*
D03*
X46260Y41457D02*
D03*
Y40906D02*
D03*
Y40394D02*
D03*
X36378Y39331D02*
D03*
Y38780D02*
D03*
Y38268D02*
D03*
X37244D02*
D03*
Y38780D02*
D03*
Y39331D02*
D03*
X36811D02*
D03*
Y38780D02*
D03*
Y38268D02*
D03*
X37677Y39331D02*
D03*
Y38780D02*
D03*
Y38268D02*
D03*
X33465Y39291D02*
D03*
Y38740D02*
D03*
Y38228D02*
D03*
X34331D02*
D03*
Y38740D02*
D03*
Y39291D02*
D03*
X33898D02*
D03*
Y38740D02*
D03*
Y38228D02*
D03*
X34764Y39291D02*
D03*
Y38740D02*
D03*
Y38228D02*
D03*
X20079Y39252D02*
D03*
Y38701D02*
D03*
Y38189D02*
D03*
X20945D02*
D03*
Y38701D02*
D03*
Y39252D02*
D03*
X20512D02*
D03*
Y38701D02*
D03*
Y38189D02*
D03*
X21378Y39252D02*
D03*
Y38701D02*
D03*
Y38189D02*
D03*
X16850Y39252D02*
D03*
Y38701D02*
D03*
Y38189D02*
D03*
X17717D02*
D03*
Y38701D02*
D03*
Y39252D02*
D03*
X17283D02*
D03*
Y38701D02*
D03*
Y38189D02*
D03*
X18150Y39252D02*
D03*
Y38701D02*
D03*
Y38189D02*
D03*
X9016Y41496D02*
D03*
Y40945D02*
D03*
Y40433D02*
D03*
X9882D02*
D03*
Y40945D02*
D03*
Y41496D02*
D03*
X9449D02*
D03*
Y40945D02*
D03*
Y40433D02*
D03*
X10315Y41496D02*
D03*
Y40945D02*
D03*
Y40433D02*
D03*
X4331Y30079D02*
D03*
X3780D02*
D03*
X3268D02*
D03*
Y29213D02*
D03*
X3780D02*
D03*
X4331D02*
D03*
Y29646D02*
D03*
X3780D02*
D03*
X3268D02*
D03*
X4331Y28780D02*
D03*
X3780D02*
D03*
X3268D02*
D03*
X4213Y33071D02*
D03*
X3661D02*
D03*
X3150D02*
D03*
Y32205D02*
D03*
X3661D02*
D03*
X4213D02*
D03*
Y32638D02*
D03*
X3661D02*
D03*
X3150D02*
D03*
X4213Y31772D02*
D03*
X3661D02*
D03*
X3150D02*
D03*
D58*
X22126Y14764D02*
D03*
X21299Y17874D02*
D03*
X39016Y31417D02*
D03*
X2899Y16708D02*
D03*
X12441Y22480D02*
D03*
X9134Y31181D02*
D03*
X11929Y29843D02*
D03*
X25669Y11102D02*
D03*
X22677Y11575D02*
D03*
X51654Y30236D02*
D03*
X38386Y11299D02*
D03*
X43740Y11299D02*
D03*
X41024Y12677D02*
D03*
X30984Y11929D02*
D03*
X35157Y12638D02*
D03*
X19291Y18071D02*
D03*
X47126Y17992D02*
D03*
X22559Y29449D02*
D03*
X28976Y29134D02*
D03*
X25157Y34331D02*
D03*
X13504Y7992D02*
D03*
X51220Y22992D02*
D03*
X24882Y15945D02*
D03*
X45315Y30748D02*
D03*
X9055Y34016D02*
D03*
X47480Y35118D02*
D03*
X23543Y34055D02*
D03*
X34882Y31339D02*
D03*
X12638Y36614D02*
D03*
X6220Y27087D02*
D03*
X42047Y36929D02*
D03*
D59*
X4961Y39488D02*
D03*
X4528Y23819D02*
D03*
X49921Y37874D02*
D03*
X4744Y19646D02*
D03*
X6909D02*
D03*
X34150Y26457D02*
D03*
X32150D02*
D03*
D60*
X4961Y41457D02*
D03*
X49921Y39843D02*
D03*
D61*
X4903Y9245D02*
D03*
Y14678D02*
D03*
D62*
X4893Y10255D02*
D03*
X4903Y11275D02*
D03*
X4893Y15688D02*
D03*
X4903Y16708D02*
D03*
D63*
X3543Y36319D02*
D03*
X9736Y24094D02*
D03*
X10736D02*
D03*
X45815Y15866D02*
D03*
X44815D02*
D03*
X45394Y21516D02*
D03*
Y24469D02*
D03*
Y23484D02*
D03*
Y22500D02*
D03*
Y20531D02*
D03*
X7560Y15039D02*
D03*
X49984Y20181D02*
D03*
X50984D02*
D03*
X49984Y19181D02*
D03*
X50984D02*
D03*
X49984Y18181D02*
D03*
X50984D02*
D03*
X49984Y17181D02*
D03*
X50984D02*
D03*
X49984Y16181D02*
D03*
X46094Y6890D02*
D03*
X47094D02*
D03*
X48094D02*
D03*
X49094D02*
D03*
X50094D02*
D03*
X51094D02*
D03*
X52094D02*
D03*
X45094D02*
D03*
X14094Y29055D02*
D03*
X43464Y29252D02*
D03*
X49449Y25020D02*
D03*
X49636Y32646D02*
D03*
Y33630D02*
D03*
D64*
X3543Y35335D02*
D03*
X45394Y25453D02*
D03*
X44094Y6890D02*
D03*
X49449Y26004D02*
D03*
X49636Y31661D02*
D03*
D65*
X3937Y2244D02*
D03*
X8399D02*
D03*
X24213Y42283D02*
D03*
X28740D02*
D03*
X17323Y2244D02*
D03*
X21785D02*
D03*
X26247D02*
D03*
X12861D02*
D03*
X30709D02*
D03*
X35394Y2205D02*
D03*
D66*
X5906Y2244D02*
D03*
X10367D02*
D03*
X26181Y42283D02*
D03*
X30709D02*
D03*
X19291Y2244D02*
D03*
X23753D02*
D03*
X28215D02*
D03*
X14829D02*
D03*
X32677D02*
D03*
X39331Y2205D02*
D03*
X37362D02*
D03*
D67*
X44965Y3783D02*
D03*
X49335D02*
D03*
D68*
X43965D02*
D03*
X42965D02*
D03*
X41965D02*
D03*
X44965Y783D02*
D03*
X43965D02*
D03*
X42965D02*
D03*
X41965D02*
D03*
X46335D02*
D03*
X47335D02*
D03*
X48335D02*
D03*
X49335D02*
D03*
X46335Y3783D02*
D03*
X47335D02*
D03*
X48335D02*
D03*
D69*
X7559Y11063D02*
D03*
X11575Y14921D02*
D03*
X18937Y15394D02*
D03*
D70*
X8740Y11063D02*
D03*
X12756Y14921D02*
D03*
X20118Y15394D02*
D03*
D71*
X8740Y15039D02*
D03*
X50984Y16181D02*
D03*
X12914Y29055D02*
D03*
X42284Y29252D02*
D03*
D72*
X2559Y23819D02*
D03*
D73*
X28150Y29646D02*
D03*
X33031Y28228D02*
D03*
X16417Y9764D02*
D03*
X44646Y11063D02*
D03*
X44843Y19528D02*
D03*
X43150D02*
D03*
X41142Y18858D02*
D03*
X48228Y22205D02*
D03*
X46496D02*
D03*
X26732Y11890D02*
D03*
X23937D02*
D03*
X16299Y30276D02*
D03*
X14882Y30197D02*
D03*
X14685Y28346D02*
D03*
X19646Y27756D02*
D03*
X23701Y27362D02*
D03*
X25945Y18583D02*
D03*
X12520Y17323D02*
D03*
X10000Y16102D02*
D03*
X12323Y13504D02*
D03*
X21142Y5512D02*
D03*
X16535Y29016D02*
D03*
X32047Y30079D02*
D03*
X14370Y12559D02*
D03*
X16220Y12520D02*
D03*
X11732Y27717D02*
D03*
X12953Y26260D02*
D03*
X35079Y25787D02*
D03*
X30197Y24055D02*
D03*
X38346Y26417D02*
D03*
X37441Y26575D02*
D03*
X36614Y27795D02*
D03*
X35551Y27087D02*
D03*
X30669Y27047D02*
D03*
X49370Y14409D02*
D03*
X17598Y15827D02*
D03*
X31772Y14173D02*
D03*
X41614Y20551D02*
D03*
X37205Y21614D02*
D03*
X48780Y16378D02*
D03*
X27480Y26772D02*
D03*
X31811Y36339D02*
D03*
X15551Y28346D02*
D03*
X36102Y24803D02*
D03*
X36654Y26102D02*
D03*
X35512Y26339D02*
D03*
X35492Y22776D02*
D03*
X43071Y22992D02*
D03*
X43307Y16693D02*
D03*
X43032Y16063D02*
D03*
X42126Y15748D02*
D03*
X36535Y13032D02*
D03*
X39094Y14094D02*
D03*
X35866Y14016D02*
D03*
X25236Y21417D02*
D03*
X26890Y27323D02*
D03*
X43937Y23622D02*
D03*
X24291Y27874D02*
D03*
X24094Y17244D02*
D03*
X25866Y19370D02*
D03*
X25984Y20236D02*
D03*
X14961Y17008D02*
D03*
X25906Y21024D02*
D03*
X26654Y26496D02*
D03*
X26142Y27008D02*
D03*
X29291Y20276D02*
D03*
X23110Y17126D02*
D03*
X43740Y18110D02*
D03*
X30709Y14409D02*
D03*
X28307Y17559D02*
D03*
X38228Y20394D02*
D03*
X30118Y14882D02*
D03*
X37165Y17677D02*
D03*
X29449Y14409D02*
D03*
X29488Y15354D02*
D03*
X36496Y16811D02*
D03*
X42717Y13780D02*
D03*
X43268Y14370D02*
D03*
X44291D02*
D03*
X43858Y9094D02*
D03*
X37323Y11220D02*
D03*
X45630Y16890D02*
D03*
X42953Y20984D02*
D03*
X39134Y21024D02*
D03*
X36614Y22362D02*
D03*
X33858Y24764D02*
D03*
X34528Y25315D02*
D03*
X32677D02*
D03*
X31811Y25394D02*
D03*
X40591Y18032D02*
D03*
X37638Y18898D02*
D03*
X38268Y19370D02*
D03*
X34961Y16024D02*
D03*
X34213Y19409D02*
D03*
X27874Y21496D02*
D03*
X27323Y22244D02*
D03*
X26693Y23780D02*
D03*
X32244Y21220D02*
D03*
X34449Y21811D02*
D03*
X31969Y22008D02*
D03*
X34094Y20276D02*
D03*
X32717Y20118D02*
D03*
X34882Y9921D02*
D03*
X23583Y4331D02*
D03*
Y5827D02*
D03*
X30354Y8386D02*
D03*
X31693Y9803D02*
D03*
X32165Y10512D02*
D03*
X34882Y10630D02*
D03*
X21772Y11142D02*
D03*
X21457Y12953D02*
D03*
X14803Y11693D02*
D03*
X31102Y10906D02*
D03*
X20236Y10669D02*
D03*
X35197Y5787D02*
D03*
X31142Y8031D02*
D03*
X26260Y10039D02*
D03*
X19488Y9055D02*
D03*
X24567Y6142D02*
D03*
X41417Y23976D02*
D03*
X37992Y29449D02*
D03*
X40906Y27795D02*
D03*
X29213Y38543D02*
D03*
X30315Y33031D02*
D03*
X17638Y11102D02*
D03*
X10748Y9528D02*
D03*
X7559Y24843D02*
D03*
X11339Y17441D02*
D03*
X9409D02*
D03*
X19488Y21220D02*
D03*
X15748Y22126D02*
D03*
X18858Y26220D02*
D03*
X17520Y26181D02*
D03*
X15118Y23346D02*
D03*
X17835Y17598D02*
D03*
X15827Y20472D02*
D03*
X20394Y23110D02*
D03*
X39921Y32165D02*
D03*
X43032Y30591D02*
D03*
X35315Y36890D02*
D03*
X26772Y30512D02*
D03*
X10512Y32047D02*
D03*
X24567Y31654D02*
D03*
X22087Y32756D02*
D03*
X18819D02*
D03*
X21969Y36969D02*
D03*
X18740Y36929D02*
D03*
X12087Y8504D02*
D03*
X7362Y28110D02*
D03*
X7205Y30591D02*
D03*
X11260Y36850D02*
D03*
Y39488D02*
D03*
X5551Y30591D02*
D03*
Y33740D02*
D03*
X29331Y8937D02*
D03*
X41417Y8346D02*
D03*
X39016Y9488D02*
D03*
X42992Y8268D02*
D03*
D74*
X40748Y748D02*
X41811D01*
X28228D02*
X40748D01*
X41968D02*
X49291D01*
X8438Y2205D02*
X10315D01*
X8399Y2244D02*
X8438Y2205D01*
X8780Y748D02*
X28228D01*
X41890Y827D02*
X41968Y748D01*
X41811D02*
X41890Y827D01*
X8399Y1129D02*
X8780Y748D01*
X8399Y1129D02*
Y2244D01*
D75*
X45610Y41791D02*
D03*
X9705Y41831D02*
D03*
D76*
X35512Y39390D02*
D03*
X19252Y39311D02*
D03*
D77*
X28465Y38583D02*
D03*
D78*
X3327Y30965D02*
D03*
M02*
