M48
;Layer_Color=9474304
;FILE_FORMAT=2:3
INCH,LZ
;TYPE=PLATED
T1F00S00C0.028
T2F00S00C0.030
T3F00S00C0.031
T4F00S00C0.035
T5F00S00C0.039
T6F00S00C0.043
T7F00S00C0.047
;TYPE=NON_PLATED
T8F00S00C0.118
%
T01
X01075Y00953
X01209Y0085
X01232Y0135
X01437Y01256
X0148Y01169
X01622Y01252
X01642Y00976
X01496Y01701
X01252Y01732
X01134Y01744
X00941
X01Y0161
X0176Y01583
X01764Y0111
X02024Y01067
X02177Y01114
X02146Y01295
X02394Y01189
X02673
X02626Y01004
X02933Y00894
X03035Y00839
X03114Y00803
X03169Y0098
X03217Y01051
X0311Y01091
X03071Y01441
X03012Y01488
X02949Y01535
X02945Y01441
X03177Y01417
X02409Y01724
X02311Y01713
X01949Y00906
X02114Y00551
X02358Y00583
X02457Y00614
X02358Y00433
X0352Y00579
X03488Y00992
Y01063
X03732Y01122
X03654Y01303
X03587Y01402
X03496Y01602
X0365Y01681
X03909Y01409
X04272Y01378
X04327Y01437
X04429
X04303Y01606
X04331Y01669
X04213Y01575
X04563Y01689
X04465Y01106
X04386Y00909
X04299Y00827
X04142Y00835
X03902Y00949
X04937Y01441
X04878Y01638
X04823Y0222
X0465
X04394Y02362
X04307Y02299
X04295Y02098
X04315Y01953
X04484
X04374Y01811
X04059Y01803
X04114Y01886
X04161Y02055
X03913Y02102
X03823Y02039
X03827Y01937
X03764Y0189
X03717Y01768
X0372Y02161
X03661Y02236
X03549Y02278
X03445Y02181
X03409Y02028
X03421Y01941
X03386Y02476
X03453Y02531
X03508Y02579
X03551Y02634
X03555Y02709
X03661Y0278
X03665Y0261
X03744Y02657
X03835Y02642
X03799Y02945
X04091Y0278
X04142Y02398
X0361Y0248
X03303Y02823
X03992Y03217
X04303Y03059
X03205Y03008
X02815Y02965
X02677Y03051
X02689Y02732
X02665Y0265
X02614Y02701
X02748Y02677
X03067Y02705
X03181Y02539
X03268Y02531
X0302Y02406
X02669Y02378
X02732Y02224
X02787Y0215
X02591Y02102
X02598Y02024
X02587Y01937
X02594Y01858
X02831Y01756
X02929Y02028
X03272Y02012
X03224Y02122
X03197Y02201
X02524Y02142
X01949Y02122
X02039Y02311
X01886Y02622
X01752Y02618
X01965Y02776
X0237Y02736
X02429Y02787
X02457Y03165
X02209Y03276
X01882
X03031Y03303
X01783Y0176
X01583Y02047
X01575Y02213
X01512Y02335
X01295Y02626
X01173Y02772
X01469Y02835
X01555
X01654Y02902
X0163Y03028
X01488Y0302
X01051Y03205
X0072Y03059
X00555
X00736Y02811
X00756Y02484
X00453Y02382
X00256
X00555Y03374
X00496Y03949
Y04146
X01126Y03949
Y03685
X01874Y03693
X02197Y03697
X02921Y03854
X03181Y03634
X03531Y03689
X04992Y03787
Y03984
T02
X01685Y00894
Y00941
X01736
X01783
Y00894
X01736
X00433Y02878
Y02921
Y02965
Y03008
X00378
Y02965
Y02921
Y02878
X00327
Y02921
Y02965
Y03008
X00315Y03177
Y0322
Y03264
Y03307
X00366
Y03264
Y0322
Y03177
X00421
Y0322
Y03264
Y03307
X00902Y04043
X00945
X00988
X01031
Y04094
X00988
X00945
X00902
Y0415
X00945
X00988
X01031
X01685Y03925
Y0387
Y03819
X01728
X01772
X01815
Y0387
X01772
X01728
Y03925
X01772
X01815
X02008
X02051
X02094
X02138
Y0387
X02094
X02051
X02008
Y03819
X02051
X02094
X02138
X02807
Y03862
Y03906
X02858
Y03862
Y03819
Y03776
X02807
X03346Y03823
X0339
X03433
X03476
Y03874
X03433
X0339
X03346
Y03929
X0339
X03433
X03476
X03638Y03933
X03681
X03724
X03768
Y03878
X03724
X03681
X03638
Y03827
X03681
X03724
X03768
X04496Y04039
X04539
X04583
X04626
Y04091
X04583
X04539
X04496
Y04146
X04539
X04583
X04626
T03
X04933Y00078
X04833
X04733
X04633
X04496
X04396
X04296
X04196
Y00378
X04296
X04396
X04496
X04633
X04733
X04833
X04581Y01587
X04481
X04933Y00378
X03415Y02646
X03215
X01074Y02409
X00974
T04
X00756Y01504
X00874
X04409Y00689
X04509
X04609
X04709
X04809
X04909
X05009
X05109
X05209
X05098Y01618
Y01718
X04998
Y01618
Y01818
Y01918
Y02018
X05098
Y01918
Y01818
X04945Y02502
Y026
X04964Y03166
Y03265
X04346Y02925
X04228
X04539Y02545
Y02447
Y02348
Y0225
Y02152
Y02053
X01409Y02906
X01291
X00354Y03533
Y03632
X04964Y03363
T05
X00756Y01106
X00874
X01157Y01492
X01276
X0135Y00799
X0029Y01671
X01894Y01539
X02012
X02213Y01476
X02268Y01157
X02567Y0111
X02488Y01594
X03098Y01193
X03516Y01264
X03839Y0113
X04102Y01268
X04374Y0113
X05122Y02299
X05165Y03024
X04531Y03075
X03902Y03142
X03488Y03134
X04713Y01799
X0213Y01787
X01929Y01807
X02256Y02945
X02898Y02913
X01193Y02984
X00913Y03118
X00622Y02709
X00691Y01965
X00474
X01244Y02248
X01264Y03661
X00906Y03402
X02354Y03406
X02516Y03433
X04205Y03693
X04748Y03512
T06
X0049Y00924
X00489Y01025
X0049Y01127
Y01468
X00489Y01569
X0049Y01671
T07
X00394Y00224
X00591
X0084
X01037
X01286
X01483
X01732
X01929
X02178
X02375
X02625
X02822
X03071
X03268
X03539Y0022
X03736
X03933
X03071Y04228
X02874
X02618
X02421
T08
X05201Y00118
X00118Y00118
X05118Y01181
X00122Y04406
X05201Y04406
M30
