%FSLAX24Y24*%
%MOIN*%
G70*
G01*
G75*
G04 Layer_Color=32896*
%ADD10O,0.0110X0.0866*%
%ADD11R,0.0110X0.0866*%
%ADD12R,0.0866X0.0110*%
%ADD13R,0.0787X0.0394*%
%ADD14R,0.0472X0.0709*%
%ADD15R,0.0591X0.0472*%
%ADD16R,0.0512X0.0433*%
%ADD17R,0.0591X0.0433*%
%ADD18R,0.0472X0.0906*%
%ADD19R,0.1575X0.0866*%
%ADD20R,0.2165X0.1772*%
%ADD21R,0.0236X0.0591*%
%ADD22O,0.0236X0.0591*%
%ADD23R,0.0433X0.0591*%
%ADD24O,0.0236X0.0787*%
%ADD25R,0.0236X0.0787*%
%ADD26R,0.0591X0.0787*%
%ADD27R,0.0787X0.0591*%
%ADD28R,0.0709X0.0472*%
%ADD29O,0.0591X0.0236*%
%ADD30R,0.0591X0.0236*%
%ADD31R,0.1772X0.2165*%
%ADD32R,0.0394X0.0787*%
%ADD33R,0.0787X0.1575*%
%ADD34R,0.0472X0.0591*%
%ADD35R,0.0433X0.0512*%
%ADD36R,0.0787X0.0236*%
%ADD37O,0.0787X0.0236*%
%ADD38R,0.0315X0.0335*%
%ADD39C,0.0157*%
%ADD40C,0.0098*%
%ADD41C,0.0394*%
%ADD42C,0.0079*%
%ADD43C,0.0197*%
%ADD44C,0.0236*%
%ADD45C,0.0118*%
%ADD46C,0.0138*%
%ADD47C,0.0100*%
%ADD48R,0.1339X0.1063*%
%ADD49R,0.3071X0.1772*%
%ADD50R,0.1299X0.1535*%
%ADD51R,0.1575X0.1417*%
%ADD52R,0.0193X0.0151*%
%ADD53R,0.1116X0.0604*%
%ADD54R,0.1063X0.0906*%
%ADD55R,0.0512X0.0157*%
%ADD56C,0.1181*%
%ADD57C,0.0600*%
%ADD58C,0.0709*%
%ADD59C,0.0787*%
%ADD60R,0.0787X0.0787*%
%ADD61R,0.1181X0.0669*%
%ADD62O,0.1181X0.0669*%
%ADD63C,0.0591*%
%ADD64R,0.0591X0.0591*%
%ADD65R,0.0984X0.0984*%
%ADD66C,0.0984*%
%ADD67R,0.0472X0.0984*%
%ADD68O,0.0472X0.0984*%
%ADD69C,0.0669*%
%ADD70R,0.0669X0.0669*%
%ADD71R,0.0591X0.0591*%
%ADD72R,0.0787X0.0787*%
%ADD73C,0.0500*%
%ADD74C,0.0787*%
%ADD75R,0.4213X0.3504*%
%ADD76R,0.7165X0.3189*%
%ADD77R,0.1732X0.1811*%
%ADD78R,0.2795X0.6811*%
%ADD79C,0.0039*%
%ADD80C,0.0102*%
%ADD81C,0.0080*%
%ADD82R,5.3228X0.0551*%
D45*
X36460Y19446D02*
X37330D01*
X36460Y21116D02*
X37330D01*
X36460Y20726D02*
Y21116D01*
X37330Y20726D02*
Y21116D01*
X36460Y19446D02*
Y19836D01*
X37330Y19446D02*
Y19836D01*
X42631Y8074D02*
X43501D01*
X42631Y6404D02*
X43501D01*
Y6794D01*
X42631Y6404D02*
Y6794D01*
X43501Y7684D02*
Y8074D01*
X42631Y7684D02*
Y8074D01*
X19836Y10358D02*
X20706D01*
X19836Y8688D02*
X20706D01*
Y9078D01*
X19836Y8688D02*
Y9078D01*
X20706Y9968D02*
Y10358D01*
X19836Y9968D02*
Y10358D01*
X13355Y5601D02*
Y6741D01*
X5794Y12802D02*
X6184D01*
X5794Y11932D02*
X6184D01*
X4514Y12802D02*
X4904D01*
X4514Y11932D02*
X4904D01*
X4514D02*
Y12802D01*
X6184Y11932D02*
Y12802D01*
X7320Y11568D02*
X7710D01*
X7320Y12438D02*
X7710D01*
X8600Y11568D02*
X8990D01*
X8600Y12438D02*
X8990D01*
Y11568D02*
Y12438D01*
X7320Y11568D02*
Y12438D01*
Y15623D02*
X7710D01*
X7320Y16493D02*
X7710D01*
X8600Y15623D02*
X8990D01*
X8600Y16493D02*
X8990D01*
Y15623D02*
Y16493D01*
X7320Y15623D02*
Y16493D01*
X11375Y15466D02*
X11765D01*
X11375Y16336D02*
X11765D01*
X12655Y15466D02*
X13045D01*
X12655Y16336D02*
X13045D01*
Y15466D02*
Y16336D01*
X11375Y15466D02*
Y16336D01*
X9564Y17001D02*
X9954D01*
X9564Y17871D02*
X9954D01*
X10844Y17001D02*
X11234D01*
X10844Y17871D02*
X11234D01*
Y17001D02*
Y17871D01*
X9564Y17001D02*
Y17871D01*
X3983Y25283D02*
X4373D01*
X3983Y24413D02*
X4373D01*
X2703Y25283D02*
X3093D01*
X2703Y24413D02*
X3093D01*
X2703D02*
Y25283D01*
X4373Y24413D02*
Y25283D01*
X13944Y28511D02*
X14334D01*
X13944Y27641D02*
X14334D01*
X12664Y28511D02*
X13054D01*
X12664Y27641D02*
X13054D01*
X12664D02*
Y28511D01*
X14334Y27641D02*
Y28511D01*
X43314Y28747D02*
X43704D01*
X43314Y27877D02*
X43704D01*
X42034Y28747D02*
X42424D01*
X42034Y27877D02*
X42424D01*
X42034D02*
Y28747D01*
X43704Y27877D02*
Y28747D01*
X29993Y34810D02*
Y35200D01*
X30863Y34810D02*
Y35200D01*
X29993Y33530D02*
Y33920D01*
X30863Y33530D02*
Y33920D01*
X29993Y33530D02*
X30863D01*
X29993Y35200D02*
X30863D01*
X49642Y23969D02*
X50032D01*
X49642Y24839D02*
X50032D01*
X50922Y23969D02*
X51312D01*
X50922Y24839D02*
X51312D01*
Y23969D02*
Y24839D01*
X49642Y23969D02*
Y24839D01*
X11690Y9088D02*
X12080D01*
X11690Y9958D02*
X12080D01*
X12970Y9088D02*
X13360D01*
X12970Y9958D02*
X13360D01*
Y9088D02*
Y9958D01*
X11690Y9088D02*
Y9958D01*
X50190Y33275D02*
Y33665D01*
X51060Y33275D02*
Y33665D01*
X50190Y31995D02*
Y32385D01*
X51060Y31995D02*
Y32385D01*
X50190Y31995D02*
X51060D01*
X50190Y33665D02*
X51060D01*
X31621Y5981D02*
Y6371D01*
X30751Y5981D02*
Y6371D01*
X31621Y7261D02*
Y7651D01*
X30751Y7261D02*
Y7651D01*
X31621D01*
X30751Y5981D02*
X31621D01*
X24918Y8891D02*
X25308D01*
X24918Y9761D02*
X25308D01*
X26198Y8891D02*
X26588D01*
X26198Y9761D02*
X26588D01*
Y8891D02*
Y9761D01*
X24918Y8891D02*
Y9761D01*
X29534Y9327D02*
Y9717D01*
X28664Y9327D02*
Y9717D01*
X29534Y10607D02*
Y10997D01*
X28664Y10607D02*
Y10997D01*
X29534D01*
X28664Y9327D02*
X29534D01*
X33826Y10834D02*
X34216D01*
X33826Y9964D02*
X34216D01*
X32546Y10834D02*
X32936D01*
X32546Y9964D02*
X32936D01*
X32546D02*
Y10834D01*
X34216Y9964D02*
Y10834D01*
X40755Y9889D02*
X41145D01*
X40755Y9019D02*
X41145D01*
X39475Y9889D02*
X39865D01*
X39475Y9019D02*
X39865D01*
X39475D02*
Y9889D01*
X41145Y9019D02*
Y9889D01*
X18737Y15899D02*
X19127D01*
X18737Y16769D02*
X19127D01*
X20017Y15899D02*
X20407D01*
X20017Y16769D02*
X20407D01*
Y15899D02*
Y16769D01*
X18737Y15899D02*
Y16769D01*
X16217Y21371D02*
X16607D01*
X16217Y22241D02*
X16607D01*
X17497Y21371D02*
X17887D01*
X17497Y22241D02*
X17887D01*
Y21371D02*
Y22241D01*
X16217Y21371D02*
Y22241D01*
X32320Y18969D02*
X32710D01*
X32320Y19839D02*
X32710D01*
X33600Y18969D02*
X33990D01*
X33600Y19839D02*
X33990D01*
Y18969D02*
Y19839D01*
X32320Y18969D02*
Y19839D01*
X32241Y21568D02*
X32631D01*
X32241Y22438D02*
X32631D01*
X33521Y21568D02*
X33911D01*
X33521Y22438D02*
X33911D01*
Y21568D02*
Y22438D01*
X32241Y21568D02*
Y22438D01*
X35086Y19761D02*
Y20151D01*
X34216Y19761D02*
Y20151D01*
X35086Y21041D02*
Y21431D01*
X34216Y21041D02*
Y21431D01*
X35086D01*
X34216Y19761D02*
X35086D01*
X32054D02*
Y20151D01*
X31184Y19761D02*
Y20151D01*
X32054Y21041D02*
Y21431D01*
X31184Y21041D02*
Y21431D01*
X32054D01*
X31184Y19761D02*
X32054D01*
X45859Y24338D02*
Y24728D01*
X46729Y24338D02*
Y24728D01*
X45859Y23058D02*
Y23448D01*
X46729Y23058D02*
Y23448D01*
X45859Y23058D02*
X46729D01*
X45859Y24728D02*
X46729D01*
X49682Y20741D02*
X50072D01*
X49682Y21611D02*
X50072D01*
X50962Y20741D02*
X51352D01*
X50962Y21611D02*
X51352D01*
Y20741D02*
Y21611D01*
X49682Y20741D02*
Y21611D01*
X49338Y37950D02*
Y38340D01*
X48468Y37950D02*
Y38340D01*
X49338Y39230D02*
Y39620D01*
X48468Y39230D02*
Y39620D01*
X49338D01*
X48468Y37950D02*
X49338D01*
X6542Y39603D02*
Y39993D01*
X5672Y39603D02*
Y39993D01*
X6542Y40883D02*
Y41273D01*
X5672Y40883D02*
Y41273D01*
X6542D01*
X5672Y39603D02*
X6542D01*
X44889Y24013D02*
Y24403D01*
X44019Y24013D02*
Y24403D01*
X44889Y25293D02*
Y25683D01*
X44019Y25293D02*
Y25683D01*
X44889D01*
X44019Y24013D02*
X44889D01*
D47*
X14845Y6621D02*
Y6761D01*
X14825Y5591D02*
Y5731D01*
X12745Y6631D02*
Y6761D01*
Y5591D02*
Y5721D01*
Y5591D02*
X14825D01*
X12745Y6761D02*
X14845D01*
X37021Y19108D02*
X37087Y19173D01*
X37218D01*
X37283Y19108D01*
Y18845D01*
X37218Y18780D01*
X37087D01*
X37021Y18845D01*
X36628Y19173D02*
X36890D01*
Y18976D01*
X36759Y19042D01*
X36693D01*
X36628Y18976D01*
Y18845D01*
X36693Y18780D01*
X36824D01*
X36890Y18845D01*
X36496Y18780D02*
X36365D01*
X36431D01*
Y19173D01*
X36496Y19108D01*
X43399Y6155D02*
X43465Y6220D01*
X43596D01*
X43661Y6155D01*
Y5892D01*
X43596Y5827D01*
X43465D01*
X43399Y5892D01*
X43268Y6155D02*
X43202Y6220D01*
X43071D01*
X43005Y6155D01*
Y6089D01*
X43071Y6024D01*
X43137D01*
X43071D01*
X43005Y5958D01*
Y5892D01*
X43071Y5827D01*
X43202D01*
X43268Y5892D01*
X42612Y5827D02*
X42874D01*
X42612Y6089D01*
Y6155D01*
X42677Y6220D01*
X42809D01*
X42874Y6155D01*
X20446Y8399D02*
X20512Y8464D01*
X20643D01*
X20709Y8399D01*
Y8136D01*
X20643Y8071D01*
X20512D01*
X20446Y8136D01*
X20315Y8399D02*
X20249Y8464D01*
X20118D01*
X20053Y8399D01*
Y8333D01*
X20118Y8268D01*
X20184D01*
X20118D01*
X20053Y8202D01*
Y8136D01*
X20118Y8071D01*
X20249D01*
X20315Y8136D01*
X19725Y8071D02*
Y8464D01*
X19922Y8268D01*
X19659D01*
X14291Y5394D02*
Y5000D01*
X14095D01*
X14029Y5066D01*
Y5328D01*
X14095Y5394D01*
X14291D01*
X13898Y5000D02*
X13767D01*
X13832D01*
Y5394D01*
X13898Y5328D01*
X13307Y5394D02*
X13439Y5328D01*
X13570Y5197D01*
Y5066D01*
X13504Y5000D01*
X13373D01*
X13307Y5066D01*
Y5131D01*
X13373Y5197D01*
X13570D01*
X8202Y12808D02*
X8268Y12874D01*
X8399D01*
X8465Y12808D01*
Y12546D01*
X8399Y12480D01*
X8268D01*
X8202Y12546D01*
X7809Y12480D02*
X8071D01*
X7809Y12743D01*
Y12808D01*
X7874Y12874D01*
X8005D01*
X8071Y12808D01*
X5446Y13241D02*
X5512Y13307D01*
X5643D01*
X5709Y13241D01*
Y12979D01*
X5643Y12913D01*
X5512D01*
X5446Y12979D01*
X5118Y12913D02*
Y13307D01*
X5315Y13110D01*
X5053D01*
X8202Y16903D02*
X8268Y16968D01*
X8399D01*
X8465Y16903D01*
Y16640D01*
X8399Y16575D01*
X8268D01*
X8202Y16640D01*
X7809Y16968D02*
X8071D01*
Y16772D01*
X7940Y16837D01*
X7874D01*
X7809Y16772D01*
Y16640D01*
X7874Y16575D01*
X8005D01*
X8071Y16640D01*
X10446Y18241D02*
X10512Y18307D01*
X10643D01*
X10709Y18241D01*
Y17979D01*
X10643Y17913D01*
X10512D01*
X10446Y17979D01*
X10053Y18307D02*
X10184Y18241D01*
X10315Y18110D01*
Y17979D01*
X10249Y17913D01*
X10118D01*
X10053Y17979D01*
Y18045D01*
X10118Y18110D01*
X10315D01*
X12297Y16706D02*
X12362Y16772D01*
X12493D01*
X12559Y16706D01*
Y16444D01*
X12493Y16378D01*
X12362D01*
X12297Y16444D01*
X12165Y16706D02*
X12100Y16772D01*
X11969D01*
X11903Y16706D01*
Y16640D01*
X11969Y16575D01*
X11903Y16509D01*
Y16444D01*
X11969Y16378D01*
X12100D01*
X12165Y16444D01*
Y16509D01*
X12100Y16575D01*
X12165Y16640D01*
Y16706D01*
X12100Y16575D02*
X11969D01*
X17297Y22730D02*
X17362Y22795D01*
X17493D01*
X17559Y22730D01*
Y22467D01*
X17493Y22402D01*
X17362D01*
X17297Y22467D01*
X17165Y22402D02*
X17034D01*
X17100D01*
Y22795D01*
X17165Y22730D01*
X16838D02*
X16772Y22795D01*
X16641D01*
X16575Y22730D01*
Y22467D01*
X16641Y22402D01*
X16772D01*
X16838Y22467D01*
Y22730D01*
X3714Y25879D02*
X3780Y25945D01*
X3911D01*
X3976Y25879D01*
Y25617D01*
X3911Y25551D01*
X3780D01*
X3714Y25617D01*
X3583Y25551D02*
X3452D01*
X3517D01*
Y25945D01*
X3583Y25879D01*
X2992Y25945D02*
X3255D01*
Y25748D01*
X3124Y25814D01*
X3058D01*
X2992Y25748D01*
Y25617D01*
X3058Y25551D01*
X3189D01*
X3255Y25617D01*
X49037Y40305D02*
X49103Y40371D01*
X49234D01*
X49300Y40305D01*
Y40043D01*
X49234Y39977D01*
X49103D01*
X49037Y40043D01*
X48906Y39977D02*
X48775D01*
X48840D01*
Y40371D01*
X48906Y40305D01*
X48578Y40371D02*
X48316D01*
Y40305D01*
X48578Y40043D01*
Y39977D01*
X6244Y41958D02*
X6309Y42024D01*
X6441D01*
X6506Y41958D01*
Y41696D01*
X6441Y41630D01*
X6309D01*
X6244Y41696D01*
X6113Y41630D02*
X5981D01*
X6047D01*
Y42024D01*
X6113Y41958D01*
X5785Y41696D02*
X5719Y41630D01*
X5588D01*
X5522Y41696D01*
Y41958D01*
X5588Y42024D01*
X5719D01*
X5785Y41958D01*
Y41892D01*
X5719Y41827D01*
X5522D01*
X13793Y27336D02*
X13858Y27401D01*
X13990D01*
X14055Y27336D01*
Y27073D01*
X13990Y27008D01*
X13858D01*
X13793Y27073D01*
X13399Y27008D02*
X13662D01*
X13399Y27270D01*
Y27336D01*
X13465Y27401D01*
X13596D01*
X13662Y27336D01*
X13006Y27008D02*
X13268D01*
X13006Y27270D01*
Y27336D01*
X13071Y27401D01*
X13202D01*
X13268Y27336D01*
X43163Y27690D02*
X43228Y27756D01*
X43360D01*
X43425Y27690D01*
Y27428D01*
X43360Y27362D01*
X43228D01*
X43163Y27428D01*
X42769Y27362D02*
X43032D01*
X42769Y27625D01*
Y27690D01*
X42835Y27756D01*
X42966D01*
X43032Y27690D01*
X42441Y27362D02*
Y27756D01*
X42638Y27559D01*
X42376D01*
X30761Y35722D02*
X30827Y35787D01*
X30958D01*
X31024Y35722D01*
Y35459D01*
X30958Y35394D01*
X30827D01*
X30761Y35459D01*
X30368Y35394D02*
X30630D01*
X30368Y35656D01*
Y35722D01*
X30433Y35787D01*
X30564D01*
X30630Y35722D01*
X29974Y35787D02*
X30105Y35722D01*
X30236Y35590D01*
Y35459D01*
X30171Y35394D01*
X30040D01*
X29974Y35459D01*
Y35525D01*
X30040Y35590D01*
X30236D01*
X50761Y34354D02*
X50827Y34420D01*
X50958D01*
X51024Y34354D01*
Y34092D01*
X50958Y34026D01*
X50827D01*
X50761Y34092D01*
X50368Y34026D02*
X50630D01*
X50368Y34289D01*
Y34354D01*
X50433Y34420D01*
X50565D01*
X50630Y34354D01*
X50237D02*
X50171Y34420D01*
X50040D01*
X49974Y34354D01*
Y34289D01*
X50040Y34223D01*
X49974Y34157D01*
Y34092D01*
X50040Y34026D01*
X50171D01*
X50237Y34092D01*
Y34157D01*
X50171Y34223D01*
X50237Y34289D01*
Y34354D01*
X50171Y34223D02*
X50040D01*
X31431Y5722D02*
X31496Y5787D01*
X31627D01*
X31693Y5722D01*
Y5459D01*
X31627Y5394D01*
X31496D01*
X31431Y5459D01*
X31037Y5394D02*
X31299D01*
X31037Y5656D01*
Y5722D01*
X31103Y5787D01*
X31234D01*
X31299Y5722D01*
X30906Y5459D02*
X30840Y5394D01*
X30709D01*
X30643Y5459D01*
Y5722D01*
X30709Y5787D01*
X30840D01*
X30906Y5722D01*
Y5656D01*
X30840Y5590D01*
X30643D01*
X50761Y25367D02*
X50827Y25433D01*
X50958D01*
X51024Y25367D01*
Y25105D01*
X50958Y25039D01*
X50827D01*
X50761Y25105D01*
X50630Y25367D02*
X50564Y25433D01*
X50433D01*
X50368Y25367D01*
Y25302D01*
X50433Y25236D01*
X50499D01*
X50433D01*
X50368Y25171D01*
Y25105D01*
X50433Y25039D01*
X50564D01*
X50630Y25105D01*
X50236Y25367D02*
X50171Y25433D01*
X50040D01*
X49974Y25367D01*
Y25105D01*
X50040Y25039D01*
X50171D01*
X50236Y25105D01*
Y25367D01*
X12690Y10564D02*
X12756Y10630D01*
X12887D01*
X12953Y10564D01*
Y10302D01*
X12887Y10236D01*
X12756D01*
X12690Y10302D01*
X12559Y10564D02*
X12494Y10630D01*
X12362D01*
X12297Y10564D01*
Y10499D01*
X12362Y10433D01*
X12428D01*
X12362D01*
X12297Y10367D01*
Y10302D01*
X12362Y10236D01*
X12494D01*
X12559Y10302D01*
X12166Y10236D02*
X12034D01*
X12100D01*
Y10630D01*
X12166Y10564D01*
X25368Y10328D02*
X25433Y10394D01*
X25564D01*
X25630Y10328D01*
Y10066D01*
X25564Y10000D01*
X25433D01*
X25368Y10066D01*
X25236Y10328D02*
X25171Y10394D01*
X25040D01*
X24974Y10328D01*
Y10262D01*
X25040Y10197D01*
X25105D01*
X25040D01*
X24974Y10131D01*
Y10066D01*
X25040Y10000D01*
X25171D01*
X25236Y10066D01*
X24843Y10328D02*
X24777Y10394D01*
X24646D01*
X24580Y10328D01*
Y10262D01*
X24646Y10197D01*
X24712D01*
X24646D01*
X24580Y10131D01*
Y10066D01*
X24646Y10000D01*
X24777D01*
X24843Y10066D01*
X29234Y11688D02*
X29299Y11753D01*
X29431D01*
X29496Y11688D01*
Y11426D01*
X29431Y11360D01*
X29299D01*
X29234Y11426D01*
X29103Y11688D02*
X29037Y11753D01*
X28906D01*
X28840Y11688D01*
Y11622D01*
X28906Y11557D01*
X28971D01*
X28906D01*
X28840Y11491D01*
Y11426D01*
X28906Y11360D01*
X29037D01*
X29103Y11426D01*
X28447Y11753D02*
X28709D01*
Y11557D01*
X28578Y11622D01*
X28512D01*
X28447Y11557D01*
Y11426D01*
X28512Y11360D01*
X28643D01*
X28709Y11426D01*
X33635Y11352D02*
X33701Y11417D01*
X33832D01*
X33898Y11352D01*
Y11089D01*
X33832Y11024D01*
X33701D01*
X33635Y11089D01*
X33504Y11352D02*
X33438Y11417D01*
X33307D01*
X33242Y11352D01*
Y11286D01*
X33307Y11220D01*
X33373D01*
X33307D01*
X33242Y11155D01*
Y11089D01*
X33307Y11024D01*
X33438D01*
X33504Y11089D01*
X32848Y11417D02*
X32979Y11352D01*
X33110Y11220D01*
Y11089D01*
X33045Y11024D01*
X32914D01*
X32848Y11089D01*
Y11155D01*
X32914Y11220D01*
X33110D01*
X50683Y22139D02*
X50748Y22205D01*
X50879D01*
X50945Y22139D01*
Y21877D01*
X50879Y21811D01*
X50748D01*
X50683Y21877D01*
X50551Y22139D02*
X50486Y22205D01*
X50355D01*
X50289Y22139D01*
Y22073D01*
X50355Y22008D01*
X50420D01*
X50355D01*
X50289Y21942D01*
Y21877D01*
X50355Y21811D01*
X50486D01*
X50551Y21877D01*
X50158D02*
X50092Y21811D01*
X49961D01*
X49895Y21877D01*
Y22139D01*
X49961Y22205D01*
X50092D01*
X50158Y22139D01*
Y22073D01*
X50092Y22008D01*
X49895D01*
X40525Y10289D02*
X40591Y10354D01*
X40722D01*
X40787Y10289D01*
Y10026D01*
X40722Y9961D01*
X40591D01*
X40525Y10026D01*
X40197Y9961D02*
Y10354D01*
X40394Y10157D01*
X40131D01*
X40000Y10289D02*
X39935Y10354D01*
X39803D01*
X39738Y10289D01*
Y10026D01*
X39803Y9961D01*
X39935D01*
X40000Y10026D01*
Y10289D01*
X33320Y22926D02*
X33386Y22992D01*
X33517D01*
X33583Y22926D01*
Y22664D01*
X33517Y22598D01*
X33386D01*
X33320Y22664D01*
X32992Y22598D02*
Y22992D01*
X33189Y22795D01*
X32927D01*
X32533Y22598D02*
X32796D01*
X32533Y22861D01*
Y22926D01*
X32599Y22992D01*
X32730D01*
X32796Y22926D01*
X46627Y25249D02*
X46693Y25315D01*
X46824D01*
X46890Y25249D01*
Y24987D01*
X46824Y24921D01*
X46693D01*
X46627Y24987D01*
X46299Y24921D02*
Y25315D01*
X46496Y25118D01*
X46234D01*
X46103Y25249D02*
X46037Y25315D01*
X45906D01*
X45840Y25249D01*
Y25184D01*
X45906Y25118D01*
X45971D01*
X45906D01*
X45840Y25052D01*
Y24987D01*
X45906Y24921D01*
X46037D01*
X46103Y24987D01*
X33399Y18674D02*
X33465Y18740D01*
X33596D01*
X33661Y18674D01*
Y18412D01*
X33596Y18346D01*
X33465D01*
X33399Y18412D01*
X33071Y18346D02*
Y18740D01*
X33268Y18543D01*
X33005D01*
X32677Y18346D02*
Y18740D01*
X32874Y18543D01*
X32612D01*
X35341Y20761D02*
X35276Y20827D01*
Y20958D01*
X35341Y21024D01*
X35604D01*
X35669Y20958D01*
Y20827D01*
X35604Y20761D01*
X35669Y20433D02*
X35276D01*
X35473Y20630D01*
Y20368D01*
X35276Y19974D02*
Y20236D01*
X35473D01*
X35407Y20105D01*
Y20040D01*
X35473Y19974D01*
X35604D01*
X35669Y20040D01*
Y20171D01*
X35604Y20236D01*
X44698Y26194D02*
X44764Y26260D01*
X44895D01*
X44961Y26194D01*
Y25932D01*
X44895Y25866D01*
X44764D01*
X44698Y25932D01*
X44370Y25866D02*
Y26260D01*
X44567Y26063D01*
X44305D01*
X43911Y26260D02*
X44042Y26194D01*
X44173Y26063D01*
Y25932D01*
X44108Y25866D01*
X43977D01*
X43911Y25932D01*
Y25997D01*
X43977Y26063D01*
X44173D01*
X30617Y20840D02*
X30551Y20906D01*
Y21037D01*
X30617Y21102D01*
X30879D01*
X30945Y21037D01*
Y20906D01*
X30879Y20840D01*
X30945Y20512D02*
X30551D01*
X30748Y20709D01*
Y20446D01*
X30551Y20315D02*
Y20053D01*
X30617D01*
X30879Y20315D01*
X30945D01*
X19856Y17336D02*
X19921Y17401D01*
X20053D01*
X20118Y17336D01*
Y17073D01*
X20053Y17008D01*
X19921D01*
X19856Y17073D01*
X19528Y17008D02*
Y17401D01*
X19725Y17205D01*
X19462D01*
X19331Y17073D02*
X19265Y17008D01*
X19134D01*
X19069Y17073D01*
Y17336D01*
X19134Y17401D01*
X19265D01*
X19331Y17336D01*
Y17270D01*
X19265Y17205D01*
X19069D01*
M02*
